G75*
%MOIN*%
%OFA0B0*%
%FSLAX25Y25*%
%IPPOS*%
%LPD*%
%AMOC8*
5,1,8,0,0,1.08239X$1,22.5*
%
%ADD10R,0.03937X0.00866*%
%ADD11R,0.00866X0.03937*%
%ADD12R,0.04331X0.03937*%
%ADD13R,0.03937X0.04331*%
%ADD14C,0.01181*%
%ADD15R,0.06299X0.02362*%
%ADD16R,0.06024X0.06024*%
%ADD17C,0.06024*%
%ADD18C,0.05150*%
%ADD19R,0.04134X0.04252*%
%ADD20R,0.03543X0.02756*%
%ADD21OC8,0.06000*%
%ADD22R,0.04799X0.08799*%
%ADD23R,0.14173X0.08661*%
%ADD24R,0.05118X0.06299*%
%ADD25R,0.07008X0.02835*%
%ADD26R,0.02756X0.01575*%
%ADD27R,0.07874X0.05906*%
%ADD28R,0.06102X0.02362*%
%ADD29R,0.07087X0.04724*%
%ADD30C,0.06000*%
%ADD31R,0.02362X0.02756*%
%ADD32C,0.02978*%
%ADD33C,0.00984*%
%ADD34C,0.04000*%
%ADD35C,0.03200*%
%ADD36C,0.00630*%
%ADD37C,0.02781*%
%ADD38C,0.01600*%
%ADD39C,0.06600*%
%ADD40C,0.05000*%
%ADD41C,0.00600*%
D10*
X0062430Y0091614D03*
X0062430Y0093583D03*
X0062430Y0095551D03*
X0062430Y0097520D03*
X0062430Y0099488D03*
X0062430Y0101457D03*
X0062430Y0103425D03*
X0062430Y0105394D03*
X0062430Y0107362D03*
X0062430Y0109331D03*
X0062430Y0111299D03*
X0062430Y0113268D03*
X0062430Y0115236D03*
X0062430Y0117205D03*
X0062430Y0119173D03*
X0062430Y0121142D03*
X0062430Y0182795D03*
X0062430Y0184764D03*
X0062430Y0186732D03*
X0062430Y0188701D03*
X0062430Y0190669D03*
X0062430Y0192638D03*
X0062430Y0194606D03*
X0062430Y0196575D03*
X0062430Y0198543D03*
X0062430Y0200512D03*
X0062430Y0202480D03*
X0062430Y0204449D03*
X0062430Y0206417D03*
X0062430Y0208386D03*
X0062430Y0210354D03*
X0062430Y0212323D03*
X0107706Y0212323D03*
X0107706Y0210354D03*
X0107706Y0208386D03*
X0107706Y0206417D03*
X0107706Y0204449D03*
X0107706Y0202480D03*
X0107706Y0200512D03*
X0107706Y0198543D03*
X0107706Y0196575D03*
X0107706Y0194606D03*
X0107706Y0192638D03*
X0107706Y0190669D03*
X0107706Y0188701D03*
X0107706Y0186732D03*
X0107706Y0184764D03*
X0107706Y0182795D03*
X0107706Y0121142D03*
X0107706Y0119173D03*
X0107706Y0117205D03*
X0107706Y0115236D03*
X0107706Y0113268D03*
X0107706Y0111299D03*
X0107706Y0109331D03*
X0107706Y0107362D03*
X0107706Y0105394D03*
X0107706Y0103425D03*
X0107706Y0101457D03*
X0107706Y0099488D03*
X0107706Y0097520D03*
X0107706Y0095551D03*
X0107706Y0093583D03*
X0107706Y0091614D03*
D11*
X0099831Y0083740D03*
X0097863Y0083740D03*
X0095894Y0083740D03*
X0093926Y0083740D03*
X0091957Y0083740D03*
X0089989Y0083740D03*
X0088020Y0083740D03*
X0086052Y0083740D03*
X0084083Y0083740D03*
X0082115Y0083740D03*
X0080146Y0083740D03*
X0078178Y0083740D03*
X0076209Y0083740D03*
X0074241Y0083740D03*
X0072272Y0083740D03*
X0070304Y0083740D03*
X0070304Y0129016D03*
X0072272Y0129016D03*
X0074241Y0129016D03*
X0076209Y0129016D03*
X0078178Y0129016D03*
X0080146Y0129016D03*
X0082115Y0129016D03*
X0084083Y0129016D03*
X0086052Y0129016D03*
X0088020Y0129016D03*
X0089989Y0129016D03*
X0091957Y0129016D03*
X0093926Y0129016D03*
X0095894Y0129016D03*
X0097863Y0129016D03*
X0099831Y0129016D03*
X0099831Y0174921D03*
X0097863Y0174921D03*
X0095894Y0174921D03*
X0093926Y0174921D03*
X0091957Y0174921D03*
X0089989Y0174921D03*
X0088020Y0174921D03*
X0086052Y0174921D03*
X0084083Y0174921D03*
X0082115Y0174921D03*
X0080146Y0174921D03*
X0078178Y0174921D03*
X0076209Y0174921D03*
X0074241Y0174921D03*
X0072272Y0174921D03*
X0070304Y0174921D03*
X0070304Y0220197D03*
X0072272Y0220197D03*
X0074241Y0220197D03*
X0076209Y0220197D03*
X0078178Y0220197D03*
X0080146Y0220197D03*
X0082115Y0220197D03*
X0084083Y0220197D03*
X0086052Y0220197D03*
X0088020Y0220197D03*
X0089989Y0220197D03*
X0091957Y0220197D03*
X0093926Y0220197D03*
X0095894Y0220197D03*
X0097863Y0220197D03*
X0099831Y0220197D03*
D12*
X0064320Y0167244D03*
X0057627Y0167244D03*
X0045343Y0171220D03*
X0038650Y0171220D03*
X0084950Y0166850D03*
X0084950Y0160157D03*
X0046564Y0085984D03*
X0039871Y0085984D03*
X0090461Y0075630D03*
X0090461Y0068937D03*
D13*
X0100304Y0069567D03*
X0100304Y0076260D03*
X0074320Y0057362D03*
X0074320Y0050669D03*
X0072666Y0068819D03*
X0072666Y0075512D03*
X0054477Y0101929D03*
X0054477Y0108622D03*
X0055698Y0133543D03*
X0055698Y0140236D03*
X0063493Y0140236D03*
X0063493Y0133543D03*
X0096052Y0160709D03*
X0096052Y0167402D03*
X0105186Y0140945D03*
X0105186Y0134252D03*
X0050855Y0192008D03*
X0050855Y0198701D03*
X0054517Y0223031D03*
X0054517Y0229724D03*
X0062942Y0229764D03*
X0062942Y0223071D03*
X0108926Y0225906D03*
X0108926Y0219213D03*
X0130186Y0251654D03*
X0130186Y0258346D03*
D14*
X0079517Y0165342D02*
X0076761Y0165342D01*
X0076761Y0168098D01*
X0079517Y0168098D01*
X0079517Y0165342D01*
X0079517Y0166464D02*
X0076761Y0166464D01*
X0076761Y0167586D02*
X0079517Y0167586D01*
X0079517Y0158437D02*
X0076761Y0158437D01*
X0076761Y0161193D01*
X0079517Y0161193D01*
X0079517Y0158437D01*
X0079517Y0159559D02*
X0076761Y0159559D01*
X0076761Y0160681D02*
X0079517Y0160681D01*
X0082824Y0074358D02*
X0085580Y0074358D01*
X0082824Y0074358D02*
X0082824Y0077114D01*
X0085580Y0077114D01*
X0085580Y0074358D01*
X0085580Y0075480D02*
X0082824Y0075480D01*
X0082824Y0076602D02*
X0085580Y0076602D01*
X0085580Y0067453D02*
X0082824Y0067453D01*
X0082824Y0070209D01*
X0085580Y0070209D01*
X0085580Y0067453D01*
X0085580Y0068575D02*
X0082824Y0068575D01*
X0082824Y0069697D02*
X0085580Y0069697D01*
D15*
X0052863Y0117638D03*
X0052863Y0122362D03*
X0052863Y0127087D03*
X0052233Y0206772D03*
X0052233Y0211496D03*
X0052233Y0216220D03*
D16*
X0054910Y0045000D03*
D17*
X0054910Y0056811D03*
X0043099Y0056811D03*
X0043099Y0045000D03*
D18*
X0122981Y0044449D03*
X0122981Y0054449D03*
X0122981Y0034449D03*
X0122981Y0024449D03*
X0122981Y0083150D03*
X0122981Y0093150D03*
X0122981Y0103150D03*
X0122981Y0113150D03*
X0122981Y0142559D03*
X0122981Y0152559D03*
X0122981Y0162559D03*
X0122981Y0172559D03*
X0122981Y0202598D03*
X0122981Y0212598D03*
X0122981Y0222598D03*
X0122981Y0232598D03*
D19*
X0143513Y0244409D03*
X0150402Y0244409D03*
X0157450Y0244213D03*
X0164339Y0244213D03*
X0164300Y0215197D03*
X0157410Y0215197D03*
X0137253Y0191142D03*
X0130363Y0191142D03*
X0143080Y0183937D03*
X0149969Y0183937D03*
X0156583Y0184094D03*
X0163473Y0184094D03*
X0164930Y0155787D03*
X0158040Y0155787D03*
X0155442Y0127047D03*
X0149654Y0126614D03*
X0142765Y0126614D03*
X0136623Y0131654D03*
X0129733Y0131654D03*
X0156505Y0097165D03*
X0163394Y0097165D03*
X0163080Y0068189D03*
X0156190Y0068189D03*
X0150835Y0068031D03*
X0143946Y0068031D03*
X0136190Y0071535D03*
X0129300Y0071535D03*
X0156859Y0040433D03*
X0163749Y0040433D03*
X0136308Y0013583D03*
X0129418Y0013583D03*
X0162331Y0127047D03*
D20*
X0173020Y0140079D03*
X0173020Y0145197D03*
X0172391Y0199488D03*
X0172391Y0204606D03*
X0171131Y0083701D03*
X0171131Y0078583D03*
X0172036Y0029921D03*
X0172036Y0024803D03*
D21*
X0020580Y0037953D03*
X0020580Y0047953D03*
X0020580Y0057953D03*
X0020580Y0067953D03*
X0020580Y0077953D03*
X0020580Y0087953D03*
X0020580Y0097953D03*
X0020580Y0107953D03*
X0020580Y0117953D03*
X0020580Y0127953D03*
X0020580Y0137953D03*
X0020580Y0147953D03*
X0020580Y0157953D03*
X0020580Y0167953D03*
X0020580Y0177953D03*
X0020580Y0187953D03*
X0020580Y0197953D03*
X0020580Y0207953D03*
X0020580Y0217953D03*
X0020580Y0227953D03*
X0010580Y0227953D03*
X0010580Y0217953D03*
X0010580Y0207953D03*
X0010580Y0197953D03*
X0010580Y0187953D03*
X0010580Y0177953D03*
X0010580Y0167953D03*
X0010580Y0157953D03*
X0010580Y0147953D03*
X0010580Y0137953D03*
X0010580Y0127953D03*
X0010580Y0117953D03*
X0010580Y0107953D03*
X0010580Y0097953D03*
X0010580Y0087953D03*
X0010580Y0077953D03*
X0010580Y0067953D03*
X0010580Y0057953D03*
X0010580Y0047953D03*
X0010580Y0037953D03*
D22*
X0074709Y0043854D03*
X0083808Y0043854D03*
X0092906Y0043854D03*
D23*
X0083808Y0019453D03*
D24*
X0088296Y0052835D03*
X0096170Y0052835D03*
D25*
X0143847Y0052343D03*
X0143847Y0057343D03*
X0143847Y0062343D03*
X0143178Y0075886D03*
X0143178Y0080886D03*
X0143178Y0085886D03*
X0143178Y0090886D03*
X0142863Y0105413D03*
X0142863Y0110413D03*
X0142863Y0115413D03*
X0142863Y0120413D03*
X0144792Y0135768D03*
X0144792Y0140768D03*
X0144792Y0145768D03*
X0144792Y0150768D03*
X0144477Y0162854D03*
X0144477Y0167854D03*
X0144477Y0172854D03*
X0144477Y0177854D03*
X0144162Y0195177D03*
X0144162Y0200177D03*
X0144162Y0205177D03*
X0144162Y0210177D03*
X0143493Y0223720D03*
X0143493Y0228720D03*
X0143493Y0233720D03*
X0143493Y0238720D03*
X0161997Y0238720D03*
X0161997Y0233720D03*
X0161997Y0228720D03*
X0161997Y0223720D03*
X0162666Y0210177D03*
X0162666Y0205177D03*
X0162666Y0200177D03*
X0162666Y0195177D03*
X0162981Y0177854D03*
X0162981Y0172854D03*
X0162981Y0167854D03*
X0162981Y0162854D03*
X0163296Y0150768D03*
X0163296Y0145768D03*
X0163296Y0140768D03*
X0163296Y0135768D03*
X0161367Y0120413D03*
X0161367Y0115413D03*
X0161367Y0110413D03*
X0161367Y0105413D03*
X0161682Y0090886D03*
X0161682Y0085886D03*
X0161682Y0080886D03*
X0161682Y0075886D03*
X0162351Y0062343D03*
X0162351Y0057343D03*
X0162351Y0052343D03*
X0162351Y0047343D03*
X0162587Y0034783D03*
X0162587Y0029783D03*
X0162587Y0024783D03*
X0162587Y0019783D03*
X0144083Y0019783D03*
X0144083Y0024783D03*
X0144083Y0029783D03*
X0144083Y0034783D03*
X0143847Y0047343D03*
D26*
X0144910Y0251654D03*
X0144910Y0254213D03*
X0144910Y0256772D03*
X0138217Y0256772D03*
X0138217Y0251654D03*
D27*
X0062706Y0077008D03*
X0062706Y0065197D03*
X0054831Y0065197D03*
X0047272Y0065197D03*
X0039398Y0065197D03*
X0039398Y0077008D03*
X0047272Y0077008D03*
X0054831Y0077008D03*
X0031524Y0077008D03*
X0031524Y0065197D03*
D28*
X0044103Y0104055D03*
X0044103Y0107992D03*
X0044103Y0111929D03*
X0044103Y0115866D03*
X0044103Y0119803D03*
X0044103Y0123740D03*
X0044103Y0127677D03*
X0042213Y0192874D03*
X0042213Y0196811D03*
X0042213Y0200748D03*
X0042213Y0204685D03*
X0042213Y0208622D03*
X0042213Y0212559D03*
X0042213Y0216496D03*
D29*
X0032272Y0221614D03*
X0032272Y0187756D03*
X0034162Y0132795D03*
X0034162Y0098937D03*
D30*
X0211083Y0097874D02*
X0217083Y0097874D01*
X0217083Y0087874D02*
X0211083Y0087874D01*
X0211083Y0077874D02*
X0217083Y0077874D01*
X0217083Y0067874D02*
X0211083Y0067874D01*
X0211083Y0057874D02*
X0217083Y0057874D01*
X0217083Y0047874D02*
X0211083Y0047874D01*
X0211083Y0037874D02*
X0217083Y0037874D01*
X0217083Y0107874D02*
X0211083Y0107874D01*
X0211083Y0117874D02*
X0217083Y0117874D01*
X0217083Y0127874D02*
X0211083Y0127874D01*
X0211083Y0137874D02*
X0217083Y0137874D01*
X0217083Y0147874D02*
X0211083Y0147874D01*
X0211083Y0157874D02*
X0217083Y0157874D01*
X0217083Y0167874D02*
X0211083Y0167874D01*
X0211083Y0177874D02*
X0217083Y0177874D01*
X0217083Y0187874D02*
X0211083Y0187874D01*
X0211083Y0197874D02*
X0217083Y0197874D01*
X0217083Y0207874D02*
X0211083Y0207874D01*
X0211083Y0217874D02*
X0217083Y0217874D01*
X0217083Y0227874D02*
X0211083Y0227874D01*
D31*
X0155580Y0257598D03*
X0151643Y0257598D03*
D32*
X0104989Y0227441D03*
X0095304Y0236299D03*
X0099556Y0213307D03*
X0100304Y0209094D03*
X0100186Y0204606D03*
X0102548Y0185394D03*
X0097863Y0180197D03*
X0108217Y0179843D03*
X0089398Y0147717D03*
X0086446Y0150394D03*
X0083493Y0153346D03*
X0072272Y0168031D03*
X0074162Y0182244D03*
X0076564Y0186024D03*
X0080776Y0185827D03*
X0083099Y0182441D03*
X0076643Y0214567D03*
X0072272Y0225472D03*
X0075225Y0228425D03*
X0068335Y0233543D03*
X0056367Y0192559D03*
X0034635Y0204449D03*
X0035265Y0212953D03*
X0041170Y0157559D03*
X0041170Y0145748D03*
X0037509Y0124055D03*
X0037509Y0116181D03*
X0035107Y0078228D03*
X0043296Y0078228D03*
X0050855Y0077598D03*
X0059044Y0078228D03*
X0073650Y0099488D03*
X0079556Y0118189D03*
X0083493Y0118189D03*
X0086446Y0121142D03*
X0089398Y0118189D03*
X0098060Y0114331D03*
X0100265Y0117913D03*
X0097863Y0123583D03*
X0095186Y0133937D03*
X0097863Y0136890D03*
X0105343Y0146063D03*
X0102548Y0093583D03*
X0097863Y0089291D03*
X0107587Y0088661D03*
X0096485Y0058858D03*
X0079162Y0057835D03*
X0078572Y0075709D03*
X0068414Y0140827D03*
D33*
X0067287Y0143570D02*
X0066381Y0143570D01*
X0066672Y0143279D02*
X0066073Y0143878D01*
X0060913Y0143878D01*
X0060048Y0143013D01*
X0060048Y0142205D01*
X0059143Y0142205D01*
X0059143Y0143013D01*
X0058278Y0143878D01*
X0053118Y0143878D01*
X0052253Y0143013D01*
X0052253Y0137459D01*
X0052811Y0136901D01*
X0052535Y0136625D01*
X0052339Y0136285D01*
X0052237Y0135905D01*
X0052237Y0134035D01*
X0055205Y0134035D01*
X0055205Y0133051D01*
X0052237Y0133051D01*
X0052237Y0131181D01*
X0052339Y0130802D01*
X0052535Y0130462D01*
X0052813Y0130184D01*
X0053153Y0129988D01*
X0053533Y0129886D01*
X0055206Y0129886D01*
X0055206Y0133051D01*
X0056190Y0133051D01*
X0056190Y0134035D01*
X0059158Y0134035D01*
X0059158Y0135905D01*
X0059057Y0136285D01*
X0058860Y0136625D01*
X0058584Y0136901D01*
X0059143Y0137459D01*
X0059143Y0138268D01*
X0060048Y0138268D01*
X0060048Y0137459D01*
X0060606Y0136901D01*
X0060330Y0136625D01*
X0060134Y0136285D01*
X0060032Y0135905D01*
X0060032Y0134035D01*
X0063001Y0134035D01*
X0063001Y0133051D01*
X0063985Y0133051D01*
X0063985Y0129886D01*
X0065658Y0129886D01*
X0066037Y0129988D01*
X0066378Y0130184D01*
X0066655Y0130462D01*
X0066852Y0130802D01*
X0066954Y0131181D01*
X0066954Y0133051D01*
X0063985Y0133051D01*
X0063985Y0134035D01*
X0066954Y0134035D01*
X0066954Y0135905D01*
X0066852Y0136285D01*
X0066655Y0136625D01*
X0066379Y0136901D01*
X0066938Y0137459D01*
X0066938Y0138229D01*
X0067824Y0137861D01*
X0068846Y0137861D01*
X0070481Y0136227D01*
X0070481Y0132476D01*
X0070304Y0132476D01*
X0070304Y0129016D01*
X0070304Y0129016D01*
X0070304Y0132476D01*
X0069674Y0132476D01*
X0069295Y0132375D01*
X0068955Y0132178D01*
X0068677Y0131900D01*
X0068480Y0131560D01*
X0068379Y0131181D01*
X0068379Y0129016D01*
X0070304Y0129016D01*
X0070304Y0129016D01*
X0068379Y0129016D01*
X0068379Y0126851D01*
X0068480Y0126471D01*
X0068677Y0126131D01*
X0068955Y0125853D01*
X0069295Y0125657D01*
X0069674Y0125555D01*
X0070304Y0125555D01*
X0070933Y0125555D01*
X0071178Y0125621D01*
X0071228Y0125571D01*
X0071452Y0125571D01*
X0071609Y0125413D01*
X0072869Y0124154D01*
X0078133Y0124154D01*
X0079182Y0125203D01*
X0079550Y0125571D01*
X0095658Y0125571D01*
X0095349Y0125262D01*
X0094898Y0124173D01*
X0094898Y0122993D01*
X0095349Y0121903D01*
X0096183Y0121069D01*
X0097273Y0120617D01*
X0098453Y0120617D01*
X0099543Y0121069D01*
X0100377Y0121903D01*
X0100828Y0122993D01*
X0100828Y0124015D01*
X0101623Y0124809D01*
X0101623Y0126318D01*
X0101741Y0126436D01*
X0101741Y0131596D01*
X0100876Y0132461D01*
X0097784Y0132461D01*
X0098151Y0133347D01*
X0098151Y0133924D01*
X0098453Y0133924D01*
X0099543Y0134376D01*
X0100377Y0135210D01*
X0100828Y0136300D01*
X0100828Y0137480D01*
X0100377Y0138570D01*
X0099543Y0139404D01*
X0098453Y0139855D01*
X0097273Y0139855D01*
X0096183Y0139404D01*
X0095349Y0138570D01*
X0095297Y0138445D01*
X0090507Y0138445D01*
X0089457Y0137396D01*
X0088617Y0136555D01*
X0076649Y0136555D01*
X0075599Y0135506D01*
X0074064Y0133970D01*
X0074064Y0136227D01*
X0074064Y0137710D01*
X0071380Y0140395D01*
X0071380Y0141417D01*
X0070928Y0142507D01*
X0070094Y0143341D01*
X0069004Y0143792D01*
X0067824Y0143792D01*
X0066734Y0143341D01*
X0066672Y0143279D01*
X0069541Y0143570D02*
X0101741Y0143570D01*
X0101741Y0143722D02*
X0101741Y0138168D01*
X0102299Y0137610D01*
X0102023Y0137334D01*
X0101827Y0136993D01*
X0101725Y0136614D01*
X0101725Y0134744D01*
X0104694Y0134744D01*
X0104694Y0133760D01*
X0105678Y0133760D01*
X0105678Y0130594D01*
X0107351Y0130594D01*
X0107725Y0130695D01*
X0107725Y0130072D01*
X0107056Y0130072D01*
X0106003Y0129635D01*
X0105196Y0128829D01*
X0104760Y0127775D01*
X0104760Y0126634D01*
X0105196Y0125581D01*
X0106003Y0124774D01*
X0107056Y0124338D01*
X0108197Y0124338D01*
X0109251Y0124774D01*
X0110057Y0125581D01*
X0110494Y0126634D01*
X0110494Y0127538D01*
X0111308Y0128352D01*
X0111308Y0147619D01*
X0111947Y0148258D01*
X0112383Y0149312D01*
X0112383Y0150452D01*
X0111947Y0151506D01*
X0111141Y0152312D01*
X0110087Y0152749D01*
X0108946Y0152749D01*
X0107893Y0152312D01*
X0107086Y0151506D01*
X0106650Y0150452D01*
X0106650Y0149312D01*
X0106940Y0148611D01*
X0105933Y0149028D01*
X0104753Y0149028D01*
X0103664Y0148577D01*
X0102829Y0147743D01*
X0102378Y0146653D01*
X0102378Y0145473D01*
X0102745Y0144587D01*
X0102606Y0144587D01*
X0101741Y0143722D01*
X0101741Y0142587D02*
X0070848Y0142587D01*
X0071302Y0141604D02*
X0101741Y0141604D01*
X0101741Y0140621D02*
X0071380Y0140621D01*
X0072136Y0139639D02*
X0096750Y0139639D01*
X0095435Y0138656D02*
X0073118Y0138656D01*
X0074064Y0137673D02*
X0089735Y0137673D01*
X0088752Y0136690D02*
X0074064Y0136690D01*
X0074064Y0135708D02*
X0075801Y0135708D01*
X0074818Y0134725D02*
X0074064Y0134725D01*
X0070481Y0134725D02*
X0066954Y0134725D01*
X0066954Y0135708D02*
X0070481Y0135708D01*
X0070017Y0136690D02*
X0066590Y0136690D01*
X0066938Y0137673D02*
X0069035Y0137673D01*
X0070481Y0133742D02*
X0063985Y0133742D01*
X0063985Y0132759D02*
X0063001Y0132759D01*
X0063001Y0133051D02*
X0063001Y0129886D01*
X0061328Y0129886D01*
X0060948Y0129988D01*
X0060608Y0130184D01*
X0060330Y0130462D01*
X0060134Y0130802D01*
X0060032Y0131181D01*
X0060032Y0133051D01*
X0063001Y0133051D01*
X0063001Y0133742D02*
X0056190Y0133742D01*
X0056190Y0133051D02*
X0059158Y0133051D01*
X0059158Y0131181D01*
X0059057Y0130802D01*
X0058860Y0130462D01*
X0058582Y0130184D01*
X0058242Y0129988D01*
X0057863Y0129886D01*
X0056190Y0129886D01*
X0056190Y0133051D01*
X0056190Y0132759D02*
X0055206Y0132759D01*
X0055206Y0131776D02*
X0056190Y0131776D01*
X0056190Y0130794D02*
X0055206Y0130794D01*
X0056624Y0129744D02*
X0049102Y0129744D01*
X0048597Y0129239D01*
X0048545Y0129434D01*
X0048348Y0129774D01*
X0048071Y0130052D01*
X0047730Y0130249D01*
X0047351Y0130350D01*
X0044202Y0130350D01*
X0044202Y0127776D01*
X0044005Y0127776D01*
X0044005Y0130350D01*
X0040856Y0130350D01*
X0040476Y0130249D01*
X0040136Y0130052D01*
X0039858Y0129774D01*
X0039662Y0129434D01*
X0039560Y0129055D01*
X0039560Y0127776D01*
X0044005Y0127776D01*
X0044005Y0127579D01*
X0039560Y0127579D01*
X0039560Y0126300D01*
X0039597Y0126160D01*
X0039188Y0126569D01*
X0038098Y0127020D01*
X0036919Y0127020D01*
X0035829Y0126569D01*
X0034995Y0125735D01*
X0034543Y0124645D01*
X0034543Y0123465D01*
X0034760Y0122942D01*
X0034192Y0122706D01*
X0033385Y0121900D01*
X0032949Y0120846D01*
X0032949Y0119705D01*
X0033385Y0118652D01*
X0034192Y0117845D01*
X0034872Y0117564D01*
X0034543Y0116771D01*
X0034543Y0115591D01*
X0034995Y0114501D01*
X0035829Y0113667D01*
X0036919Y0113216D01*
X0038098Y0113216D01*
X0039188Y0113667D01*
X0039585Y0114064D01*
X0039751Y0113898D01*
X0039576Y0113722D01*
X0039576Y0110136D01*
X0039751Y0109961D01*
X0039576Y0109785D01*
X0039576Y0106199D01*
X0039751Y0106024D01*
X0039576Y0105848D01*
X0039576Y0102262D01*
X0040440Y0101398D01*
X0043473Y0101398D01*
X0043473Y0101266D01*
X0044523Y0100217D01*
X0062790Y0081949D01*
X0068394Y0081949D01*
X0068394Y0081160D01*
X0069259Y0080295D01*
X0070481Y0080295D01*
X0070481Y0079154D01*
X0070086Y0079154D01*
X0069221Y0078289D01*
X0069221Y0072735D01*
X0069780Y0072176D01*
X0069504Y0071900D01*
X0069307Y0071560D01*
X0069206Y0071181D01*
X0069205Y0069311D01*
X0072174Y0069311D01*
X0072174Y0068327D01*
X0069206Y0068327D01*
X0069206Y0066457D01*
X0069307Y0066078D01*
X0069504Y0065737D01*
X0069781Y0065460D01*
X0070122Y0065263D01*
X0070501Y0065161D01*
X0072174Y0065161D01*
X0072174Y0068327D01*
X0073158Y0068327D01*
X0073158Y0065161D01*
X0074831Y0065161D01*
X0075211Y0065263D01*
X0075551Y0065460D01*
X0075829Y0065737D01*
X0076025Y0066078D01*
X0076127Y0066457D01*
X0076127Y0068327D01*
X0073158Y0068327D01*
X0073158Y0069311D01*
X0076127Y0069311D01*
X0076127Y0071181D01*
X0076025Y0071560D01*
X0075829Y0071900D01*
X0075553Y0072176D01*
X0076111Y0072735D01*
X0076111Y0073917D01*
X0076169Y0073917D01*
X0076892Y0073195D01*
X0077982Y0072743D01*
X0079161Y0072743D01*
X0080251Y0073195D01*
X0080757Y0073700D01*
X0080757Y0073502D01*
X0081967Y0072291D01*
X0086436Y0072291D01*
X0087007Y0072863D01*
X0087586Y0072283D01*
X0087007Y0071704D01*
X0086436Y0072276D01*
X0081967Y0072276D01*
X0080757Y0071065D01*
X0080757Y0066597D01*
X0081967Y0065386D01*
X0086436Y0065386D01*
X0087113Y0066063D01*
X0087685Y0065492D01*
X0093238Y0065492D01*
X0094103Y0066357D01*
X0094103Y0071517D01*
X0093337Y0072283D01*
X0094103Y0073050D01*
X0094103Y0078210D01*
X0093238Y0079075D01*
X0092148Y0079075D01*
X0091361Y0079862D01*
X0090928Y0080295D01*
X0094103Y0080295D01*
X0094103Y0075833D01*
X0095127Y0074809D01*
X0096176Y0073760D01*
X0096859Y0073760D01*
X0096859Y0073483D01*
X0097417Y0072925D01*
X0097141Y0072648D01*
X0096945Y0072308D01*
X0096843Y0071929D01*
X0096843Y0070059D01*
X0099812Y0070059D01*
X0099812Y0069075D01*
X0100796Y0069075D01*
X0100796Y0070059D01*
X0103765Y0070059D01*
X0103765Y0071929D01*
X0103663Y0072308D01*
X0103466Y0072648D01*
X0103190Y0072925D01*
X0103749Y0073483D01*
X0103749Y0079037D01*
X0102884Y0079902D01*
X0097724Y0079902D01*
X0097686Y0079863D01*
X0097686Y0080295D01*
X0098908Y0080295D01*
X0098957Y0080345D01*
X0099202Y0080280D01*
X0099831Y0080280D01*
X0099831Y0083740D01*
X0099832Y0083740D01*
X0099832Y0083740D01*
X0101757Y0083740D01*
X0101757Y0081575D01*
X0101655Y0081196D01*
X0101459Y0080855D01*
X0101181Y0080578D01*
X0100841Y0080381D01*
X0100461Y0080280D01*
X0099832Y0080280D01*
X0099832Y0083740D01*
X0101757Y0083740D01*
X0101757Y0085905D01*
X0101655Y0086285D01*
X0101459Y0086625D01*
X0101181Y0086903D01*
X0100841Y0087099D01*
X0100461Y0087201D01*
X0099966Y0087201D01*
X0100377Y0087612D01*
X0100828Y0088701D01*
X0100828Y0089881D01*
X0100377Y0090971D01*
X0099543Y0091805D01*
X0098453Y0092257D01*
X0097273Y0092257D01*
X0096183Y0091805D01*
X0095349Y0090971D01*
X0094898Y0089881D01*
X0094898Y0088701D01*
X0095349Y0087612D01*
X0095776Y0087185D01*
X0083906Y0087185D01*
X0083906Y0091502D01*
X0084851Y0092447D01*
X0084851Y0111108D01*
X0088966Y0115224D01*
X0089988Y0115224D01*
X0091078Y0115675D01*
X0091912Y0116509D01*
X0092364Y0117599D01*
X0092364Y0118779D01*
X0091912Y0119869D01*
X0091078Y0120703D01*
X0089988Y0121154D01*
X0089411Y0121154D01*
X0089411Y0121732D01*
X0088960Y0122821D01*
X0088125Y0123656D01*
X0087036Y0124107D01*
X0085856Y0124107D01*
X0084766Y0123656D01*
X0083932Y0122821D01*
X0083480Y0121732D01*
X0083480Y0121154D01*
X0082903Y0121154D01*
X0081813Y0120703D01*
X0081524Y0120414D01*
X0081236Y0120703D01*
X0080146Y0121154D01*
X0078966Y0121154D01*
X0077876Y0120703D01*
X0077042Y0119869D01*
X0076591Y0118779D01*
X0076591Y0117599D01*
X0077042Y0116509D01*
X0077489Y0116062D01*
X0077489Y0095821D01*
X0074418Y0092750D01*
X0074418Y0087201D01*
X0074241Y0087201D01*
X0074241Y0083740D01*
X0074241Y0080280D01*
X0074870Y0080280D01*
X0075115Y0080345D01*
X0075165Y0080295D01*
X0084261Y0080295D01*
X0084261Y0079376D01*
X0084456Y0079181D01*
X0081967Y0079181D01*
X0080757Y0077970D01*
X0080757Y0077717D01*
X0080251Y0078223D01*
X0079161Y0078674D01*
X0077982Y0078674D01*
X0076892Y0078223D01*
X0076169Y0077500D01*
X0076111Y0077500D01*
X0076111Y0078289D01*
X0075246Y0079154D01*
X0074064Y0079154D01*
X0074064Y0080280D01*
X0074241Y0080280D01*
X0074241Y0083740D01*
X0074241Y0083740D01*
X0074241Y0083740D01*
X0074241Y0087201D01*
X0073611Y0087201D01*
X0073367Y0087135D01*
X0073317Y0087185D01*
X0069259Y0087185D01*
X0068394Y0086320D01*
X0068394Y0085531D01*
X0064274Y0085531D01*
X0060101Y0089705D01*
X0065010Y0089705D01*
X0065875Y0090570D01*
X0065875Y0097520D01*
X0071425Y0097520D01*
X0071971Y0096974D01*
X0073061Y0096523D01*
X0074240Y0096523D01*
X0075330Y0096974D01*
X0076164Y0097808D01*
X0076616Y0098898D01*
X0076616Y0100078D01*
X0076164Y0101168D01*
X0075330Y0102002D01*
X0074240Y0102454D01*
X0073061Y0102454D01*
X0071971Y0102002D01*
X0071425Y0101457D01*
X0065875Y0101457D01*
X0065875Y0120218D01*
X0065825Y0120268D01*
X0065891Y0120512D01*
X0065891Y0121142D01*
X0065891Y0121771D01*
X0065789Y0122151D01*
X0065592Y0122491D01*
X0065315Y0122769D01*
X0064974Y0122965D01*
X0064595Y0123067D01*
X0062430Y0123067D01*
X0062430Y0121142D01*
X0062430Y0121142D01*
X0062430Y0123067D01*
X0060265Y0123067D01*
X0059885Y0122965D01*
X0059654Y0122832D01*
X0059654Y0125427D01*
X0057489Y0127592D01*
X0057489Y0128879D01*
X0056624Y0129744D01*
X0057489Y0128828D02*
X0068379Y0128828D01*
X0068379Y0127845D02*
X0057489Y0127845D01*
X0058219Y0126863D02*
X0068379Y0126863D01*
X0068928Y0125880D02*
X0059201Y0125880D01*
X0059654Y0124897D02*
X0072125Y0124897D01*
X0070304Y0125555D02*
X0070304Y0129016D01*
X0070304Y0129016D01*
X0070304Y0125555D01*
X0070304Y0125880D02*
X0070304Y0125880D01*
X0070304Y0126863D02*
X0070304Y0126863D01*
X0070304Y0127845D02*
X0070304Y0127845D01*
X0070304Y0128828D02*
X0070304Y0128828D01*
X0070304Y0129811D02*
X0070304Y0129811D01*
X0070304Y0130794D02*
X0070304Y0130794D01*
X0070304Y0131776D02*
X0070304Y0131776D01*
X0070481Y0132759D02*
X0066954Y0132759D01*
X0066954Y0131776D02*
X0068605Y0131776D01*
X0068379Y0130794D02*
X0066847Y0130794D01*
X0068379Y0129811D02*
X0048312Y0129811D01*
X0052343Y0130794D02*
X0039182Y0130794D01*
X0039182Y0129822D02*
X0039182Y0135769D01*
X0038317Y0136634D01*
X0030007Y0136634D01*
X0029143Y0135769D01*
X0029143Y0129822D01*
X0030007Y0128957D01*
X0038317Y0128957D01*
X0039182Y0129822D01*
X0039171Y0129811D02*
X0039894Y0129811D01*
X0039560Y0128828D02*
X0028850Y0128828D01*
X0028846Y0127845D02*
X0039560Y0127845D01*
X0039560Y0126863D02*
X0038480Y0126863D01*
X0036538Y0126863D02*
X0028843Y0126863D01*
X0028839Y0125880D02*
X0035140Y0125880D01*
X0034648Y0124897D02*
X0028835Y0124897D01*
X0028831Y0123914D02*
X0034543Y0123914D01*
X0034736Y0122932D02*
X0028827Y0122932D01*
X0028823Y0121949D02*
X0033435Y0121949D01*
X0032999Y0120966D02*
X0028819Y0120966D01*
X0028815Y0119983D02*
X0032949Y0119983D01*
X0033241Y0119001D02*
X0029177Y0119001D01*
X0029427Y0118750D02*
X0028813Y0119365D01*
X0028909Y0143592D01*
X0029274Y0143957D01*
X0038768Y0143957D01*
X0039490Y0143234D01*
X0040580Y0142783D01*
X0041760Y0142783D01*
X0042850Y0143234D01*
X0043684Y0144068D01*
X0044135Y0145158D01*
X0044135Y0146338D01*
X0043684Y0147428D01*
X0042850Y0148262D01*
X0041760Y0148713D01*
X0040580Y0148713D01*
X0039490Y0148262D01*
X0038768Y0147539D01*
X0030967Y0147539D01*
X0032148Y0148720D01*
X0079798Y0148720D01*
X0081544Y0146975D01*
X0082593Y0145925D01*
X0086996Y0145925D01*
X0087719Y0145203D01*
X0088809Y0144751D01*
X0089988Y0144751D01*
X0091078Y0145203D01*
X0091912Y0146037D01*
X0092364Y0147127D01*
X0092364Y0148306D01*
X0091912Y0149396D01*
X0091078Y0150230D01*
X0089988Y0150682D01*
X0089411Y0150682D01*
X0089411Y0150984D01*
X0088960Y0152073D01*
X0088125Y0152908D01*
X0087036Y0153359D01*
X0086458Y0153359D01*
X0086458Y0153936D01*
X0086007Y0155026D01*
X0085173Y0155860D01*
X0084083Y0156312D01*
X0082903Y0156312D01*
X0081813Y0155860D01*
X0080979Y0155026D01*
X0080929Y0154906D01*
X0080794Y0154934D01*
X0080628Y0154823D01*
X0042313Y0154823D01*
X0042850Y0155045D01*
X0043684Y0155879D01*
X0044135Y0156969D01*
X0044135Y0158149D01*
X0043684Y0159239D01*
X0042850Y0160073D01*
X0041760Y0160524D01*
X0040580Y0160524D01*
X0039490Y0160073D01*
X0038768Y0159350D01*
X0029181Y0159350D01*
X0029427Y0159596D01*
X0029864Y0160650D01*
X0029864Y0161791D01*
X0029427Y0162844D01*
X0028988Y0163284D01*
X0029071Y0183917D01*
X0036427Y0183917D01*
X0037292Y0184782D01*
X0037292Y0190730D01*
X0036427Y0191594D01*
X0029101Y0191594D01*
X0029206Y0217776D01*
X0036427Y0217776D01*
X0037292Y0218640D01*
X0037292Y0224588D01*
X0036427Y0225453D01*
X0029237Y0225453D01*
X0029297Y0240357D01*
X0042227Y0253287D01*
X0126741Y0253287D01*
X0126741Y0248877D01*
X0126800Y0248818D01*
X0126800Y0242382D01*
X0103329Y0242382D01*
X0102070Y0243642D01*
X0096806Y0243642D01*
X0095757Y0242592D01*
X0093513Y0240348D01*
X0093513Y0238702D01*
X0092790Y0237979D01*
X0092339Y0236889D01*
X0092339Y0235709D01*
X0092790Y0234619D01*
X0093624Y0233785D01*
X0094714Y0233334D01*
X0095894Y0233334D01*
X0096984Y0233785D01*
X0097818Y0234619D01*
X0098269Y0235709D01*
X0098269Y0236712D01*
X0098868Y0236464D01*
X0100008Y0236464D01*
X0101062Y0236900D01*
X0101701Y0237539D01*
X0126800Y0237539D01*
X0126800Y0234390D01*
X0126624Y0234390D01*
X0126416Y0234893D01*
X0125276Y0236033D01*
X0123787Y0236650D01*
X0122175Y0236650D01*
X0120686Y0236033D01*
X0119547Y0234893D01*
X0118930Y0233404D01*
X0118930Y0231793D01*
X0119547Y0230304D01*
X0120686Y0229164D01*
X0122175Y0228547D01*
X0123787Y0228547D01*
X0125276Y0229164D01*
X0126416Y0230304D01*
X0126624Y0230807D01*
X0126800Y0230807D01*
X0126800Y0229541D01*
X0123873Y0226614D01*
X0123787Y0226650D01*
X0122175Y0226650D01*
X0120788Y0226075D01*
X0117290Y0226075D01*
X0116624Y0225799D01*
X0116384Y0225799D01*
X0115106Y0225270D01*
X0114128Y0224292D01*
X0113599Y0223014D01*
X0113599Y0015996D01*
X0100257Y0015996D01*
X0100228Y0016007D01*
X0099566Y0015996D01*
X0098904Y0015996D01*
X0098876Y0015984D01*
X0092387Y0015876D01*
X0092387Y0018961D01*
X0084300Y0018961D01*
X0084300Y0019945D01*
X0083316Y0019945D01*
X0083316Y0025276D01*
X0076525Y0025276D01*
X0076145Y0025174D01*
X0075805Y0024977D01*
X0075527Y0024700D01*
X0075331Y0024359D01*
X0075229Y0023980D01*
X0075229Y0019945D01*
X0083316Y0019945D01*
X0083316Y0018961D01*
X0075229Y0018961D01*
X0075229Y0015588D01*
X0065473Y0015425D01*
X0065473Y0046013D01*
X0066046Y0046586D01*
X0066090Y0046693D01*
X0070833Y0046693D01*
X0070833Y0038843D01*
X0071698Y0037978D01*
X0077721Y0037978D01*
X0078585Y0038843D01*
X0078585Y0048865D01*
X0078260Y0049191D01*
X0078268Y0049811D01*
X0078296Y0049878D01*
X0078296Y0051460D01*
X0077765Y0052743D01*
X0077765Y0053446D01*
X0077195Y0054016D01*
X0077765Y0054585D01*
X0077765Y0054746D01*
X0079802Y0054764D01*
X0080928Y0055242D01*
X0081786Y0056115D01*
X0082244Y0057250D01*
X0082233Y0058474D01*
X0081755Y0059600D01*
X0080881Y0060458D01*
X0079747Y0060916D01*
X0077012Y0060892D01*
X0076900Y0061004D01*
X0071740Y0061004D01*
X0070875Y0060139D01*
X0070875Y0054646D01*
X0062584Y0054646D01*
X0061189Y0054068D01*
X0059687Y0054068D01*
X0059687Y0057761D01*
X0059608Y0057951D01*
X0059608Y0060420D01*
X0063656Y0060420D01*
X0064494Y0060768D01*
X0067254Y0060768D01*
X0068119Y0061633D01*
X0068119Y0068761D01*
X0067254Y0069626D01*
X0064494Y0069626D01*
X0063656Y0069973D01*
X0053881Y0069973D01*
X0053043Y0069626D01*
X0028614Y0069626D01*
X0028625Y0072579D01*
X0067254Y0072579D01*
X0068119Y0073444D01*
X0068119Y0080572D01*
X0067254Y0081437D01*
X0028661Y0081437D01*
X0028679Y0086039D01*
X0028788Y0086148D01*
X0028788Y0113265D01*
X0028795Y0114869D01*
X0029427Y0115502D01*
X0029864Y0116556D01*
X0029864Y0117696D01*
X0029427Y0118750D01*
X0029731Y0118018D02*
X0034019Y0118018D01*
X0034653Y0117035D02*
X0029864Y0117035D01*
X0029655Y0116052D02*
X0034543Y0116052D01*
X0034759Y0115069D02*
X0028995Y0115069D01*
X0028791Y0114087D02*
X0035409Y0114087D01*
X0039576Y0113104D02*
X0028788Y0113104D01*
X0028788Y0112121D02*
X0039576Y0112121D01*
X0039576Y0111138D02*
X0028788Y0111138D01*
X0028788Y0110156D02*
X0039576Y0110156D01*
X0039576Y0109173D02*
X0028788Y0109173D01*
X0028788Y0108190D02*
X0039576Y0108190D01*
X0039576Y0107207D02*
X0028788Y0107207D01*
X0028788Y0106225D02*
X0039576Y0106225D01*
X0039576Y0105242D02*
X0028788Y0105242D01*
X0028788Y0104259D02*
X0039576Y0104259D01*
X0039576Y0103276D02*
X0028788Y0103276D01*
X0028788Y0102294D02*
X0029525Y0102294D01*
X0029143Y0101911D02*
X0029143Y0095963D01*
X0030007Y0095098D01*
X0038317Y0095098D01*
X0039182Y0095963D01*
X0039182Y0101911D01*
X0038317Y0102776D01*
X0030007Y0102776D01*
X0029143Y0101911D01*
X0029143Y0101311D02*
X0028788Y0101311D01*
X0028788Y0100328D02*
X0029143Y0100328D01*
X0029143Y0099345D02*
X0028788Y0099345D01*
X0028788Y0098363D02*
X0029143Y0098363D01*
X0029143Y0097380D02*
X0028788Y0097380D01*
X0028788Y0096397D02*
X0029143Y0096397D01*
X0028788Y0095414D02*
X0029692Y0095414D01*
X0028788Y0094431D02*
X0050308Y0094431D01*
X0051290Y0093449D02*
X0028788Y0093449D01*
X0028788Y0092466D02*
X0052273Y0092466D01*
X0053256Y0091483D02*
X0028788Y0091483D01*
X0028788Y0090500D02*
X0054239Y0090500D01*
X0055221Y0089518D02*
X0028788Y0089518D01*
X0028788Y0088535D02*
X0036319Y0088535D01*
X0036315Y0088529D02*
X0036213Y0088149D01*
X0036213Y0086476D01*
X0039379Y0086476D01*
X0039379Y0085492D01*
X0040363Y0085492D01*
X0040363Y0082524D01*
X0042233Y0082524D01*
X0042612Y0082625D01*
X0042952Y0082822D01*
X0043228Y0083098D01*
X0043787Y0082539D01*
X0049341Y0082539D01*
X0050205Y0083404D01*
X0050205Y0083719D01*
X0050994Y0083393D01*
X0052134Y0083393D01*
X0053188Y0083829D01*
X0053994Y0084636D01*
X0054431Y0085690D01*
X0054431Y0086830D01*
X0053994Y0087884D01*
X0053188Y0088690D01*
X0052134Y0089127D01*
X0050994Y0089127D01*
X0050773Y0089035D01*
X0049734Y0089035D01*
X0049341Y0089429D01*
X0043787Y0089429D01*
X0043228Y0088871D01*
X0042952Y0089147D01*
X0042612Y0089343D01*
X0042233Y0089445D01*
X0040363Y0089445D01*
X0040363Y0086476D01*
X0039379Y0086476D01*
X0039379Y0089445D01*
X0037509Y0089445D01*
X0037130Y0089343D01*
X0036789Y0089147D01*
X0036512Y0088869D01*
X0036315Y0088529D01*
X0036213Y0087552D02*
X0028788Y0087552D01*
X0028788Y0086569D02*
X0036213Y0086569D01*
X0036213Y0085492D02*
X0036213Y0083819D01*
X0036315Y0083440D01*
X0036512Y0083100D01*
X0036789Y0082822D01*
X0037130Y0082625D01*
X0037509Y0082524D01*
X0039379Y0082524D01*
X0039379Y0085492D01*
X0036213Y0085492D01*
X0036213Y0084604D02*
X0028674Y0084604D01*
X0028677Y0085587D02*
X0039379Y0085587D01*
X0039379Y0086569D02*
X0040363Y0086569D01*
X0040363Y0087552D02*
X0039379Y0087552D01*
X0039379Y0088535D02*
X0040363Y0088535D01*
X0040363Y0084604D02*
X0039379Y0084604D01*
X0039379Y0083621D02*
X0040363Y0083621D01*
X0040363Y0082638D02*
X0039379Y0082638D01*
X0037107Y0082638D02*
X0028666Y0082638D01*
X0028662Y0081656D02*
X0068394Y0081656D01*
X0068018Y0080673D02*
X0068882Y0080673D01*
X0068119Y0079690D02*
X0070481Y0079690D01*
X0069640Y0078707D02*
X0068119Y0078707D01*
X0068119Y0077724D02*
X0069221Y0077724D01*
X0069221Y0076742D02*
X0068119Y0076742D01*
X0068119Y0075759D02*
X0069221Y0075759D01*
X0069221Y0074776D02*
X0068119Y0074776D01*
X0068119Y0073793D02*
X0069221Y0073793D01*
X0069221Y0072811D02*
X0067486Y0072811D01*
X0069462Y0071828D02*
X0028622Y0071828D01*
X0028618Y0070845D02*
X0069206Y0070845D01*
X0069206Y0069862D02*
X0063923Y0069862D01*
X0068000Y0068880D02*
X0072174Y0068880D01*
X0072174Y0067897D02*
X0073158Y0067897D01*
X0073158Y0068880D02*
X0080757Y0068880D01*
X0080757Y0069862D02*
X0076127Y0069862D01*
X0076127Y0070845D02*
X0080757Y0070845D01*
X0081520Y0071828D02*
X0075871Y0071828D01*
X0076111Y0072811D02*
X0077819Y0072811D01*
X0079324Y0072811D02*
X0081448Y0072811D01*
X0084202Y0075736D02*
X0084961Y0075866D01*
X0086955Y0072811D02*
X0087059Y0072811D01*
X0087131Y0071828D02*
X0086883Y0071828D01*
X0084202Y0068831D02*
X0090985Y0068831D01*
X0090461Y0068937D01*
X0087245Y0065931D02*
X0086981Y0065931D01*
X0093677Y0065931D02*
X0098057Y0065931D01*
X0098139Y0065909D02*
X0099812Y0065909D01*
X0099812Y0069075D01*
X0096843Y0069075D01*
X0096843Y0067205D01*
X0096945Y0066826D01*
X0097141Y0066485D01*
X0097419Y0066208D01*
X0097759Y0066011D01*
X0098139Y0065909D01*
X0096921Y0066914D02*
X0094103Y0066914D01*
X0094103Y0067897D02*
X0096843Y0067897D01*
X0096843Y0068880D02*
X0094103Y0068880D01*
X0094103Y0069862D02*
X0099812Y0069862D01*
X0099812Y0068880D02*
X0100796Y0068880D01*
X0100796Y0069075D02*
X0100796Y0065909D01*
X0102469Y0065909D01*
X0102848Y0066011D01*
X0103189Y0066208D01*
X0103466Y0066485D01*
X0103663Y0066826D01*
X0103765Y0067205D01*
X0103765Y0069075D01*
X0100796Y0069075D01*
X0100796Y0069862D02*
X0113599Y0069862D01*
X0113599Y0068880D02*
X0103765Y0068880D01*
X0103765Y0067897D02*
X0113599Y0067897D01*
X0113599Y0066914D02*
X0103687Y0066914D01*
X0102551Y0065931D02*
X0113599Y0065931D01*
X0113599Y0064949D02*
X0068119Y0064949D01*
X0068119Y0065931D02*
X0069392Y0065931D01*
X0069206Y0066914D02*
X0068119Y0066914D01*
X0068119Y0067897D02*
X0069206Y0067897D01*
X0072174Y0066914D02*
X0073158Y0066914D01*
X0073158Y0065931D02*
X0072174Y0065931D01*
X0075941Y0065931D02*
X0081422Y0065931D01*
X0080757Y0066914D02*
X0076127Y0066914D01*
X0076127Y0067897D02*
X0080757Y0067897D01*
X0076293Y0073793D02*
X0076111Y0073793D01*
X0076111Y0077724D02*
X0076394Y0077724D01*
X0075692Y0078707D02*
X0081494Y0078707D01*
X0080757Y0077724D02*
X0080749Y0077724D01*
X0084261Y0079690D02*
X0074064Y0079690D01*
X0074241Y0080673D02*
X0074241Y0080673D01*
X0074241Y0081656D02*
X0074241Y0081656D01*
X0074241Y0082638D02*
X0074241Y0082638D01*
X0074241Y0083621D02*
X0074241Y0083621D01*
X0074241Y0084604D02*
X0074241Y0084604D01*
X0074241Y0085587D02*
X0074241Y0085587D01*
X0074241Y0086569D02*
X0074241Y0086569D01*
X0074418Y0087552D02*
X0062254Y0087552D01*
X0063236Y0086569D02*
X0068644Y0086569D01*
X0068394Y0085587D02*
X0064219Y0085587D01*
X0062101Y0082638D02*
X0049440Y0082638D01*
X0050205Y0083621D02*
X0050443Y0083621D01*
X0052685Y0083621D02*
X0061118Y0083621D01*
X0060135Y0084604D02*
X0053962Y0084604D01*
X0054388Y0085587D02*
X0059153Y0085587D01*
X0058170Y0086569D02*
X0054431Y0086569D01*
X0054132Y0087552D02*
X0057187Y0087552D01*
X0056204Y0088535D02*
X0053343Y0088535D01*
X0060288Y0089518D02*
X0074418Y0089518D01*
X0074418Y0090500D02*
X0065806Y0090500D01*
X0065875Y0091483D02*
X0074418Y0091483D01*
X0074418Y0092466D02*
X0065875Y0092466D01*
X0065875Y0093449D02*
X0075117Y0093449D01*
X0076100Y0094431D02*
X0065875Y0094431D01*
X0065875Y0095414D02*
X0077082Y0095414D01*
X0077489Y0096397D02*
X0065875Y0096397D01*
X0065875Y0097380D02*
X0071565Y0097380D01*
X0073650Y0099488D02*
X0062430Y0099488D01*
X0065875Y0102294D02*
X0072674Y0102294D01*
X0074626Y0102294D02*
X0077489Y0102294D01*
X0077489Y0103276D02*
X0065875Y0103276D01*
X0065875Y0104259D02*
X0077489Y0104259D01*
X0077489Y0105242D02*
X0065875Y0105242D01*
X0065875Y0106225D02*
X0077489Y0106225D01*
X0077489Y0107207D02*
X0065875Y0107207D01*
X0065875Y0108190D02*
X0077489Y0108190D01*
X0077489Y0109173D02*
X0065875Y0109173D01*
X0065875Y0110156D02*
X0077489Y0110156D01*
X0077489Y0111138D02*
X0065875Y0111138D01*
X0065875Y0112121D02*
X0077489Y0112121D01*
X0077489Y0113104D02*
X0065875Y0113104D01*
X0065875Y0114087D02*
X0077489Y0114087D01*
X0077489Y0115069D02*
X0065875Y0115069D01*
X0065875Y0116052D02*
X0077489Y0116052D01*
X0076824Y0117035D02*
X0065875Y0117035D01*
X0065875Y0118018D02*
X0076591Y0118018D01*
X0076682Y0119001D02*
X0065875Y0119001D01*
X0065875Y0119983D02*
X0077157Y0119983D01*
X0078512Y0120966D02*
X0065891Y0120966D01*
X0065891Y0121142D02*
X0062430Y0121142D01*
X0065891Y0121142D01*
X0065843Y0121949D02*
X0083570Y0121949D01*
X0084042Y0122932D02*
X0065033Y0122932D01*
X0062430Y0122932D02*
X0062430Y0122932D01*
X0062430Y0121949D02*
X0062430Y0121949D01*
X0062430Y0121142D02*
X0062430Y0121142D01*
X0059827Y0122932D02*
X0059654Y0122932D01*
X0059654Y0123914D02*
X0085391Y0123914D01*
X0087501Y0123914D02*
X0094898Y0123914D01*
X0094923Y0122932D02*
X0088849Y0122932D01*
X0089321Y0121949D02*
X0095330Y0121949D01*
X0096431Y0120966D02*
X0090443Y0120966D01*
X0091798Y0119983D02*
X0098141Y0119983D01*
X0097751Y0119593D02*
X0097299Y0118503D01*
X0097299Y0117324D01*
X0097334Y0117240D01*
X0096380Y0116845D01*
X0095546Y0116010D01*
X0095094Y0114921D01*
X0095094Y0113741D01*
X0095546Y0112651D01*
X0096380Y0111817D01*
X0097470Y0111365D01*
X0098650Y0111365D01*
X0099740Y0111817D01*
X0100574Y0112651D01*
X0100642Y0112815D01*
X0101440Y0112815D01*
X0102489Y0113864D01*
X0104038Y0115413D01*
X0104261Y0115413D01*
X0104261Y0099311D01*
X0104260Y0099311D01*
X0103542Y0100029D01*
X0102488Y0100465D01*
X0101348Y0100465D01*
X0100294Y0100029D01*
X0099488Y0099222D01*
X0099051Y0098169D01*
X0099051Y0097028D01*
X0099488Y0095974D01*
X0100117Y0095345D01*
X0100034Y0095262D01*
X0099583Y0094173D01*
X0099583Y0092993D01*
X0100034Y0091903D01*
X0100868Y0091069D01*
X0101958Y0090617D01*
X0103138Y0090617D01*
X0104228Y0091069D01*
X0104261Y0091102D01*
X0104261Y0090570D01*
X0104902Y0089928D01*
X0104622Y0089251D01*
X0104622Y0088072D01*
X0105073Y0086982D01*
X0105908Y0086148D01*
X0106998Y0085696D01*
X0108177Y0085696D01*
X0109267Y0086148D01*
X0110101Y0086982D01*
X0110553Y0088072D01*
X0110553Y0089251D01*
X0110342Y0089761D01*
X0111150Y0090570D01*
X0111150Y0092659D01*
X0111150Y0094507D01*
X0111150Y0120218D01*
X0111101Y0120268D01*
X0111166Y0120512D01*
X0111166Y0121142D01*
X0111166Y0121771D01*
X0111064Y0122151D01*
X0110868Y0122491D01*
X0110590Y0122769D01*
X0110250Y0122965D01*
X0109870Y0123067D01*
X0107706Y0123067D01*
X0107706Y0121142D01*
X0111166Y0121142D01*
X0107706Y0121142D01*
X0107706Y0121142D01*
X0107705Y0121142D01*
X0107705Y0121142D01*
X0104245Y0121142D01*
X0104245Y0121771D01*
X0104347Y0122151D01*
X0104543Y0122491D01*
X0104821Y0122769D01*
X0105161Y0122965D01*
X0105541Y0123067D01*
X0107705Y0123067D01*
X0107705Y0121142D01*
X0104245Y0121142D01*
X0104245Y0120965D01*
X0100782Y0120965D01*
X0100697Y0120879D01*
X0099675Y0120879D01*
X0098585Y0120427D01*
X0097751Y0119593D01*
X0097505Y0119001D02*
X0092272Y0119001D01*
X0092364Y0118018D02*
X0097299Y0118018D01*
X0096840Y0117035D02*
X0092130Y0117035D01*
X0091455Y0116052D02*
X0095588Y0116052D01*
X0095156Y0115069D02*
X0088812Y0115069D01*
X0087830Y0114087D02*
X0095094Y0114087D01*
X0095358Y0113104D02*
X0086847Y0113104D01*
X0085864Y0112121D02*
X0096076Y0112121D01*
X0100044Y0112121D02*
X0104261Y0112121D01*
X0104261Y0111138D02*
X0084881Y0111138D01*
X0084851Y0110156D02*
X0104261Y0110156D01*
X0104261Y0109173D02*
X0084851Y0109173D01*
X0084851Y0108190D02*
X0104261Y0108190D01*
X0104261Y0107207D02*
X0084851Y0107207D01*
X0084851Y0106225D02*
X0104261Y0106225D01*
X0104261Y0105242D02*
X0084851Y0105242D01*
X0084851Y0104259D02*
X0104261Y0104259D01*
X0104261Y0103276D02*
X0084851Y0103276D01*
X0084851Y0102294D02*
X0104261Y0102294D01*
X0104261Y0101311D02*
X0084851Y0101311D01*
X0084851Y0100328D02*
X0101016Y0100328D01*
X0099611Y0099345D02*
X0084851Y0099345D01*
X0084851Y0098363D02*
X0099131Y0098363D01*
X0099051Y0097380D02*
X0084851Y0097380D01*
X0084851Y0096397D02*
X0099313Y0096397D01*
X0100048Y0095414D02*
X0084851Y0095414D01*
X0084851Y0094431D02*
X0099690Y0094431D01*
X0099583Y0093449D02*
X0084851Y0093449D01*
X0084851Y0092466D02*
X0099801Y0092466D01*
X0099865Y0091483D02*
X0100454Y0091483D01*
X0100572Y0090500D02*
X0104330Y0090500D01*
X0104732Y0089518D02*
X0100828Y0089518D01*
X0100759Y0088535D02*
X0104622Y0088535D01*
X0104837Y0087552D02*
X0100317Y0087552D01*
X0101491Y0086569D02*
X0105486Y0086569D01*
X0109689Y0086569D02*
X0113599Y0086569D01*
X0113599Y0085587D02*
X0101757Y0085587D01*
X0101757Y0084604D02*
X0113599Y0084604D01*
X0113599Y0083621D02*
X0101757Y0083621D01*
X0101757Y0082638D02*
X0113599Y0082638D01*
X0113599Y0081656D02*
X0101757Y0081656D01*
X0101276Y0080673D02*
X0113599Y0080673D01*
X0113599Y0079690D02*
X0103096Y0079690D01*
X0103749Y0078707D02*
X0113599Y0078707D01*
X0113599Y0077724D02*
X0103749Y0077724D01*
X0103749Y0076742D02*
X0113599Y0076742D01*
X0113599Y0075759D02*
X0103749Y0075759D01*
X0103749Y0074776D02*
X0113599Y0074776D01*
X0113599Y0073793D02*
X0103749Y0073793D01*
X0103304Y0072811D02*
X0113599Y0072811D01*
X0113599Y0071828D02*
X0103765Y0071828D01*
X0103765Y0070845D02*
X0113599Y0070845D01*
X0113599Y0063966D02*
X0068119Y0063966D01*
X0068119Y0062983D02*
X0113599Y0062983D01*
X0113599Y0062000D02*
X0068119Y0062000D01*
X0067504Y0061018D02*
X0094293Y0061018D01*
X0094694Y0061433D02*
X0093845Y0060552D01*
X0093398Y0059412D01*
X0093434Y0057461D01*
X0092999Y0057461D01*
X0092192Y0056653D01*
X0092049Y0056900D01*
X0091771Y0057178D01*
X0091431Y0057375D01*
X0091052Y0057476D01*
X0088788Y0057476D01*
X0088788Y0053327D01*
X0087804Y0053327D01*
X0087804Y0057476D01*
X0085541Y0057476D01*
X0085161Y0057375D01*
X0084821Y0057178D01*
X0084543Y0056900D01*
X0084347Y0056560D01*
X0084245Y0056181D01*
X0084245Y0053327D01*
X0087804Y0053327D01*
X0087804Y0052343D01*
X0084245Y0052343D01*
X0084245Y0049489D01*
X0084300Y0049283D01*
X0084300Y0044346D01*
X0087700Y0044346D01*
X0087700Y0048193D01*
X0087804Y0048193D01*
X0087804Y0052342D01*
X0088788Y0052342D01*
X0088788Y0048193D01*
X0089030Y0048193D01*
X0089030Y0038843D01*
X0089895Y0037978D01*
X0095917Y0037978D01*
X0096782Y0038843D01*
X0096782Y0042148D01*
X0097355Y0042389D01*
X0097913Y0042620D01*
X0097919Y0042627D01*
X0097928Y0042630D01*
X0098351Y0043059D01*
X0098778Y0043486D01*
X0098782Y0043494D01*
X0098788Y0043501D01*
X0099015Y0044058D01*
X0099246Y0044616D01*
X0099246Y0044626D01*
X0099250Y0044634D01*
X0099246Y0045237D01*
X0099246Y0048209D01*
X0099341Y0048209D01*
X0100205Y0049073D01*
X0100205Y0056596D01*
X0099593Y0057208D01*
X0099549Y0059528D01*
X0099060Y0060649D01*
X0098178Y0061498D01*
X0097039Y0061946D01*
X0095816Y0061923D01*
X0094694Y0061433D01*
X0093642Y0060035D02*
X0081312Y0060035D01*
X0081988Y0059052D02*
X0093404Y0059052D01*
X0093423Y0058069D02*
X0082237Y0058069D01*
X0082178Y0057086D02*
X0084729Y0057086D01*
X0084245Y0056104D02*
X0081774Y0056104D01*
X0080642Y0055121D02*
X0084245Y0055121D01*
X0084245Y0054138D02*
X0077317Y0054138D01*
X0077765Y0053155D02*
X0087804Y0053155D01*
X0087804Y0052173D02*
X0088788Y0052173D01*
X0088788Y0051190D02*
X0087804Y0051190D01*
X0087804Y0050207D02*
X0088788Y0050207D01*
X0088788Y0049224D02*
X0087804Y0049224D01*
X0087804Y0048242D02*
X0088788Y0048242D01*
X0089030Y0047259D02*
X0087700Y0047259D01*
X0087700Y0046276D02*
X0089030Y0046276D01*
X0089030Y0045293D02*
X0087700Y0045293D01*
X0089030Y0044311D02*
X0084300Y0044311D01*
X0084300Y0044346D02*
X0084300Y0043362D01*
X0084300Y0037963D01*
X0086404Y0037963D01*
X0086783Y0038064D01*
X0087124Y0038261D01*
X0087401Y0038539D01*
X0087598Y0038879D01*
X0087700Y0039258D01*
X0087700Y0043362D01*
X0084300Y0043362D01*
X0083316Y0043362D01*
X0083316Y0037963D01*
X0081212Y0037963D01*
X0080832Y0038064D01*
X0080492Y0038261D01*
X0080214Y0038539D01*
X0080018Y0038879D01*
X0079916Y0039258D01*
X0079916Y0043362D01*
X0083316Y0043362D01*
X0083316Y0044346D01*
X0079916Y0044346D01*
X0079916Y0048450D01*
X0080018Y0048830D01*
X0080214Y0049170D01*
X0080492Y0049448D01*
X0080832Y0049644D01*
X0081212Y0049746D01*
X0083316Y0049746D01*
X0083316Y0044346D01*
X0084300Y0044346D01*
X0084300Y0045293D02*
X0083316Y0045293D01*
X0083316Y0044311D02*
X0078585Y0044311D01*
X0078585Y0045293D02*
X0079916Y0045293D01*
X0079916Y0046276D02*
X0078585Y0046276D01*
X0078585Y0047259D02*
X0079916Y0047259D01*
X0079916Y0048242D02*
X0078585Y0048242D01*
X0078260Y0049224D02*
X0080269Y0049224D01*
X0078296Y0050207D02*
X0084245Y0050207D01*
X0084245Y0051190D02*
X0078296Y0051190D01*
X0078001Y0052173D02*
X0084245Y0052173D01*
X0084300Y0049224D02*
X0083316Y0049224D01*
X0083316Y0048242D02*
X0084300Y0048242D01*
X0084300Y0047259D02*
X0083316Y0047259D01*
X0083316Y0046276D02*
X0084300Y0046276D01*
X0084300Y0043328D02*
X0083316Y0043328D01*
X0083316Y0042345D02*
X0084300Y0042345D01*
X0084300Y0041362D02*
X0083316Y0041362D01*
X0083316Y0040379D02*
X0084300Y0040379D01*
X0084300Y0039397D02*
X0083316Y0039397D01*
X0083316Y0038414D02*
X0084300Y0038414D01*
X0080339Y0038414D02*
X0078156Y0038414D01*
X0078585Y0039397D02*
X0079916Y0039397D01*
X0079916Y0040379D02*
X0078585Y0040379D01*
X0078585Y0041362D02*
X0079916Y0041362D01*
X0079916Y0042345D02*
X0078585Y0042345D01*
X0078585Y0043328D02*
X0079916Y0043328D01*
X0071263Y0038414D02*
X0065473Y0038414D01*
X0065473Y0039397D02*
X0070833Y0039397D01*
X0070833Y0040379D02*
X0065473Y0040379D01*
X0065473Y0041362D02*
X0070833Y0041362D01*
X0070833Y0042345D02*
X0065473Y0042345D01*
X0065473Y0043328D02*
X0070833Y0043328D01*
X0070833Y0044311D02*
X0065473Y0044311D01*
X0065473Y0045293D02*
X0070833Y0045293D01*
X0070833Y0046276D02*
X0065736Y0046276D01*
X0061359Y0054138D02*
X0059687Y0054138D01*
X0059687Y0055121D02*
X0070875Y0055121D01*
X0070875Y0056104D02*
X0059687Y0056104D01*
X0059687Y0057086D02*
X0070875Y0057086D01*
X0070875Y0058069D02*
X0059608Y0058069D01*
X0059608Y0059052D02*
X0070875Y0059052D01*
X0070875Y0060035D02*
X0059608Y0060035D01*
X0053614Y0069862D02*
X0028615Y0069862D01*
X0028670Y0083621D02*
X0036266Y0083621D01*
X0042635Y0082638D02*
X0043688Y0082638D01*
X0038633Y0095414D02*
X0049325Y0095414D01*
X0048342Y0096397D02*
X0039182Y0096397D01*
X0039182Y0097380D02*
X0047359Y0097380D01*
X0046377Y0098363D02*
X0039182Y0098363D01*
X0039182Y0099345D02*
X0045394Y0099345D01*
X0044411Y0100328D02*
X0039182Y0100328D01*
X0039182Y0101311D02*
X0043473Y0101311D01*
X0039576Y0102294D02*
X0038799Y0102294D01*
X0044005Y0127845D02*
X0044202Y0127845D01*
X0044202Y0128828D02*
X0044005Y0128828D01*
X0044005Y0129811D02*
X0044202Y0129811D01*
X0039182Y0131776D02*
X0052237Y0131776D01*
X0052237Y0132759D02*
X0039182Y0132759D01*
X0039182Y0133742D02*
X0055205Y0133742D01*
X0052601Y0136690D02*
X0028882Y0136690D01*
X0028878Y0135708D02*
X0029143Y0135708D01*
X0029143Y0134725D02*
X0028874Y0134725D01*
X0028870Y0133742D02*
X0029143Y0133742D01*
X0029143Y0132759D02*
X0028866Y0132759D01*
X0028862Y0131776D02*
X0029143Y0131776D01*
X0029143Y0130794D02*
X0028858Y0130794D01*
X0028854Y0129811D02*
X0029153Y0129811D01*
X0028886Y0137673D02*
X0052253Y0137673D01*
X0052253Y0138656D02*
X0028890Y0138656D01*
X0028894Y0139639D02*
X0052253Y0139639D01*
X0052253Y0140621D02*
X0028898Y0140621D01*
X0028902Y0141604D02*
X0052253Y0141604D01*
X0052253Y0142587D02*
X0028905Y0142587D01*
X0028909Y0143570D02*
X0039155Y0143570D01*
X0043185Y0143570D02*
X0052809Y0143570D01*
X0055698Y0140236D02*
X0063493Y0140236D01*
X0060048Y0142587D02*
X0059143Y0142587D01*
X0058586Y0143570D02*
X0060605Y0143570D01*
X0060048Y0137673D02*
X0059143Y0137673D01*
X0058795Y0136690D02*
X0060396Y0136690D01*
X0060032Y0135708D02*
X0059158Y0135708D01*
X0059158Y0134725D02*
X0060032Y0134725D01*
X0060032Y0132759D02*
X0059158Y0132759D01*
X0059158Y0131776D02*
X0060032Y0131776D01*
X0060139Y0130794D02*
X0059052Y0130794D01*
X0063001Y0130794D02*
X0063985Y0130794D01*
X0063985Y0131776D02*
X0063001Y0131776D01*
X0052237Y0134725D02*
X0039182Y0134725D01*
X0039182Y0135708D02*
X0052237Y0135708D01*
X0043884Y0144552D02*
X0102572Y0144552D01*
X0102378Y0145535D02*
X0091411Y0145535D01*
X0092112Y0146518D02*
X0102378Y0146518D01*
X0102729Y0147501D02*
X0092364Y0147501D01*
X0092290Y0148483D02*
X0103570Y0148483D01*
X0106650Y0149466D02*
X0091842Y0149466D01*
X0090551Y0150449D02*
X0106650Y0150449D01*
X0107055Y0151432D02*
X0089225Y0151432D01*
X0088619Y0152414D02*
X0108139Y0152414D01*
X0110894Y0152414D02*
X0113599Y0152414D01*
X0113599Y0151432D02*
X0111978Y0151432D01*
X0112383Y0150449D02*
X0113599Y0150449D01*
X0113599Y0149466D02*
X0112383Y0149466D01*
X0112040Y0148483D02*
X0113599Y0148483D01*
X0113599Y0147501D02*
X0111308Y0147501D01*
X0111308Y0146518D02*
X0113599Y0146518D01*
X0113599Y0145535D02*
X0111308Y0145535D01*
X0111308Y0144552D02*
X0113599Y0144552D01*
X0113599Y0143570D02*
X0111308Y0143570D01*
X0111308Y0142587D02*
X0113599Y0142587D01*
X0113599Y0141604D02*
X0111308Y0141604D01*
X0111308Y0140621D02*
X0113599Y0140621D01*
X0113599Y0139639D02*
X0111308Y0139639D01*
X0111308Y0138656D02*
X0113599Y0138656D01*
X0113599Y0137673D02*
X0111308Y0137673D01*
X0111308Y0136690D02*
X0113599Y0136690D01*
X0113599Y0135708D02*
X0111308Y0135708D01*
X0111308Y0134725D02*
X0113599Y0134725D01*
X0113599Y0133742D02*
X0111308Y0133742D01*
X0111308Y0132759D02*
X0113599Y0132759D01*
X0113599Y0131776D02*
X0111308Y0131776D01*
X0111308Y0130794D02*
X0113599Y0130794D01*
X0113599Y0129811D02*
X0111308Y0129811D01*
X0111308Y0128828D02*
X0113599Y0128828D01*
X0113599Y0127845D02*
X0110801Y0127845D01*
X0110494Y0126863D02*
X0113599Y0126863D01*
X0113599Y0125880D02*
X0110181Y0125880D01*
X0109374Y0124897D02*
X0113599Y0124897D01*
X0113599Y0123914D02*
X0100828Y0123914D01*
X0100803Y0122932D02*
X0105103Y0122932D01*
X0104292Y0121949D02*
X0100396Y0121949D01*
X0099295Y0120966D02*
X0104245Y0120966D01*
X0105880Y0124897D02*
X0101623Y0124897D01*
X0101623Y0125880D02*
X0105072Y0125880D01*
X0104760Y0126863D02*
X0101741Y0126863D01*
X0101741Y0127845D02*
X0104789Y0127845D01*
X0105196Y0128828D02*
X0101741Y0128828D01*
X0101741Y0129811D02*
X0106427Y0129811D01*
X0105678Y0130794D02*
X0104694Y0130794D01*
X0104694Y0130594D02*
X0104694Y0133760D01*
X0101725Y0133760D01*
X0101725Y0131890D01*
X0101827Y0131511D01*
X0102023Y0131170D01*
X0102301Y0130893D01*
X0102641Y0130696D01*
X0103021Y0130594D01*
X0104694Y0130594D01*
X0104694Y0131776D02*
X0105678Y0131776D01*
X0105678Y0132759D02*
X0104694Y0132759D01*
X0104694Y0133742D02*
X0105678Y0133742D01*
X0104694Y0134725D02*
X0099892Y0134725D01*
X0100583Y0135708D02*
X0101725Y0135708D01*
X0101746Y0136690D02*
X0100828Y0136690D01*
X0100748Y0137673D02*
X0102236Y0137673D01*
X0101741Y0138656D02*
X0100291Y0138656D01*
X0098976Y0139639D02*
X0101741Y0139639D01*
X0101725Y0133742D02*
X0098151Y0133742D01*
X0097908Y0132759D02*
X0101725Y0132759D01*
X0101756Y0131776D02*
X0101560Y0131776D01*
X0101741Y0130794D02*
X0102472Y0130794D01*
X0095198Y0124897D02*
X0078876Y0124897D01*
X0080600Y0120966D02*
X0082449Y0120966D01*
X0077489Y0101311D02*
X0076021Y0101311D01*
X0076512Y0100328D02*
X0077489Y0100328D01*
X0077489Y0099345D02*
X0076616Y0099345D01*
X0076394Y0098363D02*
X0077489Y0098363D01*
X0077489Y0097380D02*
X0075736Y0097380D01*
X0074418Y0088535D02*
X0061271Y0088535D01*
X0083906Y0088535D02*
X0094967Y0088535D01*
X0094898Y0089518D02*
X0083906Y0089518D01*
X0083906Y0090500D02*
X0095154Y0090500D01*
X0095861Y0091483D02*
X0083906Y0091483D01*
X0083906Y0087552D02*
X0095409Y0087552D01*
X0099831Y0083621D02*
X0099832Y0083621D01*
X0099831Y0082638D02*
X0099832Y0082638D01*
X0099831Y0081656D02*
X0099832Y0081656D01*
X0099831Y0080673D02*
X0099832Y0080673D01*
X0094103Y0079690D02*
X0091533Y0079690D01*
X0093606Y0078707D02*
X0094103Y0078707D01*
X0094103Y0077724D02*
X0094103Y0077724D01*
X0094103Y0076742D02*
X0094103Y0076742D01*
X0094103Y0075759D02*
X0094177Y0075759D01*
X0094103Y0074776D02*
X0095160Y0074776D01*
X0096143Y0073793D02*
X0094103Y0073793D01*
X0093864Y0072811D02*
X0097304Y0072811D01*
X0096843Y0071828D02*
X0093792Y0071828D01*
X0094103Y0070845D02*
X0096843Y0070845D01*
X0099812Y0067897D02*
X0100796Y0067897D01*
X0100796Y0066914D02*
X0099812Y0066914D01*
X0099812Y0065931D02*
X0100796Y0065931D01*
X0098678Y0061018D02*
X0113599Y0061018D01*
X0113599Y0060035D02*
X0099328Y0060035D01*
X0099558Y0059052D02*
X0113599Y0059052D01*
X0113599Y0058069D02*
X0099577Y0058069D01*
X0099715Y0057086D02*
X0113599Y0057086D01*
X0113599Y0056104D02*
X0100205Y0056104D01*
X0100205Y0055121D02*
X0113599Y0055121D01*
X0113599Y0054138D02*
X0100205Y0054138D01*
X0100205Y0053155D02*
X0113599Y0053155D01*
X0113599Y0052173D02*
X0100205Y0052173D01*
X0100205Y0051190D02*
X0113599Y0051190D01*
X0113599Y0050207D02*
X0100205Y0050207D01*
X0100205Y0049224D02*
X0113599Y0049224D01*
X0113599Y0048242D02*
X0099374Y0048242D01*
X0099246Y0047259D02*
X0113599Y0047259D01*
X0113599Y0046276D02*
X0099246Y0046276D01*
X0099246Y0045293D02*
X0113599Y0045293D01*
X0113599Y0044311D02*
X0099120Y0044311D01*
X0098620Y0043328D02*
X0113599Y0043328D01*
X0113599Y0042345D02*
X0097250Y0042345D01*
X0096782Y0041362D02*
X0113599Y0041362D01*
X0113599Y0040379D02*
X0096782Y0040379D01*
X0096782Y0039397D02*
X0113599Y0039397D01*
X0113599Y0038414D02*
X0096353Y0038414D01*
X0089460Y0038414D02*
X0087277Y0038414D01*
X0087700Y0039397D02*
X0089030Y0039397D01*
X0089030Y0040379D02*
X0087700Y0040379D01*
X0087700Y0041362D02*
X0089030Y0041362D01*
X0089030Y0042345D02*
X0087700Y0042345D01*
X0087700Y0043328D02*
X0089030Y0043328D01*
X0088788Y0054138D02*
X0087804Y0054138D01*
X0087804Y0055121D02*
X0088788Y0055121D01*
X0088788Y0056104D02*
X0087804Y0056104D01*
X0087804Y0057086D02*
X0088788Y0057086D01*
X0091863Y0057086D02*
X0092625Y0057086D01*
X0113599Y0037431D02*
X0065473Y0037431D01*
X0065473Y0036448D02*
X0113599Y0036448D01*
X0113599Y0035466D02*
X0065473Y0035466D01*
X0065473Y0034483D02*
X0113599Y0034483D01*
X0113599Y0033500D02*
X0065473Y0033500D01*
X0065473Y0032517D02*
X0113599Y0032517D01*
X0113599Y0031535D02*
X0065473Y0031535D01*
X0065473Y0030552D02*
X0113599Y0030552D01*
X0113599Y0029569D02*
X0065473Y0029569D01*
X0065473Y0028586D02*
X0113599Y0028586D01*
X0113599Y0027604D02*
X0065473Y0027604D01*
X0065473Y0026621D02*
X0113599Y0026621D01*
X0113599Y0025638D02*
X0065473Y0025638D01*
X0065473Y0024655D02*
X0075502Y0024655D01*
X0075229Y0023673D02*
X0065473Y0023673D01*
X0065473Y0022690D02*
X0075229Y0022690D01*
X0075229Y0021707D02*
X0065473Y0021707D01*
X0065473Y0020724D02*
X0075229Y0020724D01*
X0075229Y0018759D02*
X0065473Y0018759D01*
X0065473Y0019741D02*
X0083316Y0019741D01*
X0083316Y0020724D02*
X0084300Y0020724D01*
X0084300Y0019945D02*
X0084300Y0025276D01*
X0091091Y0025276D01*
X0091470Y0025174D01*
X0091811Y0024977D01*
X0092088Y0024700D01*
X0092285Y0024359D01*
X0092387Y0023980D01*
X0092387Y0019945D01*
X0084300Y0019945D01*
X0084300Y0019741D02*
X0113599Y0019741D01*
X0113599Y0018759D02*
X0092387Y0018759D01*
X0092387Y0017776D02*
X0113599Y0017776D01*
X0113599Y0016793D02*
X0092387Y0016793D01*
X0092387Y0020724D02*
X0113599Y0020724D01*
X0113599Y0021707D02*
X0092387Y0021707D01*
X0092387Y0022690D02*
X0113599Y0022690D01*
X0113599Y0023673D02*
X0092387Y0023673D01*
X0092114Y0024655D02*
X0113599Y0024655D01*
X0084300Y0024655D02*
X0083316Y0024655D01*
X0083316Y0023673D02*
X0084300Y0023673D01*
X0084300Y0022690D02*
X0083316Y0022690D01*
X0083316Y0021707D02*
X0084300Y0021707D01*
X0075229Y0017776D02*
X0065473Y0017776D01*
X0065473Y0016793D02*
X0075229Y0016793D01*
X0075229Y0015810D02*
X0065473Y0015810D01*
X0110338Y0087552D02*
X0113599Y0087552D01*
X0113599Y0088535D02*
X0110553Y0088535D01*
X0110442Y0089518D02*
X0113599Y0089518D01*
X0113599Y0090500D02*
X0111081Y0090500D01*
X0111150Y0091483D02*
X0113599Y0091483D01*
X0113599Y0092466D02*
X0111150Y0092466D01*
X0111150Y0093449D02*
X0113599Y0093449D01*
X0113599Y0094431D02*
X0111150Y0094431D01*
X0111150Y0095414D02*
X0113599Y0095414D01*
X0113599Y0096397D02*
X0111150Y0096397D01*
X0111150Y0097380D02*
X0113599Y0097380D01*
X0113599Y0098363D02*
X0111150Y0098363D01*
X0111150Y0099345D02*
X0113599Y0099345D01*
X0113599Y0100328D02*
X0111150Y0100328D01*
X0111150Y0101311D02*
X0113599Y0101311D01*
X0113599Y0102294D02*
X0111150Y0102294D01*
X0111150Y0103276D02*
X0113599Y0103276D01*
X0113599Y0104259D02*
X0111150Y0104259D01*
X0111150Y0105242D02*
X0113599Y0105242D01*
X0113599Y0106225D02*
X0111150Y0106225D01*
X0111150Y0107207D02*
X0113599Y0107207D01*
X0113599Y0108190D02*
X0111150Y0108190D01*
X0111150Y0109173D02*
X0113599Y0109173D01*
X0113599Y0110156D02*
X0111150Y0110156D01*
X0111150Y0111138D02*
X0113599Y0111138D01*
X0113599Y0112121D02*
X0111150Y0112121D01*
X0111150Y0113104D02*
X0113599Y0113104D01*
X0113599Y0114087D02*
X0111150Y0114087D01*
X0111150Y0115069D02*
X0113599Y0115069D01*
X0113599Y0116052D02*
X0111150Y0116052D01*
X0111150Y0117035D02*
X0113599Y0117035D01*
X0113599Y0118018D02*
X0111150Y0118018D01*
X0111150Y0119001D02*
X0113599Y0119001D01*
X0113599Y0119983D02*
X0111150Y0119983D01*
X0111166Y0120966D02*
X0113599Y0120966D01*
X0113599Y0121949D02*
X0111119Y0121949D01*
X0110308Y0122932D02*
X0113599Y0122932D01*
X0107706Y0122932D02*
X0107705Y0122932D01*
X0107705Y0121949D02*
X0107706Y0121949D01*
X0104261Y0115069D02*
X0103694Y0115069D01*
X0104261Y0114087D02*
X0102711Y0114087D01*
X0101729Y0113104D02*
X0104261Y0113104D01*
X0104261Y0100328D02*
X0102820Y0100328D01*
X0104226Y0099345D02*
X0104261Y0099345D01*
X0087386Y0145535D02*
X0044135Y0145535D01*
X0044061Y0146518D02*
X0082001Y0146518D01*
X0081018Y0147501D02*
X0043611Y0147501D01*
X0042315Y0148483D02*
X0080035Y0148483D01*
X0081316Y0155363D02*
X0043167Y0155363D01*
X0043877Y0156346D02*
X0113599Y0156346D01*
X0113599Y0157328D02*
X0098900Y0157328D01*
X0098937Y0157349D02*
X0099214Y0157627D01*
X0099411Y0157967D01*
X0099513Y0158347D01*
X0099513Y0160217D01*
X0096544Y0160217D01*
X0096544Y0161201D01*
X0099513Y0161201D01*
X0099513Y0163070D01*
X0099411Y0163450D01*
X0099214Y0163790D01*
X0098938Y0164066D01*
X0099497Y0164625D01*
X0099497Y0170178D01*
X0098632Y0171043D01*
X0097686Y0171043D01*
X0097686Y0171476D01*
X0098908Y0171476D01*
X0098957Y0171526D01*
X0099202Y0171461D01*
X0099831Y0171461D01*
X0099831Y0174921D01*
X0099832Y0174921D01*
X0099832Y0174921D01*
X0101757Y0174921D01*
X0101757Y0172756D01*
X0101655Y0172377D01*
X0101459Y0172037D01*
X0101181Y0171759D01*
X0100841Y0171562D01*
X0100461Y0171461D01*
X0099832Y0171461D01*
X0099832Y0174921D01*
X0101757Y0174921D01*
X0101757Y0177086D01*
X0101655Y0177466D01*
X0101459Y0177806D01*
X0101181Y0178084D01*
X0100841Y0178280D01*
X0100461Y0178382D01*
X0100242Y0178382D01*
X0100377Y0178517D01*
X0100828Y0179607D01*
X0100828Y0180787D01*
X0100377Y0181877D01*
X0099543Y0182711D01*
X0098453Y0183162D01*
X0097273Y0183162D01*
X0096183Y0182711D01*
X0095349Y0181877D01*
X0094898Y0180787D01*
X0094898Y0179607D01*
X0095349Y0178517D01*
X0095500Y0178366D01*
X0083906Y0178366D01*
X0083906Y0179566D01*
X0084779Y0179927D01*
X0085613Y0180761D01*
X0086065Y0181851D01*
X0086065Y0183031D01*
X0085613Y0184121D01*
X0084779Y0184955D01*
X0083742Y0185384D01*
X0083742Y0186417D01*
X0083290Y0187507D01*
X0082456Y0188341D01*
X0081366Y0188792D01*
X0080187Y0188792D01*
X0079097Y0188341D01*
X0078768Y0188013D01*
X0078244Y0188538D01*
X0077154Y0188989D01*
X0075974Y0188989D01*
X0074884Y0188538D01*
X0074050Y0187703D01*
X0073598Y0186613D01*
X0073598Y0185434D01*
X0073691Y0185209D01*
X0073572Y0185209D01*
X0072482Y0184758D01*
X0071648Y0183924D01*
X0071197Y0182834D01*
X0071197Y0181654D01*
X0071648Y0180564D01*
X0072482Y0179730D01*
X0073572Y0179279D01*
X0074418Y0179279D01*
X0074418Y0178382D01*
X0074241Y0178382D01*
X0074241Y0174921D01*
X0074241Y0171461D01*
X0074870Y0171461D01*
X0075115Y0171526D01*
X0075165Y0171476D01*
X0084261Y0171476D01*
X0084261Y0170295D01*
X0082173Y0170295D01*
X0081308Y0169430D01*
X0081308Y0169230D01*
X0080373Y0170165D01*
X0075904Y0170165D01*
X0074981Y0169242D01*
X0074786Y0169711D01*
X0074064Y0170434D01*
X0074064Y0171461D01*
X0074241Y0171461D01*
X0074241Y0174921D01*
X0074241Y0174921D01*
X0074241Y0174921D01*
X0074241Y0178382D01*
X0073611Y0178382D01*
X0073367Y0178316D01*
X0073317Y0178366D01*
X0069259Y0178366D01*
X0068394Y0177501D01*
X0068394Y0176713D01*
X0059392Y0176713D01*
X0055101Y0181004D01*
X0059732Y0181004D01*
X0059850Y0180886D01*
X0065010Y0180886D01*
X0065875Y0181751D01*
X0065875Y0211399D01*
X0065825Y0211449D01*
X0065891Y0211693D01*
X0065891Y0212323D01*
X0065891Y0212952D01*
X0065789Y0213332D01*
X0065592Y0213672D01*
X0065315Y0213950D01*
X0064974Y0214146D01*
X0064595Y0214248D01*
X0062430Y0214248D01*
X0062430Y0212323D01*
X0062430Y0212323D01*
X0065891Y0212323D01*
X0062430Y0212323D01*
X0062430Y0212323D01*
X0062430Y0214248D01*
X0060265Y0214248D01*
X0059885Y0214146D01*
X0059545Y0213950D01*
X0059267Y0213672D01*
X0059071Y0213332D01*
X0058969Y0212952D01*
X0058969Y0212323D01*
X0062430Y0212323D01*
X0062430Y0212323D01*
X0058969Y0212323D01*
X0058969Y0211693D01*
X0059035Y0211449D01*
X0058985Y0211399D01*
X0058985Y0206240D01*
X0058394Y0206240D01*
X0058394Y0216766D01*
X0057765Y0217396D01*
X0056715Y0218445D01*
X0056427Y0218445D01*
X0055994Y0218878D01*
X0048472Y0218878D01*
X0047607Y0218013D01*
X0047607Y0214428D01*
X0048177Y0213858D01*
X0047607Y0213289D01*
X0047607Y0212081D01*
X0046741Y0211214D01*
X0046741Y0214352D01*
X0046545Y0214548D01*
X0046655Y0214739D01*
X0046757Y0215119D01*
X0046757Y0216398D01*
X0042312Y0216398D01*
X0042312Y0216594D01*
X0046757Y0216594D01*
X0046757Y0217874D01*
X0046655Y0218253D01*
X0046459Y0218593D01*
X0046181Y0218871D01*
X0045841Y0219068D01*
X0045461Y0219169D01*
X0042312Y0219169D01*
X0042312Y0216595D01*
X0042115Y0216595D01*
X0042115Y0219169D01*
X0038966Y0219169D01*
X0038586Y0219068D01*
X0038246Y0218871D01*
X0037968Y0218593D01*
X0037772Y0218253D01*
X0037670Y0217874D01*
X0037670Y0216594D01*
X0042115Y0216594D01*
X0042115Y0216398D01*
X0037670Y0216398D01*
X0037670Y0215119D01*
X0037770Y0214744D01*
X0037667Y0214744D01*
X0036944Y0215467D01*
X0035854Y0215918D01*
X0034675Y0215918D01*
X0033585Y0215467D01*
X0032751Y0214632D01*
X0032299Y0213543D01*
X0032299Y0212363D01*
X0029185Y0212363D01*
X0029181Y0211380D02*
X0032706Y0211380D01*
X0032730Y0211323D02*
X0032125Y0210718D01*
X0031689Y0209665D01*
X0031689Y0208524D01*
X0032125Y0207470D01*
X0032794Y0206802D01*
X0032121Y0206129D01*
X0031669Y0205039D01*
X0031669Y0203859D01*
X0032121Y0202769D01*
X0032955Y0201935D01*
X0034045Y0201483D01*
X0035224Y0201483D01*
X0036314Y0201935D01*
X0037037Y0202657D01*
X0037803Y0202657D01*
X0037686Y0202541D01*
X0037686Y0198955D01*
X0037862Y0198780D01*
X0037686Y0198604D01*
X0037686Y0195018D01*
X0037862Y0194843D01*
X0037686Y0194667D01*
X0037686Y0191081D01*
X0038551Y0190217D01*
X0040954Y0190217D01*
X0040954Y0190085D01*
X0042003Y0189035D01*
X0051833Y0179205D01*
X0051623Y0179205D01*
X0050570Y0178769D01*
X0049763Y0177963D01*
X0049327Y0176909D01*
X0049327Y0176005D01*
X0047987Y0174665D01*
X0042566Y0174665D01*
X0042008Y0174107D01*
X0041732Y0174383D01*
X0041392Y0174579D01*
X0041012Y0174681D01*
X0039142Y0174681D01*
X0039142Y0171713D01*
X0038158Y0171713D01*
X0038158Y0174681D01*
X0036289Y0174681D01*
X0035909Y0174579D01*
X0035569Y0174383D01*
X0035291Y0174105D01*
X0035095Y0173765D01*
X0034993Y0173385D01*
X0034993Y0171713D01*
X0038158Y0171713D01*
X0038158Y0170728D01*
X0039142Y0170728D01*
X0039142Y0167760D01*
X0041012Y0167760D01*
X0041392Y0167862D01*
X0041732Y0168058D01*
X0042008Y0168334D01*
X0042566Y0167776D01*
X0048120Y0167776D01*
X0048985Y0168640D01*
X0048985Y0170597D01*
X0051860Y0173472D01*
X0052764Y0173472D01*
X0053818Y0173908D01*
X0054624Y0174715D01*
X0055061Y0175768D01*
X0055061Y0175978D01*
X0057908Y0173130D01*
X0068394Y0173130D01*
X0068394Y0172341D01*
X0069259Y0171476D01*
X0070481Y0171476D01*
X0070481Y0170434D01*
X0069870Y0169823D01*
X0067961Y0169823D01*
X0067961Y0169824D01*
X0067097Y0170689D01*
X0061543Y0170689D01*
X0060984Y0170131D01*
X0060708Y0170407D01*
X0060368Y0170603D01*
X0059989Y0170705D01*
X0058119Y0170705D01*
X0058119Y0167736D01*
X0057135Y0167736D01*
X0057135Y0170705D01*
X0055265Y0170705D01*
X0054885Y0170603D01*
X0054545Y0170407D01*
X0054267Y0170129D01*
X0054071Y0169789D01*
X0053969Y0169409D01*
X0053969Y0167736D01*
X0057135Y0167736D01*
X0057135Y0166752D01*
X0058119Y0166752D01*
X0058119Y0163783D01*
X0059989Y0163783D01*
X0060368Y0163885D01*
X0060708Y0164082D01*
X0060984Y0164358D01*
X0061543Y0163799D01*
X0067097Y0163799D01*
X0067961Y0164664D01*
X0067961Y0166240D01*
X0069870Y0166240D01*
X0070593Y0165518D01*
X0071683Y0165066D01*
X0072704Y0165066D01*
X0072841Y0164929D01*
X0074694Y0164929D01*
X0074694Y0164486D01*
X0075904Y0163276D01*
X0080373Y0163276D01*
X0081338Y0164241D01*
X0082074Y0163504D01*
X0081308Y0162738D01*
X0081308Y0162325D01*
X0080373Y0163260D01*
X0075904Y0163260D01*
X0074694Y0162049D01*
X0074694Y0157581D01*
X0075904Y0156370D01*
X0080373Y0156370D01*
X0081444Y0157441D01*
X0082173Y0156713D01*
X0087726Y0156713D01*
X0088591Y0157577D01*
X0088591Y0162738D01*
X0087825Y0163504D01*
X0088591Y0164270D01*
X0088591Y0169430D01*
X0087843Y0170178D01*
X0087843Y0171476D01*
X0094103Y0171476D01*
X0094103Y0171043D01*
X0093472Y0171043D01*
X0092607Y0170178D01*
X0092607Y0164625D01*
X0093166Y0164066D01*
X0092889Y0163790D01*
X0092693Y0163450D01*
X0092591Y0163070D01*
X0092591Y0161201D01*
X0095560Y0161201D01*
X0095560Y0160217D01*
X0092591Y0160217D01*
X0092591Y0158347D01*
X0092693Y0157967D01*
X0092889Y0157627D01*
X0093167Y0157349D01*
X0093508Y0157153D01*
X0093887Y0157051D01*
X0095560Y0157051D01*
X0095560Y0160216D01*
X0096544Y0160216D01*
X0096544Y0157051D01*
X0098217Y0157051D01*
X0098596Y0157153D01*
X0098937Y0157349D01*
X0099503Y0158311D02*
X0113599Y0158311D01*
X0113599Y0159294D02*
X0099513Y0159294D01*
X0099513Y0161259D02*
X0113599Y0161259D01*
X0113599Y0160277D02*
X0096544Y0160277D01*
X0096544Y0159294D02*
X0095560Y0159294D01*
X0095560Y0160277D02*
X0088591Y0160277D01*
X0088591Y0161259D02*
X0092591Y0161259D01*
X0092591Y0162242D02*
X0088591Y0162242D01*
X0088104Y0163225D02*
X0092633Y0163225D01*
X0093024Y0164208D02*
X0088529Y0164208D01*
X0088591Y0165190D02*
X0092607Y0165190D01*
X0092607Y0166173D02*
X0088591Y0166173D01*
X0088591Y0167156D02*
X0092607Y0167156D01*
X0092607Y0168139D02*
X0088591Y0168139D01*
X0088591Y0169121D02*
X0092607Y0169121D01*
X0092607Y0170104D02*
X0087918Y0170104D01*
X0087843Y0171087D02*
X0094103Y0171087D01*
X0097686Y0171087D02*
X0113599Y0171087D01*
X0113599Y0172070D02*
X0101478Y0172070D01*
X0101757Y0173053D02*
X0113599Y0173053D01*
X0113599Y0174035D02*
X0101757Y0174035D01*
X0101757Y0175018D02*
X0113599Y0175018D01*
X0113599Y0176001D02*
X0101757Y0176001D01*
X0101757Y0176984D02*
X0107371Y0176984D01*
X0107627Y0176877D02*
X0106538Y0177329D01*
X0105703Y0178163D01*
X0105252Y0179253D01*
X0105252Y0180432D01*
X0105440Y0180886D01*
X0105125Y0180886D01*
X0104261Y0181751D01*
X0104261Y0182913D01*
X0104228Y0182880D01*
X0104261Y0182880D01*
X0104228Y0182880D02*
X0103138Y0182428D01*
X0101958Y0182428D01*
X0100868Y0182880D01*
X0099134Y0182880D01*
X0100034Y0183714D02*
X0100868Y0182880D01*
X0100356Y0181897D02*
X0104261Y0181897D01*
X0105097Y0180915D02*
X0100775Y0180915D01*
X0100828Y0179932D02*
X0105252Y0179932D01*
X0105378Y0178949D02*
X0100556Y0178949D01*
X0101298Y0177966D02*
X0105900Y0177966D01*
X0107627Y0176877D02*
X0108807Y0176877D01*
X0109897Y0177329D01*
X0110731Y0178163D01*
X0111183Y0179253D01*
X0111183Y0180432D01*
X0110787Y0181387D01*
X0111150Y0181751D01*
X0111150Y0211399D01*
X0111101Y0211449D01*
X0111166Y0211693D01*
X0111166Y0212323D01*
X0111166Y0212952D01*
X0111064Y0213332D01*
X0110868Y0213672D01*
X0110590Y0213950D01*
X0110250Y0214146D01*
X0109870Y0214248D01*
X0107706Y0214248D01*
X0107706Y0212323D01*
X0111166Y0212323D01*
X0107706Y0212323D01*
X0107706Y0212323D01*
X0107705Y0212323D01*
X0107705Y0212323D01*
X0104245Y0212323D01*
X0104245Y0212952D01*
X0104347Y0213332D01*
X0104543Y0213672D01*
X0104821Y0213950D01*
X0105161Y0214146D01*
X0105541Y0214248D01*
X0107705Y0214248D01*
X0107705Y0212323D01*
X0104245Y0212323D01*
X0104245Y0212146D01*
X0102284Y0212146D01*
X0102521Y0212717D01*
X0102521Y0213897D01*
X0102070Y0214987D01*
X0101623Y0215434D01*
X0101623Y0217499D01*
X0101741Y0217617D01*
X0101741Y0222777D01*
X0100876Y0223642D01*
X0098787Y0223642D01*
X0096939Y0223642D01*
X0079353Y0223642D01*
X0079812Y0224101D01*
X0079812Y0232658D01*
X0080451Y0233297D01*
X0080887Y0234351D01*
X0080887Y0235492D01*
X0080451Y0236545D01*
X0079644Y0237352D01*
X0078591Y0237788D01*
X0077450Y0237788D01*
X0076396Y0237352D01*
X0075590Y0236545D01*
X0075154Y0235492D01*
X0075154Y0234351D01*
X0075590Y0233297D01*
X0076229Y0232658D01*
X0076229Y0231219D01*
X0075815Y0231391D01*
X0074635Y0231391D01*
X0073545Y0230939D01*
X0072711Y0230105D01*
X0072260Y0229015D01*
X0072260Y0228438D01*
X0071683Y0228438D01*
X0070593Y0227986D01*
X0069759Y0227152D01*
X0069307Y0226062D01*
X0069307Y0224883D01*
X0069759Y0223793D01*
X0069894Y0223657D01*
X0069674Y0223657D01*
X0069295Y0223556D01*
X0068955Y0223359D01*
X0068677Y0223082D01*
X0068480Y0222741D01*
X0068379Y0222362D01*
X0068379Y0220197D01*
X0070304Y0220197D01*
X0070304Y0220197D01*
X0070304Y0216736D01*
X0070933Y0216736D01*
X0071178Y0216802D01*
X0071228Y0216752D01*
X0074634Y0216752D01*
X0074129Y0216247D01*
X0073677Y0215157D01*
X0073677Y0213977D01*
X0074129Y0212887D01*
X0074963Y0212053D01*
X0076053Y0211602D01*
X0077232Y0211602D01*
X0078322Y0212053D01*
X0079156Y0212887D01*
X0079608Y0213977D01*
X0079608Y0214999D01*
X0079969Y0215360D01*
X0079969Y0216752D01*
X0098040Y0216752D01*
X0098040Y0215889D01*
X0097876Y0215821D01*
X0097042Y0214987D01*
X0096591Y0213897D01*
X0096591Y0212717D01*
X0097042Y0211627D01*
X0097843Y0210827D01*
X0097790Y0210774D01*
X0097339Y0209684D01*
X0097339Y0208505D01*
X0097790Y0207415D01*
X0098295Y0206909D01*
X0097672Y0206286D01*
X0097220Y0205196D01*
X0097220Y0204016D01*
X0097672Y0202927D01*
X0098506Y0202092D01*
X0099596Y0201641D01*
X0100776Y0201641D01*
X0101866Y0202092D01*
X0102700Y0202927D01*
X0103151Y0204016D01*
X0103151Y0205038D01*
X0104261Y0206148D01*
X0104261Y0191751D01*
X0103542Y0192470D01*
X0102488Y0192906D01*
X0101348Y0192906D01*
X0100294Y0192470D01*
X0099488Y0191663D01*
X0099051Y0190610D01*
X0099051Y0189469D01*
X0099488Y0188415D01*
X0100294Y0187609D01*
X0100489Y0187528D01*
X0100034Y0187073D01*
X0099583Y0185984D01*
X0099583Y0184804D01*
X0100034Y0183714D01*
X0099972Y0183863D02*
X0085720Y0183863D01*
X0086065Y0182880D02*
X0096592Y0182880D01*
X0095370Y0181897D02*
X0086065Y0181897D01*
X0085677Y0180915D02*
X0094951Y0180915D01*
X0094898Y0179932D02*
X0084784Y0179932D01*
X0083906Y0178949D02*
X0095170Y0178949D01*
X0099831Y0174035D02*
X0099832Y0174035D01*
X0099831Y0173053D02*
X0099832Y0173053D01*
X0099831Y0172070D02*
X0099832Y0172070D01*
X0099497Y0170104D02*
X0113599Y0170104D01*
X0113599Y0169121D02*
X0099497Y0169121D01*
X0099497Y0168139D02*
X0113599Y0168139D01*
X0113599Y0167156D02*
X0099497Y0167156D01*
X0099497Y0166173D02*
X0113599Y0166173D01*
X0113599Y0165190D02*
X0099497Y0165190D01*
X0099080Y0164208D02*
X0113599Y0164208D01*
X0113599Y0163225D02*
X0099471Y0163225D01*
X0099513Y0162242D02*
X0113599Y0162242D01*
X0113599Y0155363D02*
X0085670Y0155363D01*
X0086274Y0154380D02*
X0113599Y0154380D01*
X0113599Y0153397D02*
X0086458Y0153397D01*
X0088342Y0157328D02*
X0093204Y0157328D01*
X0092601Y0158311D02*
X0088591Y0158311D01*
X0088591Y0159294D02*
X0092591Y0159294D01*
X0095560Y0158311D02*
X0096544Y0158311D01*
X0096544Y0157328D02*
X0095560Y0157328D01*
X0084261Y0171087D02*
X0074064Y0171087D01*
X0074241Y0172070D02*
X0074241Y0172070D01*
X0074241Y0173053D02*
X0074241Y0173053D01*
X0074241Y0174035D02*
X0074241Y0174035D01*
X0074241Y0175018D02*
X0074241Y0175018D01*
X0074241Y0176001D02*
X0074241Y0176001D01*
X0074241Y0176984D02*
X0074241Y0176984D01*
X0074241Y0177966D02*
X0074241Y0177966D01*
X0074418Y0178949D02*
X0057156Y0178949D01*
X0058139Y0177966D02*
X0068860Y0177966D01*
X0068394Y0176984D02*
X0059121Y0176984D01*
X0057003Y0174035D02*
X0053945Y0174035D01*
X0054750Y0175018D02*
X0056020Y0175018D01*
X0056173Y0179932D02*
X0072281Y0179932D01*
X0071503Y0180915D02*
X0065039Y0180915D01*
X0065875Y0181897D02*
X0071197Y0181897D01*
X0071216Y0182880D02*
X0065875Y0182880D01*
X0065875Y0183863D02*
X0071623Y0183863D01*
X0072694Y0184846D02*
X0065875Y0184846D01*
X0065875Y0185828D02*
X0073598Y0185828D01*
X0073680Y0186811D02*
X0065875Y0186811D01*
X0065875Y0187794D02*
X0074140Y0187794D01*
X0075462Y0188777D02*
X0065875Y0188777D01*
X0065875Y0189759D02*
X0099051Y0189759D01*
X0099106Y0190742D02*
X0065875Y0190742D01*
X0065875Y0191725D02*
X0099549Y0191725D01*
X0100869Y0192708D02*
X0065875Y0192708D01*
X0065875Y0193691D02*
X0104261Y0193691D01*
X0104261Y0194673D02*
X0065875Y0194673D01*
X0065875Y0195656D02*
X0104261Y0195656D01*
X0104261Y0196639D02*
X0065875Y0196639D01*
X0065875Y0197622D02*
X0104261Y0197622D01*
X0104261Y0198604D02*
X0065875Y0198604D01*
X0065875Y0199587D02*
X0104261Y0199587D01*
X0104261Y0200570D02*
X0065875Y0200570D01*
X0065875Y0201553D02*
X0104261Y0201553D01*
X0104261Y0202535D02*
X0102309Y0202535D01*
X0102945Y0203518D02*
X0104261Y0203518D01*
X0104261Y0204501D02*
X0103151Y0204501D01*
X0103597Y0205484D02*
X0104261Y0205484D01*
X0104245Y0212363D02*
X0102375Y0212363D01*
X0102521Y0213346D02*
X0104355Y0213346D01*
X0102342Y0214329D02*
X0113599Y0214329D01*
X0113599Y0215311D02*
X0101745Y0215311D01*
X0101623Y0216294D02*
X0105669Y0216294D01*
X0105763Y0216131D02*
X0106041Y0215853D01*
X0106382Y0215657D01*
X0106761Y0215555D01*
X0108434Y0215555D01*
X0108434Y0218720D01*
X0109418Y0218720D01*
X0109418Y0215555D01*
X0111091Y0215555D01*
X0111470Y0215657D01*
X0111811Y0215853D01*
X0112088Y0216131D01*
X0112285Y0216471D01*
X0112387Y0216851D01*
X0112387Y0218720D01*
X0109418Y0218720D01*
X0109418Y0219705D01*
X0112387Y0219705D01*
X0112387Y0221574D01*
X0112285Y0221954D01*
X0112088Y0222294D01*
X0111812Y0222570D01*
X0112371Y0223129D01*
X0112371Y0228682D01*
X0111506Y0229547D01*
X0107076Y0229547D01*
X0106669Y0229955D01*
X0105579Y0230406D01*
X0104399Y0230406D01*
X0103309Y0229955D01*
X0102475Y0229121D01*
X0102024Y0228031D01*
X0102024Y0226851D01*
X0102475Y0225761D01*
X0103309Y0224927D01*
X0104399Y0224476D01*
X0105481Y0224476D01*
X0105481Y0223129D01*
X0106040Y0222570D01*
X0105763Y0222294D01*
X0105567Y0221954D01*
X0105465Y0221574D01*
X0105465Y0219705D01*
X0108434Y0219705D01*
X0108434Y0218720D01*
X0105465Y0218720D01*
X0105465Y0216851D01*
X0105567Y0216471D01*
X0105763Y0216131D01*
X0105465Y0217277D02*
X0101623Y0217277D01*
X0101741Y0218260D02*
X0105465Y0218260D01*
X0105465Y0220225D02*
X0101741Y0220225D01*
X0101741Y0219242D02*
X0108434Y0219242D01*
X0108434Y0218260D02*
X0109418Y0218260D01*
X0109418Y0219242D02*
X0113599Y0219242D01*
X0113599Y0218260D02*
X0112387Y0218260D01*
X0112387Y0217277D02*
X0113599Y0217277D01*
X0113599Y0216294D02*
X0112183Y0216294D01*
X0111056Y0213346D02*
X0113599Y0213346D01*
X0113599Y0212363D02*
X0111166Y0212363D01*
X0111150Y0211380D02*
X0113599Y0211380D01*
X0113599Y0210398D02*
X0111150Y0210398D01*
X0111150Y0209415D02*
X0113599Y0209415D01*
X0113599Y0208432D02*
X0111150Y0208432D01*
X0111150Y0207449D02*
X0113599Y0207449D01*
X0113599Y0206466D02*
X0111150Y0206466D01*
X0111150Y0205484D02*
X0113599Y0205484D01*
X0113599Y0204501D02*
X0111150Y0204501D01*
X0111150Y0203518D02*
X0113599Y0203518D01*
X0113599Y0202535D02*
X0111150Y0202535D01*
X0111150Y0201553D02*
X0113599Y0201553D01*
X0113599Y0200570D02*
X0111150Y0200570D01*
X0111150Y0199587D02*
X0113599Y0199587D01*
X0113599Y0198604D02*
X0111150Y0198604D01*
X0111150Y0197622D02*
X0113599Y0197622D01*
X0113599Y0196639D02*
X0111150Y0196639D01*
X0111150Y0195656D02*
X0113599Y0195656D01*
X0113599Y0194673D02*
X0111150Y0194673D01*
X0111150Y0193691D02*
X0113599Y0193691D01*
X0113599Y0192708D02*
X0111150Y0192708D01*
X0111150Y0191725D02*
X0113599Y0191725D01*
X0113599Y0190742D02*
X0111150Y0190742D01*
X0111150Y0189759D02*
X0113599Y0189759D01*
X0113599Y0188777D02*
X0111150Y0188777D01*
X0111150Y0187794D02*
X0113599Y0187794D01*
X0113599Y0186811D02*
X0111150Y0186811D01*
X0111150Y0185828D02*
X0113599Y0185828D01*
X0113599Y0184846D02*
X0111150Y0184846D01*
X0111150Y0183863D02*
X0113599Y0183863D01*
X0113599Y0182880D02*
X0111150Y0182880D01*
X0111150Y0181897D02*
X0113599Y0181897D01*
X0113599Y0180915D02*
X0110983Y0180915D01*
X0111183Y0179932D02*
X0113599Y0179932D01*
X0113599Y0178949D02*
X0111057Y0178949D01*
X0110535Y0177966D02*
X0113599Y0177966D01*
X0113599Y0176984D02*
X0109064Y0176984D01*
X0099583Y0184846D02*
X0084888Y0184846D01*
X0083742Y0185828D02*
X0099583Y0185828D01*
X0099926Y0186811D02*
X0083578Y0186811D01*
X0083003Y0187794D02*
X0100109Y0187794D01*
X0099338Y0188777D02*
X0081403Y0188777D01*
X0080149Y0188777D02*
X0077666Y0188777D01*
X0065875Y0202535D02*
X0098063Y0202535D01*
X0097427Y0203518D02*
X0065875Y0203518D01*
X0065875Y0204501D02*
X0097220Y0204501D01*
X0097340Y0205484D02*
X0065875Y0205484D01*
X0065875Y0206466D02*
X0097852Y0206466D01*
X0097776Y0207449D02*
X0065875Y0207449D01*
X0065875Y0208432D02*
X0097369Y0208432D01*
X0097339Y0209415D02*
X0065875Y0209415D01*
X0065875Y0210398D02*
X0097634Y0210398D01*
X0097289Y0211380D02*
X0065875Y0211380D01*
X0065891Y0212363D02*
X0074653Y0212363D01*
X0073939Y0213346D02*
X0065781Y0213346D01*
X0062430Y0213346D02*
X0062430Y0213346D01*
X0062430Y0212363D02*
X0062430Y0212363D01*
X0058969Y0212363D02*
X0058394Y0212363D01*
X0058394Y0211380D02*
X0058985Y0211380D01*
X0058985Y0210398D02*
X0058394Y0210398D01*
X0058394Y0209415D02*
X0058985Y0209415D01*
X0058985Y0208432D02*
X0058394Y0208432D01*
X0058394Y0207449D02*
X0058985Y0207449D01*
X0058985Y0206466D02*
X0058394Y0206466D01*
X0058394Y0213346D02*
X0059079Y0213346D01*
X0058394Y0214329D02*
X0073677Y0214329D01*
X0073741Y0215311D02*
X0058394Y0215311D01*
X0058394Y0216294D02*
X0074176Y0216294D01*
X0070304Y0216736D02*
X0070304Y0220197D01*
X0070304Y0220197D01*
X0068379Y0220197D01*
X0068379Y0218032D01*
X0068480Y0217652D01*
X0068677Y0217312D01*
X0068955Y0217034D01*
X0069295Y0216838D01*
X0069674Y0216736D01*
X0070304Y0216736D01*
X0070304Y0217277D02*
X0070304Y0217277D01*
X0070304Y0218260D02*
X0070304Y0218260D01*
X0070304Y0219242D02*
X0070304Y0219242D01*
X0068379Y0219242D02*
X0037292Y0219242D01*
X0037292Y0220225D02*
X0051195Y0220225D01*
X0051158Y0220290D02*
X0051354Y0219950D01*
X0051632Y0219672D01*
X0051972Y0219476D01*
X0052352Y0219374D01*
X0054024Y0219374D01*
X0054024Y0222539D01*
X0055009Y0222539D01*
X0055009Y0223524D01*
X0057977Y0223524D01*
X0057977Y0225393D01*
X0057875Y0225773D01*
X0057679Y0226113D01*
X0057403Y0226389D01*
X0057961Y0226948D01*
X0057961Y0227972D01*
X0059497Y0227972D01*
X0059497Y0226987D01*
X0060055Y0226428D01*
X0059779Y0226152D01*
X0059583Y0225812D01*
X0059481Y0225433D01*
X0059481Y0223563D01*
X0062450Y0223563D01*
X0062450Y0222579D01*
X0063434Y0222579D01*
X0063434Y0223563D01*
X0066402Y0223563D01*
X0066402Y0225433D01*
X0066301Y0225812D01*
X0066104Y0226152D01*
X0065828Y0226428D01*
X0066387Y0226987D01*
X0066387Y0229061D01*
X0067903Y0230578D01*
X0068925Y0230578D01*
X0070015Y0231029D01*
X0070849Y0231864D01*
X0071301Y0232953D01*
X0071301Y0234133D01*
X0070849Y0235223D01*
X0070015Y0236057D01*
X0068925Y0236509D01*
X0067746Y0236509D01*
X0066656Y0236057D01*
X0065822Y0235223D01*
X0065370Y0234133D01*
X0065370Y0233405D01*
X0060362Y0233405D01*
X0059497Y0232541D01*
X0059497Y0231555D01*
X0057961Y0231555D01*
X0057961Y0232501D01*
X0057097Y0233366D01*
X0051936Y0233366D01*
X0051072Y0232501D01*
X0051072Y0226948D01*
X0051630Y0226389D01*
X0051354Y0226113D01*
X0051158Y0225773D01*
X0051056Y0225393D01*
X0051056Y0223524D01*
X0054024Y0223524D01*
X0054024Y0222539D01*
X0051056Y0222539D01*
X0051056Y0220670D01*
X0051158Y0220290D01*
X0051056Y0221208D02*
X0037292Y0221208D01*
X0037292Y0222191D02*
X0051056Y0222191D01*
X0051056Y0224156D02*
X0037292Y0224156D01*
X0037292Y0223173D02*
X0054024Y0223173D01*
X0054517Y0223031D02*
X0069831Y0223031D01*
X0062942Y0223071D01*
X0063434Y0223173D02*
X0068769Y0223173D01*
X0068379Y0222191D02*
X0066402Y0222191D01*
X0066402Y0222579D02*
X0063434Y0222579D01*
X0063434Y0219413D01*
X0065107Y0219413D01*
X0065486Y0219515D01*
X0065826Y0219712D01*
X0066104Y0219989D01*
X0066301Y0220330D01*
X0066402Y0220709D01*
X0066402Y0222579D01*
X0066402Y0221208D02*
X0068379Y0221208D01*
X0068379Y0220225D02*
X0066240Y0220225D01*
X0063434Y0220225D02*
X0062450Y0220225D01*
X0062450Y0219413D02*
X0062450Y0222579D01*
X0059481Y0222579D01*
X0059481Y0220709D01*
X0059583Y0220330D01*
X0059779Y0219989D01*
X0060057Y0219712D01*
X0060397Y0219515D01*
X0060777Y0219413D01*
X0062450Y0219413D01*
X0062450Y0221208D02*
X0063434Y0221208D01*
X0063434Y0222191D02*
X0062450Y0222191D01*
X0062450Y0223173D02*
X0055009Y0223173D01*
X0055009Y0222539D02*
X0057977Y0222539D01*
X0057977Y0220670D01*
X0057875Y0220290D01*
X0057679Y0219950D01*
X0057401Y0219672D01*
X0057061Y0219476D01*
X0056681Y0219374D01*
X0055009Y0219374D01*
X0055009Y0222539D01*
X0055009Y0222191D02*
X0054024Y0222191D01*
X0054024Y0221208D02*
X0055009Y0221208D01*
X0055009Y0220225D02*
X0054024Y0220225D01*
X0056900Y0218260D02*
X0068379Y0218260D01*
X0068712Y0217277D02*
X0057883Y0217277D01*
X0057838Y0220225D02*
X0059643Y0220225D01*
X0059481Y0221208D02*
X0057977Y0221208D01*
X0057977Y0222191D02*
X0059481Y0222191D01*
X0059481Y0224156D02*
X0057977Y0224156D01*
X0057977Y0225139D02*
X0059481Y0225139D01*
X0059762Y0226122D02*
X0057670Y0226122D01*
X0057961Y0227105D02*
X0059497Y0227105D01*
X0059497Y0232018D02*
X0057961Y0232018D01*
X0057462Y0233001D02*
X0059957Y0233001D01*
X0065370Y0233984D02*
X0029271Y0233984D01*
X0029275Y0234967D02*
X0065715Y0234967D01*
X0066548Y0235949D02*
X0029279Y0235949D01*
X0029283Y0236932D02*
X0075977Y0236932D01*
X0075343Y0235949D02*
X0070123Y0235949D01*
X0070956Y0234967D02*
X0075154Y0234967D01*
X0075306Y0233984D02*
X0071301Y0233984D01*
X0071301Y0233001D02*
X0075886Y0233001D01*
X0076229Y0232018D02*
X0070913Y0232018D01*
X0070021Y0231036D02*
X0073778Y0231036D01*
X0072690Y0230053D02*
X0067378Y0230053D01*
X0066395Y0229070D02*
X0072283Y0229070D01*
X0070836Y0228087D02*
X0066387Y0228087D01*
X0066387Y0227105D02*
X0069739Y0227105D01*
X0069332Y0226122D02*
X0066122Y0226122D01*
X0066402Y0225139D02*
X0069307Y0225139D01*
X0069608Y0224156D02*
X0066402Y0224156D01*
X0079812Y0224156D02*
X0105481Y0224156D01*
X0105481Y0223173D02*
X0101344Y0223173D01*
X0101741Y0222191D02*
X0105704Y0222191D01*
X0105465Y0221208D02*
X0101741Y0221208D01*
X0103097Y0225139D02*
X0079812Y0225139D01*
X0079812Y0226122D02*
X0102326Y0226122D01*
X0102024Y0227105D02*
X0079812Y0227105D01*
X0079812Y0228087D02*
X0102047Y0228087D01*
X0102454Y0229070D02*
X0079812Y0229070D01*
X0079812Y0230053D02*
X0103546Y0230053D01*
X0106432Y0230053D02*
X0119797Y0230053D01*
X0119243Y0231036D02*
X0079812Y0231036D01*
X0079812Y0232018D02*
X0118930Y0232018D01*
X0118930Y0233001D02*
X0080155Y0233001D01*
X0080735Y0233984D02*
X0093426Y0233984D01*
X0092646Y0234967D02*
X0080887Y0234967D01*
X0080698Y0235949D02*
X0092339Y0235949D01*
X0092356Y0236932D02*
X0080064Y0236932D01*
X0092764Y0237915D02*
X0029287Y0237915D01*
X0029291Y0238898D02*
X0093513Y0238898D01*
X0093513Y0239880D02*
X0029295Y0239880D01*
X0029803Y0240863D02*
X0094027Y0240863D01*
X0095010Y0241846D02*
X0030786Y0241846D01*
X0031768Y0242829D02*
X0095993Y0242829D01*
X0098269Y0235949D02*
X0120603Y0235949D01*
X0119620Y0234967D02*
X0097962Y0234967D01*
X0097182Y0233984D02*
X0119170Y0233984D01*
X0120913Y0229070D02*
X0111983Y0229070D01*
X0112371Y0228087D02*
X0125346Y0228087D01*
X0125049Y0229070D02*
X0126329Y0229070D01*
X0126165Y0230053D02*
X0126800Y0230053D01*
X0124363Y0227105D02*
X0112371Y0227105D01*
X0112371Y0226122D02*
X0120901Y0226122D01*
X0114975Y0225139D02*
X0112371Y0225139D01*
X0112371Y0224156D02*
X0114072Y0224156D01*
X0113665Y0223173D02*
X0112371Y0223173D01*
X0112148Y0222191D02*
X0113599Y0222191D01*
X0113599Y0221208D02*
X0112387Y0221208D01*
X0112387Y0220225D02*
X0113599Y0220225D01*
X0109418Y0217277D02*
X0108434Y0217277D01*
X0108434Y0216294D02*
X0109418Y0216294D01*
X0107705Y0213346D02*
X0107706Y0213346D01*
X0107705Y0212363D02*
X0107706Y0212363D01*
X0098040Y0216294D02*
X0079969Y0216294D01*
X0079920Y0215311D02*
X0097367Y0215311D01*
X0096769Y0214329D02*
X0079608Y0214329D01*
X0079346Y0213346D02*
X0096591Y0213346D01*
X0096737Y0212363D02*
X0078632Y0212363D01*
X0059821Y0180915D02*
X0055190Y0180915D01*
X0051106Y0179932D02*
X0029055Y0179932D01*
X0029059Y0180915D02*
X0050124Y0180915D01*
X0049141Y0181897D02*
X0029063Y0181897D01*
X0029067Y0182880D02*
X0048158Y0182880D01*
X0047175Y0183863D02*
X0029071Y0183863D01*
X0029051Y0178949D02*
X0051004Y0178949D01*
X0049767Y0177966D02*
X0029047Y0177966D01*
X0029043Y0176984D02*
X0049358Y0176984D01*
X0049323Y0176001D02*
X0029039Y0176001D01*
X0029035Y0175018D02*
X0048340Y0175018D01*
X0050458Y0172070D02*
X0068666Y0172070D01*
X0068394Y0173053D02*
X0051441Y0173053D01*
X0049475Y0171087D02*
X0070481Y0171087D01*
X0070152Y0170104D02*
X0067681Y0170104D01*
X0067961Y0166173D02*
X0069937Y0166173D01*
X0071383Y0165190D02*
X0067961Y0165190D01*
X0067505Y0164208D02*
X0074972Y0164208D01*
X0075870Y0163225D02*
X0029047Y0163225D01*
X0028992Y0164208D02*
X0054419Y0164208D01*
X0054545Y0164082D02*
X0054885Y0163885D01*
X0055265Y0163783D01*
X0057135Y0163783D01*
X0057135Y0166752D01*
X0053969Y0166752D01*
X0053969Y0165079D01*
X0054071Y0164700D01*
X0054267Y0164359D01*
X0054545Y0164082D01*
X0053969Y0165190D02*
X0028996Y0165190D01*
X0029000Y0166173D02*
X0053969Y0166173D01*
X0053969Y0168139D02*
X0048483Y0168139D01*
X0048985Y0169121D02*
X0053969Y0169121D01*
X0054253Y0170104D02*
X0048985Y0170104D01*
X0042203Y0168139D02*
X0041813Y0168139D01*
X0039142Y0168139D02*
X0038158Y0168139D01*
X0038158Y0167760D02*
X0038158Y0170728D01*
X0034993Y0170728D01*
X0034993Y0169056D01*
X0035095Y0168676D01*
X0035291Y0168336D01*
X0035569Y0168058D01*
X0035909Y0167862D01*
X0036289Y0167760D01*
X0038158Y0167760D01*
X0038158Y0169121D02*
X0039142Y0169121D01*
X0039142Y0170104D02*
X0038158Y0170104D01*
X0038158Y0171087D02*
X0029019Y0171087D01*
X0029023Y0172070D02*
X0034993Y0172070D01*
X0034993Y0173053D02*
X0029027Y0173053D01*
X0029031Y0174035D02*
X0035251Y0174035D01*
X0038158Y0174035D02*
X0039142Y0174035D01*
X0039142Y0173053D02*
X0038158Y0173053D01*
X0038158Y0172070D02*
X0039142Y0172070D01*
X0034993Y0170104D02*
X0029016Y0170104D01*
X0029012Y0169121D02*
X0034993Y0169121D01*
X0035488Y0168139D02*
X0029008Y0168139D01*
X0029004Y0167156D02*
X0057135Y0167156D01*
X0057135Y0168139D02*
X0058119Y0168139D01*
X0058119Y0169121D02*
X0057135Y0169121D01*
X0057135Y0170104D02*
X0058119Y0170104D01*
X0058119Y0166173D02*
X0057135Y0166173D01*
X0057135Y0165190D02*
X0058119Y0165190D01*
X0058119Y0164208D02*
X0057135Y0164208D01*
X0060834Y0164208D02*
X0061134Y0164208D01*
X0074694Y0161259D02*
X0029864Y0161259D01*
X0029709Y0160277D02*
X0039982Y0160277D01*
X0042358Y0160277D02*
X0074694Y0160277D01*
X0074694Y0159294D02*
X0043629Y0159294D01*
X0044068Y0158311D02*
X0074694Y0158311D01*
X0074946Y0157328D02*
X0044135Y0157328D01*
X0040025Y0148483D02*
X0031911Y0148483D01*
X0029677Y0162242D02*
X0074887Y0162242D01*
X0078139Y0166720D02*
X0078505Y0166720D01*
X0081305Y0164208D02*
X0081371Y0164208D01*
X0081795Y0163225D02*
X0080408Y0163225D01*
X0081331Y0157328D02*
X0081557Y0157328D01*
X0081982Y0170104D02*
X0080434Y0170104D01*
X0075843Y0170104D02*
X0074393Y0170104D01*
X0046193Y0184846D02*
X0037292Y0184846D01*
X0037292Y0185828D02*
X0045210Y0185828D01*
X0044227Y0186811D02*
X0037292Y0186811D01*
X0037292Y0187794D02*
X0043244Y0187794D01*
X0042262Y0188777D02*
X0037292Y0188777D01*
X0037292Y0189759D02*
X0041279Y0189759D01*
X0038025Y0190742D02*
X0037279Y0190742D01*
X0037686Y0191725D02*
X0029102Y0191725D01*
X0029106Y0192708D02*
X0037686Y0192708D01*
X0037686Y0193691D02*
X0029110Y0193691D01*
X0029114Y0194673D02*
X0037693Y0194673D01*
X0037686Y0195656D02*
X0029118Y0195656D01*
X0029122Y0196639D02*
X0037686Y0196639D01*
X0037686Y0197622D02*
X0029126Y0197622D01*
X0029130Y0198604D02*
X0037687Y0198604D01*
X0037686Y0199587D02*
X0029133Y0199587D01*
X0029137Y0200570D02*
X0037686Y0200570D01*
X0037686Y0201553D02*
X0035392Y0201553D01*
X0033878Y0201553D02*
X0029141Y0201553D01*
X0029145Y0202535D02*
X0032354Y0202535D01*
X0031810Y0203518D02*
X0029149Y0203518D01*
X0029153Y0204501D02*
X0031669Y0204501D01*
X0031854Y0205484D02*
X0029157Y0205484D01*
X0029161Y0206466D02*
X0032459Y0206466D01*
X0032147Y0207449D02*
X0029165Y0207449D01*
X0029169Y0208432D02*
X0031727Y0208432D01*
X0031689Y0209415D02*
X0029173Y0209415D01*
X0029177Y0210398D02*
X0031993Y0210398D01*
X0032730Y0211323D02*
X0032299Y0212363D01*
X0032299Y0213346D02*
X0029188Y0213346D01*
X0029192Y0214329D02*
X0032625Y0214329D01*
X0033430Y0215311D02*
X0029196Y0215311D01*
X0029200Y0216294D02*
X0037670Y0216294D01*
X0037670Y0215311D02*
X0037100Y0215311D01*
X0037670Y0217277D02*
X0029204Y0217277D01*
X0029240Y0226122D02*
X0051363Y0226122D01*
X0051072Y0227105D02*
X0029244Y0227105D01*
X0029247Y0228087D02*
X0051072Y0228087D01*
X0051072Y0229070D02*
X0029251Y0229070D01*
X0029255Y0230053D02*
X0051072Y0230053D01*
X0051072Y0231036D02*
X0029259Y0231036D01*
X0029263Y0232018D02*
X0051072Y0232018D01*
X0051571Y0233001D02*
X0029267Y0233001D01*
X0032751Y0243811D02*
X0126800Y0243811D01*
X0126800Y0242829D02*
X0102883Y0242829D01*
X0101094Y0236932D02*
X0126800Y0236932D01*
X0126800Y0235949D02*
X0125359Y0235949D01*
X0126342Y0234967D02*
X0126800Y0234967D01*
X0126800Y0244794D02*
X0033734Y0244794D01*
X0034717Y0245777D02*
X0126800Y0245777D01*
X0126800Y0246760D02*
X0035699Y0246760D01*
X0036682Y0247743D02*
X0126800Y0247743D01*
X0126800Y0248725D02*
X0037665Y0248725D01*
X0038648Y0249708D02*
X0126741Y0249708D01*
X0126741Y0250691D02*
X0039630Y0250691D01*
X0040613Y0251674D02*
X0126741Y0251674D01*
X0126741Y0252656D02*
X0041596Y0252656D01*
X0036741Y0225139D02*
X0051056Y0225139D01*
X0047854Y0218260D02*
X0046651Y0218260D01*
X0046757Y0217277D02*
X0047607Y0217277D01*
X0047607Y0216294D02*
X0046757Y0216294D01*
X0046757Y0215311D02*
X0047607Y0215311D01*
X0047706Y0214329D02*
X0046741Y0214329D01*
X0046741Y0213346D02*
X0047664Y0213346D01*
X0047607Y0212363D02*
X0046741Y0212363D01*
X0046741Y0211380D02*
X0046907Y0211380D01*
X0042312Y0217277D02*
X0042115Y0217277D01*
X0042115Y0218260D02*
X0042312Y0218260D01*
X0037776Y0218260D02*
X0036911Y0218260D01*
X0036915Y0202535D02*
X0037686Y0202535D01*
X0102968Y0192708D02*
X0104261Y0192708D01*
D34*
X0024438Y0031575D02*
X0015580Y0031575D01*
X0010580Y0036575D01*
X0010580Y0047953D01*
X0010580Y0037953D01*
X0024438Y0031575D02*
X0044123Y0011890D01*
X0061997Y0011890D01*
X0099595Y0012520D01*
X0117076Y0012520D01*
X0117076Y0045315D01*
X0117942Y0044449D01*
X0122981Y0044449D01*
X0117076Y0045315D02*
X0117076Y0103268D01*
X0117194Y0103150D01*
X0122981Y0103150D01*
X0117076Y0103268D02*
X0117076Y0163740D01*
X0118257Y0162559D01*
X0122981Y0162559D01*
X0117076Y0163740D02*
X0117076Y0221693D01*
X0117981Y0222598D01*
X0122981Y0222598D01*
X0117076Y0222323D02*
X0117076Y0221693D01*
X0062706Y0077008D02*
X0054831Y0077008D01*
X0047272Y0065197D02*
X0039398Y0065197D01*
X0031524Y0065197D01*
X0031524Y0077008D02*
X0039398Y0077008D01*
X0061997Y0049291D02*
X0061997Y0011890D01*
X0074709Y0043854D02*
X0074784Y0049291D01*
D35*
X0074320Y0057362D02*
X0074753Y0057795D01*
X0079162Y0057835D01*
X0092906Y0043854D02*
X0096170Y0045228D01*
X0096170Y0052835D01*
X0096288Y0052953D01*
X0096288Y0053504D01*
X0096603Y0052559D01*
X0096485Y0058858D01*
D36*
X0096918Y0075551D02*
X0095894Y0076575D01*
X0095894Y0083740D01*
X0097863Y0083740D02*
X0097863Y0089291D01*
X0102548Y0093583D02*
X0107706Y0093583D01*
X0107706Y0091614D02*
X0107706Y0088780D01*
X0107587Y0088661D01*
X0107706Y0097520D02*
X0101997Y0097520D01*
X0101918Y0097598D01*
X0100698Y0114606D02*
X0098335Y0114606D01*
X0098060Y0114331D01*
X0100265Y0117913D02*
X0101524Y0119173D01*
X0107706Y0119173D01*
X0107706Y0117205D02*
X0103296Y0117205D01*
X0100698Y0114606D01*
X0097863Y0123583D02*
X0099831Y0125551D01*
X0099831Y0129016D01*
X0095186Y0133937D02*
X0094123Y0132874D01*
X0078020Y0132874D01*
X0076209Y0131063D01*
X0076209Y0129016D01*
X0074241Y0129016D02*
X0074241Y0131614D01*
X0077391Y0134764D01*
X0089359Y0134764D01*
X0091249Y0136654D01*
X0097627Y0136654D01*
X0097863Y0136890D01*
X0089398Y0147717D02*
X0083335Y0147717D01*
X0080540Y0150512D01*
X0031406Y0150512D01*
X0025107Y0144213D01*
X0025107Y0132480D01*
X0020580Y0127953D01*
X0022587Y0122795D02*
X0018178Y0122795D01*
X0015658Y0125315D01*
X0015658Y0142874D01*
X0010580Y0147953D01*
X0015501Y0153031D02*
X0010580Y0157953D01*
X0015501Y0153031D02*
X0021957Y0153031D01*
X0026485Y0157559D01*
X0041170Y0157559D01*
X0041170Y0145748D02*
X0028532Y0145748D01*
X0026367Y0143583D01*
X0026367Y0126575D01*
X0022587Y0122795D01*
X0026997Y0117126D02*
X0026997Y0086890D01*
X0023217Y0083110D01*
X0015737Y0083110D01*
X0010580Y0077953D01*
X0035107Y0078228D02*
X0038178Y0078228D01*
X0039398Y0077008D01*
X0043296Y0078228D02*
X0044083Y0077441D01*
X0046524Y0077441D01*
X0046957Y0077008D01*
X0047272Y0077008D01*
X0046564Y0085984D02*
X0046249Y0087244D01*
X0050580Y0087244D01*
X0051564Y0086260D01*
X0057863Y0091929D02*
X0062115Y0091929D01*
X0062430Y0091614D01*
X0057863Y0091929D02*
X0050934Y0098858D01*
X0050934Y0106417D01*
X0049359Y0107992D01*
X0044103Y0107992D01*
X0044103Y0104055D02*
X0045265Y0102894D01*
X0045265Y0102008D01*
X0063532Y0083740D01*
X0070304Y0083740D01*
X0072272Y0083740D02*
X0072272Y0075906D01*
X0072666Y0075512D01*
X0072863Y0075709D01*
X0078572Y0075709D01*
X0078599Y0075736D01*
X0084202Y0075736D01*
X0086839Y0079331D02*
X0089359Y0079331D01*
X0090619Y0078071D01*
X0090619Y0075787D01*
X0090461Y0075630D01*
X0086839Y0079331D02*
X0086052Y0080118D01*
X0086052Y0083740D01*
X0082115Y0083740D02*
X0082115Y0092244D01*
X0083060Y0093189D01*
X0083060Y0111850D01*
X0089398Y0118189D01*
X0086209Y0117126D02*
X0086209Y0120906D01*
X0086446Y0121142D01*
X0086209Y0117126D02*
X0081800Y0112717D01*
X0081800Y0093819D01*
X0080146Y0092165D01*
X0080146Y0083740D01*
X0078178Y0083740D02*
X0078178Y0092087D01*
X0080540Y0094449D01*
X0080540Y0115236D01*
X0083493Y0118189D01*
X0079556Y0118189D02*
X0079280Y0117913D01*
X0079280Y0095079D01*
X0076209Y0092008D01*
X0076209Y0083740D01*
X0062706Y0077008D02*
X0060265Y0077008D01*
X0059044Y0078228D01*
X0058769Y0065197D02*
X0054831Y0065197D01*
X0058769Y0065197D02*
X0060383Y0063583D01*
X0062430Y0097520D02*
X0059831Y0097598D01*
X0057233Y0097598D01*
X0054477Y0100354D01*
X0054477Y0101929D01*
X0057863Y0100748D02*
X0057863Y0106417D01*
X0055658Y0108622D01*
X0054477Y0108622D01*
X0057233Y0112087D02*
X0044261Y0112087D01*
X0044103Y0111929D01*
X0044103Y0115866D02*
X0037824Y0115866D01*
X0037509Y0116181D01*
X0036288Y0119803D02*
X0035816Y0120276D01*
X0036288Y0119803D02*
X0044103Y0119803D01*
X0044261Y0119646D01*
X0047784Y0119646D01*
X0050501Y0122362D01*
X0052863Y0122362D01*
X0053217Y0122717D01*
X0050776Y0122717D01*
X0052863Y0127087D02*
X0052981Y0127205D01*
X0055343Y0127205D01*
X0057863Y0124685D01*
X0057863Y0115236D01*
X0059831Y0113268D01*
X0062430Y0113268D01*
X0062430Y0111299D02*
X0059910Y0111299D01*
X0057863Y0113346D01*
X0054083Y0113346D01*
X0052824Y0114606D01*
X0052824Y0117598D01*
X0052863Y0117638D01*
X0057233Y0112087D02*
X0059989Y0109331D01*
X0062430Y0109331D01*
X0057863Y0100748D02*
X0059123Y0099488D01*
X0062430Y0099488D01*
X0073611Y0125945D02*
X0072351Y0127205D01*
X0072351Y0128937D01*
X0072272Y0129016D01*
X0072272Y0136969D01*
X0068414Y0140827D01*
X0067824Y0140236D01*
X0063493Y0140236D01*
X0073611Y0125945D02*
X0077391Y0125945D01*
X0078178Y0126732D01*
X0078178Y0129016D01*
X0082548Y0150394D02*
X0081170Y0151772D01*
X0030776Y0151772D01*
X0020698Y0141693D01*
X0020698Y0138071D01*
X0020580Y0137953D01*
X0020580Y0147953D02*
X0025658Y0153031D01*
X0081170Y0153031D01*
X0082745Y0152717D01*
X0083493Y0153346D01*
X0082548Y0150394D02*
X0086446Y0150394D01*
X0084950Y0160157D02*
X0078481Y0160157D01*
X0078139Y0159815D01*
X0078139Y0166720D02*
X0073583Y0166720D01*
X0072272Y0168031D01*
X0065107Y0168031D01*
X0064320Y0167244D01*
X0058650Y0174921D02*
X0070304Y0174921D01*
X0072272Y0174921D02*
X0072272Y0168031D01*
X0076209Y0174921D02*
X0076209Y0180197D01*
X0074162Y0182244D01*
X0076564Y0186024D02*
X0078178Y0184409D01*
X0078178Y0174921D01*
X0080146Y0174921D02*
X0080146Y0185197D01*
X0080776Y0185827D01*
X0083099Y0182441D02*
X0082115Y0181457D01*
X0082115Y0174921D01*
X0086052Y0174921D02*
X0086052Y0167953D01*
X0084950Y0166850D01*
X0095894Y0167559D02*
X0096052Y0167402D01*
X0095894Y0167559D02*
X0095894Y0174921D01*
X0097863Y0174921D02*
X0097863Y0180197D01*
X0101918Y0184764D02*
X0102548Y0185394D01*
X0101918Y0184764D02*
X0107706Y0184764D01*
X0107706Y0182795D02*
X0107706Y0180354D01*
X0108217Y0179843D01*
X0107706Y0188701D02*
X0102469Y0188701D01*
X0100186Y0204606D02*
X0103965Y0208386D01*
X0107706Y0208386D01*
X0107706Y0210354D02*
X0101564Y0210354D01*
X0100304Y0209094D01*
X0099556Y0213307D02*
X0099831Y0213583D01*
X0099831Y0220197D01*
X0104989Y0227441D02*
X0108926Y0227283D01*
X0108926Y0225906D01*
X0102587Y0240591D02*
X0134713Y0240591D01*
X0140383Y0234921D01*
X0142292Y0234921D01*
X0143493Y0233720D01*
X0139753Y0228622D02*
X0137863Y0230512D01*
X0137863Y0235551D01*
X0134083Y0239331D01*
X0099438Y0239331D01*
X0097548Y0241850D02*
X0101328Y0241850D01*
X0102587Y0240591D01*
X0097548Y0241850D02*
X0095304Y0239606D01*
X0095304Y0236299D01*
X0078020Y0234921D02*
X0078020Y0224843D01*
X0076209Y0223031D01*
X0076209Y0220197D01*
X0074241Y0220197D02*
X0074241Y0223583D01*
X0075501Y0224843D01*
X0075501Y0228150D01*
X0075225Y0228425D01*
X0072272Y0225472D02*
X0072272Y0220197D01*
X0076643Y0214567D02*
X0078178Y0216102D01*
X0078178Y0220197D01*
X0068335Y0233543D02*
X0064556Y0229764D01*
X0062942Y0229764D01*
X0054556Y0229764D01*
X0054517Y0229724D01*
X0055973Y0216654D02*
X0052666Y0216654D01*
X0052233Y0216220D01*
X0052233Y0211496D02*
X0049556Y0211496D01*
X0047154Y0209094D01*
X0042686Y0209094D01*
X0042213Y0208622D01*
X0035028Y0208622D01*
X0034556Y0209094D01*
X0035265Y0212953D02*
X0041820Y0212953D01*
X0042213Y0212559D01*
X0042213Y0204685D02*
X0044005Y0204685D01*
X0043769Y0204449D01*
X0034635Y0204449D01*
X0042213Y0200748D02*
X0042371Y0200906D01*
X0045265Y0200906D01*
X0047784Y0203425D01*
X0053454Y0203425D01*
X0056367Y0200512D01*
X0062430Y0200512D01*
X0062430Y0202480D02*
X0056524Y0202480D01*
X0052233Y0206772D01*
X0056603Y0205315D02*
X0056603Y0216024D01*
X0055973Y0216654D01*
X0056603Y0205315D02*
X0057469Y0204449D01*
X0062430Y0204449D01*
X0056603Y0194606D02*
X0056603Y0192795D01*
X0056367Y0192559D01*
X0058257Y0190669D01*
X0062430Y0190669D01*
X0062430Y0188701D02*
X0057233Y0188701D01*
X0055973Y0187441D01*
X0055973Y0186417D01*
X0057233Y0188701D02*
X0054162Y0188701D01*
X0050855Y0192008D01*
X0047154Y0189567D02*
X0047154Y0195866D01*
X0046524Y0196496D01*
X0042528Y0196496D01*
X0042213Y0196811D01*
X0043158Y0195866D01*
X0042686Y0193346D02*
X0042213Y0192874D01*
X0042745Y0192343D01*
X0042745Y0190827D01*
X0058650Y0174921D01*
X0062430Y0182795D02*
X0053926Y0182795D01*
X0047154Y0189567D01*
X0050855Y0198701D02*
X0052509Y0198701D01*
X0056603Y0194606D01*
X0052194Y0176339D02*
X0047076Y0171220D01*
X0045343Y0171220D01*
X0026997Y0161220D02*
X0026367Y0161850D01*
X0026367Y0239961D01*
X0041485Y0255079D01*
X0125894Y0255079D01*
X0132824Y0255079D01*
X0134517Y0256772D01*
X0138217Y0256772D01*
X0138217Y0256614D01*
X0138217Y0251654D02*
X0138217Y0245276D01*
X0139123Y0244370D01*
X0143473Y0244370D01*
X0143513Y0244409D01*
X0151662Y0252559D01*
X0166839Y0252559D01*
X0197076Y0222323D01*
X0197076Y0180748D01*
X0209950Y0167874D01*
X0214083Y0167874D01*
X0214083Y0157874D02*
X0205461Y0157874D01*
X0195186Y0168150D01*
X0195186Y0221693D01*
X0166839Y0250039D01*
X0152981Y0250039D01*
X0150402Y0248209D01*
X0150402Y0244409D01*
X0150402Y0231713D01*
X0149202Y0230512D01*
X0149202Y0224843D01*
X0147942Y0223583D01*
X0143631Y0223583D01*
X0143493Y0223720D01*
X0143355Y0223583D01*
X0139753Y0223583D01*
X0130737Y0232598D01*
X0122981Y0232598D01*
X0129674Y0229882D02*
X0122981Y0223189D01*
X0122981Y0222598D01*
X0122981Y0202598D02*
X0123414Y0202165D01*
X0134713Y0202165D01*
X0139123Y0206575D01*
X0139123Y0211614D01*
X0140383Y0212874D01*
X0145422Y0212874D01*
X0151091Y0218543D01*
X0151091Y0229882D01*
X0159930Y0238720D01*
X0161997Y0238720D01*
X0157450Y0243268D01*
X0157450Y0244213D01*
X0164339Y0244213D02*
X0164477Y0244213D01*
X0167469Y0241220D01*
X0167469Y0225472D01*
X0165580Y0223583D01*
X0162135Y0223583D01*
X0161997Y0223720D01*
X0161997Y0217500D01*
X0164300Y0215197D01*
X0164300Y0215374D01*
X0164320Y0215394D01*
X0164320Y0211831D01*
X0162666Y0210177D01*
X0167292Y0210177D01*
X0167469Y0210354D01*
X0168099Y0209724D01*
X0172509Y0209724D01*
X0190776Y0191457D01*
X0190776Y0158071D01*
X0200973Y0147874D01*
X0214083Y0147874D01*
X0214083Y0137874D02*
X0204674Y0137874D01*
X0189517Y0153031D01*
X0189517Y0188937D01*
X0174398Y0204055D01*
X0172942Y0204055D01*
X0172391Y0204606D01*
X0171820Y0205177D01*
X0162666Y0205177D01*
X0162666Y0200177D02*
X0171702Y0200177D01*
X0172391Y0199488D01*
X0187627Y0184252D01*
X0187627Y0145472D01*
X0205225Y0127874D01*
X0214083Y0127874D01*
X0214083Y0117874D02*
X0196328Y0117874D01*
X0187627Y0126575D01*
X0187627Y0138543D01*
X0170619Y0155551D01*
X0168099Y0155551D01*
X0163316Y0155177D01*
X0163296Y0150768D01*
X0163296Y0154154D01*
X0164930Y0155787D01*
X0162981Y0157736D01*
X0162981Y0162854D01*
X0163355Y0162480D01*
X0165580Y0162480D01*
X0168099Y0165000D01*
X0168099Y0180748D01*
X0164753Y0184094D01*
X0163473Y0184094D01*
X0162981Y0177854D02*
X0159536Y0177854D01*
X0156583Y0180807D01*
X0156583Y0184094D01*
X0159536Y0177854D02*
X0151721Y0170039D01*
X0151721Y0156811D01*
X0149202Y0154291D01*
X0136839Y0154291D01*
X0122981Y0140433D01*
X0122981Y0131378D01*
X0126524Y0127835D01*
X0135343Y0127835D01*
X0136603Y0129094D01*
X0136603Y0131634D01*
X0136623Y0131654D01*
X0137233Y0132264D01*
X0137233Y0136654D01*
X0141347Y0140768D01*
X0144792Y0140768D01*
X0144792Y0145768D02*
X0139418Y0145768D01*
X0132194Y0138543D01*
X0129733Y0136083D01*
X0129733Y0131654D01*
X0124635Y0125945D02*
X0123375Y0125945D01*
X0124635Y0125945D02*
X0135166Y0115413D01*
X0142863Y0115413D01*
X0142863Y0110413D02*
X0142646Y0110197D01*
X0138493Y0110197D01*
X0126524Y0122165D01*
X0123375Y0122165D01*
X0122981Y0113150D02*
X0132391Y0113150D01*
X0139753Y0105787D01*
X0142489Y0105787D01*
X0142863Y0105413D01*
X0143237Y0105787D01*
X0146682Y0105787D01*
X0147942Y0107047D01*
X0147942Y0112717D01*
X0149654Y0114429D01*
X0149654Y0126614D01*
X0151091Y0135394D02*
X0145166Y0135394D01*
X0144792Y0135768D01*
X0142765Y0126614D02*
X0142765Y0120512D01*
X0142863Y0120413D01*
X0142095Y0119646D01*
X0135343Y0119646D01*
X0130934Y0110197D02*
X0130028Y0110197D01*
X0122981Y0103150D01*
X0123257Y0103150D01*
X0133650Y0093819D02*
X0122981Y0083150D01*
X0122981Y0070906D01*
X0126524Y0067362D01*
X0133276Y0067362D01*
X0136190Y0071535D01*
X0137233Y0071752D01*
X0137233Y0076811D01*
X0141308Y0080886D01*
X0143178Y0080886D01*
X0143473Y0076181D02*
X0143178Y0075886D01*
X0143473Y0076181D02*
X0147312Y0076181D01*
X0152981Y0081850D01*
X0152981Y0105157D01*
X0158237Y0110413D01*
X0161367Y0110413D01*
X0161367Y0115413D02*
X0159457Y0115413D01*
X0151091Y0107047D01*
X0151091Y0095079D01*
X0146682Y0090669D01*
X0143394Y0090669D01*
X0143178Y0090886D01*
X0143178Y0085886D02*
X0140639Y0085886D01*
X0132824Y0078071D01*
X0129300Y0074547D01*
X0129300Y0071535D01*
X0122115Y0066732D02*
X0131505Y0057343D01*
X0143847Y0057343D01*
X0143847Y0052343D02*
X0143119Y0051614D01*
X0136603Y0051614D01*
X0132194Y0056024D01*
X0129044Y0056024D01*
X0122745Y0062323D01*
X0122115Y0062323D01*
X0122981Y0054449D02*
X0131879Y0054449D01*
X0139123Y0047205D01*
X0143709Y0047205D01*
X0143847Y0047343D01*
X0143985Y0047205D01*
X0147312Y0047205D01*
X0149202Y0049094D01*
X0149202Y0055394D01*
X0150835Y0057028D01*
X0150835Y0068031D01*
X0156190Y0068189D02*
X0156190Y0066043D01*
X0159910Y0062323D01*
X0162331Y0062323D01*
X0162351Y0062343D01*
X0160560Y0062343D01*
X0151091Y0052874D01*
X0151091Y0041535D01*
X0147942Y0038386D01*
X0136918Y0038386D01*
X0122981Y0024449D01*
X0122981Y0012323D01*
X0125265Y0010039D01*
X0133394Y0010039D01*
X0136308Y0013583D01*
X0137233Y0014508D01*
X0137233Y0023268D01*
X0138749Y0024783D01*
X0144083Y0024783D01*
X0144083Y0029783D02*
X0141229Y0029783D01*
X0133454Y0022008D01*
X0129418Y0017972D01*
X0129418Y0013583D01*
X0144083Y0019783D02*
X0144379Y0019488D01*
X0147312Y0019488D01*
X0153611Y0025787D01*
X0153611Y0045315D01*
X0160639Y0052343D01*
X0162351Y0052343D01*
X0162351Y0057343D02*
X0159969Y0057343D01*
X0152351Y0049724D01*
X0152351Y0038386D01*
X0148572Y0034606D01*
X0144261Y0034606D01*
X0144083Y0034783D01*
X0156859Y0040433D02*
X0156859Y0021909D01*
X0159280Y0019488D01*
X0162292Y0019488D01*
X0162587Y0019783D01*
X0162587Y0024783D02*
X0172036Y0024783D01*
X0172036Y0024803D01*
X0175934Y0024803D01*
X0188257Y0037126D01*
X0213335Y0037126D01*
X0214083Y0037874D01*
X0213414Y0047205D02*
X0214083Y0047874D01*
X0213414Y0047205D02*
X0195816Y0047205D01*
X0178394Y0029783D01*
X0162587Y0029783D01*
X0172036Y0029783D01*
X0172036Y0029921D01*
X0165757Y0034783D02*
X0168099Y0037756D01*
X0183847Y0037756D01*
X0203965Y0057874D01*
X0214083Y0057874D01*
X0214083Y0067874D02*
X0193414Y0067874D01*
X0182587Y0078701D01*
X0171249Y0078701D01*
X0171131Y0078583D01*
X0170619Y0078071D01*
X0168729Y0078071D01*
X0165914Y0080886D01*
X0161682Y0080886D01*
X0161387Y0076181D02*
X0158650Y0076181D01*
X0156505Y0078327D01*
X0156505Y0097165D01*
X0163276Y0092776D02*
X0161682Y0090886D01*
X0163394Y0092598D01*
X0163394Y0097165D01*
X0163394Y0103386D01*
X0161367Y0105413D01*
X0161623Y0105157D01*
X0163690Y0105157D01*
X0166839Y0108307D01*
X0166839Y0122165D01*
X0162331Y0126673D01*
X0162331Y0127047D01*
X0161367Y0120413D02*
X0158788Y0120413D01*
X0149831Y0111457D01*
X0149831Y0096339D01*
X0147312Y0093819D01*
X0133650Y0093819D01*
X0143946Y0068031D02*
X0143946Y0062441D01*
X0143847Y0062343D01*
X0135993Y0062343D01*
X0133454Y0059803D01*
X0128414Y0050984D02*
X0128414Y0049882D01*
X0122981Y0044449D01*
X0099595Y0075551D02*
X0100304Y0076260D01*
X0099595Y0075551D02*
X0096918Y0075551D01*
X0107627Y0127205D02*
X0109517Y0129094D01*
X0109517Y0149882D01*
X0105343Y0146063D02*
X0105186Y0143701D01*
X0105186Y0140945D01*
X0122981Y0140433D02*
X0122981Y0142559D01*
X0122981Y0162559D02*
X0128414Y0167992D01*
X0127784Y0167520D01*
X0127154Y0172559D02*
X0122981Y0172559D01*
X0127154Y0172559D02*
X0136859Y0162854D01*
X0144477Y0162854D01*
X0144851Y0162480D01*
X0147942Y0162480D01*
X0149969Y0164508D01*
X0149969Y0183937D01*
X0144477Y0177854D02*
X0136229Y0177854D01*
X0134083Y0175709D01*
X0133158Y0172854D02*
X0121485Y0184528D01*
X0125265Y0185157D02*
X0121721Y0188701D01*
X0122981Y0191850D02*
X0127784Y0187047D01*
X0135343Y0187047D01*
X0137233Y0188937D01*
X0137233Y0191122D01*
X0137253Y0191142D01*
X0137253Y0196516D01*
X0140383Y0199646D01*
X0143631Y0199646D01*
X0144162Y0200177D01*
X0144162Y0195177D02*
X0147253Y0195177D01*
X0149202Y0197126D01*
X0149202Y0212874D01*
X0153611Y0217283D01*
X0153611Y0225472D01*
X0156761Y0228622D01*
X0161898Y0228622D01*
X0161997Y0228720D01*
X0161938Y0233661D02*
X0161997Y0233720D01*
X0161938Y0233661D02*
X0156761Y0233661D01*
X0152351Y0229252D01*
X0152351Y0217913D01*
X0144615Y0210177D01*
X0144162Y0210177D01*
X0144162Y0205177D02*
X0140875Y0205177D01*
X0140875Y0204547D01*
X0132194Y0195866D01*
X0132194Y0192972D01*
X0130363Y0191142D01*
X0130304Y0191201D01*
X0125265Y0185157D02*
X0137863Y0185157D01*
X0141013Y0188307D01*
X0169989Y0188307D01*
X0176288Y0182008D01*
X0183217Y0182008D01*
X0198965Y0187047D02*
X0209398Y0177874D01*
X0214083Y0177874D01*
X0198965Y0187047D02*
X0198965Y0222953D01*
X0167706Y0254213D01*
X0155501Y0254213D01*
X0144910Y0254213D01*
X0144910Y0256772D02*
X0144910Y0257087D01*
X0146682Y0258858D01*
X0144910Y0257480D02*
X0143532Y0258858D01*
X0131485Y0258858D01*
X0130186Y0258346D01*
X0130186Y0251654D02*
X0130973Y0250866D01*
X0137430Y0250866D01*
X0143513Y0244409D02*
X0143513Y0238740D01*
X0143493Y0238720D01*
X0144910Y0256772D02*
X0144910Y0257480D01*
X0157410Y0215197D02*
X0157410Y0197736D01*
X0159910Y0195236D01*
X0162607Y0195236D01*
X0162666Y0195177D01*
X0162981Y0172854D02*
X0159576Y0172854D01*
X0152981Y0166260D01*
X0152981Y0152402D01*
X0150461Y0149882D01*
X0145678Y0149882D01*
X0144792Y0150768D01*
X0154241Y0161220D02*
X0154241Y0138543D01*
X0151091Y0135394D01*
X0155442Y0127047D02*
X0155442Y0126339D01*
X0161367Y0120413D01*
X0163296Y0135768D02*
X0163040Y0136024D01*
X0160540Y0136024D01*
X0158040Y0138524D01*
X0158040Y0155787D01*
X0154241Y0161220D02*
X0160875Y0167854D01*
X0162981Y0167854D01*
X0163296Y0145768D02*
X0172450Y0145768D01*
X0173020Y0145197D01*
X0186367Y0131850D01*
X0186367Y0117756D01*
X0196249Y0107874D01*
X0214083Y0107874D01*
X0214083Y0097874D02*
X0199320Y0097874D01*
X0185107Y0112087D01*
X0185107Y0127992D01*
X0173020Y0140079D01*
X0172331Y0140768D01*
X0163296Y0140768D01*
X0144477Y0167854D02*
X0136269Y0167854D01*
X0124005Y0180118D01*
X0121485Y0180118D01*
X0122981Y0191850D02*
X0122981Y0202598D01*
X0143080Y0183937D02*
X0143080Y0179252D01*
X0144477Y0177854D01*
X0144477Y0172854D02*
X0133158Y0172854D01*
X0165580Y0097598D02*
X0168099Y0097598D01*
X0177824Y0087874D01*
X0214083Y0087874D01*
X0213887Y0078071D02*
X0214083Y0077874D01*
X0213887Y0078071D02*
X0185737Y0078071D01*
X0180107Y0083701D01*
X0171131Y0083701D01*
X0168946Y0085886D01*
X0161682Y0085886D01*
X0163276Y0092776D02*
X0165580Y0097598D01*
X0161387Y0076181D02*
X0161682Y0075886D01*
X0163080Y0068189D02*
X0164123Y0068189D01*
X0167469Y0064843D01*
X0167469Y0047835D01*
X0166839Y0047205D01*
X0162489Y0047205D01*
X0162351Y0047343D01*
X0162351Y0041831D01*
X0163749Y0040433D01*
X0163749Y0035945D01*
X0162587Y0034783D01*
X0165757Y0034783D01*
X0044103Y0123740D02*
X0037824Y0123740D01*
X0037509Y0124055D01*
D37*
X0035816Y0120276D03*
X0026997Y0117126D03*
X0051564Y0086260D03*
X0057233Y0097598D03*
X0101918Y0097598D03*
X0107627Y0127205D03*
X0123375Y0125945D03*
X0123375Y0122165D03*
X0130934Y0110197D03*
X0135343Y0119646D03*
X0132194Y0138543D03*
X0127784Y0167520D03*
X0134083Y0175709D03*
X0121485Y0180118D03*
X0121485Y0184528D03*
X0121721Y0188701D03*
X0132194Y0195866D03*
X0129674Y0229882D03*
X0139123Y0244370D03*
X0146682Y0258858D03*
X0152981Y0250039D03*
X0167469Y0210354D03*
X0183217Y0182008D03*
X0168099Y0155551D03*
X0165580Y0097598D03*
X0132824Y0078071D03*
X0122115Y0066732D03*
X0122115Y0062323D03*
X0128414Y0050984D03*
X0133454Y0059803D03*
X0133454Y0022008D03*
X0168099Y0037756D03*
X0109517Y0149882D03*
X0101918Y0190039D03*
X0078020Y0234921D03*
X0099438Y0239331D03*
X0055973Y0186417D03*
X0052194Y0176339D03*
X0034556Y0209094D03*
X0026997Y0161220D03*
D38*
X0074320Y0050669D02*
X0075225Y0048220D01*
X0074709Y0043854D01*
D39*
X0061997Y0049291D02*
X0055737Y0049291D01*
X0054910Y0048465D01*
X0054910Y0045000D01*
X0054910Y0048465D02*
X0054910Y0056811D01*
X0054831Y0056890D01*
X0054831Y0065197D01*
X0062706Y0065197D01*
D40*
X0063375Y0050669D02*
X0061997Y0049291D01*
X0063375Y0050669D02*
X0074320Y0050669D01*
D41*
X0010580Y0067953D02*
X0010580Y0072437D01*
X0006680Y0076337D01*
X0006680Y0159568D01*
X0011164Y0164053D01*
X0022195Y0164053D01*
X0025152Y0167010D01*
X0025152Y0240464D01*
X0040982Y0256294D01*
X0113881Y0256294D01*
X0122745Y0265157D01*
X0158479Y0265157D01*
X0200180Y0223456D01*
X0200180Y0221777D01*
X0214083Y0207874D01*
X0155580Y0254291D02*
X0155501Y0254213D01*
X0155580Y0254291D02*
X0155580Y0257598D01*
X0151643Y0257598D02*
X0151181Y0257598D01*
X0147368Y0261412D01*
X0127845Y0261412D01*
X0127317Y0260885D01*
X0127317Y0256502D01*
X0125894Y0255079D01*
M02*
