%
M48
M72
T01C0.01181
T02C0.01378
T03C0.03150
T04C0.04000
T05C0.04016
T06C0.11811
%
T01
X51564Y86260
X57233Y97598
X35816Y120276
X26997Y117126
X26997Y161220
X52194Y176339
X55973Y186417
X34556Y209094
X78020Y234921
X99438Y239331
X129674Y229882
X139123Y244370
X146682Y258858
X152981Y250039
X167469Y210354
X183217Y182008
X168099Y155551
X135343Y119646
X130934Y110197
X123375Y122165
X123375Y125945
X132194Y138543
X127784Y167520
X134083Y175709
X121485Y180118
X121485Y184528
X121721Y188701
X132194Y195866
X101918Y190039
X109517Y149882
X107627Y127205
X101918Y97598
X122115Y66732
X122115Y62323
X128414Y50984
X133454Y59803
X132824Y78071
X165580Y97598
X168099Y37756
X133454Y22008
T02
X96485Y58858
X79162Y57835
X78572Y75709
X73650Y99488
X79556Y118189
X83493Y118189
X86446Y121142
X89398Y118189
X98060Y114331
X100265Y117913
X97863Y123583
X95186Y133937
X97863Y136890
X89398Y147717
X86446Y150394
X83493Y153346
X72272Y168031
X74162Y182244
X76564Y186024
X80776Y185827
X83099Y182441
X97863Y180197
X102548Y185394
X108217Y179843
X100186Y204606
X100304Y209094
X99556Y213307
X104989Y227441
X95304Y236299
X76643Y214567
X72272Y225472
X75225Y228425
X68335Y233543
X56367Y192559
X34635Y204449
X35265Y212953
X41170Y157559
X41170Y145748
X37509Y124055
X37509Y116181
X35107Y78228
X43296Y78228
X50855Y77598
X59044Y78228
X97863Y89291
X102548Y93583
X107587Y88661
X105343Y146063
X68414Y140827
T03
X122981Y142559
X122981Y152559
X122981Y162559
X122981Y172559
X122981Y202598
X122981Y212598
X122981Y222598
X122981Y232598
X122981Y113150
X122981Y103150
X122981Y93150
X122981Y83150
X122981Y54449
X122981Y44449
X122981Y34449
X122981Y24449
T04
X214083Y37874
X214083Y47874
X214083Y57874
X214083Y67874
X214083Y77874
X214083Y87874
X214083Y97874
X214083Y107874
X214083Y117874
X214083Y127874
X214083Y137874
X214083Y147874
X214083Y157874
X214083Y167874
X214083Y177874
X214083Y187874
X214083Y197874
X214083Y207874
X214083Y217874
X214083Y227874
X20580Y227953
X20580Y217953
X20580Y207953
X20580Y197953
X20580Y187953
X20580Y177953
X20580Y167953
X20580Y157953
X20580Y147953
X20580Y137953
X20580Y127953
X20580Y117953
X20580Y107953
X20580Y97953
X20580Y87953
X20580Y77953
X20580Y67953
X20580Y57953
X20580Y47953
X20580Y37953
X10580Y37953
X10580Y47953
X10580Y57953
X10580Y67953
X10580Y77953
X10580Y87953
X10580Y97953
X10580Y107953
X10580Y117953
X10580Y127953
X10580Y137953
X10580Y147953
X10580Y157953
X10580Y167953
X10580Y177953
X10580Y187953
X10580Y197953
X10580Y207953
X10580Y217953
X10580Y227953
T05
X43099Y56811
X43099Y45000
X54910Y45000
X54910Y56811
T06
X15580Y18780
X49005Y27992
X15580Y247126
X208493Y247126
X208493Y18780
M30
