%
M48
M72
T01C0.03150
T02C0.03543
T03C0.04000
T04C0.11811
%
T01
X193913Y69961
X193913Y77835
X193913Y85709
X193913Y115236
X193913Y123110
X193913Y130984
X193913Y159803
X193913Y167677
X193913Y175551
X193913Y205787
X193913Y213661
X193913Y221535
X194228Y251850
X194228Y259724
X194228Y267598
X194228Y275472
X194228Y306811
X194228Y314685
X194228Y322559
T02
X192260Y331417
X173559Y331417
X173559Y297953
X173559Y284331
X192260Y284331
X192260Y297953
X192260Y242992
X191945Y230394
X173559Y242992
X173244Y230394
X173244Y196929
X173244Y184409
X191945Y184409
X191945Y196929
X191945Y150945
X191945Y139843
X173244Y139843
X173244Y150945
X173244Y106378
X173244Y94567
X191945Y94567
X191945Y106378
X191945Y61102
X173244Y61102
T03
X213756Y57874
X213756Y47874
X213756Y37874
X213756Y67874
X213756Y77874
X213756Y87874
X213756Y97874
X213756Y107874
X213756Y117874
X213756Y127874
X213756Y137874
X213756Y147874
X213756Y157874
X213756Y167874
X213756Y177874
X213756Y187874
X213756Y197874
X213756Y207874
X213756Y217874
X213756Y227874
T04
X14780Y18780
X14780Y247126
X207693Y247126
X207693Y18780
M30
