G75*
%MOIN*%
%OFA0B0*%
%FSLAX25Y25*%
%IPPOS*%
%LPD*%
%AMOC8*
5,1,8,0,0,1.08239X$1,22.5*
%
%ADD10C,0.00000*%
%ADD11C,0.00600*%
%ADD12C,0.00400*%
%ADD13C,0.00709*%
%ADD14C,0.00500*%
%ADD15R,0.02600X0.02600*%
D10*
X0001000Y0016811D02*
X0001000Y0327835D01*
X0001000Y0327834D02*
X0001027Y0328143D01*
X0001062Y0328451D01*
X0001105Y0328758D01*
X0001155Y0329065D01*
X0001212Y0329369D01*
X0001276Y0329673D01*
X0001348Y0329974D01*
X0001427Y0330274D01*
X0001514Y0330572D01*
X0001607Y0330868D01*
X0001708Y0331161D01*
X0001815Y0331452D01*
X0001930Y0331740D01*
X0002052Y0332025D01*
X0002180Y0332308D01*
X0002316Y0332587D01*
X0002458Y0332862D01*
X0002606Y0333134D01*
X0002761Y0333403D01*
X0002923Y0333668D01*
X0003091Y0333928D01*
X0003265Y0334185D01*
X0003445Y0334437D01*
X0003632Y0334685D01*
X0003824Y0334929D01*
X0004022Y0335167D01*
X0004226Y0335401D01*
X0004435Y0335630D01*
X0004650Y0335853D01*
X0004870Y0336072D01*
X0005096Y0336284D01*
X0005326Y0336492D01*
X0005562Y0336694D01*
X0005802Y0336890D01*
X0006047Y0337080D01*
X0006296Y0337264D01*
X0006550Y0337442D01*
X0006808Y0337614D01*
X0007070Y0337780D01*
X0007337Y0337939D01*
X0007606Y0338092D01*
X0007880Y0338238D01*
X0008157Y0338378D01*
X0008437Y0338511D01*
X0008720Y0338637D01*
X0009007Y0338756D01*
X0009296Y0338868D01*
X0009587Y0338974D01*
X0009882Y0339072D01*
X0010178Y0339163D01*
X0010477Y0339247D01*
X0010777Y0339323D01*
X0011079Y0339392D01*
X0011383Y0339454D01*
X0011689Y0339509D01*
X0011995Y0339556D01*
X0012303Y0339596D01*
X0012611Y0339628D01*
X0012920Y0339653D01*
X0013230Y0339671D01*
X0013540Y0339680D01*
X0013850Y0339683D01*
X0014160Y0339678D01*
X0014470Y0339665D01*
X0014779Y0339645D01*
X0014780Y0339646D02*
X0209661Y0339646D01*
X0209946Y0339643D01*
X0210232Y0339632D01*
X0210517Y0339615D01*
X0210801Y0339591D01*
X0211085Y0339560D01*
X0211368Y0339522D01*
X0211649Y0339477D01*
X0211930Y0339426D01*
X0212210Y0339368D01*
X0212488Y0339303D01*
X0212764Y0339231D01*
X0213038Y0339153D01*
X0213311Y0339068D01*
X0213581Y0338976D01*
X0213849Y0338878D01*
X0214115Y0338774D01*
X0214378Y0338663D01*
X0214638Y0338546D01*
X0214896Y0338423D01*
X0215150Y0338293D01*
X0215401Y0338157D01*
X0215649Y0338016D01*
X0215893Y0337868D01*
X0216134Y0337715D01*
X0216370Y0337555D01*
X0216603Y0337390D01*
X0216832Y0337220D01*
X0217057Y0337044D01*
X0217277Y0336862D01*
X0217493Y0336676D01*
X0217704Y0336484D01*
X0217911Y0336287D01*
X0218113Y0336085D01*
X0218310Y0335878D01*
X0218502Y0335667D01*
X0218688Y0335451D01*
X0218870Y0335231D01*
X0219046Y0335006D01*
X0219216Y0334777D01*
X0219381Y0334544D01*
X0219541Y0334308D01*
X0219694Y0334067D01*
X0219842Y0333823D01*
X0219983Y0333575D01*
X0220119Y0333324D01*
X0220249Y0333070D01*
X0220372Y0332812D01*
X0220489Y0332552D01*
X0220600Y0332289D01*
X0220704Y0332023D01*
X0220802Y0331755D01*
X0220894Y0331485D01*
X0220979Y0331212D01*
X0221057Y0330938D01*
X0221129Y0330662D01*
X0221194Y0330384D01*
X0221252Y0330104D01*
X0221303Y0329823D01*
X0221348Y0329542D01*
X0221386Y0329259D01*
X0221417Y0328975D01*
X0221441Y0328691D01*
X0221458Y0328406D01*
X0221469Y0328120D01*
X0221472Y0327835D01*
X0221472Y0016811D01*
X0221469Y0016526D01*
X0221458Y0016240D01*
X0221441Y0015955D01*
X0221417Y0015671D01*
X0221386Y0015387D01*
X0221348Y0015104D01*
X0221303Y0014823D01*
X0221252Y0014542D01*
X0221194Y0014262D01*
X0221129Y0013984D01*
X0221057Y0013708D01*
X0220979Y0013434D01*
X0220894Y0013161D01*
X0220802Y0012891D01*
X0220704Y0012623D01*
X0220600Y0012357D01*
X0220489Y0012094D01*
X0220372Y0011834D01*
X0220249Y0011576D01*
X0220119Y0011322D01*
X0219983Y0011071D01*
X0219842Y0010823D01*
X0219694Y0010579D01*
X0219541Y0010338D01*
X0219381Y0010102D01*
X0219216Y0009869D01*
X0219046Y0009640D01*
X0218870Y0009415D01*
X0218688Y0009195D01*
X0218502Y0008979D01*
X0218310Y0008768D01*
X0218113Y0008561D01*
X0217911Y0008359D01*
X0217704Y0008162D01*
X0217493Y0007970D01*
X0217277Y0007784D01*
X0217057Y0007602D01*
X0216832Y0007426D01*
X0216603Y0007256D01*
X0216370Y0007091D01*
X0216134Y0006931D01*
X0215893Y0006778D01*
X0215649Y0006630D01*
X0215401Y0006489D01*
X0215150Y0006353D01*
X0214896Y0006223D01*
X0214638Y0006100D01*
X0214378Y0005983D01*
X0214115Y0005872D01*
X0213849Y0005768D01*
X0213581Y0005670D01*
X0213311Y0005578D01*
X0213038Y0005493D01*
X0212764Y0005415D01*
X0212488Y0005343D01*
X0212210Y0005278D01*
X0211930Y0005220D01*
X0211649Y0005169D01*
X0211368Y0005124D01*
X0211085Y0005086D01*
X0210801Y0005055D01*
X0210517Y0005031D01*
X0210232Y0005014D01*
X0209946Y0005003D01*
X0209661Y0005000D01*
X0012811Y0005000D01*
X0012526Y0005003D01*
X0012240Y0005014D01*
X0011955Y0005031D01*
X0011671Y0005055D01*
X0011387Y0005086D01*
X0011104Y0005124D01*
X0010823Y0005169D01*
X0010542Y0005220D01*
X0010262Y0005278D01*
X0009984Y0005343D01*
X0009708Y0005415D01*
X0009434Y0005493D01*
X0009161Y0005578D01*
X0008891Y0005670D01*
X0008623Y0005768D01*
X0008357Y0005872D01*
X0008094Y0005983D01*
X0007834Y0006100D01*
X0007576Y0006223D01*
X0007322Y0006353D01*
X0007071Y0006489D01*
X0006823Y0006630D01*
X0006579Y0006778D01*
X0006338Y0006931D01*
X0006102Y0007091D01*
X0005869Y0007256D01*
X0005640Y0007426D01*
X0005415Y0007602D01*
X0005195Y0007784D01*
X0004979Y0007970D01*
X0004768Y0008162D01*
X0004561Y0008359D01*
X0004359Y0008561D01*
X0004162Y0008768D01*
X0003970Y0008979D01*
X0003784Y0009195D01*
X0003602Y0009415D01*
X0003426Y0009640D01*
X0003256Y0009869D01*
X0003091Y0010102D01*
X0002931Y0010338D01*
X0002778Y0010579D01*
X0002630Y0010823D01*
X0002489Y0011071D01*
X0002353Y0011322D01*
X0002223Y0011576D01*
X0002100Y0011834D01*
X0001983Y0012094D01*
X0001872Y0012357D01*
X0001768Y0012623D01*
X0001670Y0012891D01*
X0001578Y0013161D01*
X0001493Y0013434D01*
X0001415Y0013708D01*
X0001343Y0013984D01*
X0001278Y0014262D01*
X0001220Y0014542D01*
X0001169Y0014823D01*
X0001124Y0015104D01*
X0001086Y0015387D01*
X0001055Y0015671D01*
X0001031Y0015955D01*
X0001014Y0016240D01*
X0001003Y0016526D01*
X0001000Y0016811D01*
X0008874Y0018780D02*
X0008876Y0018933D01*
X0008882Y0019087D01*
X0008892Y0019240D01*
X0008906Y0019392D01*
X0008924Y0019545D01*
X0008946Y0019696D01*
X0008971Y0019847D01*
X0009001Y0019998D01*
X0009035Y0020148D01*
X0009072Y0020296D01*
X0009113Y0020444D01*
X0009158Y0020590D01*
X0009207Y0020736D01*
X0009260Y0020880D01*
X0009316Y0021022D01*
X0009376Y0021163D01*
X0009440Y0021303D01*
X0009507Y0021441D01*
X0009578Y0021577D01*
X0009653Y0021711D01*
X0009730Y0021843D01*
X0009812Y0021973D01*
X0009896Y0022101D01*
X0009984Y0022227D01*
X0010075Y0022350D01*
X0010169Y0022471D01*
X0010267Y0022589D01*
X0010367Y0022705D01*
X0010471Y0022818D01*
X0010577Y0022929D01*
X0010686Y0023037D01*
X0010798Y0023142D01*
X0010912Y0023243D01*
X0011030Y0023342D01*
X0011149Y0023438D01*
X0011271Y0023531D01*
X0011396Y0023620D01*
X0011523Y0023707D01*
X0011652Y0023789D01*
X0011783Y0023869D01*
X0011916Y0023945D01*
X0012051Y0024018D01*
X0012188Y0024087D01*
X0012327Y0024152D01*
X0012467Y0024214D01*
X0012609Y0024272D01*
X0012752Y0024327D01*
X0012897Y0024378D01*
X0013043Y0024425D01*
X0013190Y0024468D01*
X0013338Y0024507D01*
X0013487Y0024543D01*
X0013637Y0024574D01*
X0013788Y0024602D01*
X0013939Y0024626D01*
X0014092Y0024646D01*
X0014244Y0024662D01*
X0014397Y0024674D01*
X0014550Y0024682D01*
X0014703Y0024686D01*
X0014857Y0024686D01*
X0015010Y0024682D01*
X0015163Y0024674D01*
X0015316Y0024662D01*
X0015468Y0024646D01*
X0015621Y0024626D01*
X0015772Y0024602D01*
X0015923Y0024574D01*
X0016073Y0024543D01*
X0016222Y0024507D01*
X0016370Y0024468D01*
X0016517Y0024425D01*
X0016663Y0024378D01*
X0016808Y0024327D01*
X0016951Y0024272D01*
X0017093Y0024214D01*
X0017233Y0024152D01*
X0017372Y0024087D01*
X0017509Y0024018D01*
X0017644Y0023945D01*
X0017777Y0023869D01*
X0017908Y0023789D01*
X0018037Y0023707D01*
X0018164Y0023620D01*
X0018289Y0023531D01*
X0018411Y0023438D01*
X0018530Y0023342D01*
X0018648Y0023243D01*
X0018762Y0023142D01*
X0018874Y0023037D01*
X0018983Y0022929D01*
X0019089Y0022818D01*
X0019193Y0022705D01*
X0019293Y0022589D01*
X0019391Y0022471D01*
X0019485Y0022350D01*
X0019576Y0022227D01*
X0019664Y0022101D01*
X0019748Y0021973D01*
X0019830Y0021843D01*
X0019907Y0021711D01*
X0019982Y0021577D01*
X0020053Y0021441D01*
X0020120Y0021303D01*
X0020184Y0021163D01*
X0020244Y0021022D01*
X0020300Y0020880D01*
X0020353Y0020736D01*
X0020402Y0020590D01*
X0020447Y0020444D01*
X0020488Y0020296D01*
X0020525Y0020148D01*
X0020559Y0019998D01*
X0020589Y0019847D01*
X0020614Y0019696D01*
X0020636Y0019545D01*
X0020654Y0019392D01*
X0020668Y0019240D01*
X0020678Y0019087D01*
X0020684Y0018933D01*
X0020686Y0018780D01*
X0020684Y0018627D01*
X0020678Y0018473D01*
X0020668Y0018320D01*
X0020654Y0018168D01*
X0020636Y0018015D01*
X0020614Y0017864D01*
X0020589Y0017713D01*
X0020559Y0017562D01*
X0020525Y0017412D01*
X0020488Y0017264D01*
X0020447Y0017116D01*
X0020402Y0016970D01*
X0020353Y0016824D01*
X0020300Y0016680D01*
X0020244Y0016538D01*
X0020184Y0016397D01*
X0020120Y0016257D01*
X0020053Y0016119D01*
X0019982Y0015983D01*
X0019907Y0015849D01*
X0019830Y0015717D01*
X0019748Y0015587D01*
X0019664Y0015459D01*
X0019576Y0015333D01*
X0019485Y0015210D01*
X0019391Y0015089D01*
X0019293Y0014971D01*
X0019193Y0014855D01*
X0019089Y0014742D01*
X0018983Y0014631D01*
X0018874Y0014523D01*
X0018762Y0014418D01*
X0018648Y0014317D01*
X0018530Y0014218D01*
X0018411Y0014122D01*
X0018289Y0014029D01*
X0018164Y0013940D01*
X0018037Y0013853D01*
X0017908Y0013771D01*
X0017777Y0013691D01*
X0017644Y0013615D01*
X0017509Y0013542D01*
X0017372Y0013473D01*
X0017233Y0013408D01*
X0017093Y0013346D01*
X0016951Y0013288D01*
X0016808Y0013233D01*
X0016663Y0013182D01*
X0016517Y0013135D01*
X0016370Y0013092D01*
X0016222Y0013053D01*
X0016073Y0013017D01*
X0015923Y0012986D01*
X0015772Y0012958D01*
X0015621Y0012934D01*
X0015468Y0012914D01*
X0015316Y0012898D01*
X0015163Y0012886D01*
X0015010Y0012878D01*
X0014857Y0012874D01*
X0014703Y0012874D01*
X0014550Y0012878D01*
X0014397Y0012886D01*
X0014244Y0012898D01*
X0014092Y0012914D01*
X0013939Y0012934D01*
X0013788Y0012958D01*
X0013637Y0012986D01*
X0013487Y0013017D01*
X0013338Y0013053D01*
X0013190Y0013092D01*
X0013043Y0013135D01*
X0012897Y0013182D01*
X0012752Y0013233D01*
X0012609Y0013288D01*
X0012467Y0013346D01*
X0012327Y0013408D01*
X0012188Y0013473D01*
X0012051Y0013542D01*
X0011916Y0013615D01*
X0011783Y0013691D01*
X0011652Y0013771D01*
X0011523Y0013853D01*
X0011396Y0013940D01*
X0011271Y0014029D01*
X0011149Y0014122D01*
X0011030Y0014218D01*
X0010912Y0014317D01*
X0010798Y0014418D01*
X0010686Y0014523D01*
X0010577Y0014631D01*
X0010471Y0014742D01*
X0010367Y0014855D01*
X0010267Y0014971D01*
X0010169Y0015089D01*
X0010075Y0015210D01*
X0009984Y0015333D01*
X0009896Y0015459D01*
X0009812Y0015587D01*
X0009730Y0015717D01*
X0009653Y0015849D01*
X0009578Y0015983D01*
X0009507Y0016119D01*
X0009440Y0016257D01*
X0009376Y0016397D01*
X0009316Y0016538D01*
X0009260Y0016680D01*
X0009207Y0016824D01*
X0009158Y0016970D01*
X0009113Y0017116D01*
X0009072Y0017264D01*
X0009035Y0017412D01*
X0009001Y0017562D01*
X0008971Y0017713D01*
X0008946Y0017864D01*
X0008924Y0018015D01*
X0008906Y0018168D01*
X0008892Y0018320D01*
X0008882Y0018473D01*
X0008876Y0018627D01*
X0008874Y0018780D01*
X0029031Y0091614D02*
X0044780Y0091614D01*
X0044932Y0091616D01*
X0045084Y0091622D01*
X0045236Y0091632D01*
X0045387Y0091645D01*
X0045538Y0091663D01*
X0045689Y0091684D01*
X0045839Y0091710D01*
X0045988Y0091739D01*
X0046137Y0091772D01*
X0046284Y0091809D01*
X0046431Y0091849D01*
X0046576Y0091894D01*
X0046720Y0091942D01*
X0046863Y0091994D01*
X0047005Y0092049D01*
X0047145Y0092108D01*
X0047284Y0092171D01*
X0047421Y0092237D01*
X0047556Y0092307D01*
X0047689Y0092380D01*
X0047820Y0092457D01*
X0047950Y0092537D01*
X0048077Y0092620D01*
X0048202Y0092706D01*
X0048325Y0092796D01*
X0048445Y0092889D01*
X0048563Y0092985D01*
X0048679Y0093084D01*
X0048792Y0093186D01*
X0048902Y0093290D01*
X0049010Y0093398D01*
X0049114Y0093508D01*
X0049216Y0093621D01*
X0049315Y0093737D01*
X0049411Y0093855D01*
X0049504Y0093975D01*
X0049594Y0094098D01*
X0049680Y0094223D01*
X0049763Y0094350D01*
X0049843Y0094480D01*
X0049920Y0094611D01*
X0049993Y0094744D01*
X0050063Y0094879D01*
X0050129Y0095016D01*
X0050192Y0095155D01*
X0050251Y0095295D01*
X0050306Y0095437D01*
X0050358Y0095580D01*
X0050406Y0095724D01*
X0050451Y0095869D01*
X0050491Y0096016D01*
X0050528Y0096163D01*
X0050561Y0096312D01*
X0050590Y0096461D01*
X0050616Y0096611D01*
X0050637Y0096762D01*
X0050655Y0096913D01*
X0050668Y0097064D01*
X0050678Y0097216D01*
X0050684Y0097368D01*
X0050686Y0097520D01*
X0050685Y0097520D02*
X0050685Y0132953D01*
X0050686Y0132953D02*
X0050684Y0133105D01*
X0050678Y0133257D01*
X0050668Y0133409D01*
X0050655Y0133560D01*
X0050637Y0133711D01*
X0050616Y0133862D01*
X0050590Y0134012D01*
X0050561Y0134161D01*
X0050528Y0134310D01*
X0050491Y0134457D01*
X0050451Y0134604D01*
X0050406Y0134749D01*
X0050358Y0134893D01*
X0050306Y0135036D01*
X0050251Y0135178D01*
X0050192Y0135318D01*
X0050129Y0135457D01*
X0050063Y0135594D01*
X0049993Y0135729D01*
X0049920Y0135862D01*
X0049843Y0135993D01*
X0049763Y0136123D01*
X0049680Y0136250D01*
X0049594Y0136375D01*
X0049504Y0136498D01*
X0049411Y0136618D01*
X0049315Y0136736D01*
X0049216Y0136852D01*
X0049114Y0136965D01*
X0049010Y0137075D01*
X0048902Y0137183D01*
X0048792Y0137287D01*
X0048679Y0137389D01*
X0048563Y0137488D01*
X0048445Y0137584D01*
X0048325Y0137677D01*
X0048202Y0137767D01*
X0048077Y0137853D01*
X0047950Y0137936D01*
X0047820Y0138016D01*
X0047689Y0138093D01*
X0047556Y0138166D01*
X0047421Y0138236D01*
X0047284Y0138302D01*
X0047145Y0138365D01*
X0047005Y0138424D01*
X0046863Y0138479D01*
X0046720Y0138531D01*
X0046576Y0138579D01*
X0046431Y0138624D01*
X0046284Y0138664D01*
X0046137Y0138701D01*
X0045988Y0138734D01*
X0045839Y0138763D01*
X0045689Y0138789D01*
X0045538Y0138810D01*
X0045387Y0138828D01*
X0045236Y0138841D01*
X0045084Y0138851D01*
X0044932Y0138857D01*
X0044780Y0138859D01*
X0044780Y0138858D02*
X0029031Y0138858D01*
X0029031Y0138859D02*
X0028879Y0138857D01*
X0028727Y0138851D01*
X0028575Y0138841D01*
X0028424Y0138828D01*
X0028273Y0138810D01*
X0028122Y0138789D01*
X0027972Y0138763D01*
X0027823Y0138734D01*
X0027674Y0138701D01*
X0027527Y0138664D01*
X0027380Y0138624D01*
X0027235Y0138579D01*
X0027091Y0138531D01*
X0026948Y0138479D01*
X0026806Y0138424D01*
X0026666Y0138365D01*
X0026527Y0138302D01*
X0026390Y0138236D01*
X0026255Y0138166D01*
X0026122Y0138093D01*
X0025991Y0138016D01*
X0025861Y0137936D01*
X0025734Y0137853D01*
X0025609Y0137767D01*
X0025486Y0137677D01*
X0025366Y0137584D01*
X0025248Y0137488D01*
X0025132Y0137389D01*
X0025019Y0137287D01*
X0024909Y0137183D01*
X0024801Y0137075D01*
X0024697Y0136965D01*
X0024595Y0136852D01*
X0024496Y0136736D01*
X0024400Y0136618D01*
X0024307Y0136498D01*
X0024217Y0136375D01*
X0024131Y0136250D01*
X0024048Y0136123D01*
X0023968Y0135993D01*
X0023891Y0135862D01*
X0023818Y0135729D01*
X0023748Y0135594D01*
X0023682Y0135457D01*
X0023619Y0135318D01*
X0023560Y0135178D01*
X0023505Y0135036D01*
X0023453Y0134893D01*
X0023405Y0134749D01*
X0023360Y0134604D01*
X0023320Y0134457D01*
X0023283Y0134310D01*
X0023250Y0134161D01*
X0023221Y0134012D01*
X0023195Y0133862D01*
X0023174Y0133711D01*
X0023156Y0133560D01*
X0023143Y0133409D01*
X0023133Y0133257D01*
X0023127Y0133105D01*
X0023125Y0132953D01*
X0023126Y0132953D02*
X0023126Y0097520D01*
X0023125Y0097520D02*
X0023127Y0097368D01*
X0023133Y0097216D01*
X0023143Y0097064D01*
X0023156Y0096913D01*
X0023174Y0096762D01*
X0023195Y0096611D01*
X0023221Y0096461D01*
X0023250Y0096312D01*
X0023283Y0096163D01*
X0023320Y0096016D01*
X0023360Y0095869D01*
X0023405Y0095724D01*
X0023453Y0095580D01*
X0023505Y0095437D01*
X0023560Y0095295D01*
X0023619Y0095155D01*
X0023682Y0095016D01*
X0023748Y0094879D01*
X0023818Y0094744D01*
X0023891Y0094611D01*
X0023968Y0094480D01*
X0024048Y0094350D01*
X0024131Y0094223D01*
X0024217Y0094098D01*
X0024307Y0093975D01*
X0024400Y0093855D01*
X0024496Y0093737D01*
X0024595Y0093621D01*
X0024697Y0093508D01*
X0024801Y0093398D01*
X0024909Y0093290D01*
X0025019Y0093186D01*
X0025132Y0093084D01*
X0025248Y0092985D01*
X0025366Y0092889D01*
X0025486Y0092796D01*
X0025609Y0092706D01*
X0025734Y0092620D01*
X0025861Y0092537D01*
X0025991Y0092457D01*
X0026122Y0092380D01*
X0026255Y0092307D01*
X0026390Y0092237D01*
X0026527Y0092171D01*
X0026666Y0092108D01*
X0026806Y0092049D01*
X0026948Y0091994D01*
X0027091Y0091942D01*
X0027235Y0091894D01*
X0027380Y0091849D01*
X0027527Y0091809D01*
X0027674Y0091772D01*
X0027823Y0091739D01*
X0027972Y0091710D01*
X0028122Y0091684D01*
X0028273Y0091663D01*
X0028424Y0091645D01*
X0028575Y0091632D01*
X0028727Y0091622D01*
X0028879Y0091616D01*
X0029031Y0091614D01*
X0029031Y0180197D02*
X0044780Y0180197D01*
X0044780Y0180196D02*
X0044932Y0180198D01*
X0045084Y0180204D01*
X0045236Y0180214D01*
X0045387Y0180227D01*
X0045538Y0180245D01*
X0045689Y0180266D01*
X0045839Y0180292D01*
X0045988Y0180321D01*
X0046137Y0180354D01*
X0046284Y0180391D01*
X0046431Y0180431D01*
X0046576Y0180476D01*
X0046720Y0180524D01*
X0046863Y0180576D01*
X0047005Y0180631D01*
X0047145Y0180690D01*
X0047284Y0180753D01*
X0047421Y0180819D01*
X0047556Y0180889D01*
X0047689Y0180962D01*
X0047820Y0181039D01*
X0047950Y0181119D01*
X0048077Y0181202D01*
X0048202Y0181288D01*
X0048325Y0181378D01*
X0048445Y0181471D01*
X0048563Y0181567D01*
X0048679Y0181666D01*
X0048792Y0181768D01*
X0048902Y0181872D01*
X0049010Y0181980D01*
X0049114Y0182090D01*
X0049216Y0182203D01*
X0049315Y0182319D01*
X0049411Y0182437D01*
X0049504Y0182557D01*
X0049594Y0182680D01*
X0049680Y0182805D01*
X0049763Y0182932D01*
X0049843Y0183062D01*
X0049920Y0183193D01*
X0049993Y0183326D01*
X0050063Y0183461D01*
X0050129Y0183598D01*
X0050192Y0183737D01*
X0050251Y0183877D01*
X0050306Y0184019D01*
X0050358Y0184162D01*
X0050406Y0184306D01*
X0050451Y0184451D01*
X0050491Y0184598D01*
X0050528Y0184745D01*
X0050561Y0184894D01*
X0050590Y0185043D01*
X0050616Y0185193D01*
X0050637Y0185344D01*
X0050655Y0185495D01*
X0050668Y0185646D01*
X0050678Y0185798D01*
X0050684Y0185950D01*
X0050686Y0186102D01*
X0050685Y0186102D02*
X0050685Y0221535D01*
X0050686Y0221535D02*
X0050684Y0221687D01*
X0050678Y0221839D01*
X0050668Y0221991D01*
X0050655Y0222142D01*
X0050637Y0222293D01*
X0050616Y0222444D01*
X0050590Y0222594D01*
X0050561Y0222743D01*
X0050528Y0222892D01*
X0050491Y0223039D01*
X0050451Y0223186D01*
X0050406Y0223331D01*
X0050358Y0223475D01*
X0050306Y0223618D01*
X0050251Y0223760D01*
X0050192Y0223900D01*
X0050129Y0224039D01*
X0050063Y0224176D01*
X0049993Y0224311D01*
X0049920Y0224444D01*
X0049843Y0224575D01*
X0049763Y0224705D01*
X0049680Y0224832D01*
X0049594Y0224957D01*
X0049504Y0225080D01*
X0049411Y0225200D01*
X0049315Y0225318D01*
X0049216Y0225434D01*
X0049114Y0225547D01*
X0049010Y0225657D01*
X0048902Y0225765D01*
X0048792Y0225869D01*
X0048679Y0225971D01*
X0048563Y0226070D01*
X0048445Y0226166D01*
X0048325Y0226259D01*
X0048202Y0226349D01*
X0048077Y0226435D01*
X0047950Y0226518D01*
X0047820Y0226598D01*
X0047689Y0226675D01*
X0047556Y0226748D01*
X0047421Y0226818D01*
X0047284Y0226884D01*
X0047145Y0226947D01*
X0047005Y0227006D01*
X0046863Y0227061D01*
X0046720Y0227113D01*
X0046576Y0227161D01*
X0046431Y0227206D01*
X0046284Y0227246D01*
X0046137Y0227283D01*
X0045988Y0227316D01*
X0045839Y0227345D01*
X0045689Y0227371D01*
X0045538Y0227392D01*
X0045387Y0227410D01*
X0045236Y0227423D01*
X0045084Y0227433D01*
X0044932Y0227439D01*
X0044780Y0227441D01*
X0029031Y0227441D01*
X0028879Y0227439D01*
X0028727Y0227433D01*
X0028575Y0227423D01*
X0028424Y0227410D01*
X0028273Y0227392D01*
X0028122Y0227371D01*
X0027972Y0227345D01*
X0027823Y0227316D01*
X0027674Y0227283D01*
X0027527Y0227246D01*
X0027380Y0227206D01*
X0027235Y0227161D01*
X0027091Y0227113D01*
X0026948Y0227061D01*
X0026806Y0227006D01*
X0026666Y0226947D01*
X0026527Y0226884D01*
X0026390Y0226818D01*
X0026255Y0226748D01*
X0026122Y0226675D01*
X0025991Y0226598D01*
X0025861Y0226518D01*
X0025734Y0226435D01*
X0025609Y0226349D01*
X0025486Y0226259D01*
X0025366Y0226166D01*
X0025248Y0226070D01*
X0025132Y0225971D01*
X0025019Y0225869D01*
X0024909Y0225765D01*
X0024801Y0225657D01*
X0024697Y0225547D01*
X0024595Y0225434D01*
X0024496Y0225318D01*
X0024400Y0225200D01*
X0024307Y0225080D01*
X0024217Y0224957D01*
X0024131Y0224832D01*
X0024048Y0224705D01*
X0023968Y0224575D01*
X0023891Y0224444D01*
X0023818Y0224311D01*
X0023748Y0224176D01*
X0023682Y0224039D01*
X0023619Y0223900D01*
X0023560Y0223760D01*
X0023505Y0223618D01*
X0023453Y0223475D01*
X0023405Y0223331D01*
X0023360Y0223186D01*
X0023320Y0223039D01*
X0023283Y0222892D01*
X0023250Y0222743D01*
X0023221Y0222594D01*
X0023195Y0222444D01*
X0023174Y0222293D01*
X0023156Y0222142D01*
X0023143Y0221991D01*
X0023133Y0221839D01*
X0023127Y0221687D01*
X0023125Y0221535D01*
X0023126Y0221535D02*
X0023126Y0186102D01*
X0023125Y0186102D02*
X0023127Y0185950D01*
X0023133Y0185798D01*
X0023143Y0185646D01*
X0023156Y0185495D01*
X0023174Y0185344D01*
X0023195Y0185193D01*
X0023221Y0185043D01*
X0023250Y0184894D01*
X0023283Y0184745D01*
X0023320Y0184598D01*
X0023360Y0184451D01*
X0023405Y0184306D01*
X0023453Y0184162D01*
X0023505Y0184019D01*
X0023560Y0183877D01*
X0023619Y0183737D01*
X0023682Y0183598D01*
X0023748Y0183461D01*
X0023818Y0183326D01*
X0023891Y0183193D01*
X0023968Y0183062D01*
X0024048Y0182932D01*
X0024131Y0182805D01*
X0024217Y0182680D01*
X0024307Y0182557D01*
X0024400Y0182437D01*
X0024496Y0182319D01*
X0024595Y0182203D01*
X0024697Y0182090D01*
X0024801Y0181980D01*
X0024909Y0181872D01*
X0025019Y0181768D01*
X0025132Y0181666D01*
X0025248Y0181567D01*
X0025366Y0181471D01*
X0025486Y0181378D01*
X0025609Y0181288D01*
X0025734Y0181202D01*
X0025861Y0181119D01*
X0025991Y0181039D01*
X0026122Y0180962D01*
X0026255Y0180889D01*
X0026390Y0180819D01*
X0026527Y0180753D01*
X0026666Y0180690D01*
X0026806Y0180631D01*
X0026948Y0180576D01*
X0027091Y0180524D01*
X0027235Y0180476D01*
X0027380Y0180431D01*
X0027527Y0180391D01*
X0027674Y0180354D01*
X0027823Y0180321D01*
X0027972Y0180292D01*
X0028122Y0180266D01*
X0028273Y0180245D01*
X0028424Y0180227D01*
X0028575Y0180214D01*
X0028727Y0180204D01*
X0028879Y0180198D01*
X0029031Y0180196D01*
X0008874Y0247126D02*
X0008876Y0247279D01*
X0008882Y0247433D01*
X0008892Y0247586D01*
X0008906Y0247738D01*
X0008924Y0247891D01*
X0008946Y0248042D01*
X0008971Y0248193D01*
X0009001Y0248344D01*
X0009035Y0248494D01*
X0009072Y0248642D01*
X0009113Y0248790D01*
X0009158Y0248936D01*
X0009207Y0249082D01*
X0009260Y0249226D01*
X0009316Y0249368D01*
X0009376Y0249509D01*
X0009440Y0249649D01*
X0009507Y0249787D01*
X0009578Y0249923D01*
X0009653Y0250057D01*
X0009730Y0250189D01*
X0009812Y0250319D01*
X0009896Y0250447D01*
X0009984Y0250573D01*
X0010075Y0250696D01*
X0010169Y0250817D01*
X0010267Y0250935D01*
X0010367Y0251051D01*
X0010471Y0251164D01*
X0010577Y0251275D01*
X0010686Y0251383D01*
X0010798Y0251488D01*
X0010912Y0251589D01*
X0011030Y0251688D01*
X0011149Y0251784D01*
X0011271Y0251877D01*
X0011396Y0251966D01*
X0011523Y0252053D01*
X0011652Y0252135D01*
X0011783Y0252215D01*
X0011916Y0252291D01*
X0012051Y0252364D01*
X0012188Y0252433D01*
X0012327Y0252498D01*
X0012467Y0252560D01*
X0012609Y0252618D01*
X0012752Y0252673D01*
X0012897Y0252724D01*
X0013043Y0252771D01*
X0013190Y0252814D01*
X0013338Y0252853D01*
X0013487Y0252889D01*
X0013637Y0252920D01*
X0013788Y0252948D01*
X0013939Y0252972D01*
X0014092Y0252992D01*
X0014244Y0253008D01*
X0014397Y0253020D01*
X0014550Y0253028D01*
X0014703Y0253032D01*
X0014857Y0253032D01*
X0015010Y0253028D01*
X0015163Y0253020D01*
X0015316Y0253008D01*
X0015468Y0252992D01*
X0015621Y0252972D01*
X0015772Y0252948D01*
X0015923Y0252920D01*
X0016073Y0252889D01*
X0016222Y0252853D01*
X0016370Y0252814D01*
X0016517Y0252771D01*
X0016663Y0252724D01*
X0016808Y0252673D01*
X0016951Y0252618D01*
X0017093Y0252560D01*
X0017233Y0252498D01*
X0017372Y0252433D01*
X0017509Y0252364D01*
X0017644Y0252291D01*
X0017777Y0252215D01*
X0017908Y0252135D01*
X0018037Y0252053D01*
X0018164Y0251966D01*
X0018289Y0251877D01*
X0018411Y0251784D01*
X0018530Y0251688D01*
X0018648Y0251589D01*
X0018762Y0251488D01*
X0018874Y0251383D01*
X0018983Y0251275D01*
X0019089Y0251164D01*
X0019193Y0251051D01*
X0019293Y0250935D01*
X0019391Y0250817D01*
X0019485Y0250696D01*
X0019576Y0250573D01*
X0019664Y0250447D01*
X0019748Y0250319D01*
X0019830Y0250189D01*
X0019907Y0250057D01*
X0019982Y0249923D01*
X0020053Y0249787D01*
X0020120Y0249649D01*
X0020184Y0249509D01*
X0020244Y0249368D01*
X0020300Y0249226D01*
X0020353Y0249082D01*
X0020402Y0248936D01*
X0020447Y0248790D01*
X0020488Y0248642D01*
X0020525Y0248494D01*
X0020559Y0248344D01*
X0020589Y0248193D01*
X0020614Y0248042D01*
X0020636Y0247891D01*
X0020654Y0247738D01*
X0020668Y0247586D01*
X0020678Y0247433D01*
X0020684Y0247279D01*
X0020686Y0247126D01*
X0020684Y0246973D01*
X0020678Y0246819D01*
X0020668Y0246666D01*
X0020654Y0246514D01*
X0020636Y0246361D01*
X0020614Y0246210D01*
X0020589Y0246059D01*
X0020559Y0245908D01*
X0020525Y0245758D01*
X0020488Y0245610D01*
X0020447Y0245462D01*
X0020402Y0245316D01*
X0020353Y0245170D01*
X0020300Y0245026D01*
X0020244Y0244884D01*
X0020184Y0244743D01*
X0020120Y0244603D01*
X0020053Y0244465D01*
X0019982Y0244329D01*
X0019907Y0244195D01*
X0019830Y0244063D01*
X0019748Y0243933D01*
X0019664Y0243805D01*
X0019576Y0243679D01*
X0019485Y0243556D01*
X0019391Y0243435D01*
X0019293Y0243317D01*
X0019193Y0243201D01*
X0019089Y0243088D01*
X0018983Y0242977D01*
X0018874Y0242869D01*
X0018762Y0242764D01*
X0018648Y0242663D01*
X0018530Y0242564D01*
X0018411Y0242468D01*
X0018289Y0242375D01*
X0018164Y0242286D01*
X0018037Y0242199D01*
X0017908Y0242117D01*
X0017777Y0242037D01*
X0017644Y0241961D01*
X0017509Y0241888D01*
X0017372Y0241819D01*
X0017233Y0241754D01*
X0017093Y0241692D01*
X0016951Y0241634D01*
X0016808Y0241579D01*
X0016663Y0241528D01*
X0016517Y0241481D01*
X0016370Y0241438D01*
X0016222Y0241399D01*
X0016073Y0241363D01*
X0015923Y0241332D01*
X0015772Y0241304D01*
X0015621Y0241280D01*
X0015468Y0241260D01*
X0015316Y0241244D01*
X0015163Y0241232D01*
X0015010Y0241224D01*
X0014857Y0241220D01*
X0014703Y0241220D01*
X0014550Y0241224D01*
X0014397Y0241232D01*
X0014244Y0241244D01*
X0014092Y0241260D01*
X0013939Y0241280D01*
X0013788Y0241304D01*
X0013637Y0241332D01*
X0013487Y0241363D01*
X0013338Y0241399D01*
X0013190Y0241438D01*
X0013043Y0241481D01*
X0012897Y0241528D01*
X0012752Y0241579D01*
X0012609Y0241634D01*
X0012467Y0241692D01*
X0012327Y0241754D01*
X0012188Y0241819D01*
X0012051Y0241888D01*
X0011916Y0241961D01*
X0011783Y0242037D01*
X0011652Y0242117D01*
X0011523Y0242199D01*
X0011396Y0242286D01*
X0011271Y0242375D01*
X0011149Y0242468D01*
X0011030Y0242564D01*
X0010912Y0242663D01*
X0010798Y0242764D01*
X0010686Y0242869D01*
X0010577Y0242977D01*
X0010471Y0243088D01*
X0010367Y0243201D01*
X0010267Y0243317D01*
X0010169Y0243435D01*
X0010075Y0243556D01*
X0009984Y0243679D01*
X0009896Y0243805D01*
X0009812Y0243933D01*
X0009730Y0244063D01*
X0009653Y0244195D01*
X0009578Y0244329D01*
X0009507Y0244465D01*
X0009440Y0244603D01*
X0009376Y0244743D01*
X0009316Y0244884D01*
X0009260Y0245026D01*
X0009207Y0245170D01*
X0009158Y0245316D01*
X0009113Y0245462D01*
X0009072Y0245610D01*
X0009035Y0245758D01*
X0009001Y0245908D01*
X0008971Y0246059D01*
X0008946Y0246210D01*
X0008924Y0246361D01*
X0008906Y0246514D01*
X0008892Y0246666D01*
X0008882Y0246819D01*
X0008876Y0246973D01*
X0008874Y0247126D01*
X0201787Y0247126D02*
X0201789Y0247279D01*
X0201795Y0247433D01*
X0201805Y0247586D01*
X0201819Y0247738D01*
X0201837Y0247891D01*
X0201859Y0248042D01*
X0201884Y0248193D01*
X0201914Y0248344D01*
X0201948Y0248494D01*
X0201985Y0248642D01*
X0202026Y0248790D01*
X0202071Y0248936D01*
X0202120Y0249082D01*
X0202173Y0249226D01*
X0202229Y0249368D01*
X0202289Y0249509D01*
X0202353Y0249649D01*
X0202420Y0249787D01*
X0202491Y0249923D01*
X0202566Y0250057D01*
X0202643Y0250189D01*
X0202725Y0250319D01*
X0202809Y0250447D01*
X0202897Y0250573D01*
X0202988Y0250696D01*
X0203082Y0250817D01*
X0203180Y0250935D01*
X0203280Y0251051D01*
X0203384Y0251164D01*
X0203490Y0251275D01*
X0203599Y0251383D01*
X0203711Y0251488D01*
X0203825Y0251589D01*
X0203943Y0251688D01*
X0204062Y0251784D01*
X0204184Y0251877D01*
X0204309Y0251966D01*
X0204436Y0252053D01*
X0204565Y0252135D01*
X0204696Y0252215D01*
X0204829Y0252291D01*
X0204964Y0252364D01*
X0205101Y0252433D01*
X0205240Y0252498D01*
X0205380Y0252560D01*
X0205522Y0252618D01*
X0205665Y0252673D01*
X0205810Y0252724D01*
X0205956Y0252771D01*
X0206103Y0252814D01*
X0206251Y0252853D01*
X0206400Y0252889D01*
X0206550Y0252920D01*
X0206701Y0252948D01*
X0206852Y0252972D01*
X0207005Y0252992D01*
X0207157Y0253008D01*
X0207310Y0253020D01*
X0207463Y0253028D01*
X0207616Y0253032D01*
X0207770Y0253032D01*
X0207923Y0253028D01*
X0208076Y0253020D01*
X0208229Y0253008D01*
X0208381Y0252992D01*
X0208534Y0252972D01*
X0208685Y0252948D01*
X0208836Y0252920D01*
X0208986Y0252889D01*
X0209135Y0252853D01*
X0209283Y0252814D01*
X0209430Y0252771D01*
X0209576Y0252724D01*
X0209721Y0252673D01*
X0209864Y0252618D01*
X0210006Y0252560D01*
X0210146Y0252498D01*
X0210285Y0252433D01*
X0210422Y0252364D01*
X0210557Y0252291D01*
X0210690Y0252215D01*
X0210821Y0252135D01*
X0210950Y0252053D01*
X0211077Y0251966D01*
X0211202Y0251877D01*
X0211324Y0251784D01*
X0211443Y0251688D01*
X0211561Y0251589D01*
X0211675Y0251488D01*
X0211787Y0251383D01*
X0211896Y0251275D01*
X0212002Y0251164D01*
X0212106Y0251051D01*
X0212206Y0250935D01*
X0212304Y0250817D01*
X0212398Y0250696D01*
X0212489Y0250573D01*
X0212577Y0250447D01*
X0212661Y0250319D01*
X0212743Y0250189D01*
X0212820Y0250057D01*
X0212895Y0249923D01*
X0212966Y0249787D01*
X0213033Y0249649D01*
X0213097Y0249509D01*
X0213157Y0249368D01*
X0213213Y0249226D01*
X0213266Y0249082D01*
X0213315Y0248936D01*
X0213360Y0248790D01*
X0213401Y0248642D01*
X0213438Y0248494D01*
X0213472Y0248344D01*
X0213502Y0248193D01*
X0213527Y0248042D01*
X0213549Y0247891D01*
X0213567Y0247738D01*
X0213581Y0247586D01*
X0213591Y0247433D01*
X0213597Y0247279D01*
X0213599Y0247126D01*
X0213597Y0246973D01*
X0213591Y0246819D01*
X0213581Y0246666D01*
X0213567Y0246514D01*
X0213549Y0246361D01*
X0213527Y0246210D01*
X0213502Y0246059D01*
X0213472Y0245908D01*
X0213438Y0245758D01*
X0213401Y0245610D01*
X0213360Y0245462D01*
X0213315Y0245316D01*
X0213266Y0245170D01*
X0213213Y0245026D01*
X0213157Y0244884D01*
X0213097Y0244743D01*
X0213033Y0244603D01*
X0212966Y0244465D01*
X0212895Y0244329D01*
X0212820Y0244195D01*
X0212743Y0244063D01*
X0212661Y0243933D01*
X0212577Y0243805D01*
X0212489Y0243679D01*
X0212398Y0243556D01*
X0212304Y0243435D01*
X0212206Y0243317D01*
X0212106Y0243201D01*
X0212002Y0243088D01*
X0211896Y0242977D01*
X0211787Y0242869D01*
X0211675Y0242764D01*
X0211561Y0242663D01*
X0211443Y0242564D01*
X0211324Y0242468D01*
X0211202Y0242375D01*
X0211077Y0242286D01*
X0210950Y0242199D01*
X0210821Y0242117D01*
X0210690Y0242037D01*
X0210557Y0241961D01*
X0210422Y0241888D01*
X0210285Y0241819D01*
X0210146Y0241754D01*
X0210006Y0241692D01*
X0209864Y0241634D01*
X0209721Y0241579D01*
X0209576Y0241528D01*
X0209430Y0241481D01*
X0209283Y0241438D01*
X0209135Y0241399D01*
X0208986Y0241363D01*
X0208836Y0241332D01*
X0208685Y0241304D01*
X0208534Y0241280D01*
X0208381Y0241260D01*
X0208229Y0241244D01*
X0208076Y0241232D01*
X0207923Y0241224D01*
X0207770Y0241220D01*
X0207616Y0241220D01*
X0207463Y0241224D01*
X0207310Y0241232D01*
X0207157Y0241244D01*
X0207005Y0241260D01*
X0206852Y0241280D01*
X0206701Y0241304D01*
X0206550Y0241332D01*
X0206400Y0241363D01*
X0206251Y0241399D01*
X0206103Y0241438D01*
X0205956Y0241481D01*
X0205810Y0241528D01*
X0205665Y0241579D01*
X0205522Y0241634D01*
X0205380Y0241692D01*
X0205240Y0241754D01*
X0205101Y0241819D01*
X0204964Y0241888D01*
X0204829Y0241961D01*
X0204696Y0242037D01*
X0204565Y0242117D01*
X0204436Y0242199D01*
X0204309Y0242286D01*
X0204184Y0242375D01*
X0204062Y0242468D01*
X0203943Y0242564D01*
X0203825Y0242663D01*
X0203711Y0242764D01*
X0203599Y0242869D01*
X0203490Y0242977D01*
X0203384Y0243088D01*
X0203280Y0243201D01*
X0203180Y0243317D01*
X0203082Y0243435D01*
X0202988Y0243556D01*
X0202897Y0243679D01*
X0202809Y0243805D01*
X0202725Y0243933D01*
X0202643Y0244063D01*
X0202566Y0244195D01*
X0202491Y0244329D01*
X0202420Y0244465D01*
X0202353Y0244603D01*
X0202289Y0244743D01*
X0202229Y0244884D01*
X0202173Y0245026D01*
X0202120Y0245170D01*
X0202071Y0245316D01*
X0202026Y0245462D01*
X0201985Y0245610D01*
X0201948Y0245758D01*
X0201914Y0245908D01*
X0201884Y0246059D01*
X0201859Y0246210D01*
X0201837Y0246361D01*
X0201819Y0246514D01*
X0201805Y0246666D01*
X0201795Y0246819D01*
X0201789Y0246973D01*
X0201787Y0247126D01*
X0201787Y0018780D02*
X0201789Y0018933D01*
X0201795Y0019087D01*
X0201805Y0019240D01*
X0201819Y0019392D01*
X0201837Y0019545D01*
X0201859Y0019696D01*
X0201884Y0019847D01*
X0201914Y0019998D01*
X0201948Y0020148D01*
X0201985Y0020296D01*
X0202026Y0020444D01*
X0202071Y0020590D01*
X0202120Y0020736D01*
X0202173Y0020880D01*
X0202229Y0021022D01*
X0202289Y0021163D01*
X0202353Y0021303D01*
X0202420Y0021441D01*
X0202491Y0021577D01*
X0202566Y0021711D01*
X0202643Y0021843D01*
X0202725Y0021973D01*
X0202809Y0022101D01*
X0202897Y0022227D01*
X0202988Y0022350D01*
X0203082Y0022471D01*
X0203180Y0022589D01*
X0203280Y0022705D01*
X0203384Y0022818D01*
X0203490Y0022929D01*
X0203599Y0023037D01*
X0203711Y0023142D01*
X0203825Y0023243D01*
X0203943Y0023342D01*
X0204062Y0023438D01*
X0204184Y0023531D01*
X0204309Y0023620D01*
X0204436Y0023707D01*
X0204565Y0023789D01*
X0204696Y0023869D01*
X0204829Y0023945D01*
X0204964Y0024018D01*
X0205101Y0024087D01*
X0205240Y0024152D01*
X0205380Y0024214D01*
X0205522Y0024272D01*
X0205665Y0024327D01*
X0205810Y0024378D01*
X0205956Y0024425D01*
X0206103Y0024468D01*
X0206251Y0024507D01*
X0206400Y0024543D01*
X0206550Y0024574D01*
X0206701Y0024602D01*
X0206852Y0024626D01*
X0207005Y0024646D01*
X0207157Y0024662D01*
X0207310Y0024674D01*
X0207463Y0024682D01*
X0207616Y0024686D01*
X0207770Y0024686D01*
X0207923Y0024682D01*
X0208076Y0024674D01*
X0208229Y0024662D01*
X0208381Y0024646D01*
X0208534Y0024626D01*
X0208685Y0024602D01*
X0208836Y0024574D01*
X0208986Y0024543D01*
X0209135Y0024507D01*
X0209283Y0024468D01*
X0209430Y0024425D01*
X0209576Y0024378D01*
X0209721Y0024327D01*
X0209864Y0024272D01*
X0210006Y0024214D01*
X0210146Y0024152D01*
X0210285Y0024087D01*
X0210422Y0024018D01*
X0210557Y0023945D01*
X0210690Y0023869D01*
X0210821Y0023789D01*
X0210950Y0023707D01*
X0211077Y0023620D01*
X0211202Y0023531D01*
X0211324Y0023438D01*
X0211443Y0023342D01*
X0211561Y0023243D01*
X0211675Y0023142D01*
X0211787Y0023037D01*
X0211896Y0022929D01*
X0212002Y0022818D01*
X0212106Y0022705D01*
X0212206Y0022589D01*
X0212304Y0022471D01*
X0212398Y0022350D01*
X0212489Y0022227D01*
X0212577Y0022101D01*
X0212661Y0021973D01*
X0212743Y0021843D01*
X0212820Y0021711D01*
X0212895Y0021577D01*
X0212966Y0021441D01*
X0213033Y0021303D01*
X0213097Y0021163D01*
X0213157Y0021022D01*
X0213213Y0020880D01*
X0213266Y0020736D01*
X0213315Y0020590D01*
X0213360Y0020444D01*
X0213401Y0020296D01*
X0213438Y0020148D01*
X0213472Y0019998D01*
X0213502Y0019847D01*
X0213527Y0019696D01*
X0213549Y0019545D01*
X0213567Y0019392D01*
X0213581Y0019240D01*
X0213591Y0019087D01*
X0213597Y0018933D01*
X0213599Y0018780D01*
X0213597Y0018627D01*
X0213591Y0018473D01*
X0213581Y0018320D01*
X0213567Y0018168D01*
X0213549Y0018015D01*
X0213527Y0017864D01*
X0213502Y0017713D01*
X0213472Y0017562D01*
X0213438Y0017412D01*
X0213401Y0017264D01*
X0213360Y0017116D01*
X0213315Y0016970D01*
X0213266Y0016824D01*
X0213213Y0016680D01*
X0213157Y0016538D01*
X0213097Y0016397D01*
X0213033Y0016257D01*
X0212966Y0016119D01*
X0212895Y0015983D01*
X0212820Y0015849D01*
X0212743Y0015717D01*
X0212661Y0015587D01*
X0212577Y0015459D01*
X0212489Y0015333D01*
X0212398Y0015210D01*
X0212304Y0015089D01*
X0212206Y0014971D01*
X0212106Y0014855D01*
X0212002Y0014742D01*
X0211896Y0014631D01*
X0211787Y0014523D01*
X0211675Y0014418D01*
X0211561Y0014317D01*
X0211443Y0014218D01*
X0211324Y0014122D01*
X0211202Y0014029D01*
X0211077Y0013940D01*
X0210950Y0013853D01*
X0210821Y0013771D01*
X0210690Y0013691D01*
X0210557Y0013615D01*
X0210422Y0013542D01*
X0210285Y0013473D01*
X0210146Y0013408D01*
X0210006Y0013346D01*
X0209864Y0013288D01*
X0209721Y0013233D01*
X0209576Y0013182D01*
X0209430Y0013135D01*
X0209283Y0013092D01*
X0209135Y0013053D01*
X0208986Y0013017D01*
X0208836Y0012986D01*
X0208685Y0012958D01*
X0208534Y0012934D01*
X0208381Y0012914D01*
X0208229Y0012898D01*
X0208076Y0012886D01*
X0207923Y0012878D01*
X0207770Y0012874D01*
X0207616Y0012874D01*
X0207463Y0012878D01*
X0207310Y0012886D01*
X0207157Y0012898D01*
X0207005Y0012914D01*
X0206852Y0012934D01*
X0206701Y0012958D01*
X0206550Y0012986D01*
X0206400Y0013017D01*
X0206251Y0013053D01*
X0206103Y0013092D01*
X0205956Y0013135D01*
X0205810Y0013182D01*
X0205665Y0013233D01*
X0205522Y0013288D01*
X0205380Y0013346D01*
X0205240Y0013408D01*
X0205101Y0013473D01*
X0204964Y0013542D01*
X0204829Y0013615D01*
X0204696Y0013691D01*
X0204565Y0013771D01*
X0204436Y0013853D01*
X0204309Y0013940D01*
X0204184Y0014029D01*
X0204062Y0014122D01*
X0203943Y0014218D01*
X0203825Y0014317D01*
X0203711Y0014418D01*
X0203599Y0014523D01*
X0203490Y0014631D01*
X0203384Y0014742D01*
X0203280Y0014855D01*
X0203180Y0014971D01*
X0203082Y0015089D01*
X0202988Y0015210D01*
X0202897Y0015333D01*
X0202809Y0015459D01*
X0202725Y0015587D01*
X0202643Y0015717D01*
X0202566Y0015849D01*
X0202491Y0015983D01*
X0202420Y0016119D01*
X0202353Y0016257D01*
X0202289Y0016397D01*
X0202229Y0016538D01*
X0202173Y0016680D01*
X0202120Y0016824D01*
X0202071Y0016970D01*
X0202026Y0017116D01*
X0201985Y0017264D01*
X0201948Y0017412D01*
X0201914Y0017562D01*
X0201884Y0017713D01*
X0201859Y0017864D01*
X0201837Y0018015D01*
X0201819Y0018168D01*
X0201805Y0018320D01*
X0201795Y0018473D01*
X0201789Y0018627D01*
X0201787Y0018780D01*
D11*
X0211256Y0032874D02*
X0208756Y0035374D01*
X0208756Y0040374D01*
X0211256Y0042874D01*
X0208756Y0045374D01*
X0208756Y0050374D01*
X0211256Y0052874D01*
X0208756Y0055374D01*
X0208756Y0060374D01*
X0211256Y0062874D01*
X0208756Y0065374D01*
X0208756Y0070374D01*
X0211256Y0072874D01*
X0208756Y0075374D01*
X0208756Y0080374D01*
X0211256Y0082874D01*
X0208756Y0085374D01*
X0208756Y0090374D01*
X0211256Y0092874D01*
X0208756Y0095374D01*
X0208756Y0100374D01*
X0211256Y0102874D01*
X0208756Y0105374D01*
X0208756Y0110374D01*
X0211256Y0112874D01*
X0208756Y0115374D01*
X0208756Y0120374D01*
X0211256Y0122874D01*
X0208756Y0125374D01*
X0208756Y0130374D01*
X0211256Y0132874D01*
X0208756Y0135374D01*
X0208756Y0140374D01*
X0211256Y0142874D01*
X0208756Y0145374D01*
X0208756Y0150374D01*
X0211256Y0152874D01*
X0208756Y0155374D01*
X0208756Y0160374D01*
X0211256Y0162874D01*
X0208756Y0165374D01*
X0208756Y0170374D01*
X0211256Y0172874D01*
X0208756Y0175374D01*
X0208756Y0180374D01*
X0211256Y0182874D01*
X0208756Y0185374D01*
X0208756Y0190374D01*
X0211256Y0192874D01*
X0208756Y0195374D01*
X0208756Y0200374D01*
X0211256Y0202874D01*
X0208756Y0205374D01*
X0208756Y0210374D01*
X0211256Y0212874D01*
X0208756Y0215374D01*
X0208756Y0220374D01*
X0211256Y0222874D01*
X0208756Y0225374D01*
X0208756Y0230374D01*
X0211256Y0232874D01*
X0216256Y0232874D01*
X0218756Y0230374D01*
X0218756Y0225374D01*
X0216256Y0222874D01*
X0218756Y0220374D01*
X0218756Y0215374D01*
X0216256Y0212874D01*
X0218756Y0210374D01*
X0218756Y0205374D01*
X0216256Y0202874D01*
X0218756Y0200374D01*
X0218756Y0195374D01*
X0216256Y0192874D01*
X0218756Y0190374D01*
X0218756Y0185374D01*
X0216256Y0182874D01*
X0218756Y0180374D01*
X0218756Y0175374D01*
X0216256Y0172874D01*
X0218756Y0170374D01*
X0218756Y0165374D01*
X0216256Y0162874D01*
X0218756Y0160374D01*
X0218756Y0155374D01*
X0216256Y0152874D01*
X0218756Y0150374D01*
X0218756Y0145374D01*
X0216256Y0142874D01*
X0218756Y0140374D01*
X0218756Y0135374D01*
X0216256Y0132874D01*
X0218756Y0130374D01*
X0218756Y0125374D01*
X0216256Y0122874D01*
X0218756Y0120374D01*
X0218756Y0115374D01*
X0216256Y0112874D01*
X0218756Y0110374D01*
X0218756Y0105374D01*
X0216256Y0102874D01*
X0218756Y0100374D01*
X0218756Y0095374D01*
X0216256Y0092874D01*
X0218756Y0090374D01*
X0218756Y0085374D01*
X0216256Y0082874D01*
X0218756Y0080374D01*
X0218756Y0075374D01*
X0216256Y0072874D01*
X0218756Y0070374D01*
X0218756Y0065374D01*
X0216256Y0062874D01*
X0218756Y0060374D01*
X0218756Y0055374D01*
X0216256Y0052874D01*
X0218756Y0050374D01*
X0218756Y0045374D01*
X0216256Y0042874D01*
X0218756Y0040374D01*
X0218756Y0035374D01*
X0216256Y0032874D01*
X0211256Y0032874D01*
X0145065Y0124442D02*
X0146133Y0125509D01*
X0146133Y0126577D01*
X0145065Y0127644D01*
X0143997Y0127644D01*
X0145065Y0127644D02*
X0146133Y0128712D01*
X0146133Y0129780D01*
X0145065Y0130847D01*
X0142930Y0130847D01*
X0141862Y0129780D01*
X0141862Y0125509D02*
X0142930Y0124442D01*
X0145065Y0124442D01*
X0133242Y0125509D02*
X0133242Y0127644D01*
X0131106Y0127644D01*
X0128971Y0125509D02*
X0130039Y0124442D01*
X0132174Y0124442D01*
X0133242Y0125509D01*
X0133242Y0129780D02*
X0132174Y0130847D01*
X0130039Y0130847D01*
X0128971Y0129780D01*
X0128971Y0125509D01*
X0126796Y0124442D02*
X0122526Y0124442D01*
X0122526Y0130847D01*
X0126796Y0130847D01*
X0124661Y0127644D02*
X0122526Y0127644D01*
X0120351Y0124442D02*
X0116080Y0124442D01*
X0116080Y0130847D01*
X0117595Y0171056D02*
X0113324Y0171056D01*
X0113324Y0177461D01*
X0119770Y0177461D02*
X0119770Y0171056D01*
X0124040Y0171056D01*
X0126215Y0172123D02*
X0126215Y0176394D01*
X0127283Y0177461D01*
X0129418Y0177461D01*
X0130486Y0176394D01*
X0130486Y0174259D02*
X0128351Y0174259D01*
X0130486Y0174259D02*
X0130486Y0172123D01*
X0129418Y0171056D01*
X0127283Y0171056D01*
X0126215Y0172123D01*
X0121905Y0174259D02*
X0119770Y0174259D01*
X0119770Y0177461D02*
X0124040Y0177461D01*
X0139106Y0176394D02*
X0140174Y0177461D01*
X0142309Y0177461D01*
X0143377Y0176394D01*
X0143377Y0175326D01*
X0139106Y0171056D01*
X0143377Y0171056D01*
X0143793Y0215772D02*
X0139523Y0215772D01*
X0141658Y0215772D02*
X0141658Y0222178D01*
X0139523Y0220043D01*
X0130902Y0221110D02*
X0129835Y0222178D01*
X0127700Y0222178D01*
X0126632Y0221110D01*
X0126632Y0216840D01*
X0127700Y0215772D01*
X0129835Y0215772D01*
X0130902Y0216840D01*
X0130902Y0218975D01*
X0128767Y0218975D01*
X0124457Y0215772D02*
X0120186Y0215772D01*
X0120186Y0222178D01*
X0124457Y0222178D01*
X0122322Y0218975D02*
X0120186Y0218975D01*
X0118011Y0215772D02*
X0113741Y0215772D01*
X0113741Y0222178D01*
X0116901Y0261922D02*
X0115833Y0262990D01*
X0116901Y0261922D02*
X0119036Y0261922D01*
X0120103Y0262990D01*
X0120103Y0264057D01*
X0119036Y0265125D01*
X0116901Y0265125D01*
X0115833Y0266192D01*
X0115833Y0267260D01*
X0116901Y0268328D01*
X0119036Y0268328D01*
X0120103Y0267260D01*
X0122278Y0268328D02*
X0125481Y0268328D01*
X0126549Y0267260D01*
X0126549Y0266192D01*
X0125481Y0265125D01*
X0122278Y0265125D01*
X0122278Y0261922D02*
X0122278Y0268328D01*
X0125481Y0265125D02*
X0126549Y0264057D01*
X0126549Y0262990D01*
X0125481Y0261922D01*
X0122278Y0261922D01*
X0128724Y0262990D02*
X0129791Y0261922D01*
X0131927Y0261922D01*
X0132994Y0262990D01*
X0132994Y0268328D01*
X0135169Y0267260D02*
X0135169Y0266192D01*
X0136237Y0265125D01*
X0138372Y0265125D01*
X0139440Y0264057D01*
X0139440Y0262990D01*
X0138372Y0261922D01*
X0136237Y0261922D01*
X0135169Y0262990D01*
X0135169Y0267260D02*
X0136237Y0268328D01*
X0138372Y0268328D01*
X0139440Y0267260D01*
X0128724Y0268328D02*
X0128724Y0262990D01*
X0130500Y0308694D02*
X0129433Y0309761D01*
X0129433Y0314032D01*
X0130500Y0315099D01*
X0132635Y0315099D01*
X0133703Y0314032D01*
X0133703Y0309761D01*
X0132635Y0308694D01*
X0130500Y0308694D01*
X0135878Y0308694D02*
X0135878Y0315099D01*
X0139081Y0315099D01*
X0140148Y0314032D01*
X0140148Y0311896D01*
X0139081Y0310829D01*
X0135878Y0310829D01*
X0127257Y0315099D02*
X0122987Y0315099D01*
X0125122Y0315099D02*
X0125122Y0308694D01*
X0120812Y0309761D02*
X0119744Y0308694D01*
X0117609Y0308694D01*
X0116542Y0309761D01*
X0117609Y0311896D02*
X0119744Y0311896D01*
X0120812Y0310829D01*
X0120812Y0309761D01*
X0117609Y0311896D02*
X0116542Y0312964D01*
X0116542Y0314032D01*
X0117609Y0315099D01*
X0119744Y0315099D01*
X0120812Y0314032D01*
X0114366Y0315099D02*
X0110096Y0315099D01*
X0110096Y0308694D01*
X0114366Y0308694D01*
X0112231Y0311896D02*
X0110096Y0311896D01*
X0116002Y0087619D02*
X0116002Y0081213D01*
X0120272Y0081213D01*
X0122447Y0081213D02*
X0126717Y0081213D01*
X0128893Y0082281D02*
X0129960Y0081213D01*
X0132095Y0081213D01*
X0133163Y0082281D01*
X0133163Y0084416D01*
X0131028Y0084416D01*
X0133163Y0086551D02*
X0132095Y0087619D01*
X0129960Y0087619D01*
X0128893Y0086551D01*
X0128893Y0082281D01*
X0126717Y0087619D02*
X0122447Y0087619D01*
X0122447Y0081213D01*
X0122447Y0084416D02*
X0124582Y0084416D01*
X0141784Y0084416D02*
X0146054Y0084416D01*
X0144986Y0081213D02*
X0144986Y0087619D01*
X0141784Y0084416D01*
D12*
X0050011Y0260318D02*
X0050879Y0261186D01*
X0050879Y0262920D01*
X0050011Y0263788D01*
X0049144Y0263788D01*
X0048277Y0262920D01*
X0048277Y0262053D01*
X0048277Y0262920D02*
X0047409Y0263788D01*
X0046542Y0263788D01*
X0045674Y0262920D01*
X0045674Y0261186D01*
X0046542Y0260318D01*
X0042479Y0260318D02*
X0042479Y0262920D01*
X0041611Y0263788D01*
X0039877Y0263788D01*
X0039009Y0262920D01*
X0039009Y0260318D01*
X0037274Y0260318D02*
X0042479Y0260318D01*
X0041611Y0265475D02*
X0039877Y0265475D01*
X0039009Y0266342D01*
X0039009Y0268077D01*
X0039877Y0268944D01*
X0040744Y0268944D01*
X0040744Y0265475D01*
X0041611Y0265475D02*
X0042479Y0266342D01*
X0042479Y0268077D01*
X0042479Y0270631D02*
X0039009Y0270631D01*
X0039009Y0273233D01*
X0039877Y0274101D01*
X0042479Y0274101D01*
X0045674Y0272366D02*
X0050879Y0272366D01*
X0050879Y0270631D02*
X0050879Y0274101D01*
X0050011Y0275787D02*
X0050879Y0276655D01*
X0050879Y0278390D01*
X0050011Y0279257D01*
X0046542Y0279257D01*
X0045674Y0278390D01*
X0045674Y0276655D01*
X0046542Y0275787D01*
X0047409Y0275787D01*
X0048277Y0276655D01*
X0048277Y0279257D01*
X0045674Y0272366D02*
X0047409Y0270631D01*
X0045674Y0268944D02*
X0050879Y0265475D01*
X0042479Y0280944D02*
X0037274Y0280944D01*
X0039009Y0283546D02*
X0040744Y0280944D01*
X0042479Y0283546D01*
X0041611Y0285241D02*
X0040744Y0286108D01*
X0040744Y0288710D01*
X0039877Y0288710D02*
X0042479Y0288710D01*
X0042479Y0286108D01*
X0041611Y0285241D01*
X0039009Y0286108D02*
X0039009Y0287843D01*
X0039877Y0288710D01*
X0039009Y0290397D02*
X0039009Y0292132D01*
X0038142Y0291264D02*
X0041611Y0291264D01*
X0042479Y0292132D01*
X0042479Y0293835D02*
X0042479Y0297304D01*
X0042479Y0293835D02*
X0039009Y0297304D01*
X0039009Y0293835D01*
X0034079Y0292991D02*
X0033211Y0292124D01*
X0029742Y0292124D01*
X0030609Y0291256D02*
X0030609Y0292991D01*
X0031477Y0294694D02*
X0033211Y0294694D01*
X0034079Y0295561D01*
X0034079Y0297296D01*
X0033211Y0298164D01*
X0031477Y0298164D01*
X0030609Y0297296D01*
X0030609Y0295561D01*
X0031477Y0294694D01*
X0030609Y0289570D02*
X0030609Y0286967D01*
X0031477Y0286100D01*
X0033211Y0286100D01*
X0034079Y0286967D01*
X0034079Y0289570D01*
X0032344Y0284413D02*
X0031477Y0284413D01*
X0030609Y0283546D01*
X0030609Y0281811D01*
X0031477Y0280944D01*
X0033211Y0280944D01*
X0034079Y0281811D01*
X0034079Y0283546D01*
X0032344Y0284413D02*
X0032344Y0280944D01*
X0031477Y0279257D02*
X0034079Y0279257D01*
X0031477Y0279257D02*
X0030609Y0278390D01*
X0030609Y0275787D01*
X0034079Y0275787D01*
X0034079Y0274101D02*
X0031477Y0274101D01*
X0030609Y0273233D01*
X0030609Y0270631D01*
X0034079Y0270631D01*
X0033211Y0268944D02*
X0031477Y0268944D01*
X0030609Y0268077D01*
X0030609Y0266342D01*
X0031477Y0265475D01*
X0033211Y0265475D01*
X0034079Y0266342D01*
X0034079Y0268077D01*
X0033211Y0268944D01*
X0034079Y0263788D02*
X0034079Y0261186D01*
X0033211Y0260318D01*
X0031477Y0260318D01*
X0030609Y0261186D01*
X0030609Y0263788D01*
X0025679Y0262920D02*
X0025679Y0261186D01*
X0024811Y0260318D01*
X0023077Y0261186D02*
X0023077Y0262920D01*
X0023944Y0263788D01*
X0024811Y0263788D01*
X0025679Y0262920D01*
X0025679Y0265475D02*
X0020474Y0265475D01*
X0020474Y0268077D01*
X0021342Y0268944D01*
X0023077Y0268944D01*
X0023944Y0268077D01*
X0023944Y0265475D01*
X0021342Y0263788D02*
X0020474Y0262920D01*
X0020474Y0261186D01*
X0021342Y0260318D01*
X0022209Y0260318D01*
X0023077Y0261186D01*
X0017279Y0262053D02*
X0014677Y0262053D01*
X0013809Y0262920D01*
X0014677Y0263788D01*
X0017279Y0263788D01*
X0017279Y0265475D02*
X0017279Y0267209D01*
X0017279Y0266342D02*
X0013809Y0266342D01*
X0013809Y0265475D01*
X0012074Y0266342D02*
X0011207Y0266342D01*
X0013809Y0268912D02*
X0013809Y0271514D01*
X0014677Y0272382D01*
X0017279Y0272382D01*
X0017279Y0274069D02*
X0017279Y0275803D01*
X0017279Y0274936D02*
X0013809Y0274936D01*
X0013809Y0274069D01*
X0012074Y0274936D02*
X0011207Y0274936D01*
X0013809Y0268912D02*
X0017279Y0268912D01*
X0020474Y0270631D02*
X0020474Y0272366D01*
X0020474Y0271498D02*
X0025679Y0271498D01*
X0025679Y0270631D02*
X0025679Y0272366D01*
X0025679Y0274069D02*
X0022209Y0274069D01*
X0022209Y0276671D01*
X0023077Y0277538D01*
X0025679Y0277538D01*
X0024811Y0279225D02*
X0025679Y0280092D01*
X0025679Y0281827D01*
X0023944Y0282695D02*
X0023944Y0279225D01*
X0024811Y0279225D02*
X0023077Y0279225D01*
X0022209Y0280092D01*
X0022209Y0281827D01*
X0023077Y0282695D01*
X0023944Y0282695D01*
X0023944Y0289538D02*
X0020474Y0289538D01*
X0017279Y0287819D02*
X0012074Y0287819D01*
X0013809Y0288686D02*
X0013809Y0290421D01*
X0014677Y0291289D01*
X0017279Y0291289D01*
X0016411Y0292975D02*
X0014677Y0292975D01*
X0013809Y0293843D01*
X0013809Y0295578D01*
X0014677Y0296445D01*
X0015544Y0296445D01*
X0015544Y0292975D01*
X0016411Y0292975D02*
X0017279Y0293843D01*
X0017279Y0295578D01*
X0016411Y0298132D02*
X0014677Y0298132D01*
X0013809Y0298999D01*
X0013809Y0300734D01*
X0014677Y0301601D01*
X0015544Y0301601D01*
X0015544Y0298132D01*
X0016411Y0298132D02*
X0017279Y0298999D01*
X0017279Y0300734D01*
X0016411Y0304155D02*
X0017279Y0305023D01*
X0016411Y0304155D02*
X0012942Y0304155D01*
X0013809Y0303288D02*
X0013809Y0305023D01*
X0013809Y0307593D02*
X0013809Y0309328D01*
X0014677Y0310195D01*
X0017279Y0310195D01*
X0017279Y0307593D01*
X0016411Y0306726D01*
X0015544Y0307593D01*
X0015544Y0310195D01*
X0014677Y0311882D02*
X0013809Y0312749D01*
X0013809Y0314484D01*
X0014677Y0315352D01*
X0017279Y0315352D01*
X0017279Y0311882D02*
X0012074Y0311882D01*
X0020474Y0305031D02*
X0020474Y0303296D01*
X0021342Y0302429D01*
X0020474Y0305031D02*
X0021342Y0305898D01*
X0022209Y0305898D01*
X0025679Y0302429D01*
X0025679Y0305898D01*
X0028874Y0309304D02*
X0034079Y0309304D01*
X0034079Y0311906D01*
X0033211Y0312774D01*
X0031477Y0312774D01*
X0030609Y0311906D01*
X0030609Y0309304D01*
X0031477Y0314460D02*
X0033211Y0314460D01*
X0034079Y0315328D01*
X0034079Y0317063D01*
X0033211Y0317930D01*
X0031477Y0317930D01*
X0030609Y0317063D01*
X0030609Y0315328D01*
X0031477Y0314460D01*
X0033211Y0319617D02*
X0032344Y0320484D01*
X0032344Y0323086D01*
X0031477Y0323086D02*
X0034079Y0323086D01*
X0034079Y0320484D01*
X0033211Y0319617D01*
X0030609Y0320484D02*
X0030609Y0322219D01*
X0031477Y0323086D01*
X0032344Y0324773D02*
X0030609Y0326508D01*
X0030609Y0327375D01*
X0031477Y0329070D02*
X0030609Y0329937D01*
X0030609Y0332540D01*
X0028874Y0332540D02*
X0034079Y0332540D01*
X0034079Y0329937D01*
X0033211Y0329070D01*
X0031477Y0329070D01*
X0030609Y0324773D02*
X0034079Y0324773D01*
X0030609Y0302453D02*
X0030609Y0301585D01*
X0032344Y0299850D01*
X0034079Y0299850D02*
X0030609Y0299850D01*
X0025679Y0299850D02*
X0025679Y0300718D01*
X0024811Y0300718D01*
X0024811Y0299850D01*
X0025679Y0299850D01*
X0025679Y0298164D02*
X0025679Y0294694D01*
X0025679Y0296429D02*
X0020474Y0296429D01*
X0022209Y0294694D01*
X0023944Y0293007D02*
X0020474Y0293007D01*
X0023944Y0293007D02*
X0025679Y0291273D01*
X0023944Y0289538D01*
X0017279Y0286132D02*
X0017279Y0283530D01*
X0016411Y0282663D01*
X0014677Y0282663D01*
X0013809Y0283530D01*
X0013809Y0286132D01*
X0014677Y0287819D02*
X0013809Y0288686D01*
X0014677Y0262053D02*
X0013809Y0261186D01*
X0013809Y0260318D01*
X0017279Y0260318D01*
D13*
X0061000Y0265394D02*
X0061000Y0182874D01*
X0061000Y0155945D02*
X0061000Y0007126D01*
X0076591Y0007126D02*
X0076591Y0126890D01*
X0090055Y0132559D02*
X0090055Y0184606D01*
X0077299Y0155945D02*
X0077299Y0233504D01*
X0061000Y0265394D02*
X0061011Y0266345D01*
X0061046Y0267296D01*
X0061103Y0268246D01*
X0061184Y0269194D01*
X0061287Y0270140D01*
X0061413Y0271083D01*
X0061562Y0272022D01*
X0061733Y0272958D01*
X0061928Y0273889D01*
X0062144Y0274816D01*
X0062383Y0275737D01*
X0062644Y0276652D01*
X0062927Y0277560D01*
X0063232Y0278461D01*
X0063558Y0279355D01*
X0063907Y0280240D01*
X0064276Y0281117D01*
X0064666Y0281985D01*
X0065078Y0282842D01*
X0065510Y0283690D01*
X0065962Y0284527D01*
X0066434Y0285353D01*
X0066926Y0286167D01*
X0067438Y0286969D01*
X0067969Y0287759D01*
X0068519Y0288535D01*
X0069087Y0289298D01*
X0069674Y0290047D01*
X0070279Y0290781D01*
X0070901Y0291501D01*
X0071541Y0292206D01*
X0072197Y0292894D01*
X0072870Y0293567D01*
X0073558Y0294223D01*
X0074263Y0294863D01*
X0074983Y0295485D01*
X0075717Y0296090D01*
X0076466Y0296677D01*
X0077229Y0297245D01*
X0078005Y0297795D01*
X0078795Y0298326D01*
X0079597Y0298838D01*
X0080411Y0299330D01*
X0081237Y0299802D01*
X0082074Y0300254D01*
X0082922Y0300686D01*
X0083779Y0301098D01*
X0084647Y0301488D01*
X0085524Y0301857D01*
X0086409Y0302206D01*
X0087303Y0302532D01*
X0088204Y0302837D01*
X0089112Y0303120D01*
X0090027Y0303381D01*
X0090948Y0303620D01*
X0091875Y0303836D01*
X0092806Y0304031D01*
X0093742Y0304202D01*
X0094681Y0304351D01*
X0095624Y0304477D01*
X0096570Y0304580D01*
X0097518Y0304661D01*
X0098468Y0304718D01*
X0099419Y0304753D01*
X0100370Y0304764D01*
X0143913Y0304764D01*
X0142496Y0260118D02*
X0106039Y0260118D01*
X0106039Y0260119D02*
X0105359Y0260136D01*
X0104680Y0260137D01*
X0104000Y0260122D01*
X0103321Y0260090D01*
X0102643Y0260041D01*
X0101966Y0259975D01*
X0101292Y0259893D01*
X0100619Y0259794D01*
X0099949Y0259679D01*
X0099282Y0259547D01*
X0098619Y0259400D01*
X0097959Y0259235D01*
X0097303Y0259055D01*
X0096653Y0258859D01*
X0096007Y0258647D01*
X0095366Y0258419D01*
X0094732Y0258175D01*
X0094103Y0257916D01*
X0093481Y0257641D01*
X0092866Y0257352D01*
X0092259Y0257047D01*
X0091659Y0256727D01*
X0091067Y0256393D01*
X0090483Y0256045D01*
X0089908Y0255682D01*
X0089342Y0255305D01*
X0088786Y0254915D01*
X0088239Y0254510D01*
X0087703Y0254093D01*
X0087177Y0253663D01*
X0086661Y0253219D01*
X0086157Y0252764D01*
X0085664Y0252296D01*
X0085182Y0251816D01*
X0084713Y0251324D01*
X0084255Y0250821D01*
X0083810Y0250307D01*
X0083378Y0249782D01*
X0082959Y0249247D01*
X0082553Y0248702D01*
X0082161Y0248147D01*
X0081783Y0247582D01*
X0081418Y0247008D01*
X0081068Y0246426D01*
X0080732Y0245835D01*
X0080410Y0245236D01*
X0080104Y0244629D01*
X0079812Y0244015D01*
X0079536Y0243394D01*
X0079274Y0242766D01*
X0079029Y0242132D01*
X0078799Y0241493D01*
X0078585Y0240847D01*
X0078386Y0240197D01*
X0078204Y0239542D01*
X0078038Y0238883D01*
X0077888Y0238220D01*
X0077754Y0237554D01*
X0077637Y0236884D01*
X0077536Y0236212D01*
X0077452Y0235537D01*
X0077384Y0234861D01*
X0077333Y0234183D01*
X0077298Y0233504D01*
X0120213Y0213346D02*
X0143913Y0213346D01*
X0120213Y0213346D02*
X0119501Y0213355D01*
X0118789Y0213346D01*
X0118078Y0213320D01*
X0117367Y0213277D01*
X0116658Y0213217D01*
X0115950Y0213140D01*
X0115245Y0213045D01*
X0114542Y0212934D01*
X0113841Y0212806D01*
X0113145Y0212660D01*
X0112451Y0212498D01*
X0111762Y0212320D01*
X0111078Y0212124D01*
X0110398Y0211912D01*
X0109724Y0211684D01*
X0109055Y0211440D01*
X0108393Y0211179D01*
X0107737Y0210903D01*
X0107088Y0210610D01*
X0106446Y0210303D01*
X0105812Y0209979D01*
X0105186Y0209641D01*
X0104568Y0209287D01*
X0103959Y0208919D01*
X0103359Y0208536D01*
X0102768Y0208139D01*
X0102187Y0207727D01*
X0101616Y0207302D01*
X0101056Y0206863D01*
X0100506Y0206410D01*
X0099968Y0205945D01*
X0099441Y0205466D01*
X0098926Y0204975D01*
X0098422Y0204472D01*
X0097931Y0203956D01*
X0097453Y0203429D01*
X0096988Y0202891D01*
X0096535Y0202341D01*
X0096096Y0201781D01*
X0095671Y0201210D01*
X0095260Y0200629D01*
X0094862Y0200038D01*
X0094480Y0199438D01*
X0094111Y0198829D01*
X0093758Y0198211D01*
X0093420Y0197585D01*
X0093097Y0196950D01*
X0092789Y0196308D01*
X0092497Y0195659D01*
X0092220Y0195003D01*
X0091960Y0194341D01*
X0091716Y0193672D01*
X0091488Y0192998D01*
X0091276Y0192318D01*
X0091081Y0191634D01*
X0090902Y0190944D01*
X0090740Y0190251D01*
X0090595Y0189554D01*
X0090467Y0188854D01*
X0090356Y0188151D01*
X0090261Y0187446D01*
X0090184Y0186738D01*
X0090124Y0186029D01*
X0090081Y0185318D01*
X0090056Y0184607D01*
X0102811Y0138543D02*
X0102811Y0104213D01*
X0116276Y0093583D02*
X0116276Y0076575D01*
X0103520Y0073740D02*
X0103520Y0007126D01*
X0116984Y0007126D02*
X0116984Y0050354D01*
X0131866Y0048228D02*
X0131866Y0066654D01*
X0131887Y0066962D01*
X0131915Y0067269D01*
X0131951Y0067576D01*
X0131994Y0067882D01*
X0132044Y0068186D01*
X0132102Y0068489D01*
X0132167Y0068791D01*
X0132239Y0069091D01*
X0132319Y0069390D01*
X0132406Y0069686D01*
X0132500Y0069980D01*
X0132601Y0070272D01*
X0132709Y0070561D01*
X0132824Y0070847D01*
X0132946Y0071131D01*
X0133075Y0071412D01*
X0133210Y0071689D01*
X0133352Y0071963D01*
X0133501Y0072234D01*
X0133656Y0072501D01*
X0133818Y0072764D01*
X0133986Y0073023D01*
X0134160Y0073278D01*
X0134340Y0073528D01*
X0134526Y0073775D01*
X0134718Y0074016D01*
X0134916Y0074253D01*
X0135120Y0074485D01*
X0135329Y0074712D01*
X0135544Y0074934D01*
X0135764Y0075151D01*
X0135989Y0075363D01*
X0136219Y0075568D01*
X0136454Y0075769D01*
X0136693Y0075963D01*
X0136938Y0076152D01*
X0137187Y0076335D01*
X0137440Y0076511D01*
X0137697Y0076682D01*
X0137959Y0076846D01*
X0138224Y0077004D01*
X0138493Y0077155D01*
X0138766Y0077300D01*
X0139042Y0077438D01*
X0139321Y0077570D01*
X0139604Y0077694D01*
X0139889Y0077812D01*
X0140177Y0077923D01*
X0140468Y0078027D01*
X0140761Y0078124D01*
X0141057Y0078213D01*
X0141354Y0078296D01*
X0141653Y0078371D01*
X0141955Y0078439D01*
X0142257Y0078500D01*
X0142561Y0078554D01*
X0142867Y0078600D01*
X0143173Y0078639D01*
X0143480Y0078670D01*
X0143788Y0078694D01*
X0144096Y0078710D01*
X0144405Y0078719D01*
X0144714Y0078721D01*
X0145022Y0078715D01*
X0145331Y0078701D01*
X0116275Y0093583D02*
X0116309Y0094293D01*
X0116361Y0095003D01*
X0116429Y0095711D01*
X0116515Y0096416D01*
X0116618Y0097120D01*
X0116737Y0097821D01*
X0116874Y0098519D01*
X0117027Y0099214D01*
X0117197Y0099904D01*
X0117384Y0100590D01*
X0117587Y0101272D01*
X0117807Y0101948D01*
X0118043Y0102619D01*
X0118295Y0103284D01*
X0118563Y0103943D01*
X0118847Y0104595D01*
X0119147Y0105240D01*
X0119462Y0105877D01*
X0119792Y0106507D01*
X0120138Y0107129D01*
X0120498Y0107742D01*
X0120874Y0108346D01*
X0121263Y0108941D01*
X0121667Y0109526D01*
X0122085Y0110102D01*
X0122517Y0110667D01*
X0122962Y0111221D01*
X0123421Y0111765D01*
X0123892Y0112297D01*
X0124376Y0112818D01*
X0124873Y0113327D01*
X0125382Y0113824D01*
X0125903Y0114308D01*
X0126435Y0114780D01*
X0126978Y0115238D01*
X0127533Y0115684D01*
X0128098Y0116116D01*
X0128673Y0116534D01*
X0129258Y0116938D01*
X0129853Y0117328D01*
X0130457Y0117703D01*
X0131070Y0118064D01*
X0131692Y0118409D01*
X0132321Y0118740D01*
X0132959Y0119055D01*
X0133604Y0119355D01*
X0134256Y0119639D01*
X0134914Y0119907D01*
X0135579Y0120159D01*
X0136250Y0120396D01*
X0136926Y0120615D01*
X0137608Y0120819D01*
X0138294Y0121006D01*
X0138984Y0121176D01*
X0139679Y0121330D01*
X0140377Y0121466D01*
X0141078Y0121586D01*
X0141781Y0121689D01*
X0142487Y0121775D01*
X0143195Y0121843D01*
X0143905Y0121895D01*
X0144615Y0121930D01*
X0145326Y0121947D01*
X0146037Y0121947D01*
X0146748Y0121930D01*
X0102811Y0138544D02*
X0102837Y0139289D01*
X0102881Y0140034D01*
X0102944Y0140778D01*
X0103024Y0141519D01*
X0103122Y0142259D01*
X0103237Y0142996D01*
X0103371Y0143730D01*
X0103522Y0144461D01*
X0103691Y0145187D01*
X0103878Y0145910D01*
X0104081Y0146627D01*
X0104303Y0147340D01*
X0104541Y0148047D01*
X0104796Y0148748D01*
X0105068Y0149443D01*
X0105357Y0150131D01*
X0105662Y0150811D01*
X0105984Y0151485D01*
X0106322Y0152150D01*
X0106676Y0152807D01*
X0107046Y0153455D01*
X0107431Y0154094D01*
X0107831Y0154723D01*
X0108247Y0155343D01*
X0108677Y0155952D01*
X0109123Y0156551D01*
X0109582Y0157139D01*
X0110055Y0157715D01*
X0110543Y0158280D01*
X0111043Y0158833D01*
X0111557Y0159374D01*
X0112084Y0159902D01*
X0112624Y0160418D01*
X0113176Y0160920D01*
X0113740Y0161408D01*
X0114315Y0161883D01*
X0114902Y0162344D01*
X0115499Y0162791D01*
X0116108Y0163223D01*
X0116726Y0163640D01*
X0117355Y0164042D01*
X0117993Y0164428D01*
X0118640Y0164800D01*
X0119296Y0165155D01*
X0119960Y0165495D01*
X0120633Y0165818D01*
X0121313Y0166125D01*
X0122000Y0166416D01*
X0122694Y0166689D01*
X0123394Y0166946D01*
X0124101Y0167186D01*
X0124813Y0167409D01*
X0125530Y0167615D01*
X0126252Y0167803D01*
X0126978Y0167974D01*
X0127709Y0168127D01*
X0128442Y0168262D01*
X0129179Y0168380D01*
X0129918Y0168479D01*
X0130660Y0168561D01*
X0131403Y0168625D01*
X0132148Y0168671D01*
X0132894Y0168699D01*
X0133640Y0168709D01*
X0134386Y0168701D01*
X0144622Y0168701D01*
X0090055Y0100669D02*
X0090055Y0007126D01*
X0131866Y0007835D02*
X0131866Y0022008D01*
D14*
X0154543Y0058150D02*
X0158480Y0062087D01*
X0166354Y0058150D01*
X0170291Y0058150D01*
X0169701Y0062835D02*
X0169701Y0092835D01*
X0170291Y0097520D02*
X0166354Y0097520D01*
X0158480Y0093583D01*
X0154543Y0097520D01*
X0154543Y0103425D02*
X0158480Y0107362D01*
X0166354Y0103425D01*
X0170291Y0103425D01*
X0169701Y0108110D02*
X0169701Y0138110D01*
X0170291Y0142795D02*
X0166354Y0142795D01*
X0158480Y0138858D01*
X0154543Y0142795D01*
X0154543Y0147992D02*
X0158480Y0151929D01*
X0166354Y0147992D01*
X0170291Y0147992D01*
X0169701Y0152677D02*
X0169701Y0182677D01*
X0170291Y0187362D02*
X0166354Y0187362D01*
X0158480Y0183425D01*
X0154543Y0187362D01*
X0154543Y0193976D02*
X0158480Y0197913D01*
X0166354Y0193976D01*
X0170291Y0193976D01*
X0174228Y0193976D02*
X0189976Y0193976D01*
X0189976Y0187362D02*
X0174228Y0187362D01*
X0169701Y0198661D02*
X0169701Y0228661D01*
X0170291Y0233346D02*
X0166354Y0233346D01*
X0158480Y0229409D01*
X0154543Y0233346D01*
X0154858Y0240039D02*
X0158795Y0243976D01*
X0166669Y0240039D01*
X0170606Y0240039D01*
X0170016Y0244724D02*
X0170016Y0282598D01*
X0170606Y0287283D02*
X0166669Y0287283D01*
X0158795Y0283346D01*
X0154858Y0287283D01*
X0154858Y0295000D02*
X0158795Y0298937D01*
X0166669Y0295000D01*
X0170606Y0295000D01*
X0170016Y0299685D02*
X0170016Y0329685D01*
X0170606Y0334370D02*
X0166669Y0334370D01*
X0158795Y0330433D01*
X0154858Y0334370D01*
X0174543Y0334370D02*
X0190291Y0334370D01*
X0190291Y0326496D02*
X0190291Y0302874D01*
X0190291Y0295000D02*
X0174543Y0295000D01*
X0174543Y0287283D02*
X0190291Y0287283D01*
X0190291Y0279409D02*
X0190291Y0247913D01*
X0190291Y0240039D02*
X0174543Y0240039D01*
X0174228Y0233346D02*
X0189976Y0233346D01*
X0189976Y0225472D02*
X0189976Y0201850D01*
X0202502Y0211375D02*
X0203253Y0210624D01*
X0204003Y0210624D01*
X0204754Y0211375D01*
X0204754Y0212876D01*
X0205505Y0213627D01*
X0206255Y0213627D01*
X0207006Y0212876D01*
X0207006Y0211375D01*
X0206255Y0210624D01*
X0203253Y0213627D02*
X0202502Y0212876D01*
X0202502Y0211375D01*
X0202502Y0215228D02*
X0205505Y0215228D01*
X0207006Y0216729D01*
X0205505Y0218230D01*
X0202502Y0218230D01*
X0203253Y0219832D02*
X0202502Y0220583D01*
X0202502Y0222084D01*
X0203253Y0222834D01*
X0204003Y0222834D01*
X0207006Y0219832D01*
X0207006Y0222834D01*
X0220502Y0228125D02*
X0225006Y0228125D01*
X0225006Y0226624D02*
X0225006Y0229627D01*
X0222003Y0226624D02*
X0220502Y0228125D01*
X0189976Y0179488D02*
X0189976Y0155866D01*
X0189976Y0147992D02*
X0174228Y0147992D01*
X0174228Y0142795D02*
X0189976Y0142795D01*
X0189976Y0134921D02*
X0189976Y0111299D01*
X0189976Y0103425D02*
X0174228Y0103425D01*
X0174228Y0097520D02*
X0189976Y0097520D01*
X0189976Y0089646D02*
X0189976Y0066024D01*
X0189976Y0058150D02*
X0174228Y0058150D01*
X0220502Y0040980D02*
X0220502Y0039479D01*
X0221253Y0038728D01*
X0224255Y0038728D01*
X0221253Y0041730D01*
X0224255Y0041730D01*
X0225006Y0040980D01*
X0225006Y0039479D01*
X0224255Y0038728D01*
X0225006Y0037127D02*
X0225006Y0034124D01*
X0222003Y0037127D01*
X0221253Y0037127D01*
X0220502Y0036376D01*
X0220502Y0034875D01*
X0221253Y0034124D01*
X0220502Y0040980D02*
X0221253Y0041730D01*
X0222003Y0134624D02*
X0220502Y0136125D01*
X0225006Y0136125D01*
X0225006Y0134624D02*
X0225006Y0137627D01*
X0224255Y0139228D02*
X0221253Y0142230D01*
X0224255Y0142230D01*
X0225006Y0141480D01*
X0225006Y0139979D01*
X0224255Y0139228D01*
X0221253Y0139228D01*
X0220502Y0139979D01*
X0220502Y0141480D01*
X0221253Y0142230D01*
D15*
X0213756Y0137874D03*
X0213756Y0127874D03*
X0213756Y0117874D03*
X0213756Y0107874D03*
X0213756Y0097874D03*
X0213756Y0087874D03*
X0213756Y0077874D03*
X0213756Y0067874D03*
X0213756Y0057874D03*
X0213756Y0047874D03*
X0213756Y0037874D03*
X0213756Y0147874D03*
X0213756Y0157874D03*
X0213756Y0167874D03*
X0213756Y0177874D03*
X0213756Y0187874D03*
X0213756Y0197874D03*
X0213756Y0207874D03*
X0213756Y0217874D03*
X0213756Y0227874D03*
M02*
