G75*
%MOIN*%
%OFA0B0*%
%FSLAX25Y25*%
%IPPOS*%
%LPD*%
%AMOC8*
5,1,8,0,0,1.08239X$1,22.5*
%
%ADD10C,0.12611*%
%ADD11R,0.22060X0.22060*%
%ADD12C,0.06800*%
%ADD13C,0.05524*%
%ADD14C,0.06115*%
D10*
X0014780Y0018780D03*
X0014780Y0247126D03*
X0207693Y0247126D03*
X0207693Y0018780D03*
D11*
X0131157Y0034567D03*
X0116591Y0062874D03*
X0102772Y0090591D03*
X0089976Y0116575D03*
X0077220Y0143740D03*
X0063126Y0168701D03*
D12*
X0210756Y0167874D02*
X0216756Y0167874D01*
X0216756Y0157874D02*
X0210756Y0157874D01*
X0210756Y0147874D02*
X0216756Y0147874D01*
X0216756Y0137874D02*
X0210756Y0137874D01*
X0210756Y0127874D02*
X0216756Y0127874D01*
X0216756Y0117874D02*
X0210756Y0117874D01*
X0210756Y0107874D02*
X0216756Y0107874D01*
X0216756Y0097874D02*
X0210756Y0097874D01*
X0210756Y0087874D02*
X0216756Y0087874D01*
X0216756Y0077874D02*
X0210756Y0077874D01*
X0210756Y0067874D02*
X0216756Y0067874D01*
X0216756Y0057874D02*
X0210756Y0057874D01*
X0210756Y0047874D02*
X0216756Y0047874D01*
X0216756Y0037874D02*
X0210756Y0037874D01*
X0210756Y0177874D02*
X0216756Y0177874D01*
X0216756Y0187874D02*
X0210756Y0187874D01*
X0210756Y0197874D02*
X0216756Y0197874D01*
X0216756Y0207874D02*
X0210756Y0207874D01*
X0210756Y0217874D02*
X0216756Y0217874D01*
X0216756Y0227874D02*
X0210756Y0227874D01*
D13*
X0194228Y0251850D03*
X0194228Y0259724D03*
X0194228Y0267598D03*
X0194228Y0275472D03*
X0194228Y0306811D03*
X0194228Y0314685D03*
X0194228Y0322559D03*
X0193913Y0221535D03*
X0193913Y0213661D03*
X0193913Y0205787D03*
X0193913Y0175551D03*
X0193913Y0167677D03*
X0193913Y0159803D03*
X0193913Y0130984D03*
X0193913Y0123110D03*
X0193913Y0115236D03*
X0193913Y0085709D03*
X0193913Y0077835D03*
X0193913Y0069961D03*
D14*
X0191945Y0061102D03*
X0173244Y0061102D03*
X0173244Y0094567D03*
X0173244Y0106378D03*
X0191945Y0106378D03*
X0191945Y0094567D03*
X0191945Y0139843D03*
X0191945Y0150945D03*
X0173244Y0150945D03*
X0173244Y0139843D03*
X0173244Y0184409D03*
X0173244Y0196929D03*
X0191945Y0196929D03*
X0191945Y0184409D03*
X0191945Y0230394D03*
X0192260Y0242992D03*
X0173559Y0242992D03*
X0173244Y0230394D03*
X0173559Y0284331D03*
X0173559Y0297953D03*
X0192260Y0297953D03*
X0192260Y0284331D03*
X0192260Y0331417D03*
X0173559Y0331417D03*
M02*
