G75*
%MOIN*%
%OFA0B0*%
%FSLAX24Y24*%
%IPPOS*%
%LPD*%
%AMOC8*
5,1,8,0,0,1.08239X$1,22.5*
%
%ADD10R,0.0474X0.0167*%
%ADD11R,0.0167X0.0474*%
%ADD12R,0.0513X0.0474*%
%ADD13R,0.0474X0.0513*%
%ADD14C,0.0142*%
%ADD15R,0.0710X0.0316*%
%ADD16R,0.0682X0.0682*%
%ADD17C,0.0682*%
%ADD18C,0.1261*%
%ADD19C,0.0595*%
%ADD20C,0.0595*%
%ADD21R,0.0505X0.0493*%
%ADD22OC8,0.0680*%
%ADD23R,0.0690X0.0316*%
%ADD24R,0.0789X0.0552*%
%ADD25R,0.0560X0.0960*%
%ADD26R,0.1497X0.0946*%
%ADD27R,0.0592X0.0710*%
%ADD28C,0.0680*%
%ADD29R,0.0781X0.0363*%
%ADD30R,0.0493X0.0505*%
%ADD31C,0.0378*%
D10*
X006873Y009161D03*
X006873Y009358D03*
X006873Y009555D03*
X006873Y009752D03*
X006873Y009949D03*
X006873Y010146D03*
X006873Y010343D03*
X006873Y010539D03*
X006873Y010736D03*
X006873Y010933D03*
X006873Y011130D03*
X006873Y011327D03*
X006873Y011524D03*
X006873Y011720D03*
X006873Y011917D03*
X006873Y012114D03*
X006873Y018217D03*
X006873Y018413D03*
X006873Y018610D03*
X006873Y018807D03*
X006873Y019004D03*
X006873Y019201D03*
X006873Y019398D03*
X006873Y019594D03*
X006873Y019791D03*
X006873Y019988D03*
X006873Y020185D03*
X006873Y020382D03*
X006873Y020579D03*
X006873Y020776D03*
X006873Y020972D03*
X006873Y021169D03*
X011400Y021169D03*
X011400Y020972D03*
X011400Y020776D03*
X011400Y020579D03*
X011400Y020382D03*
X011400Y020185D03*
X011400Y019988D03*
X011400Y019791D03*
X011400Y019594D03*
X011400Y019398D03*
X011400Y019201D03*
X011400Y019004D03*
X011400Y018807D03*
X011400Y018610D03*
X011400Y018413D03*
X011400Y018217D03*
X011400Y012114D03*
X011400Y011917D03*
X011400Y011720D03*
X011400Y011524D03*
X011400Y011327D03*
X011400Y011130D03*
X011400Y010933D03*
X011400Y010736D03*
X011400Y010539D03*
X011400Y010343D03*
X011400Y010146D03*
X011400Y009949D03*
X011400Y009752D03*
X011400Y009555D03*
X011400Y009358D03*
X011400Y009161D03*
D11*
X010613Y008374D03*
X010416Y008374D03*
X010219Y008374D03*
X010023Y008374D03*
X009826Y008374D03*
X009629Y008374D03*
X009432Y008374D03*
X009235Y008374D03*
X009038Y008374D03*
X008841Y008374D03*
X008645Y008374D03*
X008448Y008374D03*
X008251Y008374D03*
X008054Y008374D03*
X007857Y008374D03*
X007660Y008374D03*
X007660Y012902D03*
X007857Y012902D03*
X008054Y012902D03*
X008251Y012902D03*
X008448Y012902D03*
X008645Y012902D03*
X008841Y012902D03*
X009038Y012902D03*
X009235Y012902D03*
X009432Y012902D03*
X009629Y012902D03*
X009826Y012902D03*
X010023Y012902D03*
X010219Y012902D03*
X010416Y012902D03*
X010613Y012902D03*
X010613Y017429D03*
X010416Y017429D03*
X010219Y017429D03*
X010023Y017429D03*
X009826Y017429D03*
X009629Y017429D03*
X009432Y017429D03*
X009235Y017429D03*
X009038Y017429D03*
X008841Y017429D03*
X008645Y017429D03*
X008448Y017429D03*
X008251Y017429D03*
X008054Y017429D03*
X007857Y017429D03*
X007660Y017429D03*
X007660Y021957D03*
X007857Y021957D03*
X008054Y021957D03*
X008251Y021957D03*
X008448Y021957D03*
X008645Y021957D03*
X008841Y021957D03*
X009038Y021957D03*
X009235Y021957D03*
X009432Y021957D03*
X009629Y021957D03*
X009826Y021957D03*
X010023Y021957D03*
X010219Y021957D03*
X010416Y021957D03*
X010613Y021957D03*
D12*
X009188Y016685D03*
X009188Y016016D03*
X007503Y016724D03*
X006834Y016724D03*
X006109Y018886D03*
X006172Y019579D03*
X005503Y019579D03*
X005440Y018886D03*
X005566Y010492D03*
X005562Y009732D03*
X006231Y009732D03*
X006235Y010492D03*
X007129Y007587D03*
X007798Y007587D03*
X009235Y007626D03*
X009235Y006957D03*
X019471Y003197D03*
X019471Y002528D03*
X019570Y007843D03*
X019570Y008512D03*
X019570Y013551D03*
X019570Y014220D03*
X019570Y019555D03*
X019570Y020224D03*
D13*
X011711Y021669D03*
X011711Y022339D03*
X010172Y016740D03*
X010172Y016071D03*
X011778Y013276D03*
X011778Y012606D03*
X010219Y007626D03*
X010219Y006957D03*
X009038Y005953D03*
X009038Y005283D03*
X007168Y013354D03*
X007168Y014024D03*
X006578Y014024D03*
X006578Y013354D03*
X006334Y022303D03*
X006334Y022972D03*
X006987Y022976D03*
X006987Y022307D03*
D14*
X008215Y016506D02*
X008547Y016506D01*
X008215Y016506D02*
X008215Y016838D01*
X008547Y016838D01*
X008547Y016506D01*
X008547Y016647D02*
X008215Y016647D01*
X008215Y016788D02*
X008547Y016788D01*
X008547Y015815D02*
X008215Y015815D01*
X008215Y016147D01*
X008547Y016147D01*
X008547Y015815D01*
X008547Y015956D02*
X008215Y015956D01*
X008215Y016097D02*
X008547Y016097D01*
X008712Y007471D02*
X008380Y007471D01*
X008380Y007803D01*
X008712Y007803D01*
X008712Y007471D01*
X008712Y007612D02*
X008380Y007612D01*
X008380Y007753D02*
X008712Y007753D01*
X008712Y006780D02*
X008380Y006780D01*
X008380Y007112D01*
X008712Y007112D01*
X008712Y006780D01*
X008712Y006921D02*
X008380Y006921D01*
X008380Y007062D02*
X008712Y007062D01*
D15*
X005727Y011701D03*
X005727Y012173D03*
X005727Y012646D03*
X005727Y020614D03*
X005727Y021087D03*
X005727Y021559D03*
D16*
X006479Y004858D03*
D17*
X006479Y006039D03*
X005298Y006039D03*
X005298Y004858D03*
D18*
X001558Y001878D03*
X005889Y003157D03*
X001558Y024713D03*
X020849Y024713D03*
X020849Y001878D03*
D19*
X020986Y004240D02*
X021500Y004240D01*
X021500Y005224D02*
X020986Y005224D01*
X020986Y006209D02*
X021500Y006209D01*
X021500Y009555D02*
X020986Y009555D01*
X020986Y010539D02*
X021500Y010539D01*
X021500Y011524D02*
X020986Y011524D01*
X020986Y014673D02*
X021500Y014673D01*
X021500Y015657D02*
X020986Y015657D01*
X020986Y016642D02*
X021500Y016642D01*
X021500Y019791D02*
X020986Y019791D01*
X020986Y020776D02*
X021500Y020776D01*
X021500Y021760D02*
X020986Y021760D01*
D20*
X013369Y022260D03*
X013369Y023260D03*
X013369Y021260D03*
X013369Y020260D03*
X013369Y017256D03*
X013369Y016256D03*
X013369Y015256D03*
X013369Y014256D03*
X013369Y011252D03*
X013369Y010252D03*
X013369Y009252D03*
X013369Y008252D03*
X013369Y005445D03*
X013369Y004445D03*
X013369Y003445D03*
X013369Y002445D03*
D21*
X015337Y002419D03*
X015337Y003108D03*
X015239Y004683D03*
X015239Y005372D03*
X015337Y008226D03*
X015337Y008915D03*
X015239Y010785D03*
X015239Y011474D03*
X015239Y014230D03*
X015239Y014919D03*
X015239Y016297D03*
X015239Y016986D03*
X015141Y020530D03*
X015141Y021219D03*
X015239Y022301D03*
X015239Y022990D03*
X018684Y022793D03*
X018684Y022104D03*
X018782Y017085D03*
X018782Y016396D03*
X018684Y011278D03*
X018684Y010589D03*
X018782Y005470D03*
X018782Y004781D03*
D22*
X002058Y004795D03*
X002058Y005795D03*
X002058Y006795D03*
X002058Y007795D03*
X002058Y008795D03*
X002058Y009795D03*
X002058Y010795D03*
X002058Y011795D03*
X002058Y012795D03*
X002058Y013795D03*
X002058Y014795D03*
X002058Y015795D03*
X002058Y016795D03*
X002058Y017795D03*
X002058Y018795D03*
X002058Y019795D03*
X002058Y020795D03*
X002058Y021795D03*
X002058Y022795D03*
X001058Y022795D03*
X001058Y021795D03*
X001058Y020795D03*
X001058Y019795D03*
X001058Y018795D03*
X001058Y017795D03*
X001058Y016795D03*
X001058Y015795D03*
X001058Y014795D03*
X001058Y013795D03*
X001058Y012795D03*
X001058Y011795D03*
X001058Y010795D03*
X001058Y009795D03*
X001058Y008795D03*
X001058Y007795D03*
X001058Y006795D03*
X001058Y005795D03*
X001058Y004795D03*
X001058Y003795D03*
X002058Y003795D03*
D23*
X004265Y009063D03*
X004265Y009457D03*
X004265Y009850D03*
X004265Y011524D03*
X004265Y011917D03*
X004265Y012311D03*
X004265Y012705D03*
X004265Y013098D03*
X004265Y013492D03*
X004265Y018709D03*
X004265Y019102D03*
X004265Y019496D03*
X004265Y021169D03*
X004265Y021563D03*
X004265Y021957D03*
X004265Y022350D03*
X004265Y022744D03*
X004265Y023138D03*
D24*
X003271Y023650D03*
X003271Y020657D03*
X003271Y020008D03*
X003271Y018197D03*
X003271Y014004D03*
X003271Y011012D03*
X003271Y010362D03*
X003271Y008551D03*
D25*
X009014Y004476D03*
X009924Y004476D03*
X010834Y004476D03*
D26*
X009924Y002036D03*
D27*
X010121Y005815D03*
X010908Y005815D03*
D28*
X010810Y024713D03*
X010023Y024713D03*
X009235Y024713D03*
X008448Y024713D03*
X007660Y024713D03*
X006873Y024713D03*
X006086Y024713D03*
X005298Y024713D03*
X004511Y024713D03*
X004511Y033374D03*
X005298Y033374D03*
X006086Y033374D03*
X006873Y033374D03*
X007660Y033374D03*
X008448Y033374D03*
X009235Y033374D03*
X010023Y033374D03*
X010810Y033374D03*
X011597Y033374D03*
X011597Y024713D03*
D29*
X015987Y023494D03*
X015987Y022994D03*
X015987Y022494D03*
X015987Y021994D03*
X016873Y020640D03*
X016873Y020140D03*
X016873Y019640D03*
X016873Y019140D03*
X016086Y017785D03*
X016086Y017285D03*
X016086Y016785D03*
X016086Y016285D03*
X016873Y014636D03*
X016873Y014136D03*
X016873Y013636D03*
X016873Y013136D03*
X015987Y011978D03*
X015987Y011478D03*
X015987Y010978D03*
X015987Y010478D03*
X016774Y009026D03*
X016774Y008526D03*
X016774Y008026D03*
X016774Y007526D03*
X016086Y006171D03*
X016086Y005671D03*
X016086Y005171D03*
X016086Y004671D03*
X016676Y003415D03*
X016676Y002915D03*
X016676Y002415D03*
X016676Y001915D03*
X018526Y001915D03*
X018526Y002415D03*
X018526Y002915D03*
X018526Y003415D03*
X017936Y004671D03*
X017936Y005171D03*
X017936Y005671D03*
X017936Y006171D03*
X018625Y007526D03*
X018625Y008026D03*
X018625Y008526D03*
X018625Y009026D03*
X017837Y010478D03*
X017837Y010978D03*
X017837Y011478D03*
X017837Y011978D03*
X018723Y013136D03*
X018723Y013636D03*
X018723Y014136D03*
X018723Y014636D03*
X017936Y016285D03*
X017936Y016785D03*
X017936Y017285D03*
X017936Y017785D03*
X018723Y019140D03*
X018723Y019640D03*
X018723Y020140D03*
X018723Y020640D03*
X017837Y021994D03*
X017837Y022494D03*
X017837Y022994D03*
X017837Y023494D03*
D30*
X017946Y021268D03*
X018635Y021268D03*
X018635Y015264D03*
X017946Y015264D03*
X018044Y009654D03*
X018733Y009654D03*
X018832Y004043D03*
X018143Y004043D03*
D31*
X018979Y003650D03*
X016420Y002961D03*
X014649Y003059D03*
X014649Y004634D03*
X013271Y006799D03*
X013074Y008669D03*
X011893Y008866D03*
X011893Y009358D03*
X010416Y008866D03*
X009432Y011130D03*
X008940Y011819D03*
X008645Y012114D03*
X008349Y011819D03*
X007956Y011819D03*
X007365Y009949D03*
X006086Y011031D03*
X005141Y012272D03*
X004904Y010539D03*
X003723Y011524D03*
X003428Y011917D03*
X003625Y012311D03*
X003428Y012705D03*
X003625Y013098D03*
X002542Y012213D03*
X002641Y010933D03*
X004117Y008768D03*
X007857Y007193D03*
X008546Y006012D03*
X011400Y005815D03*
X014747Y008866D03*
X014747Y010638D03*
X013467Y012508D03*
X013074Y012803D03*
X011794Y013787D03*
X010416Y013689D03*
X010023Y013394D03*
X010416Y011917D03*
X010121Y011622D03*
X010908Y011917D03*
X008940Y014772D03*
X008645Y015165D03*
X008349Y015461D03*
X007857Y016740D03*
X007857Y018413D03*
X008349Y018413D03*
X008645Y018709D03*
X008940Y018118D03*
X010416Y018020D03*
X011893Y017921D03*
X011893Y018413D03*
X013467Y018413D03*
X014845Y018709D03*
X014747Y016248D03*
X014845Y014969D03*
X016617Y014181D03*
X019176Y015264D03*
X016715Y020185D03*
X018290Y021760D03*
X014649Y022252D03*
X014649Y021268D03*
X011794Y020972D03*
X010711Y020776D03*
X010711Y021268D03*
X011696Y022744D03*
X009530Y023630D03*
X008152Y022843D03*
X007857Y022547D03*
X007463Y023039D03*
X008546Y021268D03*
X009432Y020776D03*
X007463Y019004D03*
X005987Y020185D03*
X005200Y019890D03*
X005200Y021071D03*
X003526Y021169D03*
X003231Y021563D03*
X003526Y021957D03*
X003231Y022350D03*
X003526Y022744D03*
X004412Y018413D03*
X004117Y015756D03*
X004117Y014575D03*
X002641Y016740D03*
X002444Y017331D03*
X007660Y014083D03*
X016519Y008571D03*
X019176Y009654D03*
M02*
