G75*
%MOIN*%
%OFA0B0*%
%FSLAX24Y24*%
%IPPOS*%
%LPD*%
%AMOC8*
5,1,8,0,0,1.08239X$1,22.5*
%
%ADD10R,0.0602X0.0602*%
%ADD11C,0.0602*%
%ADD12C,0.0515*%
%ADD13C,0.0515*%
%ADD14OC8,0.0600*%
%ADD15C,0.0600*%
%ADD16C,0.0160*%
%ADD17C,0.0298*%
%ADD18C,0.0098*%
%ADD19C,0.0079*%
%ADD20C,0.0100*%
D10*
X006479Y004858D03*
D11*
X006479Y006039D03*
X005298Y006039D03*
X005298Y004858D03*
D12*
X020986Y005224D02*
X021500Y005224D01*
X021500Y004240D02*
X020986Y004240D01*
X020986Y006209D02*
X021500Y006209D01*
X021500Y009555D02*
X020986Y009555D01*
X020986Y010539D02*
X021500Y010539D01*
X021500Y011524D02*
X020986Y011524D01*
X020986Y014673D02*
X021500Y014673D01*
X021500Y015657D02*
X020986Y015657D01*
X020986Y016642D02*
X021500Y016642D01*
X021500Y019791D02*
X020986Y019791D01*
X020986Y020776D02*
X021500Y020776D01*
X021500Y021760D02*
X020986Y021760D01*
D13*
X013369Y022260D03*
X013369Y023260D03*
X013369Y021260D03*
X013369Y020260D03*
X013369Y017256D03*
X013369Y016256D03*
X013369Y015256D03*
X013369Y014256D03*
X013369Y011252D03*
X013369Y010252D03*
X013369Y009252D03*
X013369Y008252D03*
X013369Y005445D03*
X013369Y004445D03*
X013369Y003445D03*
X013369Y002445D03*
D14*
X002058Y003795D03*
X002058Y004795D03*
X002058Y005795D03*
X002058Y006795D03*
X002058Y007795D03*
X002058Y008795D03*
X002058Y009795D03*
X002058Y010795D03*
X002058Y011795D03*
X002058Y012795D03*
X002058Y013795D03*
X002058Y014795D03*
X002058Y015795D03*
X002058Y016795D03*
X002058Y017795D03*
X002058Y018795D03*
X002058Y019795D03*
X002058Y020795D03*
X002058Y021795D03*
X002058Y022795D03*
X001058Y022795D03*
X001058Y021795D03*
X001058Y020795D03*
X001058Y019795D03*
X001058Y018795D03*
X001058Y017795D03*
X001058Y016795D03*
X001058Y015795D03*
X001058Y014795D03*
X001058Y013795D03*
X001058Y012795D03*
X001058Y011795D03*
X001058Y010795D03*
X001058Y009795D03*
X001058Y008795D03*
X001058Y007795D03*
X001058Y006795D03*
X001058Y005795D03*
X001058Y004795D03*
X001058Y003795D03*
D15*
X004511Y024713D03*
X005298Y024713D03*
X006086Y024713D03*
X006873Y024713D03*
X007660Y024713D03*
X008448Y024713D03*
X009235Y024713D03*
X010023Y024713D03*
X010810Y024713D03*
X011597Y024713D03*
X011597Y033374D03*
X010810Y033374D03*
X010023Y033374D03*
X009235Y033374D03*
X008448Y033374D03*
X007660Y033374D03*
X006873Y033374D03*
X006086Y033374D03*
X005298Y033374D03*
X004511Y033374D03*
D16*
X000660Y003514D02*
X000660Y002464D01*
X000701Y002535D01*
X000901Y002735D01*
X001145Y002876D01*
X001417Y002949D01*
X001699Y002949D01*
X001971Y002876D01*
X002215Y002735D01*
X002415Y002535D01*
X002556Y002291D01*
X002629Y002019D01*
X002629Y001737D01*
X002556Y001465D01*
X002415Y001221D01*
X002215Y001021D01*
X002144Y000980D01*
X012647Y000980D01*
X012647Y003942D01*
X012782Y004076D01*
X013119Y004076D01*
X012998Y004197D01*
X012931Y004358D01*
X012931Y004532D01*
X012998Y004693D01*
X013121Y004816D01*
X013282Y004882D01*
X013456Y004882D01*
X013617Y004816D01*
X013740Y004693D01*
X013806Y004532D01*
X013806Y004358D01*
X013740Y004197D01*
X013619Y004076D01*
X019832Y004076D01*
X019832Y006668D01*
X013572Y006668D01*
X013549Y006613D01*
X013457Y006520D01*
X013336Y006470D01*
X013205Y006470D01*
X013084Y006520D01*
X012992Y006613D01*
X012969Y006668D01*
X012880Y006668D01*
X012745Y006802D01*
X012745Y007000D01*
X012648Y007098D01*
X012648Y008243D01*
X012191Y008243D01*
X011897Y008537D01*
X011827Y008537D01*
X011706Y008587D01*
X011614Y008680D01*
X011564Y008801D01*
X011564Y008932D01*
X011614Y009052D01*
X011674Y009112D01*
X011614Y009172D01*
X011564Y009293D01*
X011564Y009424D01*
X011614Y009545D01*
X011706Y009637D01*
X011827Y009687D01*
X011958Y009687D01*
X012079Y009637D01*
X012171Y009545D01*
X012221Y009424D01*
X012221Y009354D01*
X012480Y009095D01*
X012677Y008899D01*
X012745Y008899D01*
X012745Y010044D01*
X012880Y010179D01*
X012931Y010179D01*
X012931Y010339D01*
X012998Y010500D01*
X013121Y010623D01*
X013282Y010689D01*
X013456Y010689D01*
X013617Y010623D01*
X013740Y010500D01*
X013806Y010339D01*
X013806Y010179D01*
X020029Y010179D01*
X020029Y012179D01*
X013534Y012179D01*
X013533Y012179D01*
X013402Y012179D01*
X013401Y012179D01*
X012782Y012179D01*
X012673Y012289D01*
X011999Y012289D01*
X011870Y012417D01*
X011870Y012417D01*
X011113Y013174D01*
X010268Y013174D01*
X010209Y013115D01*
X010088Y013065D01*
X009957Y013065D01*
X009836Y013115D01*
X009744Y013207D01*
X009694Y013328D01*
X009694Y013459D01*
X009744Y013580D01*
X009836Y013673D01*
X009957Y013723D01*
X010087Y013723D01*
X010087Y013754D01*
X010137Y013875D01*
X010230Y013968D01*
X010351Y014018D01*
X010482Y014018D01*
X010603Y013968D01*
X010662Y013908D01*
X011294Y013908D01*
X012180Y013023D01*
X012647Y013023D01*
X012647Y015851D01*
X012782Y015986D01*
X013020Y015986D01*
X012998Y016008D01*
X012931Y016169D01*
X012931Y016343D01*
X012998Y016504D01*
X013121Y016627D01*
X013282Y016693D01*
X013456Y016693D01*
X013617Y016627D01*
X013740Y016504D01*
X013806Y016343D01*
X013806Y016169D01*
X013740Y016008D01*
X013718Y015986D01*
X019733Y015986D01*
X019733Y017032D01*
X019868Y017167D01*
X021747Y017167D01*
X021747Y018547D01*
X021731Y018547D01*
X015134Y018547D01*
X015124Y018522D01*
X015032Y018430D01*
X014911Y018380D01*
X014780Y018380D01*
X014659Y018430D01*
X014609Y018479D01*
X013796Y018479D01*
X013796Y018479D01*
X013796Y018348D01*
X013746Y018227D01*
X013654Y018135D01*
X013533Y018084D01*
X013402Y018084D01*
X013281Y018135D01*
X013231Y018184D01*
X012480Y018184D01*
X012221Y017926D01*
X012221Y017856D01*
X012171Y017735D01*
X012079Y017642D01*
X011958Y017592D01*
X011827Y017592D01*
X011706Y017642D01*
X011614Y017735D01*
X011564Y017856D01*
X011564Y017987D01*
X011614Y018108D01*
X011674Y018167D01*
X011614Y018227D01*
X011564Y018348D01*
X011564Y018479D01*
X011614Y018600D01*
X011706Y018692D01*
X011827Y018742D01*
X011897Y018742D01*
X012093Y018938D01*
X012621Y018938D01*
X012715Y021862D01*
X012715Y021910D01*
X012717Y021914D01*
X012717Y021918D01*
X012737Y021962D01*
X012755Y022006D01*
X012758Y022009D01*
X012760Y022013D01*
X012794Y022045D01*
X012828Y022079D01*
X012832Y022080D01*
X012835Y022083D01*
X012880Y022100D01*
X012924Y022118D01*
X012928Y022118D01*
X012932Y022120D01*
X012954Y022119D01*
X012931Y022173D01*
X012931Y022347D01*
X012998Y022508D01*
X013121Y022631D01*
X013282Y022697D01*
X013456Y022697D01*
X013617Y022631D01*
X013740Y022508D01*
X013806Y022347D01*
X013806Y022173D01*
X013784Y022118D01*
X014881Y022118D01*
X014881Y022205D01*
X014920Y022301D01*
X014993Y022374D01*
X015089Y022414D01*
X021747Y022414D01*
X021747Y024127D01*
X021706Y024055D01*
X021507Y023856D01*
X021263Y023715D01*
X020990Y023642D01*
X020708Y023642D01*
X020436Y023715D01*
X020192Y023856D01*
X019993Y024055D01*
X019852Y024299D01*
X019779Y024572D01*
X019779Y024854D01*
X019852Y025126D01*
X019993Y025370D01*
X020192Y025569D01*
X020436Y025710D01*
X020708Y025783D01*
X020990Y025783D01*
X021263Y025710D01*
X021507Y025569D01*
X021706Y025370D01*
X021747Y025298D01*
X021747Y032783D01*
X021741Y032875D01*
X021694Y033052D01*
X021602Y033210D01*
X021473Y033340D01*
X021314Y033431D01*
X021138Y033479D01*
X021046Y033485D01*
X012071Y033485D01*
X012077Y033469D01*
X012077Y033279D01*
X012004Y033102D01*
X011869Y032967D01*
X011693Y032894D01*
X011502Y032894D01*
X011325Y032967D01*
X011204Y033089D01*
X011082Y032967D01*
X010905Y032894D01*
X010714Y032894D01*
X010538Y032967D01*
X010416Y033089D01*
X010294Y032967D01*
X010118Y032894D01*
X009927Y032894D01*
X009751Y032967D01*
X009629Y033089D01*
X009507Y032967D01*
X009331Y032894D01*
X009140Y032894D01*
X008963Y032967D01*
X008841Y033089D01*
X008720Y032967D01*
X008543Y032894D01*
X008352Y032894D01*
X008176Y032967D01*
X008054Y033089D01*
X007932Y032967D01*
X007756Y032894D01*
X007565Y032894D01*
X007388Y032967D01*
X007267Y033089D01*
X007145Y032967D01*
X006968Y032894D01*
X006777Y032894D01*
X006601Y032967D01*
X006479Y033089D01*
X006357Y032967D01*
X006181Y032894D01*
X005990Y032894D01*
X005814Y032967D01*
X005692Y033089D01*
X005570Y032967D01*
X005394Y032894D01*
X005203Y032894D01*
X005026Y032967D01*
X004904Y033089D01*
X004783Y032967D01*
X004606Y032894D01*
X004415Y032894D01*
X004239Y032967D01*
X004104Y033102D01*
X004031Y033279D01*
X004031Y033469D01*
X004037Y033485D01*
X001634Y033485D01*
X001616Y033479D01*
X001540Y033485D01*
X001462Y033485D01*
X001457Y033487D01*
X001416Y033487D01*
X001210Y033449D01*
X001021Y033358D01*
X000862Y033222D01*
X000743Y033048D01*
X000673Y032851D01*
X000660Y032757D01*
X000660Y025298D01*
X000701Y025370D01*
X000901Y025569D01*
X001145Y025710D01*
X001417Y025783D01*
X001699Y025783D01*
X001971Y025710D01*
X002215Y025569D01*
X002415Y025370D01*
X002556Y025126D01*
X002629Y024854D01*
X002629Y024572D01*
X002556Y024299D01*
X002415Y024055D01*
X002215Y023856D01*
X001971Y023715D01*
X001699Y023642D01*
X001417Y023642D01*
X001145Y023715D01*
X000901Y023856D01*
X000701Y024055D01*
X000660Y024127D01*
X000660Y023076D01*
X000859Y023275D01*
X001257Y023275D01*
X001538Y022994D01*
X001538Y022596D01*
X001257Y022315D01*
X000859Y022315D01*
X000660Y022514D01*
X000660Y022076D01*
X000859Y022275D01*
X001257Y022275D01*
X001538Y021994D01*
X001538Y021596D01*
X001257Y021315D01*
X000859Y021315D01*
X000660Y021514D01*
X000660Y021076D01*
X000859Y021275D01*
X001257Y021275D01*
X001538Y020994D01*
X001538Y020596D01*
X001257Y020315D01*
X000859Y020315D01*
X000660Y020514D01*
X000660Y020076D01*
X000859Y020275D01*
X001038Y020275D01*
X001038Y019815D01*
X001078Y019815D01*
X001538Y019815D01*
X001538Y019994D01*
X001257Y020275D01*
X001078Y020275D01*
X001078Y019815D01*
X001078Y019775D01*
X001078Y019315D01*
X001257Y019315D01*
X001538Y019596D01*
X001538Y019775D01*
X001078Y019775D01*
X001038Y019775D01*
X001038Y019315D01*
X000859Y019315D01*
X000660Y019514D01*
X000660Y019076D01*
X000859Y019275D01*
X001257Y019275D01*
X001538Y018994D01*
X001538Y018596D01*
X001257Y018315D01*
X000859Y018315D01*
X000660Y018514D01*
X000660Y018076D01*
X000859Y018275D01*
X001038Y018275D01*
X001038Y017815D01*
X001078Y017815D01*
X001538Y017815D01*
X001538Y017994D01*
X001257Y018275D01*
X001078Y018275D01*
X001078Y017815D01*
X001078Y017775D01*
X001078Y017315D01*
X001257Y017315D01*
X001538Y017596D01*
X001538Y017775D01*
X001078Y017775D01*
X001038Y017775D01*
X001038Y017315D01*
X000859Y017315D01*
X000660Y017514D01*
X000660Y017076D01*
X000859Y017275D01*
X001257Y017275D01*
X001538Y016994D01*
X001538Y016596D01*
X001257Y016315D01*
X000859Y016315D01*
X000660Y016514D01*
X000660Y016076D01*
X000859Y016275D01*
X001257Y016275D01*
X001538Y015994D01*
X001538Y015596D01*
X001257Y015315D01*
X000859Y015315D01*
X000660Y015514D01*
X000660Y015076D01*
X000859Y015275D01*
X001257Y015275D01*
X001538Y014994D01*
X001538Y014596D01*
X001257Y014315D01*
X000859Y014315D01*
X000660Y014514D01*
X000660Y014076D01*
X000859Y014275D01*
X001257Y014275D01*
X001538Y013994D01*
X001538Y013596D01*
X001257Y013315D01*
X000859Y013315D01*
X000660Y013514D01*
X000660Y013076D01*
X000859Y013275D01*
X001038Y013275D01*
X001038Y012815D01*
X001078Y012815D01*
X001538Y012815D01*
X001538Y012994D01*
X001257Y013275D01*
X001078Y013275D01*
X001078Y012815D01*
X001078Y012775D01*
X001078Y012315D01*
X001257Y012315D01*
X001538Y012596D01*
X001538Y012775D01*
X001078Y012775D01*
X001038Y012775D01*
X001038Y012315D01*
X000859Y012315D01*
X000660Y012514D01*
X000660Y012076D01*
X000859Y012275D01*
X001257Y012275D01*
X001538Y011994D01*
X001538Y011596D01*
X001257Y011315D01*
X000859Y011315D01*
X000660Y011514D01*
X000660Y011076D01*
X000859Y011275D01*
X001257Y011275D01*
X001538Y010994D01*
X001538Y010596D01*
X001257Y010315D01*
X000859Y010315D01*
X000660Y010514D01*
X000660Y010076D01*
X000859Y010275D01*
X001038Y010275D01*
X001038Y009815D01*
X001078Y009815D01*
X001538Y009815D01*
X001538Y009994D01*
X001257Y010275D01*
X001078Y010275D01*
X001078Y009815D01*
X001078Y009775D01*
X001078Y009315D01*
X001257Y009315D01*
X001538Y009596D01*
X001538Y009775D01*
X001078Y009775D01*
X001038Y009775D01*
X001038Y009315D01*
X000859Y009315D01*
X000660Y009514D01*
X000660Y009076D01*
X000859Y009275D01*
X001257Y009275D01*
X001538Y008994D01*
X001538Y008596D01*
X001257Y008315D01*
X000859Y008315D01*
X000660Y008514D01*
X000660Y008076D01*
X000859Y008275D01*
X001257Y008275D01*
X001538Y007994D01*
X001538Y007596D01*
X001257Y007315D01*
X000859Y007315D01*
X000660Y007514D01*
X000660Y007076D01*
X000859Y007275D01*
X001257Y007275D01*
X001538Y006994D01*
X001538Y006596D01*
X001257Y006315D01*
X000859Y006315D01*
X000660Y006514D01*
X000660Y006076D01*
X000859Y006275D01*
X001038Y006275D01*
X001038Y005815D01*
X001078Y005815D01*
X001538Y005815D01*
X001538Y005994D01*
X001257Y006275D01*
X001078Y006275D01*
X001078Y005815D01*
X001078Y005775D01*
X001078Y005315D01*
X001257Y005315D01*
X001538Y005596D01*
X001538Y005775D01*
X001078Y005775D01*
X001038Y005775D01*
X001038Y005315D01*
X000859Y005315D01*
X000660Y005514D01*
X000660Y005076D01*
X000859Y005275D01*
X001257Y005275D01*
X001538Y004994D01*
X001538Y004596D01*
X001257Y004315D01*
X000859Y004315D01*
X000660Y004514D01*
X000660Y004076D01*
X000859Y004275D01*
X001257Y004275D01*
X001538Y003994D01*
X001538Y003596D01*
X001257Y003315D01*
X000859Y003315D01*
X000660Y003514D01*
X000660Y003512D02*
X000663Y003512D01*
X000660Y003353D02*
X000821Y003353D01*
X000660Y003195D02*
X004818Y003195D01*
X004818Y003298D02*
X004818Y003017D01*
X004891Y002744D01*
X005032Y002500D01*
X005231Y002301D01*
X005475Y002160D01*
X005748Y002087D01*
X006030Y002087D01*
X006302Y002160D01*
X006546Y002301D01*
X006745Y002500D01*
X006886Y002744D01*
X006959Y003017D01*
X006959Y003298D01*
X006886Y003571D01*
X006745Y003815D01*
X006546Y004014D01*
X006302Y004155D01*
X006030Y004228D01*
X005748Y004228D01*
X005475Y004155D01*
X005231Y004014D01*
X005032Y003815D01*
X004891Y003571D01*
X004818Y003298D01*
X004833Y003353D02*
X002295Y003353D01*
X002257Y003315D02*
X002538Y003596D01*
X002538Y003994D01*
X002257Y004275D01*
X001859Y004275D01*
X001578Y003994D01*
X001578Y003596D01*
X001859Y003315D01*
X002257Y003315D01*
X002453Y003512D02*
X004875Y003512D01*
X004948Y003670D02*
X002538Y003670D01*
X002538Y003829D02*
X005046Y003829D01*
X005204Y003987D02*
X002538Y003987D01*
X002387Y004146D02*
X005459Y004146D01*
X005411Y004389D02*
X005483Y004412D01*
X005550Y004447D01*
X005612Y004491D01*
X005665Y004545D01*
X005710Y004606D01*
X005744Y004674D01*
X005767Y004746D01*
X005779Y004820D01*
X005779Y004838D01*
X005319Y004838D01*
X005319Y004879D01*
X005779Y004879D01*
X005779Y004896D01*
X005767Y004971D01*
X005744Y005043D01*
X005710Y005110D01*
X005665Y005172D01*
X005612Y005225D01*
X005550Y005270D01*
X005483Y005304D01*
X005411Y005328D01*
X005336Y005339D01*
X005319Y005339D01*
X005319Y004879D01*
X005278Y004879D01*
X005278Y005339D01*
X005260Y005339D01*
X005185Y005328D01*
X005113Y005304D01*
X005046Y005270D01*
X004985Y005225D01*
X004931Y005172D01*
X004887Y005110D01*
X004852Y005043D01*
X004829Y004971D01*
X004817Y004896D01*
X004817Y004879D01*
X005278Y004879D01*
X005278Y004838D01*
X005319Y004838D01*
X005319Y004377D01*
X005336Y004377D01*
X005411Y004389D01*
X005319Y004463D02*
X005278Y004463D01*
X005278Y004377D02*
X005278Y004838D01*
X004817Y004838D01*
X004817Y004820D01*
X004829Y004746D01*
X004852Y004674D01*
X004887Y004606D01*
X004931Y004545D01*
X004985Y004491D01*
X005046Y004447D01*
X005113Y004412D01*
X005185Y004389D01*
X005260Y004377D01*
X005278Y004377D01*
X005278Y004621D02*
X005319Y004621D01*
X005319Y004780D02*
X005278Y004780D01*
X005278Y004938D02*
X005319Y004938D01*
X005319Y005097D02*
X005278Y005097D01*
X005278Y005255D02*
X005319Y005255D01*
X005571Y005255D02*
X006019Y005255D01*
X005998Y005234D02*
X005998Y004483D01*
X006103Y004377D01*
X006855Y004377D01*
X006960Y004483D01*
X006960Y005234D01*
X006855Y005339D01*
X006103Y005339D01*
X005998Y005234D01*
X005998Y005097D02*
X005717Y005097D01*
X005773Y004938D02*
X005998Y004938D01*
X005998Y004780D02*
X005773Y004780D01*
X005717Y004621D02*
X005998Y004621D01*
X006018Y004463D02*
X005572Y004463D01*
X005024Y004463D02*
X002404Y004463D01*
X002538Y004596D02*
X002257Y004315D01*
X001859Y004315D01*
X001578Y004596D01*
X001578Y004994D01*
X001859Y005275D01*
X002257Y005275D01*
X002538Y004994D01*
X002538Y004596D01*
X002538Y004621D02*
X004879Y004621D01*
X004823Y004780D02*
X002538Y004780D01*
X002538Y004938D02*
X004824Y004938D01*
X004879Y005097D02*
X002436Y005097D01*
X002277Y005255D02*
X005026Y005255D01*
X005113Y005593D02*
X005185Y005570D01*
X005260Y005558D01*
X005278Y005558D01*
X005278Y006019D01*
X005319Y006019D01*
X005319Y006060D01*
X005779Y006060D01*
X005779Y006077D01*
X005767Y006152D01*
X005744Y006224D01*
X005710Y006292D01*
X005665Y006353D01*
X005612Y006406D01*
X005550Y006451D01*
X005483Y006485D01*
X005411Y006509D01*
X005336Y006521D01*
X005319Y006521D01*
X005319Y006060D01*
X005278Y006060D01*
X005278Y006521D01*
X005260Y006521D01*
X005185Y006509D01*
X005113Y006485D01*
X005046Y006451D01*
X004985Y006406D01*
X004931Y006353D01*
X004887Y006292D01*
X004852Y006224D01*
X004829Y006152D01*
X004817Y006077D01*
X004817Y006060D01*
X005278Y006060D01*
X005278Y006019D01*
X004817Y006019D01*
X004817Y006001D01*
X004829Y005927D01*
X004852Y005855D01*
X004887Y005787D01*
X004931Y005726D01*
X004985Y005672D01*
X005046Y005628D01*
X005113Y005593D01*
X005179Y005572D02*
X002514Y005572D01*
X002538Y005596D02*
X002257Y005315D01*
X001859Y005315D01*
X001578Y005596D01*
X001578Y005994D01*
X001859Y006275D01*
X002257Y006275D01*
X002538Y005994D01*
X002538Y005596D01*
X002538Y005731D02*
X004928Y005731D01*
X004841Y005889D02*
X002538Y005889D01*
X002485Y006048D02*
X005278Y006048D01*
X005319Y006048D02*
X005998Y006048D01*
X005998Y006135D02*
X005998Y005944D01*
X006071Y005767D01*
X006207Y005631D01*
X006383Y005558D01*
X006575Y005558D01*
X006752Y005631D01*
X006887Y005767D01*
X006960Y005944D01*
X006960Y006135D01*
X006887Y006312D01*
X006752Y006447D01*
X006575Y006521D01*
X006383Y006521D01*
X006207Y006447D01*
X006071Y006312D01*
X005998Y006135D01*
X006027Y006206D02*
X005750Y006206D01*
X005653Y006365D02*
X006124Y006365D01*
X006021Y005889D02*
X005755Y005889D01*
X005744Y005855D02*
X005767Y005927D01*
X005779Y006001D01*
X005779Y006019D01*
X005319Y006019D01*
X005319Y005558D01*
X005336Y005558D01*
X005411Y005570D01*
X005483Y005593D01*
X005550Y005628D01*
X005612Y005672D01*
X005665Y005726D01*
X005710Y005787D01*
X005744Y005855D01*
X005668Y005731D02*
X006108Y005731D01*
X006350Y005572D02*
X005417Y005572D01*
X005319Y005572D02*
X005278Y005572D01*
X005278Y005731D02*
X005319Y005731D01*
X005319Y005889D02*
X005278Y005889D01*
X005278Y006206D02*
X005319Y006206D01*
X005319Y006365D02*
X005278Y006365D01*
X004943Y006365D02*
X002306Y006365D01*
X002257Y006315D02*
X002538Y006596D01*
X002538Y006994D01*
X002257Y007275D01*
X001859Y007275D01*
X001578Y006994D01*
X001578Y006596D01*
X001859Y006315D01*
X002257Y006315D01*
X002326Y006206D02*
X004846Y006206D01*
X006318Y004146D02*
X013050Y004146D01*
X012954Y004304D02*
X000660Y004304D01*
X000660Y004146D02*
X000729Y004146D01*
X000712Y004463D02*
X000660Y004463D01*
X000660Y005097D02*
X000680Y005097D01*
X000660Y005255D02*
X000839Y005255D01*
X000761Y005414D02*
X000660Y005414D01*
X001038Y005414D02*
X001078Y005414D01*
X001078Y005572D02*
X001038Y005572D01*
X001038Y005731D02*
X001078Y005731D01*
X001078Y005889D02*
X001038Y005889D01*
X001038Y006048D02*
X001078Y006048D01*
X001078Y006206D02*
X001038Y006206D01*
X000790Y006206D02*
X000660Y006206D01*
X000660Y006365D02*
X000810Y006365D01*
X001306Y006365D02*
X001810Y006365D01*
X001790Y006206D02*
X001326Y006206D01*
X001485Y006048D02*
X001631Y006048D01*
X001578Y005889D02*
X001538Y005889D01*
X001538Y005731D02*
X001578Y005731D01*
X001602Y005572D02*
X001514Y005572D01*
X001355Y005414D02*
X001761Y005414D01*
X001839Y005255D02*
X001277Y005255D01*
X001436Y005097D02*
X001680Y005097D01*
X001578Y004938D02*
X001538Y004938D01*
X001538Y004780D02*
X001578Y004780D01*
X001578Y004621D02*
X001538Y004621D01*
X001404Y004463D02*
X001712Y004463D01*
X001729Y004146D02*
X001387Y004146D01*
X001538Y003987D02*
X001578Y003987D01*
X001578Y003829D02*
X001538Y003829D01*
X001538Y003670D02*
X001578Y003670D01*
X001663Y003512D02*
X001453Y003512D01*
X001295Y003353D02*
X001821Y003353D01*
X001964Y002878D02*
X004855Y002878D01*
X004818Y003036D02*
X000660Y003036D01*
X000660Y002878D02*
X001152Y002878D01*
X000885Y002719D02*
X000660Y002719D01*
X000660Y002561D02*
X000727Y002561D01*
X002231Y002719D02*
X004906Y002719D01*
X004997Y002561D02*
X002389Y002561D01*
X002492Y002402D02*
X005130Y002402D01*
X005331Y002244D02*
X002568Y002244D01*
X002611Y002085D02*
X012647Y002085D01*
X012647Y001927D02*
X002629Y001927D01*
X002629Y001768D02*
X012647Y001768D01*
X012647Y001610D02*
X002594Y001610D01*
X002548Y001451D02*
X012647Y001451D01*
X012647Y001293D02*
X002456Y001293D01*
X002328Y001134D02*
X012647Y001134D01*
X012647Y002244D02*
X006447Y002244D01*
X006647Y002402D02*
X012647Y002402D01*
X012647Y002561D02*
X006780Y002561D01*
X006872Y002719D02*
X012647Y002719D01*
X012647Y002878D02*
X006922Y002878D01*
X006959Y003036D02*
X012647Y003036D01*
X012647Y003195D02*
X006959Y003195D01*
X006945Y003353D02*
X012647Y003353D01*
X012647Y003512D02*
X006902Y003512D01*
X006829Y003670D02*
X012647Y003670D01*
X012647Y003829D02*
X006732Y003829D01*
X006573Y003987D02*
X012692Y003987D01*
X012931Y004463D02*
X006940Y004463D01*
X006960Y004621D02*
X012968Y004621D01*
X013085Y004780D02*
X006960Y004780D01*
X006960Y004938D02*
X019832Y004938D01*
X019832Y004780D02*
X013653Y004780D01*
X013770Y004621D02*
X019832Y004621D01*
X019832Y004463D02*
X013806Y004463D01*
X013784Y004304D02*
X019832Y004304D01*
X019832Y004146D02*
X013688Y004146D01*
X013471Y005018D02*
X013403Y005007D01*
X013369Y005007D01*
X013369Y005445D01*
X013369Y005445D01*
X013369Y005882D01*
X013403Y005882D01*
X013471Y005872D01*
X013537Y005850D01*
X013598Y005819D01*
X013654Y005779D01*
X013703Y005730D01*
X013743Y005674D01*
X013774Y005613D01*
X013796Y005547D01*
X013806Y005479D01*
X013806Y005445D01*
X013369Y005445D01*
X013369Y005882D01*
X013335Y005882D01*
X013267Y005872D01*
X013201Y005850D01*
X013140Y005819D01*
X013084Y005779D01*
X013035Y005730D01*
X012995Y005674D01*
X012964Y005613D01*
X012942Y005547D01*
X012931Y005479D01*
X012931Y005445D01*
X013369Y005445D01*
X013369Y005445D01*
X013369Y005445D01*
X013806Y005445D01*
X013806Y005410D01*
X013796Y005342D01*
X013774Y005277D01*
X013743Y005216D01*
X013703Y005160D01*
X013654Y005111D01*
X013598Y005071D01*
X013537Y005039D01*
X013471Y005018D01*
X013369Y005007D02*
X013369Y005445D01*
X012931Y005445D01*
X012931Y005410D01*
X012942Y005342D01*
X012964Y005277D01*
X012995Y005216D01*
X013035Y005160D01*
X013084Y005111D01*
X013140Y005071D01*
X013201Y005039D01*
X013267Y005018D01*
X013335Y005007D01*
X013369Y005007D01*
X013369Y005097D02*
X013369Y005097D01*
X013369Y005255D02*
X013369Y005255D01*
X013369Y005414D02*
X013369Y005414D01*
X013369Y005445D02*
X013369Y005445D01*
X013369Y005572D02*
X013369Y005572D01*
X013369Y005731D02*
X013369Y005731D01*
X013036Y005731D02*
X006851Y005731D01*
X006938Y005889D02*
X019832Y005889D01*
X019832Y005731D02*
X013702Y005731D01*
X013788Y005572D02*
X019832Y005572D01*
X019832Y005414D02*
X013806Y005414D01*
X013763Y005255D02*
X019832Y005255D01*
X019832Y005097D02*
X013634Y005097D01*
X013104Y005097D02*
X006960Y005097D01*
X006939Y005255D02*
X012975Y005255D01*
X012931Y005414D02*
X002355Y005414D01*
X002465Y006523D02*
X013082Y006523D01*
X012866Y006682D02*
X002538Y006682D01*
X002538Y006840D02*
X012745Y006840D01*
X012745Y006999D02*
X002534Y006999D01*
X002375Y007157D02*
X012648Y007157D01*
X012648Y007316D02*
X002257Y007316D01*
X002257Y007315D02*
X002538Y007596D01*
X002538Y007775D01*
X002078Y007775D01*
X002078Y007315D01*
X002257Y007315D01*
X002078Y007316D02*
X002038Y007316D01*
X002038Y007315D02*
X002038Y007775D01*
X002078Y007775D01*
X002078Y007815D01*
X002538Y007815D01*
X002538Y007994D01*
X002257Y008275D01*
X002078Y008275D01*
X002078Y007815D01*
X002038Y007815D01*
X002038Y007775D01*
X001578Y007775D01*
X001578Y007596D01*
X001859Y007315D01*
X002038Y007315D01*
X002038Y007474D02*
X002078Y007474D01*
X002078Y007633D02*
X002038Y007633D01*
X002038Y007791D02*
X001538Y007791D01*
X001578Y007815D02*
X002038Y007815D01*
X002038Y008275D01*
X001859Y008275D01*
X001578Y007994D01*
X001578Y007815D01*
X001578Y007950D02*
X001538Y007950D01*
X001424Y008108D02*
X001692Y008108D01*
X001850Y008267D02*
X001266Y008267D01*
X001367Y008425D02*
X001749Y008425D01*
X001859Y008315D02*
X001578Y008596D01*
X001578Y008994D01*
X001859Y009275D01*
X002257Y009275D01*
X002538Y008994D01*
X002538Y008596D01*
X002257Y008315D01*
X001859Y008315D01*
X002038Y008267D02*
X002078Y008267D01*
X002078Y008108D02*
X002038Y008108D01*
X002038Y007950D02*
X002078Y007950D01*
X002078Y007791D02*
X012648Y007791D01*
X012648Y007633D02*
X002538Y007633D01*
X002416Y007474D02*
X012648Y007474D01*
X012648Y007950D02*
X002538Y007950D01*
X002424Y008108D02*
X012648Y008108D01*
X012168Y008267D02*
X002266Y008267D01*
X002367Y008425D02*
X012010Y008425D01*
X011715Y008584D02*
X002525Y008584D01*
X002538Y008742D02*
X011588Y008742D01*
X011564Y008901D02*
X002538Y008901D01*
X002473Y009059D02*
X011620Y009059D01*
X011595Y009218D02*
X002315Y009218D01*
X002257Y009315D02*
X002538Y009596D01*
X002538Y009994D01*
X002257Y010275D01*
X001859Y010275D01*
X001578Y009994D01*
X001578Y009596D01*
X001859Y009315D01*
X002257Y009315D01*
X002318Y009376D02*
X011564Y009376D01*
X011610Y009535D02*
X002476Y009535D01*
X002538Y009693D02*
X012745Y009693D01*
X012745Y009535D02*
X012176Y009535D01*
X012221Y009376D02*
X012745Y009376D01*
X012745Y009218D02*
X012358Y009218D01*
X012516Y009059D02*
X012745Y009059D01*
X012745Y008901D02*
X012675Y008901D01*
X012745Y009852D02*
X002538Y009852D01*
X002522Y010010D02*
X012745Y010010D01*
X012870Y010169D02*
X002364Y010169D01*
X002257Y010315D02*
X002538Y010596D01*
X002538Y010620D01*
X002575Y010604D01*
X002706Y010604D01*
X002827Y010654D01*
X002919Y010747D01*
X002970Y010868D01*
X002970Y010998D01*
X002919Y011119D01*
X002871Y011168D01*
X002871Y011822D01*
X002933Y011884D01*
X003067Y012019D01*
X003067Y015267D01*
X003166Y015365D01*
X003166Y017131D01*
X002871Y017426D01*
X002736Y017561D01*
X002679Y017561D01*
X002630Y017610D01*
X002538Y017648D01*
X002538Y017994D01*
X002257Y018275D01*
X001859Y018275D01*
X001578Y017994D01*
X001578Y017596D01*
X001859Y017315D01*
X002115Y017315D01*
X002115Y017275D01*
X001859Y017275D01*
X001578Y016994D01*
X001578Y016596D01*
X001859Y016315D01*
X002257Y016315D01*
X002421Y016480D01*
X002421Y016111D01*
X002257Y016275D01*
X002078Y016275D01*
X002078Y015815D01*
X002038Y015815D01*
X002038Y015775D01*
X002078Y015775D01*
X002078Y015315D01*
X002257Y015315D01*
X002421Y015480D01*
X002421Y015111D01*
X002257Y015275D01*
X001859Y015275D01*
X001578Y014994D01*
X001578Y014596D01*
X001859Y014315D01*
X002257Y014315D01*
X002421Y014480D01*
X002421Y014111D01*
X002257Y014275D01*
X001859Y014275D01*
X001578Y013994D01*
X001578Y013596D01*
X001859Y013315D01*
X002257Y013315D01*
X002421Y013480D01*
X002421Y013111D01*
X002257Y013275D01*
X001859Y013275D01*
X001578Y012994D01*
X001578Y012596D01*
X001859Y012315D01*
X002229Y012315D01*
X002213Y012278D01*
X002213Y012275D01*
X001859Y012275D01*
X001578Y011994D01*
X001578Y011596D01*
X001859Y011315D01*
X002257Y011315D01*
X002411Y011469D01*
X002411Y011168D01*
X002387Y011145D01*
X002257Y011275D01*
X001859Y011275D01*
X001578Y010994D01*
X001578Y010596D01*
X001859Y010315D01*
X002257Y010315D01*
X002269Y010327D02*
X012931Y010327D01*
X012992Y010486D02*
X002427Y010486D01*
X002802Y010644D02*
X013172Y010644D01*
X013267Y010825D02*
X013335Y010814D01*
X013369Y010814D01*
X013403Y010814D01*
X013471Y010825D01*
X013537Y010847D01*
X013598Y010878D01*
X013654Y010918D01*
X013703Y010967D01*
X013743Y011023D01*
X013774Y011084D01*
X013796Y011150D01*
X013806Y011218D01*
X013806Y011252D01*
X013806Y011286D01*
X013796Y011354D01*
X013774Y011420D01*
X013743Y011481D01*
X013703Y011537D01*
X013654Y011586D01*
X013598Y011626D01*
X013537Y011657D01*
X013471Y011679D01*
X013403Y011689D01*
X013369Y011689D01*
X013369Y011252D01*
X013369Y011252D01*
X013806Y011252D01*
X013369Y011252D01*
X013369Y011252D01*
X013369Y011689D01*
X013335Y011689D01*
X013267Y011679D01*
X013201Y011657D01*
X013140Y011626D01*
X013084Y011586D01*
X013035Y011537D01*
X012995Y011481D01*
X012964Y011420D01*
X012942Y011354D01*
X012931Y011286D01*
X012931Y011252D01*
X013369Y011252D01*
X013369Y011252D01*
X013369Y010814D01*
X013369Y011252D01*
X013369Y011252D01*
X012931Y011252D01*
X012931Y011218D01*
X012942Y011150D01*
X012964Y011084D01*
X012995Y011023D01*
X013035Y010967D01*
X013084Y010918D01*
X013140Y010878D01*
X013201Y010847D01*
X013267Y010825D01*
X013369Y010961D02*
X013369Y010961D01*
X013369Y011120D02*
X013369Y011120D01*
X013369Y011278D02*
X013369Y011278D01*
X013369Y011437D02*
X013369Y011437D01*
X013369Y011595D02*
X013369Y011595D01*
X013097Y011595D02*
X010498Y011595D01*
X010482Y011588D02*
X010603Y011638D01*
X010695Y011731D01*
X010745Y011852D01*
X010745Y011983D01*
X010695Y012104D01*
X010603Y012196D01*
X010482Y012246D01*
X010351Y012246D01*
X010230Y012196D01*
X010180Y012147D01*
X009731Y012147D01*
X009596Y012012D01*
X009435Y011851D01*
X009269Y011851D01*
X009269Y011884D01*
X009219Y012005D01*
X009159Y012065D01*
X009159Y014526D01*
X009219Y014585D01*
X009269Y014706D01*
X009269Y014837D01*
X009219Y014958D01*
X009159Y015017D01*
X009159Y017872D01*
X009219Y017932D01*
X009269Y018053D01*
X009269Y018184D01*
X009219Y018304D01*
X009126Y018397D01*
X009005Y018447D01*
X008874Y018447D01*
X008864Y018443D01*
X008864Y018463D01*
X008923Y018522D01*
X008973Y018643D01*
X008973Y018774D01*
X008923Y018895D01*
X008831Y018987D01*
X008710Y019038D01*
X008579Y019038D01*
X008458Y018987D01*
X008366Y018895D01*
X008316Y018774D01*
X008316Y018742D01*
X008284Y018742D01*
X008163Y018692D01*
X008103Y018632D01*
X008043Y018692D01*
X007923Y018742D01*
X007792Y018742D01*
X007671Y018692D01*
X007578Y018600D01*
X007528Y018479D01*
X007528Y018348D01*
X007578Y018227D01*
X007671Y018135D01*
X007792Y018084D01*
X007876Y018084D01*
X007933Y018027D01*
X007933Y016240D01*
X007668Y015975D01*
X004363Y015975D01*
X004303Y016035D01*
X004182Y016085D01*
X004052Y016085D01*
X003931Y016035D01*
X003838Y015942D01*
X003788Y015821D01*
X003788Y015690D01*
X003838Y015570D01*
X003931Y015477D01*
X004052Y015427D01*
X004182Y015427D01*
X004303Y015477D01*
X004363Y015537D01*
X007850Y015537D01*
X007978Y015665D01*
X008130Y015817D01*
X008130Y015706D01*
X008070Y015647D01*
X008020Y015526D01*
X008020Y015395D01*
X008070Y015274D01*
X008130Y015215D01*
X008130Y012103D01*
X008021Y012148D01*
X007890Y012148D01*
X007769Y012098D01*
X007710Y012038D01*
X006669Y012038D01*
X006570Y012137D01*
X004798Y012137D01*
X004336Y012599D01*
X004336Y014329D01*
X004396Y014388D01*
X004446Y014509D01*
X004446Y014640D01*
X004396Y014761D01*
X004303Y014854D01*
X004182Y014904D01*
X004052Y014904D01*
X003931Y014854D01*
X003838Y014761D01*
X003788Y014640D01*
X003788Y014509D01*
X003838Y014388D01*
X003898Y014329D01*
X003898Y013291D01*
X003811Y013377D01*
X003690Y013427D01*
X003559Y013427D01*
X003439Y013377D01*
X003346Y013285D01*
X003296Y013164D01*
X003296Y013033D01*
X003346Y012912D01*
X003439Y012820D01*
X003559Y012770D01*
X003630Y012770D01*
X003691Y012708D01*
X003691Y012640D01*
X003690Y012640D01*
X003559Y012640D01*
X003439Y012590D01*
X003346Y012497D01*
X003296Y012376D01*
X003296Y012246D01*
X003306Y012223D01*
X003242Y012196D01*
X003149Y012104D01*
X003099Y011983D01*
X003099Y011852D01*
X003149Y011731D01*
X003199Y011681D01*
X003199Y011035D01*
X003333Y010901D01*
X003432Y010802D01*
X005850Y010802D01*
X005899Y010753D01*
X006020Y010703D01*
X006151Y010703D01*
X006272Y010753D01*
X006353Y010834D01*
X006384Y010802D01*
X009364Y010802D01*
X009367Y010801D01*
X009497Y010801D01*
X009618Y010851D01*
X009711Y010944D01*
X009761Y011064D01*
X009761Y011195D01*
X009761Y011196D01*
X010019Y011196D01*
X010116Y011293D01*
X010186Y011293D01*
X010307Y011343D01*
X010400Y011436D01*
X010450Y011557D01*
X010450Y011588D01*
X010482Y011588D01*
X010400Y011437D02*
X012972Y011437D01*
X012931Y011278D02*
X010101Y011278D01*
X009761Y011120D02*
X012952Y011120D01*
X013041Y010961D02*
X009718Y010961D01*
X009501Y010803D02*
X020029Y010803D01*
X020029Y010961D02*
X013697Y010961D01*
X013786Y011120D02*
X020029Y011120D01*
X020029Y011278D02*
X013806Y011278D01*
X013766Y011437D02*
X020029Y011437D01*
X020029Y011595D02*
X013641Y011595D01*
X013566Y010644D02*
X020029Y010644D01*
X020029Y010486D02*
X013746Y010486D01*
X013806Y010327D02*
X020029Y010327D01*
X020029Y011754D02*
X010704Y011754D01*
X010745Y011912D02*
X020029Y011912D01*
X020029Y012071D02*
X010709Y012071D01*
X010523Y012229D02*
X012732Y012229D01*
X012647Y013180D02*
X012023Y013180D01*
X011864Y013339D02*
X012647Y013339D01*
X012647Y013497D02*
X011706Y013497D01*
X011547Y013656D02*
X012647Y013656D01*
X012647Y013814D02*
X011389Y013814D01*
X011266Y013022D02*
X009159Y013022D01*
X009159Y013180D02*
X009771Y013180D01*
X009694Y013339D02*
X009159Y013339D01*
X009159Y013497D02*
X009709Y013497D01*
X009819Y013656D02*
X009159Y013656D01*
X009159Y013814D02*
X010112Y013814D01*
X010241Y013973D02*
X009159Y013973D01*
X009159Y014131D02*
X012647Y014131D01*
X012647Y013973D02*
X010591Y013973D01*
X011424Y012863D02*
X009159Y012863D01*
X009159Y012705D02*
X011583Y012705D01*
X011741Y012546D02*
X009159Y012546D01*
X009159Y012388D02*
X011900Y012388D01*
X012647Y014290D02*
X009159Y014290D01*
X009159Y014448D02*
X012647Y014448D01*
X012647Y014607D02*
X009227Y014607D01*
X009269Y014765D02*
X012647Y014765D01*
X012647Y014924D02*
X009233Y014924D01*
X009159Y015082D02*
X012647Y015082D01*
X012647Y015241D02*
X009159Y015241D01*
X009159Y015399D02*
X012647Y015399D01*
X012647Y015558D02*
X009159Y015558D01*
X009159Y015716D02*
X012647Y015716D01*
X012670Y015875D02*
X009159Y015875D01*
X009159Y016033D02*
X012988Y016033D01*
X012931Y016192D02*
X009159Y016192D01*
X009159Y016350D02*
X012934Y016350D01*
X013003Y016509D02*
X009159Y016509D01*
X009159Y016667D02*
X013218Y016667D01*
X013267Y016829D02*
X013335Y016818D01*
X013369Y016818D01*
X013403Y016818D01*
X013471Y016829D01*
X013537Y016850D01*
X013598Y016882D01*
X013654Y016922D01*
X013703Y016971D01*
X013743Y017027D01*
X013774Y017088D01*
X013796Y017153D01*
X013806Y017221D01*
X013806Y017256D01*
X013806Y017290D01*
X013796Y017358D01*
X013774Y017424D01*
X013743Y017485D01*
X013703Y017541D01*
X013654Y017590D01*
X013598Y017630D01*
X013537Y017661D01*
X013471Y017683D01*
X013403Y017693D01*
X013369Y017693D01*
X013369Y017256D01*
X013369Y017256D01*
X013369Y017693D01*
X013335Y017693D01*
X013267Y017683D01*
X013201Y017661D01*
X013140Y017630D01*
X013084Y017590D01*
X013035Y017541D01*
X012995Y017485D01*
X012964Y017424D01*
X012942Y017358D01*
X012931Y017290D01*
X012931Y017256D01*
X013369Y017256D01*
X013806Y017256D01*
X013369Y017256D01*
X013369Y017256D01*
X013369Y017256D01*
X012931Y017256D01*
X012931Y017221D01*
X012942Y017153D01*
X012964Y017088D01*
X012995Y017027D01*
X013035Y016971D01*
X013084Y016922D01*
X013140Y016882D01*
X013201Y016850D01*
X013267Y016829D01*
X013290Y016826D02*
X009159Y016826D01*
X009159Y016984D02*
X013026Y016984D01*
X012946Y017143D02*
X009159Y017143D01*
X009159Y017301D02*
X012933Y017301D01*
X012982Y017460D02*
X009159Y017460D01*
X009159Y017618D02*
X011765Y017618D01*
X011597Y017777D02*
X009159Y017777D01*
X009220Y017935D02*
X011564Y017935D01*
X011608Y018094D02*
X009269Y018094D01*
X009240Y018252D02*
X011603Y018252D01*
X011564Y018411D02*
X009093Y018411D01*
X008943Y018569D02*
X011601Y018569D01*
X011792Y018728D02*
X008973Y018728D01*
X008927Y018886D02*
X012041Y018886D01*
X012624Y019045D02*
X002488Y019045D01*
X002538Y018994D02*
X002257Y019275D01*
X001859Y019275D01*
X001578Y018994D01*
X001578Y018596D01*
X001859Y018315D01*
X002257Y018315D01*
X002538Y018596D01*
X002538Y018994D01*
X002538Y018886D02*
X008362Y018886D01*
X008248Y018728D02*
X007958Y018728D01*
X007756Y018728D02*
X002538Y018728D01*
X002511Y018569D02*
X007566Y018569D01*
X007528Y018411D02*
X002352Y018411D01*
X002280Y018252D02*
X007568Y018252D01*
X007770Y018094D02*
X002439Y018094D01*
X002538Y017935D02*
X007933Y017935D01*
X007933Y017777D02*
X002538Y017777D01*
X002610Y017618D02*
X007933Y017618D01*
X007933Y017460D02*
X002837Y017460D01*
X002996Y017301D02*
X007933Y017301D01*
X007933Y017143D02*
X003154Y017143D01*
X003166Y016984D02*
X007933Y016984D01*
X007933Y016826D02*
X003166Y016826D01*
X003166Y016667D02*
X007933Y016667D01*
X007933Y016509D02*
X003166Y016509D01*
X003166Y016350D02*
X007933Y016350D01*
X007884Y016192D02*
X003166Y016192D01*
X003166Y016033D02*
X003929Y016033D01*
X003810Y015875D02*
X003166Y015875D01*
X003166Y015716D02*
X003788Y015716D01*
X003850Y015558D02*
X003166Y015558D01*
X003166Y015399D02*
X008020Y015399D01*
X008033Y015558D02*
X007871Y015558D01*
X008029Y015716D02*
X008130Y015716D01*
X008104Y015241D02*
X003067Y015241D01*
X003067Y015082D02*
X008130Y015082D01*
X008130Y014924D02*
X003067Y014924D01*
X003067Y014765D02*
X003842Y014765D01*
X003788Y014607D02*
X003067Y014607D01*
X003067Y014448D02*
X003814Y014448D01*
X003898Y014290D02*
X003067Y014290D01*
X003067Y014131D02*
X003898Y014131D01*
X003898Y013973D02*
X003067Y013973D01*
X003067Y013814D02*
X003898Y013814D01*
X003898Y013656D02*
X003067Y013656D01*
X003067Y013497D02*
X003898Y013497D01*
X003898Y013339D02*
X003850Y013339D01*
X003400Y013339D02*
X003067Y013339D01*
X003067Y013180D02*
X003303Y013180D01*
X003301Y013022D02*
X003067Y013022D01*
X003067Y012863D02*
X003395Y012863D01*
X003395Y012546D02*
X003067Y012546D01*
X003067Y012388D02*
X003301Y012388D01*
X003303Y012229D02*
X003067Y012229D01*
X003067Y012071D02*
X003135Y012071D01*
X003099Y011912D02*
X002961Y011912D01*
X002933Y011884D02*
X002933Y011884D01*
X002871Y011754D02*
X003140Y011754D01*
X003199Y011595D02*
X002871Y011595D01*
X002871Y011437D02*
X003199Y011437D01*
X003199Y011278D02*
X002871Y011278D01*
X002919Y011120D02*
X003199Y011120D01*
X003273Y010961D02*
X002970Y010961D01*
X002943Y010803D02*
X003431Y010803D01*
X002411Y011278D02*
X000660Y011278D01*
X000660Y011120D02*
X000703Y011120D01*
X000738Y011437D02*
X000660Y011437D01*
X000660Y012229D02*
X000813Y012229D01*
X000787Y012388D02*
X000660Y012388D01*
X001038Y012388D02*
X001078Y012388D01*
X001078Y012546D02*
X001038Y012546D01*
X001038Y012705D02*
X001078Y012705D01*
X001078Y012863D02*
X001038Y012863D01*
X001038Y013022D02*
X001078Y013022D01*
X001078Y013180D02*
X001038Y013180D01*
X000836Y013339D02*
X000660Y013339D01*
X000660Y013497D02*
X000677Y013497D01*
X000660Y013180D02*
X000764Y013180D01*
X001280Y013339D02*
X001836Y013339D01*
X001764Y013180D02*
X001352Y013180D01*
X001511Y013022D02*
X001605Y013022D01*
X001578Y012863D02*
X001538Y012863D01*
X001538Y012705D02*
X001578Y012705D01*
X001628Y012546D02*
X001488Y012546D01*
X001329Y012388D02*
X001787Y012388D01*
X001813Y012229D02*
X001303Y012229D01*
X001462Y012071D02*
X001654Y012071D01*
X001578Y011912D02*
X001538Y011912D01*
X001538Y011754D02*
X001578Y011754D01*
X001579Y011595D02*
X001537Y011595D01*
X001378Y011437D02*
X001738Y011437D01*
X001703Y011120D02*
X001413Y011120D01*
X001538Y010961D02*
X001578Y010961D01*
X001578Y010803D02*
X001538Y010803D01*
X001538Y010644D02*
X001578Y010644D01*
X001689Y010486D02*
X001427Y010486D01*
X001269Y010327D02*
X001847Y010327D01*
X001752Y010169D02*
X001364Y010169D01*
X001522Y010010D02*
X001594Y010010D01*
X001578Y009852D02*
X001538Y009852D01*
X001538Y009693D02*
X001578Y009693D01*
X001640Y009535D02*
X001476Y009535D01*
X001318Y009376D02*
X001798Y009376D01*
X001801Y009218D02*
X001315Y009218D01*
X001473Y009059D02*
X001643Y009059D01*
X001578Y008901D02*
X001538Y008901D01*
X001538Y008742D02*
X001578Y008742D01*
X001591Y008584D02*
X001525Y008584D01*
X001078Y009376D02*
X001038Y009376D01*
X001038Y009535D02*
X001078Y009535D01*
X001078Y009693D02*
X001038Y009693D01*
X001038Y009852D02*
X001078Y009852D01*
X001078Y010010D02*
X001038Y010010D01*
X001038Y010169D02*
X001078Y010169D01*
X000847Y010327D02*
X000660Y010327D01*
X000660Y010169D02*
X000752Y010169D01*
X000689Y010486D02*
X000660Y010486D01*
X000660Y009376D02*
X000798Y009376D01*
X000801Y009218D02*
X000660Y009218D01*
X000660Y008425D02*
X000749Y008425D01*
X000660Y008267D02*
X000850Y008267D01*
X000692Y008108D02*
X000660Y008108D01*
X000660Y007474D02*
X000700Y007474D01*
X000660Y007316D02*
X000859Y007316D01*
X000741Y007157D02*
X000660Y007157D01*
X001257Y007316D02*
X001859Y007316D01*
X001741Y007157D02*
X001375Y007157D01*
X001534Y006999D02*
X001582Y006999D01*
X001578Y006840D02*
X001538Y006840D01*
X001538Y006682D02*
X001578Y006682D01*
X001651Y006523D02*
X001465Y006523D01*
X001416Y007474D02*
X001700Y007474D01*
X001578Y007633D02*
X001538Y007633D01*
X002378Y011437D02*
X002411Y011437D01*
X003067Y012705D02*
X003691Y012705D01*
X004336Y012705D02*
X008130Y012705D01*
X008130Y012863D02*
X004336Y012863D01*
X004336Y013022D02*
X008130Y013022D01*
X008130Y013180D02*
X004336Y013180D01*
X004336Y013339D02*
X008130Y013339D01*
X008130Y013497D02*
X004336Y013497D01*
X004336Y013656D02*
X008130Y013656D01*
X008130Y013814D02*
X004336Y013814D01*
X004336Y013973D02*
X008130Y013973D01*
X008130Y014131D02*
X004336Y014131D01*
X004336Y014290D02*
X008130Y014290D01*
X008130Y014448D02*
X004420Y014448D01*
X004446Y014607D02*
X008130Y014607D01*
X008130Y014765D02*
X004392Y014765D01*
X004305Y016033D02*
X007726Y016033D01*
X008130Y012546D02*
X004389Y012546D01*
X004548Y012388D02*
X008130Y012388D01*
X008130Y012229D02*
X004706Y012229D01*
X006322Y010803D02*
X006384Y010803D01*
X006636Y012071D02*
X007742Y012071D01*
X009159Y012071D02*
X009655Y012071D01*
X009496Y011912D02*
X009257Y011912D01*
X009159Y012229D02*
X010309Y012229D01*
X013520Y016667D02*
X019733Y016667D01*
X019733Y016509D02*
X013735Y016509D01*
X013804Y016350D02*
X019733Y016350D01*
X019733Y016192D02*
X013806Y016192D01*
X013750Y016033D02*
X019733Y016033D01*
X019733Y016826D02*
X013448Y016826D01*
X013369Y016826D02*
X013369Y016826D01*
X013369Y016818D02*
X013369Y017256D01*
X013369Y017256D01*
X013369Y016818D01*
X013369Y016984D02*
X013369Y016984D01*
X013369Y017143D02*
X013369Y017143D01*
X013369Y017301D02*
X013369Y017301D01*
X013369Y017460D02*
X013369Y017460D01*
X013369Y017618D02*
X013369Y017618D01*
X013615Y017618D02*
X021747Y017618D01*
X021747Y017460D02*
X013756Y017460D01*
X013805Y017301D02*
X021747Y017301D01*
X021747Y017777D02*
X012189Y017777D01*
X012231Y017935D02*
X021747Y017935D01*
X021747Y018094D02*
X013555Y018094D01*
X013380Y018094D02*
X012389Y018094D01*
X012020Y017618D02*
X013123Y017618D01*
X013792Y017143D02*
X019844Y017143D01*
X019733Y016984D02*
X013712Y016984D01*
X013757Y018252D02*
X021747Y018252D01*
X021747Y018411D02*
X014985Y018411D01*
X014706Y018411D02*
X013796Y018411D01*
X014609Y018938D02*
X012881Y018938D01*
X012952Y021128D01*
X012964Y021092D01*
X012995Y021031D01*
X013035Y020975D01*
X013084Y020926D01*
X013140Y020886D01*
X013201Y020854D01*
X013267Y020833D01*
X013335Y020822D01*
X013369Y020822D01*
X013403Y020822D01*
X013471Y020833D01*
X013537Y020854D01*
X013598Y020886D01*
X013654Y020926D01*
X013703Y020975D01*
X013743Y021031D01*
X013774Y021092D01*
X013796Y021157D01*
X013806Y021225D01*
X013806Y021260D01*
X013806Y021294D01*
X013796Y021362D01*
X013774Y021428D01*
X013743Y021489D01*
X013703Y021545D01*
X013654Y021594D01*
X013598Y021634D01*
X013537Y021665D01*
X013471Y021687D01*
X013403Y021697D01*
X013369Y021697D01*
X013369Y021260D01*
X013369Y021260D01*
X013369Y021697D01*
X013335Y021697D01*
X013267Y021687D01*
X013201Y021665D01*
X013140Y021634D01*
X013084Y021594D01*
X013035Y021545D01*
X012995Y021489D01*
X012964Y021428D01*
X012961Y021420D01*
X012975Y021858D01*
X013195Y021858D01*
X013282Y021822D01*
X013456Y021822D01*
X013543Y021858D01*
X015141Y021858D01*
X015141Y022154D01*
X020793Y022154D01*
X020738Y022131D01*
X020615Y022008D01*
X020548Y021847D01*
X020548Y021673D01*
X020615Y021512D01*
X020738Y021389D01*
X020898Y021322D01*
X021587Y021322D01*
X021747Y021389D01*
X021747Y021137D01*
X021730Y021150D01*
X021668Y021181D01*
X021603Y021202D01*
X021535Y021213D01*
X021243Y021213D01*
X021243Y020776D01*
X021243Y021213D01*
X020951Y021213D01*
X020883Y021202D01*
X020818Y021181D01*
X020756Y021150D01*
X020701Y021109D01*
X020652Y021061D01*
X020611Y021005D01*
X020580Y020944D01*
X020559Y020878D01*
X020548Y020810D01*
X020548Y020776D01*
X021243Y020776D01*
X021243Y020776D01*
X021243Y020776D01*
X020548Y020776D01*
X020548Y020741D01*
X020559Y020673D01*
X020580Y020608D01*
X020611Y020546D01*
X020652Y020491D01*
X020701Y020442D01*
X020756Y020401D01*
X020818Y020370D01*
X020883Y020349D01*
X020951Y020338D01*
X021243Y020338D01*
X021243Y020776D01*
X021243Y020338D01*
X021535Y020338D01*
X021603Y020349D01*
X021668Y020370D01*
X021730Y020401D01*
X021747Y020414D01*
X021747Y020163D01*
X021587Y020229D01*
X020898Y020229D01*
X020738Y020162D01*
X020615Y020039D01*
X020548Y019878D01*
X020548Y019704D01*
X020615Y019544D01*
X020738Y019420D01*
X020898Y019354D01*
X021587Y019354D01*
X021747Y019420D01*
X021747Y019219D01*
X021735Y018807D01*
X015161Y018807D01*
X015124Y018895D01*
X015032Y018987D01*
X014911Y019038D01*
X014780Y019038D01*
X014659Y018987D01*
X014609Y018938D01*
X015128Y018886D02*
X021737Y018886D01*
X021742Y019045D02*
X012885Y019045D01*
X012890Y019203D02*
X021747Y019203D01*
X021747Y019362D02*
X021606Y019362D01*
X021747Y020313D02*
X013806Y020313D01*
X013806Y020347D02*
X013740Y020508D01*
X013617Y020631D01*
X013456Y020697D01*
X013282Y020697D01*
X013121Y020631D01*
X012998Y020508D01*
X012931Y020347D01*
X012931Y020173D01*
X012998Y020012D01*
X013121Y019889D01*
X013282Y019822D01*
X013456Y019822D01*
X013617Y019889D01*
X013740Y020012D01*
X013806Y020173D01*
X013806Y020347D01*
X013755Y020471D02*
X020671Y020471D01*
X020573Y020630D02*
X013618Y020630D01*
X013369Y020822D02*
X013369Y021260D01*
X013806Y021260D01*
X013369Y021260D01*
X013369Y021260D01*
X013369Y021260D01*
X013369Y020822D01*
X013369Y020947D02*
X013369Y020947D01*
X013369Y021105D02*
X013369Y021105D01*
X013369Y021264D02*
X013369Y021264D01*
X013369Y021422D02*
X013369Y021422D01*
X013369Y021581D02*
X013369Y021581D01*
X013071Y021581D02*
X012966Y021581D01*
X012971Y021739D02*
X020548Y021739D01*
X020569Y021898D02*
X015141Y021898D01*
X015141Y022056D02*
X020663Y022056D01*
X020586Y021581D02*
X013667Y021581D01*
X013776Y021422D02*
X020705Y021422D01*
X020696Y021105D02*
X013779Y021105D01*
X013806Y021264D02*
X021747Y021264D01*
X021243Y021105D02*
X021243Y021105D01*
X021243Y020947D02*
X021243Y020947D01*
X021243Y020788D02*
X021243Y020788D01*
X021243Y020776D02*
X021243Y020776D01*
X021243Y020630D02*
X021243Y020630D01*
X021243Y020471D02*
X021243Y020471D01*
X020730Y020154D02*
X013799Y020154D01*
X013723Y019996D02*
X020597Y019996D01*
X020548Y019837D02*
X013491Y019837D01*
X013247Y019837D02*
X012910Y019837D01*
X012905Y019679D02*
X020559Y019679D01*
X020638Y019520D02*
X012900Y019520D01*
X012895Y019362D02*
X020880Y019362D01*
X020548Y020788D02*
X012941Y020788D01*
X012936Y020630D02*
X013120Y020630D01*
X012983Y020471D02*
X012931Y020471D01*
X012925Y020313D02*
X012931Y020313D01*
X012920Y020154D02*
X012939Y020154D01*
X012915Y019996D02*
X013015Y019996D01*
X012655Y019996D02*
X006263Y019996D01*
X006266Y019999D02*
X006316Y020120D01*
X006316Y020250D01*
X006275Y020350D01*
X009330Y020350D01*
X009427Y020447D01*
X009497Y020447D01*
X009618Y020497D01*
X009711Y020589D01*
X009761Y020710D01*
X009761Y020841D01*
X009761Y020842D01*
X010321Y020842D01*
X010383Y020780D01*
X010383Y020710D01*
X010433Y020589D01*
X010525Y020497D01*
X010646Y020447D01*
X010777Y020447D01*
X010898Y020497D01*
X010990Y020589D01*
X011040Y020710D01*
X011040Y020841D01*
X010990Y020962D01*
X010931Y021022D01*
X010990Y021081D01*
X011040Y021202D01*
X011040Y021333D01*
X010990Y021454D01*
X010898Y021547D01*
X010777Y021597D01*
X010646Y021597D01*
X010525Y021547D01*
X010476Y021497D01*
X009140Y021497D01*
X009006Y021363D01*
X008845Y021202D01*
X005597Y021202D01*
X005463Y021067D01*
X005400Y021005D01*
X004704Y021005D01*
X004149Y021560D01*
X004149Y022248D01*
X004015Y022383D01*
X003815Y022582D01*
X003855Y022679D01*
X003855Y022810D01*
X003805Y022930D01*
X003713Y023023D01*
X003592Y023073D01*
X003461Y023073D01*
X003340Y023023D01*
X003248Y022930D01*
X003198Y022810D01*
X003198Y022679D01*
X003248Y022558D01*
X003297Y022508D01*
X003297Y022452D01*
X003464Y022286D01*
X003461Y022286D01*
X003340Y022236D01*
X003248Y022143D01*
X003198Y022022D01*
X003198Y021892D01*
X003166Y021892D01*
X003045Y021842D01*
X002952Y021749D01*
X002902Y021628D01*
X002902Y021498D01*
X002952Y021377D01*
X003002Y021327D01*
X003002Y020582D01*
X003136Y020448D01*
X003628Y019956D01*
X005751Y019956D01*
X005801Y019906D01*
X005922Y019856D01*
X006053Y019856D01*
X006173Y019906D01*
X006266Y019999D01*
X006316Y020154D02*
X012660Y020154D01*
X012665Y020313D02*
X006290Y020313D01*
X005500Y021105D02*
X004604Y021105D01*
X004445Y021264D02*
X008907Y021264D01*
X009065Y021422D02*
X004287Y021422D01*
X004149Y021581D02*
X010607Y021581D01*
X010816Y021581D02*
X012706Y021581D01*
X012711Y021739D02*
X004149Y021739D01*
X004149Y021898D02*
X012715Y021898D01*
X012805Y022056D02*
X004149Y022056D01*
X004149Y022215D02*
X012931Y022215D01*
X012942Y022373D02*
X004025Y022373D01*
X003866Y022532D02*
X008044Y022532D01*
X008087Y022514D02*
X008218Y022514D01*
X008339Y022564D01*
X008431Y022656D01*
X008481Y022777D01*
X008481Y022847D01*
X009035Y023401D01*
X009294Y023401D01*
X009344Y023351D01*
X009465Y023301D01*
X009596Y023301D01*
X009717Y023351D01*
X009809Y023444D01*
X009859Y023564D01*
X009859Y023695D01*
X009809Y023816D01*
X009717Y023909D01*
X009596Y023959D01*
X009465Y023959D01*
X009344Y023909D01*
X009294Y023859D01*
X008845Y023859D01*
X008711Y023725D01*
X008157Y023171D01*
X008087Y023171D01*
X007966Y023121D01*
X007874Y023029D01*
X007824Y022908D01*
X007824Y022777D01*
X007874Y022656D01*
X007966Y022564D01*
X008087Y022514D01*
X008261Y022532D02*
X013022Y022532D01*
X013264Y022690D02*
X008445Y022690D01*
X008483Y022849D02*
X013219Y022849D01*
X013201Y022854D02*
X013267Y022833D01*
X013335Y022822D01*
X013369Y022822D01*
X013403Y022822D01*
X013471Y022833D01*
X013537Y022854D01*
X013598Y022886D01*
X013654Y022926D01*
X013703Y022975D01*
X013743Y023031D01*
X013774Y023092D01*
X013796Y023157D01*
X013806Y023225D01*
X013806Y023260D01*
X013806Y023294D01*
X013796Y023362D01*
X013774Y023428D01*
X013743Y023489D01*
X013703Y023545D01*
X013654Y023594D01*
X013598Y023634D01*
X013537Y023665D01*
X013471Y023687D01*
X013403Y023697D01*
X013369Y023697D01*
X013369Y023260D01*
X013369Y023260D01*
X013369Y023697D01*
X013335Y023697D01*
X013267Y023687D01*
X013201Y023665D01*
X013140Y023634D01*
X013084Y023594D01*
X013035Y023545D01*
X012995Y023489D01*
X012964Y023428D01*
X012942Y023362D01*
X012931Y023294D01*
X012931Y023260D01*
X013369Y023260D01*
X013806Y023260D01*
X013369Y023260D01*
X013369Y023260D01*
X013369Y023260D01*
X012931Y023260D01*
X012931Y023225D01*
X012942Y023157D01*
X012964Y023092D01*
X012995Y023031D01*
X013035Y022975D01*
X013084Y022926D01*
X013140Y022886D01*
X013201Y022854D01*
X013369Y022849D02*
X013369Y022849D01*
X013369Y022822D02*
X013369Y023260D01*
X013369Y023260D01*
X013369Y022822D01*
X013519Y022849D02*
X021747Y022849D01*
X021747Y023007D02*
X013726Y023007D01*
X013797Y023166D02*
X021747Y023166D01*
X021747Y023324D02*
X013802Y023324D01*
X013747Y023483D02*
X021747Y023483D01*
X021747Y023641D02*
X013584Y023641D01*
X013369Y023641D02*
X013369Y023641D01*
X013369Y023483D02*
X013369Y023483D01*
X013369Y023324D02*
X013369Y023324D01*
X013369Y023166D02*
X013369Y023166D01*
X013369Y023007D02*
X013369Y023007D01*
X013474Y022690D02*
X021747Y022690D01*
X021747Y022532D02*
X013716Y022532D01*
X013796Y022373D02*
X014992Y022373D01*
X014884Y022215D02*
X013806Y022215D01*
X013012Y023007D02*
X008641Y023007D01*
X008800Y023166D02*
X012941Y023166D01*
X012936Y023324D02*
X009651Y023324D01*
X009825Y023483D02*
X012991Y023483D01*
X013153Y023641D02*
X009859Y023641D01*
X009816Y023800D02*
X020290Y023800D01*
X020090Y023958D02*
X009598Y023958D01*
X009463Y023958D02*
X002317Y023958D01*
X002450Y024117D02*
X019957Y024117D01*
X019866Y024275D02*
X011796Y024275D01*
X011782Y024268D02*
X011849Y024302D01*
X011910Y024346D01*
X011963Y024400D01*
X012008Y024461D01*
X012042Y024528D01*
X012066Y024600D01*
X012077Y024675D01*
X012077Y024713D01*
X012077Y024750D01*
X012066Y024825D01*
X012042Y024897D01*
X012008Y024964D01*
X011963Y025025D01*
X011910Y025079D01*
X011849Y025123D01*
X011782Y025157D01*
X011710Y025181D01*
X011635Y025193D01*
X011597Y025193D01*
X011560Y025193D01*
X011485Y025181D01*
X011413Y025157D01*
X011346Y025123D01*
X011285Y025079D01*
X011231Y025025D01*
X011208Y024993D01*
X011082Y025120D01*
X010905Y025193D01*
X010714Y025193D01*
X010538Y025120D01*
X010416Y024998D01*
X010294Y025120D01*
X010118Y025193D01*
X009927Y025193D01*
X009751Y025120D01*
X009629Y024998D01*
X009507Y025120D01*
X009331Y025193D01*
X009140Y025193D01*
X008963Y025120D01*
X008841Y024998D01*
X008720Y025120D01*
X008543Y025193D01*
X008352Y025193D01*
X008176Y025120D01*
X008054Y024998D01*
X007932Y025120D01*
X007756Y025193D01*
X007565Y025193D01*
X007388Y025120D01*
X007267Y024998D01*
X007145Y025120D01*
X006968Y025193D01*
X006777Y025193D01*
X006601Y025120D01*
X006479Y024998D01*
X006357Y025120D01*
X006181Y025193D01*
X005990Y025193D01*
X005814Y025120D01*
X005692Y024998D01*
X005570Y025120D01*
X005394Y025193D01*
X005203Y025193D01*
X005026Y025120D01*
X004904Y024998D01*
X004783Y025120D01*
X004606Y025193D01*
X004415Y025193D01*
X004239Y025120D01*
X004104Y024984D01*
X004031Y024808D01*
X004031Y024617D01*
X004104Y024441D01*
X004239Y024306D01*
X004415Y024233D01*
X004606Y024233D01*
X004783Y024306D01*
X004904Y024427D01*
X005026Y024306D01*
X005203Y024233D01*
X005394Y024233D01*
X005570Y024306D01*
X005692Y024427D01*
X005814Y024306D01*
X005990Y024233D01*
X006181Y024233D01*
X006357Y024306D01*
X006479Y024427D01*
X006601Y024306D01*
X006777Y024233D01*
X006968Y024233D01*
X007145Y024306D01*
X007267Y024427D01*
X007388Y024306D01*
X007565Y024233D01*
X007756Y024233D01*
X007932Y024306D01*
X008054Y024427D01*
X008176Y024306D01*
X008352Y024233D01*
X008543Y024233D01*
X008720Y024306D01*
X008841Y024427D01*
X008963Y024306D01*
X009140Y024233D01*
X009331Y024233D01*
X009507Y024306D01*
X009629Y024427D01*
X009751Y024306D01*
X009927Y024233D01*
X010118Y024233D01*
X010294Y024306D01*
X010416Y024427D01*
X010538Y024306D01*
X010714Y024233D01*
X010905Y024233D01*
X011082Y024306D01*
X011208Y024432D01*
X011231Y024400D01*
X011285Y024346D01*
X011346Y024302D01*
X011413Y024268D01*
X011485Y024244D01*
X011560Y024233D01*
X011597Y024233D01*
X011597Y024713D01*
X011597Y025193D01*
X011597Y024713D01*
X011597Y024713D01*
X012077Y024713D01*
X011597Y024713D01*
X011597Y024713D01*
X011597Y024713D01*
X011597Y024233D01*
X011635Y024233D01*
X011710Y024244D01*
X011782Y024268D01*
X011597Y024275D02*
X011597Y024275D01*
X011597Y024434D02*
X011597Y024434D01*
X011597Y024592D02*
X011597Y024592D01*
X011597Y024751D02*
X011597Y024751D01*
X011597Y024909D02*
X011597Y024909D01*
X011597Y025068D02*
X011597Y025068D01*
X011921Y025068D02*
X019836Y025068D01*
X019794Y024909D02*
X012036Y024909D01*
X012077Y024751D02*
X019779Y024751D01*
X019779Y024592D02*
X012063Y024592D01*
X011988Y024434D02*
X019816Y024434D01*
X019910Y025226D02*
X002498Y025226D01*
X002571Y025068D02*
X004187Y025068D01*
X004073Y024909D02*
X002614Y024909D01*
X002629Y024751D02*
X004031Y024751D01*
X004041Y024592D02*
X002629Y024592D01*
X002591Y024434D02*
X004111Y024434D01*
X004313Y024275D02*
X002541Y024275D01*
X002118Y023800D02*
X008785Y023800D01*
X008627Y023641D02*
X000660Y023641D01*
X000660Y023483D02*
X008468Y023483D01*
X008310Y023324D02*
X000660Y023324D01*
X000660Y023166D02*
X000749Y023166D01*
X000660Y023800D02*
X000998Y023800D01*
X000799Y023958D02*
X000660Y023958D01*
X000660Y024117D02*
X000666Y024117D01*
X001367Y023166D02*
X001749Y023166D01*
X001859Y023275D02*
X001578Y022994D01*
X001578Y022815D01*
X002038Y022815D01*
X002038Y022775D01*
X002078Y022775D01*
X002078Y022315D01*
X002257Y022315D01*
X002538Y022596D01*
X002538Y022775D01*
X002078Y022775D01*
X002078Y022815D01*
X002538Y022815D01*
X002538Y022994D01*
X002257Y023275D01*
X002078Y023275D01*
X002078Y022815D01*
X002038Y022815D01*
X002038Y023275D01*
X001859Y023275D01*
X002038Y023166D02*
X002078Y023166D01*
X002078Y023007D02*
X002038Y023007D01*
X002038Y022849D02*
X002078Y022849D01*
X002038Y022775D02*
X001578Y022775D01*
X001578Y022596D01*
X001859Y022315D01*
X002038Y022315D01*
X002038Y022775D01*
X002038Y022690D02*
X002078Y022690D01*
X002078Y022532D02*
X002038Y022532D01*
X002038Y022373D02*
X002078Y022373D01*
X002257Y022275D02*
X001859Y022275D01*
X001578Y021994D01*
X001578Y021596D01*
X001859Y021315D01*
X002257Y021315D01*
X002538Y021596D01*
X002538Y021994D01*
X002257Y022275D01*
X002318Y022215D02*
X003319Y022215D01*
X003377Y022373D02*
X002315Y022373D01*
X002473Y022532D02*
X003274Y022532D01*
X003198Y022690D02*
X002538Y022690D01*
X002538Y022849D02*
X003214Y022849D01*
X003324Y023007D02*
X002525Y023007D01*
X002367Y023166D02*
X008073Y023166D01*
X007865Y023007D02*
X003729Y023007D01*
X003839Y022849D02*
X007824Y022849D01*
X007860Y022690D02*
X003855Y022690D01*
X003212Y022056D02*
X002476Y022056D01*
X002538Y021898D02*
X003198Y021898D01*
X002948Y021739D02*
X002538Y021739D01*
X002522Y021581D02*
X002902Y021581D01*
X002934Y021422D02*
X002364Y021422D01*
X002257Y021275D02*
X002538Y020994D01*
X002538Y020596D01*
X002257Y020315D01*
X001859Y020315D01*
X001578Y020596D01*
X001578Y020994D01*
X001859Y021275D01*
X002257Y021275D01*
X002269Y021264D02*
X003002Y021264D01*
X003002Y021105D02*
X002427Y021105D01*
X002538Y020947D02*
X003002Y020947D01*
X003002Y020788D02*
X002538Y020788D01*
X002538Y020630D02*
X003002Y020630D01*
X003113Y020471D02*
X002413Y020471D01*
X002257Y020275D02*
X002538Y019994D01*
X002538Y019596D01*
X002257Y019315D01*
X001859Y019315D01*
X001578Y019596D01*
X001578Y019994D01*
X001859Y020275D01*
X002257Y020275D01*
X002378Y020154D02*
X003430Y020154D01*
X003272Y020313D02*
X000660Y020313D01*
X000660Y020471D02*
X000703Y020471D01*
X000738Y020154D02*
X000660Y020154D01*
X001038Y020154D02*
X001078Y020154D01*
X001078Y019996D02*
X001038Y019996D01*
X001038Y019837D02*
X001078Y019837D01*
X001078Y019679D02*
X001038Y019679D01*
X001038Y019520D02*
X001078Y019520D01*
X001078Y019362D02*
X001038Y019362D01*
X000813Y019362D02*
X000660Y019362D01*
X000660Y019203D02*
X000787Y019203D01*
X001303Y019362D02*
X001813Y019362D01*
X001787Y019203D02*
X001329Y019203D01*
X001488Y019045D02*
X001628Y019045D01*
X001578Y018886D02*
X001538Y018886D01*
X001538Y018728D02*
X001578Y018728D01*
X001605Y018569D02*
X001511Y018569D01*
X001352Y018411D02*
X001764Y018411D01*
X001836Y018252D02*
X001280Y018252D01*
X001078Y018252D02*
X001038Y018252D01*
X001038Y018094D02*
X001078Y018094D01*
X001078Y017935D02*
X001038Y017935D01*
X001078Y017777D02*
X001578Y017777D01*
X001578Y017935D02*
X001538Y017935D01*
X001439Y018094D02*
X001677Y018094D01*
X001578Y017618D02*
X001538Y017618D01*
X001401Y017460D02*
X001715Y017460D01*
X001726Y017143D02*
X001390Y017143D01*
X001538Y016984D02*
X001578Y016984D01*
X001578Y016826D02*
X001538Y016826D01*
X001538Y016667D02*
X001578Y016667D01*
X001666Y016509D02*
X001450Y016509D01*
X001292Y016350D02*
X001824Y016350D01*
X001859Y016275D02*
X001578Y015994D01*
X001578Y015815D01*
X002038Y015815D01*
X002038Y016275D01*
X001859Y016275D01*
X001775Y016192D02*
X001341Y016192D01*
X001499Y016033D02*
X001617Y016033D01*
X001578Y015875D02*
X001538Y015875D01*
X001578Y015775D02*
X001578Y015596D01*
X001859Y015315D01*
X002038Y015315D01*
X002038Y015775D01*
X001578Y015775D01*
X001578Y015716D02*
X001538Y015716D01*
X001499Y015558D02*
X001617Y015558D01*
X001775Y015399D02*
X001341Y015399D01*
X001292Y015241D02*
X001824Y015241D01*
X001666Y015082D02*
X001450Y015082D01*
X001538Y014924D02*
X001578Y014924D01*
X001578Y014765D02*
X001538Y014765D01*
X001538Y014607D02*
X001578Y014607D01*
X001726Y014448D02*
X001390Y014448D01*
X001401Y014131D02*
X001715Y014131D01*
X001578Y013973D02*
X001538Y013973D01*
X001538Y013814D02*
X001578Y013814D01*
X001578Y013656D02*
X001538Y013656D01*
X001439Y013497D02*
X001677Y013497D01*
X002280Y013339D02*
X002421Y013339D01*
X002421Y013180D02*
X002352Y013180D01*
X002401Y014131D02*
X002421Y014131D01*
X002421Y014290D02*
X000660Y014290D01*
X000660Y014448D02*
X000726Y014448D01*
X000715Y014131D02*
X000660Y014131D01*
X000660Y015082D02*
X000666Y015082D01*
X000660Y015241D02*
X000824Y015241D01*
X000775Y015399D02*
X000660Y015399D01*
X000660Y016192D02*
X000775Y016192D01*
X000824Y016350D02*
X000660Y016350D01*
X000660Y016509D02*
X000666Y016509D01*
X000660Y017143D02*
X000726Y017143D01*
X000660Y017301D02*
X002115Y017301D01*
X002292Y016350D02*
X002421Y016350D01*
X002421Y016192D02*
X002341Y016192D01*
X002078Y016192D02*
X002038Y016192D01*
X002038Y016033D02*
X002078Y016033D01*
X002078Y015875D02*
X002038Y015875D01*
X002038Y015716D02*
X002078Y015716D01*
X002078Y015558D02*
X002038Y015558D01*
X002038Y015399D02*
X002078Y015399D01*
X002341Y015399D02*
X002421Y015399D01*
X002421Y015241D02*
X002292Y015241D01*
X002390Y014448D02*
X002421Y014448D01*
X001078Y017460D02*
X001038Y017460D01*
X001038Y017618D02*
X001078Y017618D01*
X000715Y017460D02*
X000660Y017460D01*
X000660Y018094D02*
X000677Y018094D01*
X000660Y018252D02*
X000836Y018252D01*
X000764Y018411D02*
X000660Y018411D01*
X001462Y019520D02*
X001654Y019520D01*
X001578Y019679D02*
X001538Y019679D01*
X001538Y019837D02*
X001578Y019837D01*
X001579Y019996D02*
X001537Y019996D01*
X001378Y020154D02*
X001738Y020154D01*
X001703Y020471D02*
X001413Y020471D01*
X001538Y020630D02*
X001578Y020630D01*
X001578Y020788D02*
X001538Y020788D01*
X001538Y020947D02*
X001578Y020947D01*
X001689Y021105D02*
X001427Y021105D01*
X001269Y021264D02*
X001847Y021264D01*
X001752Y021422D02*
X001364Y021422D01*
X001522Y021581D02*
X001594Y021581D01*
X001578Y021739D02*
X001538Y021739D01*
X001538Y021898D02*
X001578Y021898D01*
X001640Y022056D02*
X001476Y022056D01*
X001318Y022215D02*
X001798Y022215D01*
X001801Y022373D02*
X001315Y022373D01*
X001473Y022532D02*
X001643Y022532D01*
X001578Y022690D02*
X001538Y022690D01*
X001538Y022849D02*
X001578Y022849D01*
X001591Y023007D02*
X001525Y023007D01*
X000801Y022373D02*
X000660Y022373D01*
X000660Y022215D02*
X000798Y022215D01*
X000752Y021422D02*
X000660Y021422D01*
X000660Y021264D02*
X000847Y021264D01*
X000689Y021105D02*
X000660Y021105D01*
X002303Y019362D02*
X012635Y019362D01*
X012640Y019520D02*
X002462Y019520D01*
X002538Y019679D02*
X012645Y019679D01*
X012650Y019837D02*
X002538Y019837D01*
X002537Y019996D02*
X003589Y019996D01*
X002329Y019203D02*
X012629Y019203D01*
X012670Y020471D02*
X010836Y020471D01*
X011007Y020630D02*
X012676Y020630D01*
X012681Y020788D02*
X011040Y020788D01*
X010997Y020947D02*
X012686Y020947D01*
X012691Y021105D02*
X011000Y021105D01*
X011040Y021264D02*
X012696Y021264D01*
X012701Y021422D02*
X011004Y021422D01*
X010375Y020788D02*
X009761Y020788D01*
X009727Y020630D02*
X010416Y020630D01*
X010587Y020471D02*
X009556Y020471D01*
X009409Y023324D02*
X008958Y023324D01*
X009037Y024275D02*
X008646Y024275D01*
X008250Y024275D02*
X007858Y024275D01*
X007462Y024275D02*
X007071Y024275D01*
X006675Y024275D02*
X006283Y024275D01*
X005888Y024275D02*
X005496Y024275D01*
X005100Y024275D02*
X004709Y024275D01*
X004835Y025068D02*
X004974Y025068D01*
X005622Y025068D02*
X005762Y025068D01*
X006409Y025068D02*
X006549Y025068D01*
X007197Y025068D02*
X007336Y025068D01*
X007984Y025068D02*
X008124Y025068D01*
X008772Y025068D02*
X008911Y025068D01*
X009433Y024275D02*
X009825Y024275D01*
X010220Y024275D02*
X010612Y024275D01*
X011008Y024275D02*
X011399Y024275D01*
X011273Y025068D02*
X011134Y025068D01*
X010486Y025068D02*
X010346Y025068D01*
X009699Y025068D02*
X009559Y025068D01*
X012951Y021105D02*
X012959Y021105D01*
X012946Y020947D02*
X013064Y020947D01*
X012962Y021422D02*
X012961Y021422D01*
X013674Y020947D02*
X020582Y020947D01*
X021409Y023800D02*
X021747Y023800D01*
X021747Y023958D02*
X021609Y023958D01*
X021741Y024117D02*
X021747Y024117D01*
X021747Y025385D02*
X021691Y025385D01*
X021747Y025543D02*
X021533Y025543D01*
X021747Y025702D02*
X021277Y025702D01*
X021747Y025860D02*
X000660Y025860D01*
X000660Y025702D02*
X001130Y025702D01*
X000874Y025543D02*
X000660Y025543D01*
X000660Y025385D02*
X000716Y025385D01*
X000660Y026019D02*
X021747Y026019D01*
X021747Y026177D02*
X000660Y026177D01*
X000660Y026336D02*
X021747Y026336D01*
X021747Y026494D02*
X000660Y026494D01*
X000660Y026653D02*
X021747Y026653D01*
X021747Y026811D02*
X000660Y026811D01*
X000660Y026970D02*
X021747Y026970D01*
X021747Y027128D02*
X000660Y027128D01*
X000660Y027287D02*
X021747Y027287D01*
X021747Y027445D02*
X000660Y027445D01*
X000660Y027604D02*
X021747Y027604D01*
X021747Y027762D02*
X000660Y027762D01*
X000660Y027921D02*
X021747Y027921D01*
X021747Y028079D02*
X000660Y028079D01*
X000660Y028238D02*
X021747Y028238D01*
X021747Y028396D02*
X000660Y028396D01*
X000660Y028555D02*
X021747Y028555D01*
X021747Y028713D02*
X000660Y028713D01*
X000660Y028872D02*
X021747Y028872D01*
X021747Y029030D02*
X000660Y029030D01*
X000660Y029189D02*
X021747Y029189D01*
X021747Y029347D02*
X000660Y029347D01*
X000660Y029506D02*
X021747Y029506D01*
X021747Y029664D02*
X000660Y029664D01*
X000660Y029823D02*
X021747Y029823D01*
X021747Y029981D02*
X000660Y029981D01*
X000660Y030140D02*
X021747Y030140D01*
X021747Y030298D02*
X000660Y030298D01*
X000660Y030457D02*
X021747Y030457D01*
X021747Y030615D02*
X000660Y030615D01*
X000660Y030774D02*
X021747Y030774D01*
X021747Y030932D02*
X000660Y030932D01*
X000660Y031091D02*
X021747Y031091D01*
X021747Y031249D02*
X000660Y031249D01*
X000660Y031408D02*
X021747Y031408D01*
X021747Y031566D02*
X000660Y031566D01*
X000660Y031725D02*
X021747Y031725D01*
X021747Y031883D02*
X000660Y031883D01*
X000660Y032042D02*
X021747Y032042D01*
X021747Y032200D02*
X000660Y032200D01*
X000660Y032359D02*
X021747Y032359D01*
X021747Y032517D02*
X000660Y032517D01*
X000660Y032676D02*
X021747Y032676D01*
X021744Y032834D02*
X000671Y032834D01*
X000723Y032993D02*
X004213Y032993D01*
X004084Y033151D02*
X000813Y033151D01*
X000964Y033310D02*
X004031Y033310D01*
X004031Y033468D02*
X001314Y033468D01*
X004808Y032993D02*
X005001Y032993D01*
X005595Y032993D02*
X005788Y032993D01*
X006383Y032993D02*
X006576Y032993D01*
X007170Y032993D02*
X007363Y032993D01*
X007958Y032993D02*
X008150Y032993D01*
X008745Y032993D02*
X008938Y032993D01*
X009532Y032993D02*
X009725Y032993D01*
X010320Y032993D02*
X010513Y032993D01*
X011107Y032993D02*
X011300Y032993D01*
X011895Y032993D02*
X021710Y032993D01*
X021637Y033151D02*
X012025Y033151D01*
X012077Y033310D02*
X021503Y033310D01*
X021177Y033468D02*
X012077Y033468D01*
X020007Y025385D02*
X002400Y025385D01*
X002241Y025543D02*
X020166Y025543D01*
X020421Y025702D02*
X001986Y025702D01*
X013459Y006523D02*
X019832Y006523D01*
X019832Y006365D02*
X006835Y006365D01*
X006931Y006206D02*
X019832Y006206D01*
X019832Y006048D02*
X006960Y006048D01*
X006608Y005572D02*
X012950Y005572D01*
X011597Y005421D02*
X011400Y005815D01*
X008546Y006012D02*
X008349Y005815D01*
D17*
X008546Y006012D03*
X007857Y007193D03*
X007365Y009949D03*
X007956Y011819D03*
X008349Y011819D03*
X008645Y012114D03*
X008940Y011819D03*
X009432Y011130D03*
X010121Y011622D03*
X010416Y011917D03*
X010908Y011917D03*
X010023Y013394D03*
X010416Y013689D03*
X011794Y013787D03*
X013074Y012803D03*
X013467Y012508D03*
X014747Y010638D03*
X014747Y008866D03*
X013271Y006799D03*
X013074Y008669D03*
X011893Y008866D03*
X011893Y009358D03*
X010416Y008866D03*
X011400Y005815D03*
X014649Y004634D03*
X014649Y003059D03*
X016420Y002961D03*
X018979Y003650D03*
X016519Y008571D03*
X019176Y009654D03*
X016617Y014181D03*
X014845Y014969D03*
X014747Y016248D03*
X013467Y018413D03*
X014845Y018709D03*
X016715Y020185D03*
X018290Y021760D03*
X014649Y022252D03*
X014649Y021268D03*
X011893Y018413D03*
X011893Y017921D03*
X010416Y018020D03*
X008940Y018118D03*
X008645Y018709D03*
X008349Y018413D03*
X007857Y018413D03*
X007463Y019004D03*
X005987Y020185D03*
X005200Y019890D03*
X005200Y021071D03*
X003526Y021169D03*
X003231Y021563D03*
X003526Y021957D03*
X003231Y022350D03*
X003526Y022744D03*
X004412Y018413D03*
X004117Y015756D03*
X004117Y014575D03*
X003625Y013098D03*
X003428Y012705D03*
X003625Y012311D03*
X003428Y011917D03*
X003723Y011524D03*
X002641Y010933D03*
X002542Y012213D03*
X004904Y010539D03*
X006086Y011031D03*
X005141Y012272D03*
X004117Y008768D03*
X007660Y014083D03*
X008349Y015461D03*
X008645Y015165D03*
X008940Y014772D03*
X007857Y016740D03*
X009432Y020776D03*
X008546Y021268D03*
X007857Y022547D03*
X008152Y022843D03*
X007463Y023039D03*
X009530Y023630D03*
X010711Y021268D03*
X010711Y020776D03*
X011794Y020972D03*
X011696Y022744D03*
X019176Y015264D03*
X002641Y016740D03*
X002444Y017331D03*
D18*
X001058Y015795D02*
X001058Y015764D01*
X003231Y012705D02*
X003428Y012705D01*
X003625Y013098D02*
X003920Y012803D01*
X003920Y012114D01*
X004117Y011917D01*
X004412Y011917D01*
X004708Y011622D01*
X005593Y011622D01*
X005692Y011720D01*
X006381Y011720D01*
X006676Y011425D01*
X009038Y011425D01*
X009235Y011622D01*
X009530Y011622D01*
X009826Y011917D01*
X010416Y011917D01*
X010121Y011622D02*
X009924Y011425D01*
X009334Y011425D01*
X009137Y011228D01*
X006578Y011228D01*
X006282Y011524D01*
X005790Y011524D01*
X005692Y011425D01*
X004609Y011425D01*
X004314Y011720D01*
X004019Y011720D01*
X003625Y012114D01*
X003625Y012311D01*
X003428Y011917D02*
X003428Y011130D01*
X003526Y011031D01*
X006086Y011031D01*
X006184Y011327D02*
X005889Y011327D01*
X005790Y011228D01*
X004511Y011228D01*
X004215Y011524D01*
X003723Y011524D01*
X004806Y010638D02*
X004904Y010539D01*
X005003Y012114D02*
X005141Y012272D01*
X006184Y011327D02*
X006479Y011031D01*
X009334Y011031D01*
X009432Y011130D01*
X010810Y011917D02*
X010908Y011917D01*
X011794Y013787D02*
X011794Y013886D01*
X013271Y012508D02*
X013369Y012508D01*
X013467Y012508D01*
X011893Y009358D02*
X012385Y008866D01*
X012582Y008669D01*
X013074Y008669D01*
X012877Y008374D02*
X012778Y008472D01*
X012286Y008472D01*
X011893Y008866D01*
X012877Y008374D02*
X012877Y007193D01*
X013271Y006799D01*
X010416Y008866D02*
X010416Y009063D01*
X007463Y009949D02*
X007365Y009949D01*
X007660Y014083D02*
X007660Y014181D01*
X007857Y016740D02*
X007857Y017626D01*
X007660Y019004D02*
X007463Y019004D01*
X005987Y020185D02*
X003723Y020185D01*
X003231Y020677D01*
X003231Y021563D01*
X003526Y021563D02*
X003526Y021957D01*
X003526Y021563D02*
X004511Y020579D01*
X005593Y020579D01*
X005790Y020776D01*
X009038Y020776D01*
X009334Y021071D01*
X010416Y021071D01*
X010711Y020776D01*
X010711Y021268D02*
X009235Y021268D01*
X008940Y020972D01*
X005692Y020972D01*
X005495Y020776D01*
X004609Y020776D01*
X003920Y021465D01*
X003920Y022154D01*
X003526Y022547D01*
X003526Y022744D01*
X003231Y022350D02*
X003034Y022350D01*
X003526Y021169D02*
X003526Y020677D01*
X003822Y020382D01*
X005692Y020382D01*
X005889Y020579D01*
X009235Y020579D01*
X009432Y020776D01*
X008546Y021169D02*
X008546Y021268D01*
X008152Y022843D02*
X008940Y023630D01*
X009530Y023630D01*
X007463Y023039D02*
X006774Y023039D01*
X005200Y021071D02*
X004806Y021071D01*
X005200Y019890D02*
X004904Y019693D01*
X004412Y018413D02*
X004117Y018217D01*
X004117Y008768D02*
X004117Y008571D01*
X011893Y017921D02*
X012385Y018413D01*
X012877Y018413D01*
X013467Y018413D01*
X013172Y018709D02*
X012188Y018709D01*
X011893Y018413D01*
X013172Y018709D02*
X014845Y018709D01*
X011794Y020972D02*
X011499Y021465D01*
X011696Y022744D02*
X011696Y022941D01*
D19*
X014353Y022350D02*
X014452Y022252D01*
X014649Y022252D01*
X014649Y021268D02*
X014550Y021268D01*
X016519Y020185D02*
X016715Y020185D01*
X018290Y021760D02*
X018389Y021760D01*
X014747Y016248D02*
X014452Y016248D01*
X014747Y014969D02*
X014845Y014969D01*
X016519Y014181D02*
X016617Y014181D01*
X014747Y010638D02*
X014649Y010539D01*
X014747Y008965D02*
X014747Y008866D01*
X016420Y008472D02*
X016519Y008571D01*
X019176Y009654D02*
X019274Y009654D01*
X019176Y015264D02*
X019274Y015264D01*
X013271Y012508D02*
X012089Y012508D01*
X011204Y013394D01*
X010023Y013394D01*
X010416Y013689D02*
X011204Y013689D01*
X012089Y012803D01*
X013074Y012803D01*
X008940Y011819D02*
X008940Y014772D01*
X008940Y018118D01*
X008645Y018709D02*
X008645Y015165D01*
X008645Y012114D01*
X008349Y011917D02*
X008349Y011819D01*
X008349Y011917D02*
X008349Y015461D01*
X008349Y018413D01*
X008152Y018118D02*
X008152Y016150D01*
X007759Y015756D01*
X004117Y015756D01*
X004117Y014575D02*
X004117Y014083D01*
X004117Y012508D01*
X004708Y011917D01*
X006479Y011917D01*
X006578Y011819D01*
X007956Y011819D01*
X008152Y018118D02*
X007857Y018413D01*
X002641Y016740D02*
X002641Y012311D01*
X002542Y012213D01*
X014353Y004535D02*
X014452Y004634D01*
X014649Y004634D01*
X014649Y003059D02*
X014550Y003059D01*
X016322Y002961D02*
X016420Y002961D01*
X018979Y003650D02*
X018979Y003748D01*
X019078Y003846D01*
D20*
X019990Y002470D02*
X013776Y002470D01*
X013776Y002526D02*
X013714Y002676D01*
X013600Y002790D01*
X013450Y002852D01*
X013288Y002852D01*
X013138Y002790D01*
X013024Y002676D01*
X012961Y002526D01*
X012961Y002364D01*
X013024Y002214D01*
X013138Y002099D01*
X013288Y002037D01*
X013450Y002037D01*
X013600Y002099D01*
X013714Y002214D01*
X013776Y002364D01*
X013776Y002526D01*
X013759Y002569D02*
X020068Y002569D01*
X020017Y002517D02*
X019880Y002280D01*
X019809Y002015D01*
X019809Y001741D01*
X019880Y001476D01*
X020017Y001239D01*
X020210Y001045D01*
X020375Y000950D01*
X012877Y000950D01*
X012877Y003846D01*
X013300Y003846D01*
X013274Y003842D01*
X013213Y003823D01*
X013155Y003793D01*
X013104Y003756D01*
X013058Y003710D01*
X013020Y003658D01*
X012991Y003601D01*
X012972Y003540D01*
X012961Y003477D01*
X012961Y003474D01*
X013340Y003474D01*
X013340Y003416D01*
X012961Y003416D01*
X012961Y003413D01*
X012972Y003349D01*
X012991Y003288D01*
X013020Y003231D01*
X013058Y003179D01*
X013104Y003134D01*
X013155Y003096D01*
X013213Y003067D01*
X013274Y003047D01*
X013337Y003037D01*
X013340Y003037D01*
X013340Y003416D01*
X013398Y003416D01*
X013398Y003474D01*
X013776Y003474D01*
X013776Y003477D01*
X013766Y003540D01*
X013747Y003601D01*
X013717Y003658D01*
X013680Y003710D01*
X013634Y003756D01*
X013583Y003793D01*
X013525Y003823D01*
X013464Y003842D01*
X013438Y003846D01*
X020062Y003846D01*
X020062Y006701D01*
X021777Y006701D01*
X021777Y006508D01*
X021731Y006554D01*
X021582Y006616D01*
X020904Y006616D01*
X020755Y006554D01*
X020640Y006439D01*
X020578Y006290D01*
X020578Y006128D01*
X020640Y005978D01*
X020755Y005863D01*
X020904Y005801D01*
X021582Y005801D01*
X021731Y005863D01*
X021777Y005909D01*
X021777Y005524D01*
X021766Y005535D01*
X021714Y005573D01*
X021657Y005602D01*
X021596Y005622D01*
X021533Y005632D01*
X021272Y005632D01*
X021272Y005253D01*
X021214Y005253D01*
X021214Y005196D01*
X020578Y005196D01*
X020578Y005192D01*
X020588Y005129D01*
X020608Y005068D01*
X020637Y005011D01*
X020675Y004959D01*
X020720Y004914D01*
X020772Y004876D01*
X020829Y004847D01*
X020890Y004827D01*
X020953Y004817D01*
X021214Y004817D01*
X021214Y005196D01*
X021272Y005196D01*
X021272Y004817D01*
X021533Y004817D01*
X021596Y004827D01*
X021657Y004847D01*
X021714Y004876D01*
X021766Y004914D01*
X021777Y004925D01*
X021777Y004540D01*
X021731Y004586D01*
X021582Y004648D01*
X020904Y004648D01*
X020755Y004586D01*
X020640Y004471D01*
X020578Y004321D01*
X020578Y004159D01*
X020640Y004009D01*
X020755Y003895D01*
X020904Y003833D01*
X021582Y003833D01*
X021731Y003895D01*
X021777Y003941D01*
X021777Y002352D01*
X021682Y002517D01*
X021488Y002711D01*
X021251Y002848D01*
X020986Y002919D01*
X020712Y002919D01*
X020448Y002848D01*
X020210Y002711D01*
X020017Y002517D01*
X019933Y002372D02*
X013776Y002372D01*
X013739Y002273D02*
X019878Y002273D01*
X019851Y002175D02*
X013675Y002175D01*
X013543Y002076D02*
X019825Y002076D01*
X019809Y001978D02*
X012877Y001978D01*
X012877Y002076D02*
X013195Y002076D01*
X013063Y002175D02*
X012877Y002175D01*
X012877Y002273D02*
X012999Y002273D01*
X012961Y002372D02*
X012877Y002372D01*
X012877Y002470D02*
X012961Y002470D01*
X012979Y002569D02*
X012877Y002569D01*
X012877Y002667D02*
X013020Y002667D01*
X013113Y002766D02*
X012877Y002766D01*
X012877Y002864D02*
X020509Y002864D01*
X020305Y002766D02*
X013625Y002766D01*
X013718Y002667D02*
X020167Y002667D01*
X019809Y001879D02*
X012877Y001879D01*
X012877Y001781D02*
X019809Y001781D01*
X019825Y001682D02*
X012877Y001682D01*
X012877Y001584D02*
X019851Y001584D01*
X019877Y001485D02*
X012877Y001485D01*
X012877Y001387D02*
X019932Y001387D01*
X019988Y001288D02*
X012877Y001288D01*
X012877Y001190D02*
X020066Y001190D01*
X020165Y001091D02*
X012877Y001091D01*
X012877Y000993D02*
X020302Y000993D01*
X021532Y002667D02*
X021777Y002667D01*
X021777Y002569D02*
X021630Y002569D01*
X021709Y002470D02*
X021777Y002470D01*
X021766Y002372D02*
X021777Y002372D01*
X021777Y002766D02*
X021393Y002766D01*
X021190Y002864D02*
X021777Y002864D01*
X021777Y002963D02*
X012877Y002963D01*
X012877Y003061D02*
X013232Y003061D01*
X013340Y003061D02*
X013398Y003061D01*
X013398Y003037D02*
X013401Y003037D01*
X013464Y003047D01*
X013525Y003067D01*
X013583Y003096D01*
X013634Y003134D01*
X013680Y003179D01*
X013717Y003231D01*
X013747Y003288D01*
X013766Y003349D01*
X013776Y003413D01*
X013776Y003416D01*
X013398Y003416D01*
X013398Y003037D01*
X013506Y003061D02*
X021777Y003061D01*
X021777Y003160D02*
X013660Y003160D01*
X013731Y003258D02*
X021777Y003258D01*
X021777Y003357D02*
X013768Y003357D01*
X013762Y003554D02*
X021777Y003554D01*
X021777Y003652D02*
X013721Y003652D01*
X013640Y003751D02*
X021777Y003751D01*
X021777Y003849D02*
X021621Y003849D01*
X021777Y003455D02*
X013398Y003455D01*
X013340Y003455D02*
X012877Y003455D01*
X012877Y003357D02*
X012970Y003357D01*
X013007Y003258D02*
X012877Y003258D01*
X012877Y003160D02*
X013078Y003160D01*
X013340Y003160D02*
X013398Y003160D01*
X013398Y003258D02*
X013340Y003258D01*
X013340Y003357D02*
X013398Y003357D01*
X012976Y003554D02*
X012877Y003554D01*
X012877Y003652D02*
X013017Y003652D01*
X013098Y003751D02*
X012877Y003751D01*
X013553Y006898D02*
X013524Y006969D01*
X013440Y007053D01*
X013330Y007098D01*
X013253Y007098D01*
X013076Y007275D01*
X013076Y007969D01*
X013138Y007907D01*
X013288Y007844D01*
X013450Y007844D01*
X013600Y007907D01*
X013714Y008021D01*
X013776Y008171D01*
X013776Y008333D01*
X013714Y008483D01*
X013600Y008597D01*
X013450Y008659D01*
X013373Y008659D01*
X013373Y008729D01*
X013327Y008839D01*
X013318Y008847D01*
X013337Y008844D01*
X013340Y008844D01*
X013340Y009223D01*
X013398Y009223D01*
X013398Y009281D01*
X013340Y009281D01*
X013340Y009659D01*
X013337Y009659D01*
X013274Y009649D01*
X013213Y009630D01*
X013155Y009600D01*
X013104Y009563D01*
X013058Y009517D01*
X013020Y009466D01*
X012991Y009408D01*
X012975Y009359D01*
X012975Y009949D01*
X013096Y009949D01*
X013138Y009907D01*
X013288Y009844D01*
X013450Y009844D01*
X013600Y009907D01*
X013642Y009949D01*
X020259Y009949D01*
X020259Y012213D01*
X021777Y012213D01*
X021777Y011823D01*
X021731Y011869D01*
X021582Y011931D01*
X020904Y011931D01*
X020755Y011869D01*
X020640Y011754D01*
X020578Y011605D01*
X020578Y011443D01*
X020640Y011293D01*
X020755Y011178D01*
X020904Y011116D01*
X021582Y011116D01*
X021731Y011178D01*
X021777Y011224D01*
X021777Y010839D01*
X021766Y010850D01*
X021714Y010888D01*
X021657Y010917D01*
X021596Y010937D01*
X021533Y010947D01*
X021272Y010947D01*
X021272Y010568D01*
X021214Y010568D01*
X021214Y010511D01*
X020578Y010511D01*
X020578Y010507D01*
X020588Y010444D01*
X020608Y010383D01*
X020637Y010326D01*
X020675Y010274D01*
X020720Y010229D01*
X020772Y010191D01*
X020829Y010162D01*
X020890Y010142D01*
X020953Y010132D01*
X021214Y010132D01*
X021214Y010511D01*
X021272Y010511D01*
X021272Y010132D01*
X021533Y010132D01*
X021596Y010142D01*
X021657Y010162D01*
X021714Y010191D01*
X021766Y010229D01*
X021777Y010240D01*
X021777Y009855D01*
X021731Y009901D01*
X021582Y009963D01*
X020904Y009963D01*
X020755Y009901D01*
X020640Y009786D01*
X020578Y009636D01*
X020578Y009474D01*
X020640Y009324D01*
X020755Y009210D01*
X020904Y009148D01*
X021582Y009148D01*
X021731Y009210D01*
X021777Y009256D01*
X021777Y006898D01*
X013553Y006898D01*
X013551Y006903D02*
X021777Y006903D01*
X021777Y007001D02*
X013491Y007001D01*
X013252Y007100D02*
X021777Y007100D01*
X021777Y007198D02*
X013153Y007198D01*
X013076Y007297D02*
X021777Y007297D01*
X021777Y007395D02*
X013076Y007395D01*
X013076Y007494D02*
X021777Y007494D01*
X021777Y007592D02*
X013076Y007592D01*
X013076Y007691D02*
X021777Y007691D01*
X021777Y007789D02*
X013076Y007789D01*
X013076Y007888D02*
X013184Y007888D01*
X013554Y007888D02*
X021777Y007888D01*
X021777Y007986D02*
X013679Y007986D01*
X013741Y008085D02*
X021777Y008085D01*
X021777Y008183D02*
X013776Y008183D01*
X013776Y008282D02*
X021777Y008282D01*
X021777Y008380D02*
X013757Y008380D01*
X013716Y008479D02*
X021777Y008479D01*
X021777Y008577D02*
X013620Y008577D01*
X013373Y008676D02*
X021777Y008676D01*
X021777Y008774D02*
X013354Y008774D01*
X013398Y008844D02*
X013401Y008844D01*
X013464Y008855D01*
X013525Y008874D01*
X013583Y008903D01*
X013634Y008941D01*
X013680Y008987D01*
X013717Y009038D01*
X013747Y009096D01*
X013766Y009157D01*
X013776Y009220D01*
X013776Y009223D01*
X013398Y009223D01*
X013398Y008844D01*
X013398Y008873D02*
X013340Y008873D01*
X013340Y008971D02*
X013398Y008971D01*
X013398Y009070D02*
X013340Y009070D01*
X013340Y009168D02*
X013398Y009168D01*
X013398Y009267D02*
X020698Y009267D01*
X020623Y009365D02*
X013761Y009365D01*
X013766Y009347D02*
X013747Y009408D01*
X013717Y009466D01*
X013680Y009517D01*
X013634Y009563D01*
X013583Y009600D01*
X013525Y009630D01*
X013464Y009649D01*
X013401Y009659D01*
X013398Y009659D01*
X013398Y009281D01*
X013776Y009281D01*
X013776Y009284D01*
X013766Y009347D01*
X013719Y009464D02*
X020582Y009464D01*
X020578Y009562D02*
X013635Y009562D01*
X013398Y009562D02*
X013340Y009562D01*
X013340Y009464D02*
X013398Y009464D01*
X013398Y009365D02*
X013340Y009365D01*
X013103Y009562D02*
X012975Y009562D01*
X012975Y009464D02*
X013019Y009464D01*
X012977Y009365D02*
X012975Y009365D01*
X012975Y009661D02*
X020588Y009661D01*
X020629Y009759D02*
X012975Y009759D01*
X012975Y009858D02*
X013256Y009858D01*
X013481Y009858D02*
X020712Y009858D01*
X020889Y009956D02*
X020259Y009956D01*
X020259Y010055D02*
X021777Y010055D01*
X021777Y010153D02*
X021630Y010153D01*
X021597Y009956D02*
X021777Y009956D01*
X021774Y009858D02*
X021777Y009858D01*
X021272Y010153D02*
X021214Y010153D01*
X021214Y010252D02*
X021272Y010252D01*
X021272Y010350D02*
X021214Y010350D01*
X021214Y010449D02*
X021272Y010449D01*
X021214Y010547D02*
X020259Y010547D01*
X020259Y010449D02*
X020587Y010449D01*
X020625Y010350D02*
X020259Y010350D01*
X020259Y010252D02*
X020697Y010252D01*
X020856Y010153D02*
X020259Y010153D01*
X020578Y010568D02*
X021214Y010568D01*
X021214Y010947D01*
X020953Y010947D01*
X020890Y010937D01*
X020829Y010917D01*
X020772Y010888D01*
X020720Y010850D01*
X020675Y010805D01*
X020637Y010753D01*
X020608Y010696D01*
X020588Y010635D01*
X020578Y010571D01*
X020578Y010568D01*
X020592Y010646D02*
X020259Y010646D01*
X020259Y010744D02*
X020632Y010744D01*
X020712Y010843D02*
X020259Y010843D01*
X020259Y010941D02*
X020917Y010941D01*
X020852Y011138D02*
X020259Y011138D01*
X020259Y011040D02*
X021777Y011040D01*
X021777Y011138D02*
X021634Y011138D01*
X021569Y010941D02*
X021777Y010941D01*
X021774Y010843D02*
X021777Y010843D01*
X021272Y010843D02*
X021214Y010843D01*
X021214Y010941D02*
X021272Y010941D01*
X021272Y010744D02*
X021214Y010744D01*
X021214Y010646D02*
X021272Y010646D01*
X020696Y011237D02*
X020259Y011237D01*
X020259Y011335D02*
X020623Y011335D01*
X020582Y011434D02*
X020259Y011434D01*
X020259Y011532D02*
X020578Y011532D01*
X020589Y011631D02*
X020259Y011631D01*
X020259Y011729D02*
X020630Y011729D01*
X020713Y011828D02*
X020259Y011828D01*
X020259Y011926D02*
X020892Y011926D01*
X020259Y012025D02*
X021777Y012025D01*
X021777Y012123D02*
X020259Y012123D01*
X021594Y011926D02*
X021777Y011926D01*
X021773Y011828D02*
X021777Y011828D01*
X021777Y012409D02*
X013750Y012409D01*
X013766Y012448D01*
X013766Y012567D01*
X013721Y012677D01*
X013637Y012761D01*
X013527Y012807D01*
X013408Y012807D01*
X013373Y012792D01*
X013373Y012863D01*
X013327Y012972D01*
X013243Y013057D01*
X013133Y013102D01*
X013014Y013102D01*
X012904Y013057D01*
X012877Y013029D01*
X012877Y015756D01*
X019963Y015756D01*
X019963Y016937D01*
X020705Y016937D01*
X020640Y016873D01*
X020578Y016723D01*
X020578Y016561D01*
X020640Y016411D01*
X020755Y016296D01*
X020904Y016234D01*
X021582Y016234D01*
X021731Y016296D01*
X021777Y016342D01*
X021777Y015957D01*
X021766Y015968D01*
X021714Y016006D01*
X021657Y016035D01*
X021596Y016055D01*
X021533Y016065D01*
X021272Y016065D01*
X021272Y015686D01*
X021214Y015686D01*
X021214Y015629D01*
X020578Y015629D01*
X020578Y015625D01*
X020588Y015562D01*
X020608Y015501D01*
X020637Y015444D01*
X020675Y015392D01*
X020720Y015347D01*
X020772Y015309D01*
X020829Y015280D01*
X020890Y015260D01*
X020953Y015250D01*
X021214Y015250D01*
X021214Y015629D01*
X021272Y015629D01*
X021272Y015250D01*
X021533Y015250D01*
X021596Y015260D01*
X021657Y015280D01*
X021714Y015309D01*
X021766Y015347D01*
X021777Y015358D01*
X021777Y014973D01*
X021731Y015019D01*
X021582Y015081D01*
X020904Y015081D01*
X020755Y015019D01*
X020640Y014904D01*
X020578Y014754D01*
X020578Y014592D01*
X020640Y014442D01*
X020755Y014328D01*
X020904Y014266D01*
X021582Y014266D01*
X021731Y014328D01*
X021777Y014374D01*
X021777Y012409D01*
X021777Y012419D02*
X013754Y012419D01*
X013766Y012517D02*
X021777Y012517D01*
X021777Y012616D02*
X013746Y012616D01*
X013684Y012714D02*
X021777Y012714D01*
X021777Y012813D02*
X013373Y012813D01*
X013353Y012911D02*
X021777Y012911D01*
X021777Y013010D02*
X013290Y013010D01*
X012877Y013108D02*
X021777Y013108D01*
X021777Y013207D02*
X012877Y013207D01*
X012877Y013305D02*
X021777Y013305D01*
X021777Y013404D02*
X012877Y013404D01*
X012877Y013502D02*
X021777Y013502D01*
X021777Y013601D02*
X012877Y013601D01*
X012877Y013699D02*
X021777Y013699D01*
X021777Y013798D02*
X012877Y013798D01*
X012877Y013896D02*
X013173Y013896D01*
X013138Y013910D02*
X013288Y013848D01*
X013450Y013848D01*
X013600Y013910D01*
X013714Y014025D01*
X013776Y014175D01*
X013776Y014337D01*
X013714Y014487D01*
X020622Y014487D01*
X020581Y014586D02*
X013616Y014586D01*
X013600Y014601D02*
X013450Y014663D01*
X013288Y014663D01*
X013138Y014601D01*
X013024Y014487D01*
X012877Y014487D01*
X012877Y014389D02*
X012983Y014389D01*
X012961Y014337D02*
X013024Y014487D01*
X013122Y014586D02*
X012877Y014586D01*
X012877Y014684D02*
X020578Y014684D01*
X020590Y014783D02*
X012877Y014783D01*
X012877Y014881D02*
X013207Y014881D01*
X013213Y014878D02*
X013274Y014858D01*
X013337Y014848D01*
X013340Y014848D01*
X013340Y015227D01*
X012961Y015227D01*
X012961Y015224D01*
X012972Y015160D01*
X012991Y015099D01*
X013020Y015042D01*
X013058Y014990D01*
X013104Y014945D01*
X013155Y014907D01*
X013213Y014878D01*
X013340Y014881D02*
X013398Y014881D01*
X013398Y014848D02*
X013401Y014848D01*
X013464Y014858D01*
X013525Y014878D01*
X013583Y014907D01*
X013634Y014945D01*
X013680Y014990D01*
X013717Y015042D01*
X013747Y015099D01*
X013766Y015160D01*
X013776Y015224D01*
X013776Y015227D01*
X013398Y015227D01*
X013398Y015285D01*
X013340Y015285D01*
X013340Y015663D01*
X013337Y015663D01*
X013274Y015653D01*
X013213Y015634D01*
X013155Y015604D01*
X013104Y015567D01*
X013058Y015521D01*
X013020Y015469D01*
X012991Y015412D01*
X012972Y015351D01*
X012961Y015288D01*
X012961Y015285D01*
X013340Y015285D01*
X013340Y015227D01*
X013398Y015227D01*
X013398Y014848D01*
X013398Y014980D02*
X013340Y014980D01*
X013340Y015078D02*
X013398Y015078D01*
X013398Y015177D02*
X013340Y015177D01*
X013340Y015275D02*
X012877Y015275D01*
X012877Y015177D02*
X012969Y015177D01*
X013002Y015078D02*
X012877Y015078D01*
X012877Y014980D02*
X013069Y014980D01*
X013398Y015275D02*
X020844Y015275D01*
X020693Y015374D02*
X013759Y015374D01*
X013766Y015351D02*
X013747Y015412D01*
X013717Y015469D01*
X013680Y015521D01*
X013634Y015567D01*
X013583Y015604D01*
X013525Y015634D01*
X013464Y015653D01*
X013401Y015663D01*
X013398Y015663D01*
X013398Y015285D01*
X013776Y015285D01*
X013776Y015288D01*
X013766Y015351D01*
X013716Y015472D02*
X020623Y015472D01*
X020587Y015571D02*
X013629Y015571D01*
X013398Y015571D02*
X013340Y015571D01*
X013340Y015472D02*
X013398Y015472D01*
X013398Y015374D02*
X013340Y015374D01*
X013109Y015571D02*
X012877Y015571D01*
X012877Y015669D02*
X021214Y015669D01*
X021214Y015686D02*
X020578Y015686D01*
X020578Y015690D01*
X020588Y015753D01*
X020608Y015814D01*
X020637Y015871D01*
X020675Y015923D01*
X020720Y015968D01*
X020772Y016006D01*
X020829Y016035D01*
X020890Y016055D01*
X020953Y016065D01*
X021214Y016065D01*
X021214Y015686D01*
X021214Y015768D02*
X021272Y015768D01*
X021272Y015866D02*
X021214Y015866D01*
X021214Y015965D02*
X021272Y015965D01*
X021272Y016063D02*
X021214Y016063D01*
X020941Y016063D02*
X019963Y016063D01*
X019963Y015965D02*
X020716Y015965D01*
X020634Y015866D02*
X019963Y015866D01*
X019963Y015768D02*
X020593Y015768D01*
X020842Y016260D02*
X019963Y016260D01*
X019963Y016162D02*
X021777Y016162D01*
X021777Y016260D02*
X021644Y016260D01*
X021545Y016063D02*
X021777Y016063D01*
X021770Y015965D02*
X021777Y015965D01*
X021272Y015571D02*
X021214Y015571D01*
X021214Y015472D02*
X021272Y015472D01*
X021272Y015374D02*
X021214Y015374D01*
X021214Y015275D02*
X021272Y015275D01*
X021588Y015078D02*
X021777Y015078D01*
X021770Y014980D02*
X021777Y014980D01*
X021777Y015177D02*
X013769Y015177D01*
X013736Y015078D02*
X020898Y015078D01*
X020716Y014980D02*
X013669Y014980D01*
X013531Y014881D02*
X020631Y014881D01*
X020694Y014389D02*
X013755Y014389D01*
X013776Y014290D02*
X020846Y014290D01*
X021640Y014290D02*
X021777Y014290D01*
X021777Y014192D02*
X013776Y014192D01*
X013743Y014093D02*
X021777Y014093D01*
X021777Y013995D02*
X013684Y013995D01*
X013565Y013896D02*
X021777Y013896D01*
X021777Y015275D02*
X021642Y015275D01*
X020692Y016359D02*
X019963Y016359D01*
X019963Y016457D02*
X020621Y016457D01*
X020580Y016556D02*
X019963Y016556D01*
X019963Y016654D02*
X020578Y016654D01*
X020590Y016753D02*
X019963Y016753D01*
X019963Y016851D02*
X020631Y016851D01*
X020855Y009168D02*
X013768Y009168D01*
X013733Y009070D02*
X021777Y009070D01*
X021777Y009168D02*
X021631Y009168D01*
X021777Y008971D02*
X013664Y008971D01*
X013520Y008873D02*
X021777Y008873D01*
X021777Y006607D02*
X021604Y006607D01*
X021777Y006509D02*
X021777Y006509D01*
X021777Y005819D02*
X021625Y005819D01*
X021777Y005721D02*
X020062Y005721D01*
X020062Y005819D02*
X020861Y005819D01*
X020700Y005918D02*
X020062Y005918D01*
X020062Y006016D02*
X020624Y006016D01*
X020583Y006115D02*
X020062Y006115D01*
X020062Y006213D02*
X020578Y006213D01*
X020587Y006312D02*
X020062Y006312D01*
X020062Y006410D02*
X020628Y006410D01*
X020709Y006509D02*
X020062Y006509D01*
X020062Y006607D02*
X020882Y006607D01*
X020953Y005632D02*
X020890Y005622D01*
X020829Y005602D01*
X020772Y005573D01*
X020720Y005535D01*
X020675Y005490D01*
X020637Y005438D01*
X020608Y005381D01*
X020588Y005320D01*
X020578Y005256D01*
X020578Y005253D01*
X021214Y005253D01*
X021214Y005632D01*
X020953Y005632D01*
X020891Y005622D02*
X020062Y005622D01*
X020062Y005524D02*
X020708Y005524D01*
X020630Y005425D02*
X020062Y005425D01*
X020062Y005327D02*
X020590Y005327D01*
X020588Y005130D02*
X020062Y005130D01*
X020062Y005228D02*
X021214Y005228D01*
X021214Y005130D02*
X021272Y005130D01*
X021272Y005031D02*
X021214Y005031D01*
X021214Y004933D02*
X021272Y004933D01*
X021272Y004834D02*
X021214Y004834D01*
X021214Y005327D02*
X021272Y005327D01*
X021272Y005425D02*
X021214Y005425D01*
X021214Y005524D02*
X021272Y005524D01*
X021272Y005622D02*
X021214Y005622D01*
X021595Y005622D02*
X021777Y005622D01*
X021777Y004834D02*
X021618Y004834D01*
X021777Y004736D02*
X020062Y004736D01*
X020062Y004834D02*
X020868Y004834D01*
X020701Y004933D02*
X020062Y004933D01*
X020062Y005031D02*
X020627Y005031D01*
X020879Y004637D02*
X020062Y004637D01*
X020062Y004539D02*
X020708Y004539D01*
X020627Y004440D02*
X020062Y004440D01*
X020062Y004342D02*
X020586Y004342D01*
X020578Y004243D02*
X020062Y004243D01*
X020062Y004145D02*
X020584Y004145D01*
X020625Y004046D02*
X020062Y004046D01*
X020062Y003948D02*
X020702Y003948D01*
X020865Y003849D02*
X020062Y003849D01*
X021607Y004637D02*
X021777Y004637D01*
X013714Y014487D02*
X013600Y014601D01*
X012961Y014337D02*
X012961Y014175D01*
X013024Y014025D01*
X013138Y013910D01*
X013054Y013995D02*
X012877Y013995D01*
X012877Y014093D02*
X012995Y014093D01*
X012961Y014192D02*
X012877Y014192D01*
X012877Y014290D02*
X012961Y014290D01*
X012979Y015374D02*
X012877Y015374D01*
X012877Y015472D02*
X013022Y015472D01*
X002936Y015461D02*
X002837Y015362D01*
X002837Y012114D01*
X002641Y011917D01*
X002641Y011819D01*
X002641Y010933D01*
X002936Y015461D02*
X002936Y017035D01*
X002641Y017331D01*
X002444Y017331D01*
M02*
