G75*
%MOIN*%
%OFA0B0*%
%FSLAX24Y24*%
%IPPOS*%
%LPD*%
%AMOC8*
5,1,8,0,0,1.08239X$1,22.5*
%
%ADD10R,0.0682X0.0682*%
%ADD11C,0.0682*%
%ADD12C,0.1261*%
%ADD13C,0.0595*%
%ADD14C,0.0595*%
%ADD15OC8,0.0680*%
%ADD16C,0.0680*%
%ADD17C,0.0378*%
D10*
X006479Y004858D03*
D11*
X006479Y006039D03*
X005298Y006039D03*
X005298Y004858D03*
D12*
X001558Y001878D03*
X005889Y003157D03*
X001558Y024713D03*
X020849Y024713D03*
X020849Y001878D03*
D13*
X020986Y004240D02*
X021500Y004240D01*
X021500Y005224D02*
X020986Y005224D01*
X020986Y006209D02*
X021500Y006209D01*
X021500Y009555D02*
X020986Y009555D01*
X020986Y010539D02*
X021500Y010539D01*
X021500Y011524D02*
X020986Y011524D01*
X020986Y014673D02*
X021500Y014673D01*
X021500Y015657D02*
X020986Y015657D01*
X020986Y016642D02*
X021500Y016642D01*
X021500Y019791D02*
X020986Y019791D01*
X020986Y020776D02*
X021500Y020776D01*
X021500Y021760D02*
X020986Y021760D01*
D14*
X013369Y022260D03*
X013369Y023260D03*
X013369Y021260D03*
X013369Y020260D03*
X013369Y017256D03*
X013369Y016256D03*
X013369Y015256D03*
X013369Y014256D03*
X013369Y011252D03*
X013369Y010252D03*
X013369Y009252D03*
X013369Y008252D03*
X013369Y005445D03*
X013369Y004445D03*
X013369Y003445D03*
X013369Y002445D03*
D15*
X002058Y003795D03*
X002058Y004795D03*
X002058Y005795D03*
X002058Y006795D03*
X002058Y007795D03*
X002058Y008795D03*
X002058Y009795D03*
X002058Y010795D03*
X002058Y011795D03*
X002058Y012795D03*
X002058Y013795D03*
X002058Y014795D03*
X002058Y015795D03*
X002058Y016795D03*
X002058Y017795D03*
X002058Y018795D03*
X002058Y019795D03*
X002058Y020795D03*
X002058Y021795D03*
X002058Y022795D03*
X001058Y022795D03*
X001058Y021795D03*
X001058Y020795D03*
X001058Y019795D03*
X001058Y018795D03*
X001058Y017795D03*
X001058Y016795D03*
X001058Y015795D03*
X001058Y014795D03*
X001058Y013795D03*
X001058Y012795D03*
X001058Y011795D03*
X001058Y010795D03*
X001058Y009795D03*
X001058Y008795D03*
X001058Y007795D03*
X001058Y006795D03*
X001058Y005795D03*
X001058Y004795D03*
X001058Y003795D03*
D16*
X004511Y024713D03*
X005298Y024713D03*
X006086Y024713D03*
X006873Y024713D03*
X007660Y024713D03*
X008448Y024713D03*
X009235Y024713D03*
X010023Y024713D03*
X010810Y024713D03*
X011597Y024713D03*
X011597Y033374D03*
X010810Y033374D03*
X010023Y033374D03*
X009235Y033374D03*
X008448Y033374D03*
X007660Y033374D03*
X006873Y033374D03*
X006086Y033374D03*
X005298Y033374D03*
X004511Y033374D03*
D17*
X009530Y023630D03*
X008152Y022843D03*
X007857Y022547D03*
X007463Y023039D03*
X008546Y021268D03*
X009432Y020776D03*
X010711Y020776D03*
X010711Y021268D03*
X011794Y020972D03*
X011696Y022744D03*
X014649Y022252D03*
X014649Y021268D03*
X014845Y018709D03*
X013467Y018413D03*
X014747Y016248D03*
X014845Y014969D03*
X013467Y012508D03*
X013074Y012803D03*
X011794Y013787D03*
X010416Y013689D03*
X010023Y013394D03*
X010416Y011917D03*
X010121Y011622D03*
X010908Y011917D03*
X009432Y011130D03*
X008940Y011819D03*
X008645Y012114D03*
X008349Y011819D03*
X007956Y011819D03*
X007365Y009949D03*
X006086Y011031D03*
X005141Y012272D03*
X004904Y010539D03*
X003723Y011524D03*
X003428Y011917D03*
X003625Y012311D03*
X003428Y012705D03*
X003625Y013098D03*
X002542Y012213D03*
X002641Y010933D03*
X004117Y008768D03*
X007857Y007193D03*
X008546Y006012D03*
X010416Y008866D03*
X011893Y008866D03*
X011893Y009358D03*
X013074Y008669D03*
X013271Y006799D03*
X014747Y008866D03*
X014747Y010638D03*
X016519Y008571D03*
X019176Y009654D03*
X016617Y014181D03*
X019176Y015264D03*
X016715Y020185D03*
X018290Y021760D03*
X011893Y018413D03*
X011893Y017921D03*
X010416Y018020D03*
X008940Y018118D03*
X008645Y018709D03*
X008349Y018413D03*
X007857Y018413D03*
X007463Y019004D03*
X005987Y020185D03*
X005200Y019890D03*
X005200Y021071D03*
X003526Y021169D03*
X003231Y021563D03*
X003526Y021957D03*
X003231Y022350D03*
X003526Y022744D03*
X004412Y018413D03*
X004117Y015756D03*
X004117Y014575D03*
X002641Y016740D03*
X002444Y017331D03*
X007660Y014083D03*
X008349Y015461D03*
X008645Y015165D03*
X008940Y014772D03*
X007857Y016740D03*
X011400Y005815D03*
X014649Y004634D03*
X014649Y003059D03*
X016420Y002961D03*
X018979Y003650D03*
M02*
