%
M48
M72
T01C0.0138
T02C0.0315
T03C0.0400
T04C0.0402
T05C0.1181
%
T01
X4117Y8768
X4904Y10539
X6086Y11031
X5141Y12272
X3723Y11524
X3428Y11917
X3625Y12311
X3428Y12705
X3625Y13098
X2542Y12213
X2641Y10933
X4117Y14575
X4117Y15756
X2641Y16740
X2444Y17331
X4412Y18413
X5200Y19890
X5200Y21071
X5987Y20185
X7463Y19004
X7857Y18413
X8349Y18413
X8645Y18709
X8940Y18118
X7857Y16740
X8349Y15461
X8645Y15165
X8940Y14772
X10023Y13394
X10416Y13689
X11794Y13787
X13074Y12803
X13467Y12508
X14747Y10638
X14747Y8866
X13271Y6799
X13074Y8669
X11893Y8866
X11893Y9358
X10416Y8866
X9432Y11130
X8940Y11819
X8645Y12114
X8349Y11819
X7956Y11819
X7365Y9949
X7857Y7193
X8546Y6012
X11400Y5815
X14649Y4634
X14649Y3059
X16420Y2961
X18979Y3650
X16519Y8571
X19176Y9654
X16617Y14181
X14845Y14969
X14747Y16248
X13467Y18413
X14845Y18709
X16715Y20185
X18290Y21760
X14649Y22252
X14649Y21268
X11893Y18413
X11893Y17921
X10416Y18020
X10711Y20776
X10711Y21268
X11794Y20972
X11696Y22744
X9530Y23630
X8152Y22843
X7857Y22547
X7463Y23039
X8546Y21268
X9432Y20776
X7660Y14083
X10121Y11622
X10416Y11917
X10908Y11917
X3526Y21169
X3231Y21563
X3526Y21957
X3231Y22350
X3526Y22744
X19176Y15264
T02
X21243Y15657
X21243Y14673
X21243Y16642
X21243Y19791
X21243Y20776
X21243Y21760
X21243Y11524
X21243Y10539
X21243Y9555
X21243Y6209
X21243Y5224
X21243Y4240
X13369Y4445
X13369Y5445
X13369Y3445
X13369Y2445
X13369Y8252
X13369Y9252
X13369Y10252
X13369Y11252
X13369Y14256
X13369Y15256
X13369Y16256
X13369Y17256
X13369Y20260
X13369Y21260
X13369Y22260
X13369Y23260
X11597Y24713
X10810Y24713
X10023Y24713
X9235Y24713
X8448Y24713
X7660Y24713
X6873Y24713
X6086Y24713
X5298Y24713
X4511Y24713
X4511Y33374
X5298Y33374
X6086Y33374
X6873Y33374
X7660Y33374
X8448Y33374
X9235Y33374
X10023Y33374
X10810Y33374
X11597Y33374
T03
X2058Y22795
X2058Y21795
X2058Y20795
X2058Y19795
X2058Y18795
X2058Y17795
X2058Y16795
X2058Y15795
X2058Y14795
X2058Y13795
X2058Y12795
X2058Y11795
X2058Y10795
X2058Y9795
X2058Y8795
X2058Y7795
X2058Y6795
X2058Y5795
X2058Y4795
X2058Y3795
X1058Y3795
X1058Y4795
X1058Y5795
X1058Y6795
X1058Y7795
X1058Y8795
X1058Y9795
X1058Y10795
X1058Y11795
X1058Y12795
X1058Y13795
X1058Y14795
X1058Y15795
X1058Y16795
X1058Y17795
X1058Y18795
X1058Y19795
X1058Y20795
X1058Y21795
X1058Y22795
T04
X5298Y6039
X5298Y4858
X6479Y4858
X6479Y6039
T05
X1558Y1878
X5889Y3157
X1558Y24713
X20849Y24713
X20849Y1878
M30
